<svg xmlns="http://www.w3.org/2000/svg" xmlns:xlink="http://www.w3.org/1999/xlink" width="1024" zoomAndPan="magnify" viewBox="0 0 768 775.92" height="1024" preserveAspectRatio="xMidYMid meet" version="1.0"><defs><clipPath id="04524e548a"><path d="M 0.0390625 0 L 767.960938 0 L 767.960938 767.921875 L 0.0390625 767.921875 Z M 0.0390625 0 " clip-rule="nonzero"/></clipPath><clipPath id="83973d7c5c"><path d="M 0.0390625 458 L 764 458 L 764 553 L 0.0390625 553 Z M 0.0390625 458 " clip-rule="nonzero"/></clipPath></defs><g clip-path="url(#04524e548a)"><path fill="#ffffff" d="M 0.0390625 0 L 767.960938 0 L 767.960938 767.921875 L 0.0390625 767.921875 Z M 0.0390625 0 " fill-opacity="1" fill-rule="nonzero"/><path fill="#ffffff" d="M 0.0390625 0 L 767.960938 0 L 767.960938 767.921875 L 0.0390625 767.921875 Z M 0.0390625 0 " fill-opacity="1" fill-rule="nonzero"/></g><g clip-path="url(#83973d7c5c)"><path fill="#1b1918" d="M 33.105469 485.726562 C 36.230469 485.726562 39.226562 486.117188 42.09375 486.898438 C 44.960938 487.679688 47.695312 488.71875 50.300781 490.152344 C 52.90625 491.585938 55.25 493.28125 57.335938 495.363281 C 59.289062 497.320312 60.984375 499.664062 62.285156 502.136719 C 63.585938 504.742188 64.628906 507.476562 65.28125 510.472656 C 65.933594 513.339844 66.324219 516.335938 66.324219 519.460938 C 66.324219 523.890625 65.671875 528.058594 64.367188 531.835938 C 63.066406 535.742188 61.242188 539.128906 58.765625 541.992188 C 55.640625 545.640625 51.996094 548.378906 47.824219 550.070312 C 43.523438 551.894531 38.707031 552.675781 33.367188 552.675781 C 28.027344 552.675781 23.335938 551.894531 19.296875 550.332031 C 15.128906 548.769531 11.742188 546.292969 8.746094 543.039062 C 5.878906 539.652344 3.796875 536.003906 2.363281 532.226562 C 0.929688 528.320312 0.148438 524.152344 0.148438 519.722656 C 0.148438 515.160156 0.929688 510.863281 2.363281 506.953125 C 3.925781 503.046875 6.140625 499.402344 9.007812 495.882812 C 12.003906 492.628906 15.519531 490.152344 19.425781 488.328125 C 23.464844 486.636719 28.027344 485.855469 33.105469 485.855469 Z M 33.367188 490.542969 C 32.0625 490.671875 30.890625 490.933594 29.71875 491.324219 C 28.675781 491.714844 27.632812 492.367188 26.722656 493.28125 C 25.808594 494.191406 25.027344 495.363281 24.507812 497.1875 C 23.984375 498.882812 23.464844 500.964844 23.207031 503.570312 C 22.816406 506.179688 22.683594 509.171875 22.554688 512.6875 C 22.292969 516.207031 22.292969 520.371094 22.292969 524.933594 C 22.292969 527.40625 22.292969 529.75 22.554688 531.964844 C 22.683594 534.179688 22.945312 536.394531 23.335938 538.609375 C 23.597656 540.171875 24.117188 541.476562 24.636719 542.777344 C 25.160156 543.949219 25.941406 544.992188 26.851562 545.773438 C 27.765625 546.554688 28.804688 547.207031 29.847656 547.597656 C 30.890625 548.117188 31.933594 548.25 33.105469 548.25 C 34.277344 548.25 35.320312 548.117188 36.230469 547.855469 C 37.273438 547.597656 38.054688 547.207031 38.835938 546.554688 C 39.75 545.902344 40.53125 544.992188 41.183594 543.949219 C 41.832031 542.777344 42.355469 541.605469 42.613281 540.171875 C 43.136719 538.085938 43.523438 534.832031 43.789062 530.402344 C 44.050781 526.101562 44.179688 520.632812 44.179688 514.125 C 44.179688 510.34375 44.050781 507.085938 43.917969 504.484375 C 43.65625 501.875 43.394531 499.792969 42.875 498.359375 C 42.355469 496.925781 41.703125 495.757812 40.921875 494.582031 C 40.269531 493.539062 39.359375 492.757812 38.445312 492.105469 C 37.792969 491.585938 37.011719 491.195312 36.230469 491.066406 C 35.320312 490.804688 34.40625 490.675781 33.367188 490.675781 Z M 47.433594 458.242188 C 48.867188 458.242188 50.171875 458.503906 51.34375 458.894531 C 52.644531 459.417969 53.6875 460.066406 54.597656 460.972656 C 55.640625 461.886719 56.292969 462.800781 56.8125 463.84375 C 57.335938 464.886719 57.464844 466.058594 57.464844 467.359375 C 57.464844 468.53125 57.335938 469.707031 56.8125 470.746094 C 56.292969 471.785156 55.640625 472.832031 54.597656 473.742188 C 53.6875 474.652344 52.644531 475.304688 51.34375 475.695312 C 50.171875 476.214844 48.867188 476.347656 47.433594 476.347656 C 46.132812 476.347656 44.828125 476.214844 43.65625 475.695312 C 42.484375 475.304688 41.441406 474.652344 40.398438 473.742188 C 39.359375 472.832031 38.707031 471.785156 38.183594 470.746094 C 37.664062 469.707031 37.402344 468.53125 37.402344 467.359375 C 37.402344 466.058594 37.664062 464.886719 38.183594 463.84375 C 38.707031 462.800781 39.359375 461.886719 40.398438 460.972656 C 41.441406 460.066406 42.484375 459.417969 43.65625 458.894531 C 44.828125 458.503906 46.132812 458.371094 47.433594 458.371094 Z M 19.296875 458.242188 C 20.730469 458.242188 22.035156 458.503906 23.207031 458.894531 C 24.378906 459.417969 25.421875 460.066406 26.460938 460.972656 C 27.371094 461.886719 28.027344 462.800781 28.546875 463.84375 C 29.066406 464.886719 29.328125 466.058594 29.328125 467.359375 C 29.328125 468.53125 29.066406 469.707031 28.546875 470.746094 C 28.027344 471.785156 27.371094 472.832031 26.460938 473.742188 C 25.421875 474.652344 24.378906 475.304688 23.207031 475.695312 C 22.035156 476.214844 20.730469 476.347656 19.296875 476.347656 C 17.996094 476.347656 16.691406 476.214844 15.519531 475.695312 C 14.214844 475.304688 13.171875 474.652344 12.261719 473.742188 C 11.222656 472.832031 10.4375 471.785156 9.917969 470.746094 C 9.527344 469.707031 9.269531 468.53125 9.269531 467.359375 C 9.269531 466.058594 9.527344 464.886719 9.917969 463.84375 C 10.4375 462.800781 11.222656 461.886719 12.261719 460.972656 C 13.171875 460.066406 14.214844 459.417969 15.519531 458.894531 C 16.691406 458.503906 17.996094 458.371094 19.296875 458.371094 Z M 134.972656 550.851562 L 73.617188 550.851562 L 73.617188 549.550781 L 112.4375 491.714844 L 100.972656 491.714844 C 98.628906 491.84375 96.546875 491.976562 94.722656 492.238281 C 93.027344 492.367188 91.59375 492.628906 90.554688 493.019531 C 89.511719 493.410156 88.597656 493.929688 87.6875 494.582031 C 86.90625 495.234375 86.125 496.015625 85.339844 496.925781 C 84.691406 497.707031 84.039062 499.007812 83.386719 500.574219 C 82.734375 502.136719 82.085938 503.960938 81.304688 506.179688 L 78.699219 506.046875 L 78.699219 487.546875 L 138.097656 487.546875 L 138.097656 489.371094 L 99.539062 546.554688 L 104.359375 546.554688 C 109.179688 546.683594 113.347656 546.425781 116.867188 545.773438 C 120.382812 545.121094 123.25 544.207031 125.332031 543.039062 C 127.417969 541.738281 129.238281 539.910156 130.933594 537.695312 C 132.628906 535.480469 133.929688 532.746094 134.972656 529.359375 L 137.1875 529.230469 Z M 174.570312 487.546875 L 174.570312 495.757812 C 176.265625 494.191406 178.089844 492.628906 179.785156 491.324219 C 181.609375 490.023438 183.300781 489.113281 184.863281 488.328125 C 186.6875 487.417969 188.382812 486.898438 190.203125 486.375 C 191.898438 485.984375 193.722656 485.855469 195.546875 485.855469 C 197.890625 485.855469 200.105469 486.117188 202.058594 486.765625 C 203.882812 487.285156 205.578125 488.199219 207.007812 489.242188 C 208.570312 490.414062 209.875 491.714844 210.917969 493.148438 C 211.957031 494.582031 212.609375 496.144531 213 497.707031 C 213.523438 499.007812 213.78125 500.964844 214.042969 503.441406 C 214.175781 505.914062 214.304688 509.039062 214.304688 512.558594 L 214.304688 537.175781 C 214.304688 539.652344 214.433594 541.738281 214.695312 543.167969 C 214.957031 544.730469 215.347656 545.773438 215.867188 546.425781 C 216.386719 547.074219 217.039062 547.464844 218.082031 547.855469 C 218.996094 548.25 220.296875 548.507812 221.859375 548.636719 L 221.859375 550.851562 L 186.167969 550.851562 L 186.167969 548.507812 C 187.46875 548.507812 188.644531 548.25 189.683594 547.726562 C 190.59375 547.207031 191.378906 546.554688 192.03125 545.640625 C 192.289062 545.121094 192.550781 544.078125 192.8125 542.777344 C 192.941406 541.34375 193.070312 539.519531 193.070312 537.304688 L 193.070312 509.039062 C 193.070312 506.433594 193.070312 504.351562 192.941406 502.65625 C 192.8125 501.09375 192.679688 499.921875 192.550781 499.269531 C 192.289062 498.488281 192.03125 497.96875 191.507812 497.445312 C 191.117188 496.925781 190.726562 496.40625 190.203125 496.144531 C 189.683594 495.757812 189.03125 495.496094 188.511719 495.234375 C 187.859375 495.101562 187.207031 494.976562 186.558594 494.976562 C 184.472656 494.976562 182.390625 495.625 180.304688 497.058594 C 178.351562 498.488281 176.398438 500.574219 174.570312 503.3125 L 174.570312 537.175781 C 174.570312 539.519531 174.703125 541.605469 174.964844 543.039062 C 175.226562 544.601562 175.484375 545.640625 176.007812 546.292969 C 176.398438 546.945312 177.175781 547.464844 178.089844 547.855469 C 179 548.25 180.175781 548.507812 181.476562 548.636719 L 181.476562 550.851562 L 145.785156 550.851562 L 145.785156 548.507812 C 147.21875 548.507812 148.519531 548.25 149.5625 547.726562 C 150.472656 547.335938 151.386719 546.816406 152.167969 546.03125 C 152.558594 545.640625 152.820312 544.601562 153.078125 543.167969 C 153.207031 541.738281 153.339844 539.78125 153.339844 537.304688 L 153.339844 501.355469 C 153.339844 499.011719 153.207031 497.1875 152.949219 495.625 C 152.6875 494.191406 152.296875 493.148438 151.777344 492.628906 C 151.386719 491.976562 150.734375 491.457031 149.691406 491.066406 C 148.648438 490.675781 147.347656 490.414062 145.785156 490.28125 L 145.785156 487.546875 Z M 299.757812 487.546875 L 299.757812 537.175781 C 299.757812 539.652344 299.890625 541.738281 300.148438 543.167969 C 300.40625 544.730469 300.800781 545.773438 301.320312 546.425781 C 301.84375 547.074219 302.625 547.464844 303.667969 547.855469 C 304.707031 548.246094 305.878906 548.507812 307.3125 548.636719 L 307.3125 550.851562 L 278.65625 550.851562 L 278.65625 542.386719 C 276.960938 544.339844 275.265625 546.03125 273.703125 547.335938 C 272.011719 548.636719 270.316406 549.683594 268.625 550.464844 C 266.933594 551.113281 265.109375 551.632812 263.285156 552.152344 C 261.328125 552.546875 259.375 552.675781 257.292969 552.675781 C 255.339844 552.675781 253.382812 552.414062 251.691406 551.894531 C 249.867188 551.375 248.171875 550.589844 246.609375 549.683594 C 245.046875 548.636719 243.742188 547.464844 242.703125 546.164062 C 241.660156 544.859375 240.878906 543.558594 240.355469 541.992188 C 239.964844 540.5625 239.574219 538.480469 239.316406 536.003906 C 239.054688 533.398438 238.921875 530.273438 238.921875 526.625 L 238.921875 501.355469 C 238.921875 499.007812 238.792969 497.1875 238.535156 495.625 C 238.273438 494.191406 237.882812 493.148438 237.359375 492.628906 C 236.96875 491.976562 236.1875 491.457031 235.148438 491.066406 C 233.972656 490.671875 232.671875 490.414062 231.109375 490.28125 L 231.109375 487.546875 L 259.898438 487.546875 L 259.898438 530.925781 C 259.898438 533.269531 260.027344 535.222656 260.15625 536.65625 C 260.285156 538.085938 260.417969 539.128906 260.679688 539.78125 C 260.9375 540.433594 261.199219 541.082031 261.589844 541.605469 C 261.980469 541.992188 262.503906 542.386719 263.023438 542.777344 C 263.546875 543.039062 264.066406 543.429688 264.585938 543.558594 C 265.238281 543.6875 265.890625 543.820312 266.539062 543.820312 C 267.320312 543.820312 268.234375 543.6875 269.144531 543.429688 C 269.925781 543.300781 270.839844 542.90625 271.492188 542.386719 C 272.402344 541.867188 273.445312 540.957031 274.746094 539.78125 C 275.921875 538.609375 277.222656 537.175781 278.65625 535.355469 L 278.65625 501.355469 C 278.65625 499.007812 278.523438 497.1875 278.265625 495.625 C 278.132812 494.191406 277.742188 493.148438 277.222656 492.628906 C 276.832031 491.976562 276.050781 491.457031 275.007812 491.066406 C 273.835938 490.671875 272.53125 490.414062 270.96875 490.28125 L 270.96875 487.546875 Z M 346.914062 487.546875 L 346.914062 501.875 C 349.257812 498.75 351.472656 496.144531 353.558594 493.929688 C 355.511719 491.714844 357.464844 490.152344 359.15625 488.980469 C 360.851562 487.941406 362.675781 487.15625 364.367188 486.636719 C 366.0625 486.117188 367.757812 485.855469 369.320312 485.855469 C 370.75 485.855469 372.054688 485.984375 373.226562 486.375 C 374.398438 486.898438 375.308594 487.417969 376.222656 488.199219 C 377.003906 488.847656 377.65625 489.890625 378.046875 490.933594 C 378.4375 492.105469 378.695312 493.410156 378.695312 494.84375 C 378.695312 496.277344 378.4375 497.578125 378.046875 498.75 C 377.65625 499.921875 377.003906 500.964844 376.222656 501.875 C 375.441406 502.789062 374.527344 503.3125 373.488281 503.828125 C 372.574219 504.222656 371.40625 504.351562 370.363281 504.351562 C 368.929688 504.351562 367.757812 504.222656 366.582031 503.828125 C 365.414062 503.3125 364.367188 502.789062 363.328125 502.007812 C 362.285156 501.355469 361.503906 500.703125 360.980469 500.183594 C 360.460938 499.792969 360.203125 499.53125 359.941406 499.402344 C 359.679688 499.269531 359.289062 499.140625 359.027344 499.007812 L 358.117188 499.007812 C 357.335938 499.007812 356.683594 499.140625 356.03125 499.402344 C 355.378906 499.664062 354.730469 500.050781 354.078125 500.574219 C 353.035156 501.355469 352.125 502.265625 351.34375 503.441406 C 350.429688 504.609375 349.78125 505.785156 349.257812 507.214844 C 348.605469 509.429688 347.957031 511.648438 347.566406 514.121094 C 347.175781 516.464844 346.914062 518.9375 346.914062 521.675781 L 346.914062 539.78125 C 346.914062 541.214844 347.042969 542.257812 347.042969 543.167969 C 347.175781 543.949219 347.304688 544.601562 347.566406 544.992188 C 347.824219 545.640625 348.085938 546.164062 348.605469 546.554688 C 349 546.945312 349.519531 547.335938 350.171875 547.597656 C 350.824219 547.855469 351.601562 548.117188 352.648438 548.246094 C 353.558594 548.507812 354.730469 548.636719 356.160156 548.636719 L 356.160156 550.851562 L 317.996094 550.851562 L 317.996094 548.507812 C 319.558594 548.507812 320.859375 548.246094 321.902344 547.988281 C 322.945312 547.597656 323.726562 547.074219 324.246094 546.425781 C 324.769531 545.773438 325.160156 544.46875 325.417969 542.90625 C 325.8125 541.214844 325.941406 539 325.941406 536.265625 L 325.941406 501.09375 C 325.941406 499.269531 325.8125 497.839844 325.8125 496.796875 C 325.679688 495.625 325.550781 494.84375 325.289062 494.320312 C 325.160156 493.671875 324.769531 493.019531 324.507812 492.628906 C 324.117188 492.105469 323.597656 491.714844 323.074219 491.457031 C 322.683594 491.195312 322.035156 490.933594 321.25 490.671875 C 320.339844 490.542969 319.296875 490.28125 317.996094 490.28125 L 317.996094 487.546875 Z M 433.539062 459.023438 L 433.539062 519.59375 L 449.953125 505.132812 C 451.644531 503.703125 453.078125 502.527344 453.992188 501.484375 C 455.035156 500.3125 455.683594 499.53125 456.074219 498.882812 C 456.335938 498.617188 456.464844 498.488281 456.597656 498.226562 C 456.726562 497.96875 456.855469 497.839844 456.855469 497.578125 C 457.117188 497.1875 457.246094 496.664062 457.378906 496.277344 C 457.507812 495.882812 457.507812 495.496094 457.507812 495.101562 C 457.507812 494.453125 457.378906 493.929688 457.117188 493.410156 C 456.726562 492.890625 456.335938 492.367188 455.816406 492.105469 C 455.292969 491.585938 454.511719 491.195312 453.46875 490.933594 C 452.296875 490.671875 450.996094 490.414062 449.300781 490.28125 L 449.300781 487.546875 L 480.828125 487.546875 L 480.828125 490.152344 C 479.394531 490.28125 478.089844 490.542969 476.65625 490.933594 C 475.355469 491.195312 474.050781 491.585938 473.007812 492.238281 C 471.839844 492.757812 470.144531 493.929688 467.929688 495.625 C 465.714844 497.320312 462.980469 499.664062 459.722656 502.65625 L 451.90625 509.300781 L 468.710938 531.054688 C 471.96875 535.609375 474.574219 539.128906 476.65625 541.605469 C 478.609375 544.078125 479.914062 545.640625 480.566406 546.03125 C 481.347656 546.945312 482.386719 547.464844 483.429688 547.988281 C 484.472656 548.378906 485.777344 548.636719 487.078125 548.636719 L 487.078125 550.851562 L 450.605469 550.851562 L 450.605469 548.507812 C 451.386719 548.636719 452.035156 548.636719 452.6875 548.507812 C 453.210938 548.378906 453.730469 548.117188 454.121094 547.855469 C 454.511719 547.597656 454.773438 547.335938 455.035156 547.074219 C 455.164062 546.816406 455.164062 546.425781 455.164062 546.03125 C 455.164062 545.640625 454.902344 544.859375 454.382812 543.949219 C 453.859375 542.90625 453.078125 541.738281 451.90625 540.300781 L 438.097656 521.9375 L 433.539062 525.84375 L 433.539062 537.175781 C 433.539062 539.652344 433.667969 541.738281 433.929688 543.167969 C 434.1875 544.730469 434.582031 545.773438 435.101562 546.425781 C 435.625 547.074219 436.40625 547.464844 437.320312 547.855469 C 438.359375 548.246094 439.664062 548.507812 441.226562 548.636719 L 441.226562 550.851562 L 404.75 550.851562 L 404.75 548.507812 C 406.183594 548.507812 407.488281 548.246094 408.53125 547.726562 C 409.703125 547.335938 410.484375 546.816406 411.132812 546.03125 C 411.523438 545.640625 411.914062 544.601562 412.046875 543.167969 C 412.304688 541.738281 412.4375 539.78125 412.4375 537.304688 L 412.4375 472.957031 C 412.4375 470.613281 412.304688 468.664062 412.046875 467.230469 C 411.785156 465.667969 411.394531 464.621094 410.871094 463.972656 C 410.351562 463.453125 409.703125 462.929688 408.660156 462.539062 C 407.617188 462.148438 406.3125 461.886719 404.75 461.628906 L 404.75 459.023438 Z M 529.675781 541.605469 C 525.378906 545.121094 521.339844 547.726562 517.429688 549.289062 C 513.523438 550.984375 509.875 551.765625 506.488281 551.765625 C 504.535156 551.765625 502.710938 551.503906 501.144531 550.984375 C 499.453125 550.464844 497.890625 549.683594 496.457031 548.378906 C 495.152344 547.207031 494.113281 545.902344 493.460938 544.339844 C 492.808594 542.90625 492.417969 541.34375 492.417969 539.519531 C 492.417969 537.175781 493.070312 534.832031 494.242188 532.617188 C 495.414062 530.535156 497.109375 528.449219 499.453125 526.496094 C 501.796875 524.539062 505.445312 522.328125 510.523438 519.722656 C 515.605469 517.117188 521.988281 514.25 529.675781 511.125 L 529.675781 504.609375 C 529.675781 502.265625 529.675781 500.3125 529.542969 498.882812 C 529.285156 497.320312 529.152344 496.277344 528.894531 495.625 C 528.632812 494.972656 528.238281 494.453125 527.589844 493.800781 C 527.070312 493.28125 526.417969 492.757812 525.503906 492.367188 C 524.855469 491.84375 523.941406 491.585938 523.035156 491.324219 C 522.121094 491.0625 521.207031 490.933594 520.167969 490.933594 C 518.472656 490.933594 517.039062 491.066406 515.605469 491.457031 C 514.304688 491.714844 513.132812 492.238281 512.085938 493.019531 C 511.4375 493.410156 510.917969 493.800781 510.523438 494.320312 C 510.265625 494.714844 510.136719 495.234375 510.136719 495.757812 C 510.136719 496.277344 510.265625 496.796875 510.65625 497.320312 C 511.046875 497.839844 511.566406 498.488281 512.21875 499.269531 C 513.132812 500.183594 513.914062 501.09375 514.304688 502.136719 C 514.828125 503.046875 515.082031 504.09375 515.082031 505.003906 C 515.082031 506.046875 514.828125 507.085938 514.304688 508.128906 C 513.914062 509.039062 513.261719 509.953125 512.351562 510.601562 C 511.4375 511.386719 510.398438 512.035156 509.222656 512.429688 C 507.921875 512.816406 506.621094 513.078125 505.1875 513.078125 C 503.492188 513.078125 502.058594 512.816406 500.757812 512.296875 C 499.453125 511.90625 498.28125 511.253906 497.105469 510.34375 C 496.066406 509.5625 495.285156 508.648438 494.761719 507.609375 C 494.242188 506.566406 493.984375 505.523438 493.984375 504.351562 C 493.984375 502.789062 494.371094 501.09375 495.152344 499.53125 C 495.804688 497.96875 496.847656 496.40625 498.28125 494.972656 C 499.84375 493.539062 501.539062 492.238281 503.492188 491.0625 C 505.445312 490.023438 507.660156 488.980469 510.265625 488.199219 C 512.871094 487.417969 515.476562 486.898438 518.082031 486.375 C 520.816406 485.984375 523.554688 485.855469 526.289062 485.855469 C 529.675781 485.855469 532.542969 486.117188 535.277344 486.765625 C 537.882812 487.417969 540.09375 488.460938 542.050781 489.761719 C 544.132812 490.933594 545.828125 492.238281 547 493.539062 C 548.304688 494.972656 549.214844 496.40625 549.863281 497.96875 C 550.125 499.007812 550.386719 500.445312 550.519531 502.65625 C 550.648438 504.875 550.777344 507.609375 550.777344 511.125 L 550.777344 535.480469 C 550.777344 537.046875 550.777344 538.347656 550.90625 539.128906 C 551.039062 540.042969 551.167969 540.691406 551.167969 541.082031 C 551.300781 541.476562 551.429688 541.738281 551.691406 541.992188 C 551.949219 542.257812 552.082031 542.519531 552.339844 542.777344 C 552.472656 542.90625 552.730469 543.039062 553.121094 543.167969 C 553.386719 543.167969 553.644531 543.300781 554.035156 543.300781 C 554.554688 543.300781 555.207031 543.039062 555.988281 542.644531 C 556.640625 542.257812 557.292969 541.605469 558.070312 540.824219 L 560.289062 542.257812 C 559.113281 544.078125 557.8125 545.511719 556.511719 546.816406 C 555.207031 547.988281 553.902344 548.898438 552.472656 549.683594 C 551.167969 550.332031 549.738281 550.851562 548.171875 551.246094 C 546.742188 551.503906 545.046875 551.765625 543.351562 551.765625 C 541.398438 551.765625 539.574219 551.503906 538.011719 551.246094 C 536.449219 550.851562 535.015625 550.332031 533.84375 549.550781 C 532.800781 548.636719 531.890625 547.464844 531.109375 546.292969 C 530.457031 544.992188 529.933594 543.558594 529.675781 541.738281 Z M 529.675781 536.65625 L 529.675781 515.554688 C 526.675781 517.246094 523.941406 518.808594 521.730469 520.632812 C 519.386719 522.328125 517.558594 524.019531 516.128906 525.972656 C 515.605469 526.625 515.214844 527.144531 514.828125 527.796875 C 514.433594 528.449219 514.175781 528.96875 513.914062 529.492188 C 513.652344 530.140625 513.390625 530.792969 513.390625 531.445312 C 513.261719 531.964844 513.132812 532.617188 513.132812 533.269531 C 513.132812 534.441406 513.390625 535.355469 513.78125 536.394531 C 514.175781 537.304688 514.828125 538.085938 515.605469 538.871094 C 516.257812 539.519531 517.039062 539.910156 517.949219 540.171875 C 518.863281 540.5625 519.90625 540.691406 521.078125 540.691406 C 522.25 540.691406 523.683594 540.300781 525.117188 539.652344 C 526.550781 539 528.113281 538.085938 529.675781 536.785156 Z M 595.460938 459.023438 L 595.460938 494.0625 C 598.453125 491.324219 601.578125 489.242188 604.835938 487.941406 C 608.09375 486.507812 611.351562 485.855469 614.867188 485.855469 C 617.34375 485.855469 619.6875 486.117188 621.902344 486.765625 C 624.246094 487.417969 626.460938 488.460938 628.546875 489.761719 C 630.628906 490.933594 632.585938 492.367188 634.277344 494.191406 C 635.972656 496.015625 637.402344 498.101562 638.578125 500.574219 C 639.75 502.789062 640.789062 505.390625 641.3125 508.128906 C 641.964844 510.863281 642.226562 513.730469 642.226562 516.726562 C 642.226562 520.242188 641.964844 523.5 641.183594 526.625 C 640.402344 529.75 639.226562 532.746094 637.664062 535.609375 C 636.101562 538.480469 634.277344 540.957031 632.324219 543.167969 C 630.238281 545.25 627.894531 547.074219 625.289062 548.507812 C 622.683594 550.070312 619.949219 551.113281 617.082031 551.765625 C 614.214844 552.414062 611.089844 552.675781 607.835938 552.675781 C 605.882812 552.675781 604.054688 552.546875 602.367188 552.285156 C 600.671875 552.027344 599.105469 551.632812 597.542969 551.113281 C 596.632812 550.851562 595.589844 550.464844 594.546875 550.070312 C 593.632812 549.550781 592.59375 548.898438 591.683594 548.246094 C 591.160156 547.988281 590.769531 547.597656 590.246094 547.207031 C 589.726562 546.816406 589.335938 546.425781 588.816406 546.03125 L 577.09375 552.675781 L 574.617188 552.675781 L 574.617188 472.175781 C 574.617188 470.488281 574.484375 469.050781 574.355469 467.882812 C 574.355469 466.839844 574.09375 466.058594 573.964844 465.535156 C 573.703125 464.886719 573.445312 464.363281 573.054688 463.84375 C 572.664062 463.449219 572.140625 463.058594 571.621094 462.800781 C 571.101562 462.539062 570.449219 462.277344 569.40625 462.015625 C 568.492188 461.886719 567.453125 461.757812 566.019531 461.628906 L 566.019531 459.023438 Z M 595.460938 499.921875 L 595.460938 528.1875 C 595.460938 531.054688 595.460938 533.527344 595.589844 535.355469 C 595.71875 537.175781 595.847656 538.609375 595.847656 539.390625 C 596.109375 540.691406 596.5 541.867188 597.152344 542.90625 C 597.804688 543.949219 598.585938 544.992188 599.5 545.773438 C 600.539062 546.554688 601.578125 547.207031 602.753906 547.597656 C 603.929688 548.117188 605.359375 548.246094 606.921875 548.246094 C 608.09375 548.246094 609.265625 548.117188 610.4375 547.726562 C 611.613281 547.464844 612.523438 546.945312 613.304688 546.292969 C 614.347656 545.640625 615.128906 544.601562 615.910156 543.300781 C 616.691406 542.125 617.34375 540.5625 617.992188 538.609375 C 618.644531 536.65625 619.039062 533.917969 619.425781 530.402344 C 619.6875 526.882812 619.820312 522.589844 619.820312 517.507812 C 619.820312 512.558594 619.558594 508.390625 618.90625 505.132812 C 618.125 501.746094 617.210938 499.269531 615.777344 497.445312 C 614.867188 496.144531 613.695312 495.234375 612.390625 494.582031 C 611.089844 493.929688 609.65625 493.539062 607.964844 493.539062 C 605.75 493.539062 603.664062 494.191406 601.578125 495.234375 C 599.496094 496.40625 597.542969 497.96875 595.460938 500.050781 Z M 681.695312 459.023438 L 681.695312 537.828125 C 681.695312 540.171875 681.824219 541.992188 682.214844 543.429688 C 682.476562 544.859375 682.867188 545.902344 683.386719 546.554688 C 684.039062 547.207031 684.953125 547.597656 685.996094 547.988281 C 687.167969 548.378906 688.597656 548.636719 690.160156 548.636719 L 690.160156 550.851562 L 651.996094 550.851562 L 651.996094 548.507812 C 653.554688 548.636719 654.988281 548.507812 656.160156 548.117188 C 657.335938 547.597656 658.246094 547.074219 659.027344 546.164062 C 659.546875 545.773438 659.941406 544.859375 660.199219 543.429688 C 660.460938 541.992188 660.589844 540.171875 660.589844 537.957031 L 660.589844 472.175781 C 660.589844 470.09375 660.332031 468.269531 660.070312 466.96875 C 659.808594 465.535156 659.285156 464.492188 658.765625 463.84375 C 658.246094 463.191406 657.335938 462.667969 656.292969 462.410156 C 655.25 462.015625 653.816406 461.757812 651.996094 461.628906 L 651.996094 459.023438 Z M 730.28125 485.726562 C 733.28125 485.726562 736.144531 486.117188 739.011719 486.898438 C 742.007812 487.679688 744.742188 488.71875 747.21875 490.152344 C 749.953125 491.585938 752.296875 493.28125 754.253906 495.363281 C 756.335938 497.320312 758.03125 499.664062 759.332031 502.136719 C 760.765625 504.742188 761.808594 507.476562 762.460938 510.472656 C 763.109375 513.339844 763.5 516.335938 763.5 519.460938 C 763.5 523.890625 762.851562 528.058594 761.546875 531.835938 C 760.242188 535.742188 758.421875 539.128906 755.945312 541.992188 C 752.820312 545.640625 749.171875 548.378906 745.003906 550.070312 C 740.703125 551.894531 735.882812 552.675781 730.414062 552.675781 C 725.074219 552.675781 720.382812 551.894531 716.214844 550.332031 C 712.175781 548.769531 708.660156 546.292969 705.792969 543.039062 C 702.929688 539.652344 700.84375 536.003906 699.410156 532.226562 C 697.976562 528.320312 697.324219 524.152344 697.324219 519.722656 C 697.324219 515.160156 698.109375 510.863281 699.539062 506.953125 C 701.105469 503.046875 703.320312 499.398438 706.183594 495.882812 C 709.050781 492.628906 712.4375 490.152344 716.472656 488.328125 C 720.511719 486.636719 725.074219 485.855469 730.28125 485.855469 Z M 730.414062 490.542969 C 729.242188 490.671875 728.066406 490.933594 726.898438 491.324219 C 725.855469 491.714844 724.8125 492.367188 723.898438 493.28125 C 722.988281 494.191406 722.207031 495.363281 721.558594 497.1875 C 721.035156 498.882812 720.511719 500.964844 720.253906 503.570312 C 719.996094 506.179688 719.863281 509.171875 719.730469 512.6875 C 719.46875 516.207031 719.46875 520.371094 719.46875 524.933594 C 719.46875 527.40625 719.46875 529.75 719.730469 531.964844 C 719.863281 534.179688 720.121094 536.394531 720.511719 538.609375 C 720.773438 540.171875 721.164062 541.476562 721.816406 542.777344 C 722.335938 543.949219 723.117188 544.992188 723.898438 545.773438 C 724.8125 546.554688 725.855469 547.207031 726.898438 547.597656 C 728.066406 548.117188 729.109375 548.246094 730.28125 548.246094 C 731.457031 548.246094 732.367188 548.117188 733.410156 547.855469 C 734.320312 547.597656 735.101562 547.207031 735.882812 546.554688 C 736.796875 545.902344 737.578125 544.992188 738.230469 543.949219 C 738.882812 542.777344 739.402344 541.605469 739.792969 540.171875 C 740.3125 538.085938 740.707031 534.832031 740.964844 530.402344 C 741.09375 526.101562 741.226562 520.632812 741.226562 514.121094 C 741.226562 510.34375 741.09375 507.085938 740.964844 504.484375 C 740.703125 501.875 740.3125 499.792969 739.792969 498.359375 C 739.402344 496.925781 738.882812 495.757812 738.097656 494.582031 C 737.449219 493.539062 736.535156 492.757812 735.621094 492.105469 C 734.972656 491.585938 734.191406 491.195312 733.410156 491.066406 C 732.5 490.804688 731.585938 490.675781 730.414062 490.675781 Z M 730.414062 490.542969 " fill-opacity="1" fill-rule="evenodd"/></g><path fill="#1b1918" d="M 403.703125 373.851562 C 422.734375 365.625 439.375 351.429688 450.539062 332.09375 C 467.132812 303.355469 467.835938 269.804688 455.375 241.605469 C 484.074219 272.929688 490.574219 320.414062 468.207031 359.152344 C 456.042969 380.21875 437.390625 395.148438 416.195312 402.980469 Z M 314.726562 297.707031 C 312.699219 318.332031 317.046875 339.765625 328.542969 358.894531 C 345.632812 387.339844 374.636719 404.222656 405.332031 407 C 364.03125 416.90625 319.351562 399.570312 296.3125 361.230469 C 283.785156 340.382812 279.769531 316.835938 283.199219 294.503906 Z M 426.722656 258.710938 C 410.085938 246.351562 389.46875 239.039062 367.148438 239.039062 C 333.964844 239.039062 304.554688 255.203125 286.363281 280.085938 C 299.140625 239.578125 337.015625 210.210938 381.746094 210.210938 C 406.070312 210.210938 428.324219 218.898438 445.707031 233.335938 Z M 426.722656 258.710938 " fill-opacity="1" fill-rule="evenodd"/><path fill="#bf873b" d="M 365.222656 309.792969 C 365.222656 300.523438 372.734375 293.011719 382.007812 293.011719 C 391.277344 293.011719 398.792969 300.523438 398.792969 309.792969 C 398.792969 319.0625 391.277344 326.578125 382.007812 326.578125 C 372.734375 326.578125 365.222656 319.0625 365.222656 309.792969 Z M 391.492188 280.96875 C 391.492188 271.695312 399.011719 264.183594 408.28125 264.183594 C 417.550781 264.183594 425.070312 271.695312 425.070312 280.96875 C 425.070312 290.238281 417.550781 297.75 408.28125 297.75 C 399.011719 297.75 391.492188 290.238281 391.492188 280.96875 Z M 403.171875 317.457031 C 403.171875 308.1875 410.6875 300.671875 419.957031 300.671875 C 429.226562 300.671875 436.742188 308.1875 436.742188 317.457031 C 436.742188 326.726562 429.226562 334.238281 419.957031 334.238281 C 410.6875 334.238281 403.171875 326.726562 403.171875 317.457031 Z M 377.628906 347.011719 C 377.628906 337.742188 385.144531 330.230469 394.414062 330.230469 C 403.683594 330.230469 411.199219 337.742188 411.199219 347.011719 C 411.199219 356.28125 403.683594 363.796875 394.414062 363.796875 C 385.144531 363.796875 377.628906 356.28125 377.628906 347.011719 Z M 339.675781 338.984375 C 339.675781 329.714844 347.191406 322.199219 356.460938 322.199219 C 365.734375 322.199219 373.25 329.714844 373.25 338.984375 C 373.25 348.253906 365.734375 355.765625 356.460938 355.765625 C 347.191406 355.765625 339.675781 348.253906 339.675781 338.984375 Z M 326.90625 301.765625 C 326.90625 292.496094 334.421875 284.980469 343.691406 284.980469 C 352.960938 284.980469 360.476562 292.496094 360.476562 301.765625 C 360.476562 311.035156 352.960938 318.550781 343.691406 318.550781 C 334.421875 318.550781 326.90625 311.035156 326.90625 301.765625 Z M 353.542969 272.941406 C 353.542969 263.667969 361.058594 256.15625 370.328125 256.15625 C 379.601562 256.15625 387.117188 263.667969 387.117188 272.941406 C 387.117188 282.210938 379.601562 289.726562 370.328125 289.726562 C 361.058594 289.726562 353.542969 282.210938 353.542969 272.941406 Z M 353.542969 272.941406 " fill-opacity="1" fill-rule="evenodd"/></svg>