<svg xmlns="http://www.w3.org/2000/svg" xmlns:xlink="http://www.w3.org/1999/xlink" width="1024" zoomAndPan="magnify" viewBox="0 0 768 775.92" height="1024" preserveAspectRatio="xMidYMid meet" version="1.0"><defs><clipPath id="e1f031925a"><path d="M 0.0390625 0 L 767.960938 0 L 767.960938 767.921875 L 0.0390625 767.921875 Z M 0.0390625 0 " clip-rule="nonzero"/></clipPath><clipPath id="d97751a883"><path d="M 0.0390625 311.730469 L 147 311.730469 L 147 456.464844 L 0.0390625 456.464844 Z M 0.0390625 311.730469 " clip-rule="nonzero"/></clipPath><clipPath id="1827eb6a52"><path d="M 658 323 L 767.960938 323 L 767.960938 446 L 658 446 Z M 658 323 " clip-rule="nonzero"/></clipPath></defs><g clip-path="url(#e1f031925a)"><path fill="#ffffff" d="M 0.0390625 0 L 767.960938 0 L 767.960938 767.921875 L 0.0390625 767.921875 Z M 0.0390625 0 " fill-opacity="1" fill-rule="nonzero"/><path fill="#ffffff" d="M 0.0390625 0 L 767.960938 0 L 767.960938 767.921875 L 0.0390625 767.921875 Z M 0.0390625 0 " fill-opacity="1" fill-rule="nonzero"/></g><path fill="#050606" d="M 97.53125 389.519531 C 95.058594 400.449219 85.253906 408.621094 73.546875 408.621094 C 61.84375 408.621094 52.050781 400.460938 49.570312 389.519531 L 15.230469 389.535156 C 17.984375 419.246094 43.042969 442.511719 73.546875 442.511719 C 104.054688 442.511719 129.121094 419.234375 131.867188 389.515625 L 97.53125 389.519531 " fill-opacity="1" fill-rule="nonzero"/><path fill="#050606" d="M 73.550781 325.695312 C 43.042969 325.695312 17.984375 348.949219 15.238281 378.675781 L 49.5625 378.675781 C 52.046875 367.75 61.839844 359.585938 73.550781 359.585938 C 85.265625 359.585938 95.058594 367.75 97.539062 378.6875 L 131.859375 378.675781 C 129.121094 348.949219 104.050781 325.695312 73.550781 325.695312 " fill-opacity="1" fill-rule="nonzero"/><g clip-path="url(#d97751a883)"><path fill="#050606" d="M 73.550781 449.992188 C 37.066406 449.992188 7.492188 420.488281 7.492188 384.097656 C 7.492188 347.710938 37.066406 318.203125 73.550781 318.203125 C 110.035156 318.203125 139.609375 347.710938 139.609375 384.097656 C 139.609375 420.488281 110.035156 449.992188 73.550781 449.992188 M 73.550781 311.730469 C 33.476562 311.730469 0.996094 344.125 0.996094 384.097656 C 0.996094 424.070312 33.476562 456.464844 73.550781 456.464844 C 113.625 456.464844 146.101562 424.070312 146.101562 384.097656 C 146.101562 344.125 113.625 311.730469 73.550781 311.730469 " fill-opacity="1" fill-rule="nonzero"/></g><path fill="#050606" d="M 197.738281 350.503906 L 197.738281 370.511719 L 235.097656 370.511719 L 235.097656 397.082031 L 197.738281 397.082031 L 197.738281 418.058594 L 236.820312 418.058594 L 236.820312 444.628906 L 169.601562 444.628906 L 169.601562 323.929688 L 236.820312 323.929688 L 236.820312 350.503906 L 197.738281 350.503906 " fill-opacity="1" fill-rule="nonzero"/><path fill="#050606" d="M 401.09375 350.503906 L 401.09375 370.511719 L 438.453125 370.511719 L 438.453125 397.082031 L 401.09375 397.082031 L 401.09375 418.058594 L 440.175781 418.058594 L 440.175781 444.628906 L 372.957031 444.628906 L 372.957031 323.929688 L 440.175781 323.929688 L 440.175781 350.503906 L 401.09375 350.503906 " fill-opacity="1" fill-rule="nonzero"/><path fill="#050606" d="M 361.089844 378.179688 C 360.804688 394.648438 359.660156 408.726562 350.039062 422.796875 C 339.414062 438.226562 323.484375 444.964844 305.390625 444.964844 C 271.359375 444.964844 247.679688 420.851562 247.679688 385.367188 C 247.679688 348.675781 271.507812 324.570312 306.394531 324.570312 C 328.648438 324.570312 345.875 335.054688 355.210938 356.164062 L 328.5 367.851562 C 324.628906 357.066406 316.445312 349.878906 305.101562 349.878906 C 286.585938 349.878906 276.960938 368.296875 276.960938 385.515625 C 276.960938 403.039062 287.011719 420.851562 305.53125 420.851562 C 317.734375 420.851562 327.074219 414.269531 328.214844 401.238281 L 305.242188 401.238281 L 305.242188 378.179688 L 361.089844 378.179688 " fill-opacity="1" fill-rule="nonzero"/><path fill="#050606" d="M 516.390625 356.605469 C 511.214844 352.03125 504.621094 348.980469 497.726562 348.980469 C 492.550781 348.980469 485.667969 352.175781 485.667969 358.582031 C 485.667969 365.296875 493.277344 367.890625 498.15625 369.570312 L 505.335938 371.855469 C 520.414062 376.589844 532.042969 384.667969 532.042969 403.269531 C 532.042969 414.707031 529.457031 426.453125 520.84375 434.230469 C 512.371094 441.855469 501.027344 445.054688 490.117188 445.054688 C 476.480469 445.054688 463.128906 440.175781 452.066406 431.941406 L 464.128906 407.847656 C 471.167969 414.402344 479.492188 419.742188 489.113281 419.742188 C 495.722656 419.742188 502.75 416.234375 502.75 408.148438 C 502.75 399.761719 491.695312 396.867188 485.667969 395.035156 C 468.003906 389.703125 456.378906 384.820312 456.378906 362.550781 C 456.378906 339.21875 472.027344 323.972656 493.710938 323.972656 C 504.621094 323.972656 517.976562 327.628906 527.589844 333.425781 L 516.390625 356.605469 " fill-opacity="1" fill-rule="nonzero"/><path fill="#050606" d="M 570.804688 424.054688 L 563.339844 445.109375 L 533.476562 445.109375 L 575.105469 323.917969 L 605.839844 323.917969 L 646.605469 445.109375 L 616.605469 445.109375 L 609.558594 424.054688 Z M 590.46875 361.371094 L 590.183594 361.371094 L 578.554688 399.945312 L 601.960938 399.945312 L 590.46875 361.371094 " fill-opacity="1" fill-rule="nonzero"/><g clip-path="url(#1827eb6a52)"><path fill="#050606" d="M 658.898438 323.910156 L 687.03125 323.910156 L 738.574219 398.125 L 738.863281 398.125 L 738.863281 323.910156 L 767.003906 323.910156 L 767.003906 445.296875 L 738.863281 445.296875 L 687.324219 370.917969 L 687.03125 370.917969 L 687.03125 445.296875 L 658.898438 445.296875 L 658.898438 323.910156 " fill-opacity="1" fill-rule="nonzero"/></g></svg>