<svg xmlns="http://www.w3.org/2000/svg" xmlns:xlink="http://www.w3.org/1999/xlink" width="1024" zoomAndPan="magnify" viewBox="0 0 768 775.92" height="1024" preserveAspectRatio="xMidYMid meet" version="1.0"><defs><clipPath id="659aeff02c"><path d="M 0.0390625 0 L 767.960938 0 L 767.960938 767.921875 L 0.0390625 767.921875 Z M 0.0390625 0 " clip-rule="nonzero"/></clipPath></defs><g clip-path="url(#659aeff02c)"><path fill="#ffffff" d="M 0.0390625 0 L 767.960938 0 L 767.960938 767.921875 L 0.0390625 767.921875 Z M 0.0390625 0 " fill-opacity="1" fill-rule="nonzero"/><path fill="#ffffff" d="M 0.0390625 0 L 767.960938 0 L 767.960938 767.921875 L 0.0390625 767.921875 Z M 0.0390625 0 " fill-opacity="1" fill-rule="nonzero"/></g><path fill="#d90000" d="M 5.972656 302.875 L 186.308594 302.875 L 186.308594 462.246094 L 5.972656 462.246094 Z M 5.972656 302.875 " fill-opacity="1" fill-rule="nonzero"/><path fill="#ffffff" d="M 48.171875 342.3125 L 48.171875 419.039062 L 144.121094 419.039062 L 144.121094 393.574219 L 90.90625 393.574219 L 90.90625 386.039062 L 117.515625 386.039062 L 117.515625 369.667969 L 144.121094 369.667969 L 144.121094 342.3125 Z M 48.171875 342.3125 " fill-opacity="1" fill-rule="nonzero"/><path fill="#000000" d="M 224.410156 345.867188 L 224.410156 422.59375 L 320.359375 422.59375 L 320.359375 397.128906 L 267.148438 397.128906 L 267.148438 389.589844 L 293.753906 389.589844 L 293.753906 373.222656 L 320.359375 373.222656 L 320.359375 345.867188 Z M 224.410156 345.867188 " fill-opacity="1" fill-rule="nonzero"/><path fill="#000000" d="M 728.613281 345.867188 L 728.613281 422.59375 L 763.300781 422.59375 L 763.300781 345.867188 Z M 728.613281 345.867188 " fill-opacity="1" fill-rule="nonzero"/><path fill="#000000" d="M 679.867188 345.867188 L 679.867188 422.59375 L 714.554688 422.59375 L 714.554688 345.867188 Z M 679.867188 345.867188 " fill-opacity="1" fill-rule="nonzero"/><path fill="#000000" d="M 337.195312 345.867188 L 337.195312 362.664062 L 371.878906 362.664062 L 371.878906 345.867188 Z M 337.195312 373.222656 L 337.195312 422.59375 L 371.878906 422.59375 L 371.878906 373.222656 Z M 337.195312 373.222656 " fill-opacity="1" fill-rule="nonzero"/><path fill="#000000" d="M 484.160156 345.867188 L 484.160156 422.59375 L 518.84375 422.59375 L 518.84375 388.363281 L 533.269531 388.363281 L 533.269531 422.59375 L 567.957031 422.59375 L 567.957031 373.222656 L 518.84375 373.222656 L 518.84375 345.867188 Z M 484.160156 345.867188 " fill-opacity="1" fill-rule="nonzero"/><path fill="#000000" d="M 385.753906 373.222656 L 385.753906 422.59375 L 420.441406 422.59375 L 420.441406 388.363281 L 435.046875 388.363281 L 435.046875 422.59375 L 469.734375 422.59375 L 469.734375 373.222656 Z M 385.753906 373.222656 " fill-opacity="1" fill-rule="nonzero"/><path fill="#000000" d="M 581.464844 373.222656 L 581.464844 422.59375 L 665.808594 422.59375 L 665.808594 407.453125 L 616.152344 407.453125 L 616.152344 400.722656 L 665.808594 400.722656 L 665.808594 373.222656 Z M 616.152344 383.214844 L 631.125 383.214844 L 631.125 390.730469 L 616.152344 390.730469 Z M 616.152344 383.214844 " fill-opacity="1" fill-rule="nonzero"/></svg>