<svg xmlns="http://www.w3.org/2000/svg" xmlns:xlink="http://www.w3.org/1999/xlink" width="1024" zoomAndPan="magnify" viewBox="0 0 768 775.92" height="1024" preserveAspectRatio="xMidYMid meet" version="1.0"><defs><clipPath id="7fb4aee077"><path d="M 0.0390625 0 L 767.960938 0 L 767.960938 767.921875 L 0.0390625 767.921875 Z M 0.0390625 0 " clip-rule="nonzero"/></clipPath><clipPath id="7af96e3872"><path d="M 1 196 L 767.960938 196 L 767.960938 568 L 1 568 Z M 1 196 " clip-rule="nonzero"/></clipPath><clipPath id="20e1968a07"><path d="M 49 128.207031 L 720 128.207031 L 720 310 L 49 310 Z M 49 128.207031 " clip-rule="nonzero"/></clipPath><clipPath id="37b08aba41"><path d="M 49 128.207031 L 619 128.207031 L 619 310 L 49 310 Z M 49 128.207031 " clip-rule="nonzero"/></clipPath></defs><g clip-path="url(#7fb4aee077)"><path fill="#ffffff" d="M 0.0390625 0 L 767.960938 0 L 767.960938 767.921875 L 0.0390625 767.921875 Z M 0.0390625 0 " fill-opacity="1" fill-rule="nonzero"/><path fill="#ffffff" d="M 0.0390625 0 L 767.960938 0 L 767.960938 767.921875 L 0.0390625 767.921875 Z M 0.0390625 0 " fill-opacity="1" fill-rule="nonzero"/></g><g clip-path="url(#7af96e3872)"><path fill="#231f20" d="M 4.066406 474.894531 C 7.671875 457.84375 17.414062 403.101562 26.941406 363.863281 C 40.035156 309.929688 51.804688 313.136719 104.40625 285.402344 C 154.511719 258.980469 211.890625 243.503906 275.957031 227.890625 C 342.816406 211.601562 414.660156 200.121094 485.179688 197.449219 C 585.25 193.664062 682.652344 207.617188 759.335938 250.753906 C 768.027344 255.640625 768.550781 271.011719 764.816406 289.828125 C 758.261719 322.871094 749.816406 369.957031 742.890625 402.136719 C 738.640625 421.882812 735.042969 429.675781 730.164062 436.699219 C 723.824219 445.832031 713.699219 452.960938 689.839844 464.945312 C 411.0625 604.96875 175.835938 567.597656 69.816406 548.09375 C 69.359375 548.007812 68.902344 547.921875 68.449219 547.828125 C 137.847656 520.6875 261.667969 498.488281 366.003906 486.113281 C 421.140625 479.574219 504.539062 488.734375 564.394531 485.585938 C 606.996094 483.34375 668.878906 479.890625 696.03125 443.285156 C 693.296875 441.75 690.886719 439.234375 688.148438 437.703125 C 687.808594 456.949219 660.230469 467.65625 619.242188 472.808594 C 569.050781 479.121094 498.910156 477.433594 436.0625 476.957031 C 393.335938 476.632812 351.371094 479.09375 317.820312 482.53125 C 224.445312 492.101562 130.066406 512.734375 36.394531 534.15625 C 30.945312 535.402344 28.765625 533.460938 26.324219 532.3125 C -0.375 519.730469 -1.851562 502.878906 4.066406 474.894531 " fill-opacity="1" fill-rule="evenodd"/></g><path fill="#ffffff" d="M 382.234375 406.980469 C 381.761719 406.144531 382.738281 405.78125 382.988281 405.234375 C 383.570312 403.980469 383.027344 402.5 383.335938 401.1875 C 383.046875 400.738281 383.914062 397.972656 384.046875 397.28125 C 385.238281 395.273438 385.058594 393.777344 385.3125 392.324219 C 386.871094 391.097656 386.601562 386.128906 388.445312 383.605469 C 388.171875 380.351562 394.089844 367.621094 397.234375 365.960938 C 397.933594 364.648438 398.976562 363.238281 400.410156 362.621094 C 400.519531 360.980469 407.613281 358.945312 408.90625 358.390625 C 410.214844 358.789062 413.035156 358.546875 414.539062 358.828125 C 415.058594 360.136719 421.898438 360.382812 422.386719 361.507812 L 424.5 362.28125 C 424.84375 363.332031 427.292969 363.589844 428.207031 363.828125 C 428.300781 364.800781 428.816406 365.847656 429.777344 366.277344 C 432.265625 369.785156 434.609375 372.828125 435.765625 376.84375 C 436.703125 380.089844 434.851562 381.773438 435.257812 383.542969 C 435.605469 385.03125 434.238281 386.082031 434.335938 387.523438 L 433.0625 388.707031 C 432.867188 390.046875 431.804688 391.03125 431.332031 392.261719 C 430.191406 392.398438 429.578125 393.585938 428.402344 393.648438 C 428.046875 394.285156 427.175781 394.640625 426.484375 394.828125 C 425.652344 395.984375 418.996094 399.902344 417.300781 400.808594 C 415.382812 400.375 407.238281 405.953125 404.851562 405.585938 C 402.933594 405.289062 400.824219 406.511719 399.261719 407.382812 C 397.003906 408.644531 382.976562 408.789062 382.433594 409.636719 C 381.242188 408.832031 381.59375 407.734375 382.234375 406.980469 Z M 398.742188 327.980469 C 399.4375 326.292969 399.289062 325.363281 398.820312 324.703125 C 398.992188 323.65625 398.964844 322.539062 398.894531 321.484375 L 399.882812 320.304688 C 400.0625 318.230469 400.421875 315.984375 400.753906 313.949219 C 400.011719 312.699219 403.566406 304.097656 404.625 302.441406 C 406.121094 301.742188 405.980469 298.121094 407.96875 296.9375 C 408.488281 295.6875 409.902344 295.390625 410.734375 294.429688 C 412.082031 294.15625 413.277344 293.417969 414.296875 292.554688 L 416.609375 292.628906 C 417.148438 291.3125 418.9375 292.195312 419.980469 291.804688 C 421.003906 292.5 422.976562 292.90625 424.1875 292.726562 L 431.015625 295.050781 C 431.617188 296.167969 432.695312 296.9375 433.738281 297.644531 C 434.28125 298.988281 435.597656 303.589844 435.546875 304.910156 C 434.625 305.839844 435.230469 309.402344 432.84375 309.929688 C 433.082031 312.183594 431.277344 316.867188 428.761719 318.019531 C 428.78125 319.15625 427.28125 319.480469 427.078125 320.527344 C 426.210938 321.167969 425.894531 322.265625 425.183594 323.035156 C 424.199219 323.308594 423.328125 324.003906 423.0625 324.980469 C 422.1875 325.472656 420.695312 325.609375 420.941406 326.933594 C 419.414062 327.71875 418.300781 329.496094 416.449219 329.644531 C 416 330.714844 409.53125 333.039062 408.289062 332.476562 C 404.796875 333.082031 403.128906 334.175781 399.148438 333.429688 C 399.300781 332.5625 399.152344 331.539062 398.875 330.703125 Z M 471.628906 390.992188 C 472.851562 389.199219 472.835938 386.910156 473.230469 384.851562 C 473.40625 384.730469 479.339844 367.53125 479.335938 366.503906 C 479.335938 364.15625 478.710938 361.726562 478.464844 359.382812 C 477.113281 357.960938 477.957031 355.894531 477.707031 354.214844 C 478.304688 353.914062 478.320312 353.152344 478.105469 352.605469 C 478.46875 351.238281 482.636719 346.207031 483.855469 344.804688 C 484.351562 344.230469 484.511719 342.9375 485.183594 342.710938 C 485.664062 341.886719 486.597656 341.527344 487.382812 341.046875 C 488.730469 337.859375 490.992188 336.941406 493.375 334.425781 C 496.171875 334.15625 499.351562 335.152344 502.171875 334.386719 C 503.675781 334.886719 505.324219 334.25 506.800781 334.886719 C 507.605469 334.664062 515.773438 337.496094 517.035156 338.0625 C 519.058594 337.636719 523.269531 343.691406 524.6875 345 C 524.671875 346.460938 525.207031 348.046875 525.714844 349.40625 C 527.085938 352.992188 528.941406 360.171875 528.167969 362.75 C 529.148438 364.148438 528.621094 373.558594 527.339844 374.902344 C 527.382812 375.613281 527.308594 376.820312 526.519531 377.132812 C 525.910156 378.449219 526.148438 380.058594 525.234375 381.25 C 525.265625 382.722656 523.40625 383.328125 523.433594 384.800781 C 522.847656 385.601562 522.296875 386.441406 521.828125 387.308594 C 520.683594 387.167969 518.789062 390.234375 518.738281 391.074219 C 517.949219 391.335938 517.621094 392.292969 516.96875 392.742188 C 513.230469 395.320312 510.039062 399.441406 506.421875 402.347656 C 505.65625 402.964844 504.164062 403.808594 503.652344 404.574219 C 503.148438 405.332031 502.175781 404.996094 502.019531 405.683594 C 489.796875 412.410156 487.507812 412.460938 473.925781 410.832031 C 472.800781 409.824219 472.773438 407.964844 471.324219 407.261719 C 471.515625 406.363281 469.109375 401.769531 469.339844 398.597656 C 469.507812 396.25 471.8125 393.28125 471.628906 390.992188 Z M 482.820312 456.464844 L 483.078125 455 C 483.84375 454.792969 484.441406 454.019531 484.847656 453.398438 C 486.875 453.0625 487.777344 450.890625 489.765625 450.480469 C 490.84375 449.140625 492.699219 449.226562 494.199219 448.609375 L 495.722656 449.171875 C 496.132812 454.8125 500.253906 452.660156 502.683594 454.289062 C 504.890625 453.574219 508.527344 452.953125 510.800781 452.851562 C 512.144531 451.257812 514.753906 452.308594 516.097656 450.773438 C 518.855469 451.25 529.140625 445.53125 531.386719 443.839844 C 531.601562 442.960938 538.753906 439.753906 539.828125 436.949219 L 541.128906 436.957031 C 541.757812 436.53125 542.441406 435.765625 543.261719 435.570312 C 543.546875 434.503906 560.804688 419.152344 563.203125 413.140625 C 563.285156 412.933594 567.246094 405.855469 567.808594 405.6875 C 569.816406 398.539062 575.519531 391.550781 577.421875 382.808594 C 577.679688 381.613281 577.09375 380.28125 578.144531 379.324219 C 578.121094 377.96875 578.777344 376.710938 578.417969 375.339844 C 577.722656 374.96875 572.132812 378.515625 571.359375 379.230469 C 570.082031 379.15625 570.273438 380.820312 568.730469 381.109375 L 566.644531 381.519531 C 565.734375 382.5 563.761719 382.839844 563.601562 384.164062 C 562.148438 385.847656 557.136719 387.375 555.097656 387.90625 C 550.960938 388.285156 546.753906 387.511719 542.6875 387.867188 C 537.3125 385.167969 540.109375 384.238281 537.453125 382.613281 L 537 381.496094 C 537.878906 378.703125 536.03125 369.558594 538.453125 368.300781 C 539.300781 365.558594 540.71875 362.203125 541.292969 359.441406 C 541.402344 359.332031 543.074219 352.796875 543.027344 352.535156 C 543.886719 351.960938 542.75 350.746094 543.695312 350.234375 C 543.464844 349.242188 544.371094 348.496094 544.507812 347.578125 C 545.21875 347.089844 544.699219 346 545.546875 345.558594 C 545.664062 344.308594 545.296875 342.609375 546.691406 341.929688 C 547.472656 340.109375 546.984375 338.511719 547.304688 336.699219 C 547.480469 335.75 548.535156 335.039062 548.042969 333.972656 C 548.894531 332.039062 549.925781 329.972656 550.949219 328.117188 C 553.78125 326.484375 556.554688 326.742188 559.558594 326.113281 C 560.945312 326.859375 562.558594 326.90625 563.851562 327.527344 C 565.132812 328.144531 565.25 329.5 567.003906 329.984375 C 569.484375 333.425781 568.460938 333.207031 568.882812 337.042969 C 567.816406 338.90625 563.230469 351.804688 563.398438 353.992188 L 562.195312 355.320312 C 562.023438 357.015625 560.753906 358.398438 560.714844 360.132812 C 559.953125 361.027344 560.144531 362.554688 559.046875 363.199219 C 559.007812 363.933594 558.816406 365.050781 558.082031 365.429688 C 557.835938 366.203125 557.546875 367.179688 556.976562 367.800781 L 558.171875 369.621094 C 558.800781 369.03125 560.71875 367.902344 560.785156 367.113281 C 561.792969 366.941406 566.59375 363.890625 567.917969 362.875 C 570.550781 362.980469 579.578125 355.152344 582.28125 353.355469 C 582.339844 352.324219 583.074219 351.386719 584.035156 350.988281 L 584.867188 349.453125 C 585.804688 349.242188 586.238281 348.328125 586.851562 347.714844 C 586.476562 346.253906 588.324219 345.695312 588.441406 344.367188 L 590.066406 342.835938 C 589.972656 341.738281 589.949219 340.621094 590.214844 339.554688 C 592.375 338.585938 590.792969 333.257812 592.644531 331.742188 C 594.128906 327.320312 596.679688 319.816406 599.746094 316.050781 C 601.160156 316.054688 601.023438 314.140625 602.890625 314.59375 C 603.4375 314.726562 604.730469 314.089844 605.039062 313.691406 C 611.910156 316.117188 612.828125 315.351562 615.382812 322.109375 C 618.609375 323.722656 613.992188 337.730469 612.289062 339.554688 C 612.058594 342.757812 610.503906 345.148438 610.167969 348.558594 C 608.46875 349.335938 609.480469 353.296875 607.691406 354.132812 C 606.886719 356.050781 607.921875 358.367188 606.664062 360.136719 C 604.039062 363.839844 597.460938 388.300781 596.589844 388.808594 C 595.972656 390.125 595.144531 391.398438 595.378906 392.925781 C 594.382812 393.332031 590.773438 403.015625 589.851562 404.5 C 588.535156 406.5 588.003906 408.378906 586.863281 409.9375 C 587.050781 410.820312 583.9375 416.082031 583.414062 417.398438 C 582.714844 417.863281 581.121094 421.503906 580.996094 422.347656 C 579.027344 423.855469 573.738281 432.953125 572.203125 432.867188 C 570.632812 434.675781 568.695312 436.144531 567.117188 437.945312 C 567.003906 438.914062 565.601562 438.792969 565.496094 439.757812 C 564.808594 440.289062 564.128906 440.824219 563.582031 441.496094 C 563.6875 442.847656 561.703125 442.371094 561.535156 443.585938 L 560.390625 444.210938 C 560.390625 445.378906 558.710938 445.40625 558.566406 446.511719 C 557.558594 446.742188 556.980469 447.824219 555.851562 447.757812 C 546.800781 457.507812 519.097656 464.890625 518.21875 465.863281 C 516.152344 464.769531 514.003906 465.988281 511.875 465.984375 C 510.214844 467.085938 499.160156 467.148438 496.679688 467.050781 C 495.65625 467.917969 480.691406 468.484375 481.097656 460.367188 C 481.171875 458.972656 481.402344 457.195312 482.820312 456.464844 Z M 491.339844 371.222656 C 491.339844 371.222656 495.089844 364.257812 498.058594 361.535156 C 498.164062 360.867188 498.425781 359.910156 499.097656 359.585938 C 499.226562 359.285156 505.234375 352.398438 505.367188 352.34375 L 507.171875 352.558594 L 507.992188 353.75 C 508.070312 357.320312 512.210938 358.28125 510.703125 369.402344 C 508.824219 371.5625 506.78125 379.5625 504.449219 380.691406 C 503.6875 382.09375 501.527344 385.710938 499.878906 386.335938 C 498.707031 388.1875 494.800781 390.199219 494.5625 390.71875 C 491.835938 391.554688 490.882812 390.796875 488.972656 389.023438 C 488.824219 387.542969 488.355469 385.746094 488.078125 384.273438 C 488.746094 383.578125 490.773438 373.058594 491.339844 371.222656 Z M 618.324219 365.972656 C 619.710938 364.746094 619.335938 361.867188 621.160156 359.972656 C 621.0625 358.875 621.703125 358.050781 622.695312 357.605469 C 623.960938 355.414062 625.339844 353.347656 626.527344 351.121094 C 627.570312 350.652344 627.71875 349.464844 627.839844 348.476562 C 630.40625 346.78125 631.039062 341.980469 634.242188 340.808594 C 634.351562 339.796875 637.199219 336.164062 638.464844 335.726562 C 638.785156 333.914062 640.710938 333.082031 642.21875 332.316406 C 642.816406 330.605469 645.136719 329.8125 645.878906 328.210938 C 647.734375 326.953125 650.53125 323.359375 652.011719 321.527344 C 652.511719 321.378906 660.046875 316.449219 660.125 316.242188 L 661.773438 315.691406 C 664.21875 313.601562 668.542969 314.40625 669.714844 312.570312 L 671.8125 312.71875 C 673.398438 311.699219 675.230469 312.277344 676.042969 311.542969 C 678.269531 311.550781 680.539062 311.785156 682.746094 311.429688 C 685.003906 313.453125 687.558594 311.101562 689.199219 312.984375 C 691.550781 312.851562 693.691406 315.261719 695.046875 316.773438 C 696.3125 316.910156 696.335938 318.332031 696.902344 319.152344 C 697.046875 325.234375 695.128906 327.773438 693.523438 333.390625 C 692.550781 334.277344 692.480469 335.636719 692.082031 336.808594 C 690.253906 337.425781 691.429688 338.808594 690.335938 339.523438 C 689.644531 341.488281 690.40625 347.003906 689.503906 347.972656 C 689.5625 350.71875 689.195312 352.953125 690.171875 355.65625 C 691.289062 356.59375 690.582031 358.480469 692.050781 359.15625 C 692.492188 360.125 692.421875 361.34375 693.410156 362.023438 C 693.308594 366.988281 700.308594 368.039062 703.582031 369.035156 L 705.578125 367.855469 C 706.367188 365.527344 711.601562 362.207031 713.804688 361.246094 C 714.945312 361.539062 716.125 361.332031 717.273438 361.535156 C 717.949219 362.792969 719.636719 362.917969 720.570312 363.921875 C 721.53125 364.960938 722.957031 367.320312 723.976562 368.054688 C 724.371094 369.929688 724.128906 371.832031 724.023438 373.714844 C 722.960938 375.09375 721.835938 376.828125 720.945312 378.3125 C 719.953125 378.304688 719.925781 379.636719 719.03125 379.839844 C 718.417969 381.066406 716.527344 381.265625 716.351562 382.765625 L 714.777344 383.25 C 714.09375 383.984375 712.976562 384.175781 712.359375 384.988281 C 709.945312 385.769531 712.113281 387.296875 706.566406 387.273438 C 702.261719 387.816406 698.707031 388.042969 695.402344 388.285156 C 694.664062 387.246094 692.847656 388.003906 692.410156 386.601562 C 690.699219 385.980469 688.757812 385.71875 687.460938 384.347656 L 686.011719 384.132812 C 685.242188 383.40625 680.675781 379.328125 680.636719 379.019531 C 680.539062 378.289062 681.144531 377.675781 680.164062 377.132812 C 678.460938 376.1875 678.882812 374.203125 677.410156 373.214844 C 677.398438 372.203125 676.824219 369.328125 675.808594 368.738281 L 675.183594 366.640625 C 675.183594 366.640625 673.960938 365.910156 674.867188 365.316406 C 674.453125 364.296875 673.011719 358.277344 673.472656 357.347656 L 673.070312 355.320312 C 671.667969 354.84375 667.101562 358.695312 666.3125 359.839844 C 662.40625 361.085938 663.207031 361.3125 661.210938 364.222656 C 660.796875 364.316406 656.601562 367.976562 656.601562 367.980469 C 655.011719 369.265625 646.828125 376.605469 645.820312 376.605469 C 644.480469 377.449219 641.914062 380.589844 640.488281 380.289062 C 639.441406 381.605469 637.414062 381.765625 635.917969 382.578125 C 633.8125 382.296875 632.902344 384.390625 631.335938 384.308594 C 630.828125 386.8125 621.976562 383.632812 620.621094 382.25 C 620.367188 381.183594 619.15625 380.503906 619.402344 379.3125 C 615.746094 377.039062 618.84375 367.386719 618.324219 365.972656 Z M 651.777344 341.007812 C 654.070312 341.011719 656.171875 336.019531 657.875 336.207031 C 658.675781 335.8125 662.300781 333.105469 662.917969 332.386719 C 663.53125 331.664062 664.664062 331.789062 665.269531 331.066406 C 666.660156 331.390625 667.351562 330.164062 668.566406 329.890625 L 669.476562 328.707031 L 671.855469 328.710938 C 673.976562 326.761719 675.140625 325.851562 675.339844 329.628906 C 675.339844 329.636719 672.007812 334.496094 671.921875 335.207031 C 670.972656 335.632812 668.355469 338.121094 668.015625 338.058594 C 666.007812 340.65625 661.832031 340.628906 660 344.386719 C 655.835938 346.539062 653.203125 350.636719 649.285156 352.941406 C 649.191406 353.976562 645.015625 357.328125 644.210938 358.375 C 643.925781 358.371094 639.847656 361.082031 639.585938 361.496094 L 637.707031 361.496094 C 637.691406 359.070312 649.632812 343.371094 651.777344 341.007812 Z M 351.65625 417.703125 C 351.777344 416.304688 352.675781 415.035156 352.433594 413.589844 C 352.808594 413.160156 354.453125 407.296875 355.085938 405.914062 C 355.453125 405.121094 356.34375 404.492188 356.265625 403.546875 C 357.007812 402.40625 358.460938 401.625 358.5 400.132812 C 359.484375 398.898438 363.050781 390.125 363.984375 389.882812 C 366.171875 387.699219 372.242188 367.722656 372.457031 367.5625 C 373.046875 364.492188 377.160156 341.214844 377.585938 340.761719 C 378.164062 337.113281 378.632812 333.375 378.726562 329.660156 C 380.042969 328.457031 380.472656 318.152344 378.105469 317.296875 C 376.847656 315.890625 369.320312 321.878906 367.746094 322.085938 C 367.171875 322.882812 363.242188 324.71875 362.25 324.789062 C 359.636719 326.625 353.761719 324.304688 352.792969 321.128906 C 351.984375 320.554688 352.246094 319.386719 351.519531 318.75 C 351.605469 317.730469 351.769531 316.652344 352.101562 315.679688 C 353.328125 314.953125 352.449219 313.46875 353.265625 312.542969 C 354.390625 311.257812 358.734375 305.949219 359.300781 304.738281 C 361.644531 303.261719 364.582031 298.957031 366.636719 296.800781 C 368.617188 296.449219 368.929688 294.960938 370.398438 293.949219 C 371.496094 294.261719 375.183594 290.90625 375.507812 289.917969 L 377.085938 289.429688 C 377.59375 288.550781 379.332031 289.152344 379.359375 287.902344 C 380.75 286.417969 385.433594 284.316406 385.753906 283.3125 C 387.800781 283.214844 392.449219 279.972656 394.53125 278.941406 C 395.222656 279.078125 402.992188 276.953125 403.429688 276.597656 C 407.160156 277.09375 412.898438 274.371094 416.898438 275.664062 C 417.800781 275.390625 418.902344 276.175781 419.707031 275.535156 C 425.800781 277.75 434.320312 276.550781 440.285156 279.855469 C 442.53125 281.105469 447.050781 283.214844 448.757812 284.773438 C 449.230469 285.199219 451.339844 287.777344 451.710938 287.851562 C 451.707031 287.898438 455.976562 293.613281 456.457031 294.015625 C 459.113281 300.679688 456.199219 304.089844 457.375 310.148438 L 456.675781 311.335938 C 456.785156 312.171875 455.53125 316.476562 455.285156 317.191406 C 454.359375 317.675781 453.074219 321.070312 452.140625 322.003906 C 451.953125 322.992188 451.039062 323.582031 450.75 324.511719 C 449.617188 325.359375 441.144531 333.445312 440.71875 334.398438 C 437.421875 336.125 435.421875 341.472656 431.890625 343.242188 C 431.746094 343.8125 431.738281 344.714844 432.355469 345.058594 L 433.90625 346.738281 C 434.214844 346.703125 439.574219 350.722656 440.132812 351.089844 C 440.410156 351.050781 446.765625 356.660156 448.632812 357.539062 C 448.644531 358.421875 449.792969 358.601562 450.257812 359.222656 L 454.914062 364.613281 C 455.238281 365.351562 455.675781 366.195312 456.332031 366.710938 C 456.578125 367.71875 457.171875 368.613281 457.691406 369.511719 C 457.367188 371.875 458.691406 374.402344 458.777344 376.847656 C 459.019531 383.511719 457.6875 388.945312 455.699219 395.0625 C 455.269531 396.390625 455.8125 397.460938 454.183594 398.339844 C 453.273438 399.21875 452.675781 399.769531 452.785156 400.429688 C 452.042969 401.734375 446.03125 407.363281 444.855469 407.527344 C 444.039062 408.957031 442.34375 409.699219 441.761719 411.289062 C 434.371094 414.902344 426.730469 419.785156 419.449219 423.859375 C 410.523438 428.847656 370.941406 431.988281 361.820312 427.585938 C 360.679688 427.035156 358.777344 427.363281 358.042969 426.316406 C 349.25 424.84375 352.988281 423.664062 350.917969 420.289062 C 351.417969 419.480469 350.695312 418.308594 351.65625 417.703125 Z M 305.511719 337.152344 C 306.484375 336.554688 306.660156 335.289062 307.695312 334.714844 C 310.402344 333.207031 313.089844 333.421875 315.511719 332.433594 C 316.957031 332.996094 319.214844 334.238281 320.746094 334.546875 C 322.378906 336.769531 323.007812 336.40625 325.140625 337.632812 C 325.375 339.082031 327.613281 340.242188 326.742188 341.6875 C 327.117188 342.65625 326.78125 343.710938 326.152344 344.476562 C 325.046875 344.839844 324.40625 346.425781 323.902344 347.335938 C 323.039062 347.386719 322.066406 347.222656 321.464844 347.953125 C 318.910156 347.625 309.007812 348.003906 307.824219 347.632812 C 306.851562 347.328125 306.464844 345.96875 305.1875 345.8125 C 302.632812 342.542969 304.175781 342.570312 304.113281 339.308594 C 304.113281 339.308594 305.425781 338.652344 305.511719 337.152344 Z M 274.082031 437.46875 C 274.441406 435.644531 274.738281 434.125 275.417969 432.378906 C 275.417969 432.378906 278.550781 419.414062 279.449219 418.355469 C 279.234375 417.765625 279.910156 417.75 279.496094 417.097656 C 280.398438 414.402344 279.742188 411.945312 281.722656 409.84375 C 281.722656 409.84375 282.816406 405.703125 283.273438 404.75 L 284.691406 399.933594 C 284.921875 398.488281 286.523438 389.972656 287.417969 389.191406 C 287.417969 389.191406 289.554688 378.570312 291.0625 377.1875 C 291.402344 375.476562 292.109375 371.78125 293.308594 370.773438 C 293.382812 367.71875 292.5625 366.753906 296.304688 365.820312 C 296.554688 364.703125 297.753906 364.578125 298.648438 364.152344 C 299.671875 364.226562 300.867188 364.179688 301.589844 363.398438 C 302.886719 363.003906 303.894531 364.09375 305.140625 364.175781 C 305.792969 365.066406 307.054688 364.566406 307.96875 364.8125 C 308.304688 365.472656 308.886719 366.296875 309.664062 366.496094 C 310.144531 367.496094 311.472656 368.136719 312.171875 369.085938 C 312.84375 369.996094 313.140625 371.710938 313.535156 372.164062 L 313.453125 375.234375 C 314.1875 377.300781 311.035156 378.710938 312.273438 380.746094 C 312.136719 381.945312 310.402344 388.523438 309.554688 388.703125 L 308.453125 391.28125 C 309.148438 395.195312 305.570312 398.867188 305.796875 401.957031 C 304.824219 403.105469 305.839844 404.8125 304.808594 406.496094 C 303.816406 408.105469 303.242188 410.558594 302.914062 412.355469 C 302.789062 413.527344 299.1875 424.742188 298.289062 425.746094 C 298.21875 426.609375 294.949219 439.097656 294.46875 439.488281 C 294.421875 441.050781 292.941406 442.144531 293.042969 443.746094 C 291.429688 446.507812 289.960938 445.121094 288.628906 446.738281 C 286.433594 446.929688 280.019531 446.808594 278.292969 445.515625 C 277.023438 445.835938 276.128906 444.542969 274.882812 444.664062 L 274.480469 442.640625 C 273.164062 440.820312 274.816406 438.890625 274.082031 437.46875 Z M 233.367188 439.4375 C 234.699219 436.347656 235.375 434.183594 236.027344 432.113281 C 236.378906 432.003906 239.167969 423.652344 239.148438 422.695312 C 240.171875 421.816406 246.097656 403.207031 246.96875 400.375 C 248.820312 398.980469 251.371094 389.195312 251.511719 386.628906 C 253.09375 385.832031 255.59375 375.617188 255.785156 373.585938 C 256.476562 372.816406 258.296875 363.800781 259.242188 363.121094 C 260.445312 357.964844 266.046875 343.886719 265.964844 339.816406 C 266.933594 336.207031 269.035156 331.136719 270.761719 327.824219 C 270.246094 326.347656 272.15625 325.648438 272.058594 324.265625 C 273.972656 322.199219 274.613281 315.609375 276.144531 312.96875 C 276.109375 312.589844 279.441406 300.609375 279.628906 300.195312 C 280.300781 300.09375 281.039062 298.417969 281.238281 297.894531 C 281.128906 297.367188 281.078125 296.277344 281.851562 296.222656 C 282.03125 294.621094 284.058594 294.585938 285.269531 294.140625 C 288.304688 294.089844 297.355469 294.0625 298.664062 296.277344 C 299.117188 297.046875 299.507812 297.878906 300.082031 298.585938 C 299.417969 299.78125 300.84375 298.78125 300.757812 300.054688 C 300.722656 300.601562 299.953125 304.429688 299.703125 304.59375 C 298.207031 310.367188 295.003906 315.972656 293.929688 321.679688 C 293.796875 322.378906 292.132812 327 291.453125 327.332031 C 290.695312 328.863281 290.417969 331.261719 289.839844 332.980469 C 288.863281 333.625 286.289062 344.660156 285.484375 345.257812 C 283.902344 349.539062 281.972656 355.566406 281.761719 360.1875 C 279.222656 362.355469 273.179688 397.042969 268.230469 399.320312 L 267.480469 401.484375 C 267.140625 402.339844 266.875 403.183594 266.597656 403.996094 C 266.609375 404.007812 266.011719 408.808594 265.84375 409.371094 C 264.433594 411.269531 264.042969 412.835938 264.148438 414.394531 C 262.855469 419.109375 261.730469 423.914062 260.765625 428.421875 C 260.125 429.480469 259.441406 430.207031 259.664062 431.140625 C 258.019531 435.449219 255.355469 441.894531 254.578125 446.347656 C 253.945312 449.953125 253.417969 454.5 252.222656 457.863281 C 251.398438 457.726562 251.535156 458.902344 250.65625 458.765625 C 249.738281 458.625 248.953125 458.789062 248.066406 458.96875 C 245.539062 459.476562 243.195312 458.871094 240.785156 459.359375 C 239.441406 458.898438 237.191406 457.03125 235.359375 458.648438 L 233.546875 458.085938 C 233.582031 456.492188 231.628906 455.65625 231.515625 454.097656 C 228.648438 451.5 234.179688 441.851562 233.367188 439.4375 Z M 193.175781 448.945312 C 193.355469 447.515625 193.765625 446.125 193.878906 444.6875 C 195.210938 443.613281 195.238281 435.632812 195.316406 434.078125 C 196.363281 433.714844 196.964844 429.421875 196.859375 428.636719 C 197.695312 425.878906 200.589844 415.683594 201.953125 413.707031 C 202.441406 412.996094 202.113281 410.339844 202.292969 409.378906 C 202.550781 408.027344 203.976562 407.488281 203.882812 405.890625 C 203.804688 404.664062 209.449219 388.507812 210.070312 384.683594 C 211.757812 380.933594 212.820312 378.433594 213.773438 375.613281 C 213.292969 374.191406 221.605469 353.046875 220.984375 351.546875 C 224.726562 339.0625 226.65625 326.859375 232.765625 314.992188 C 237.40625 305.96875 249.003906 304.980469 249.453125 309.382812 C 250.175781 310.453125 251.699219 311.554688 251.476562 312.957031 C 251.21875 313.996094 251.777344 315.109375 251.253906 316.027344 C 250.867188 317.878906 246.796875 334.140625 246.824219 335.289062 L 246.636719 336.613281 C 245.644531 337.71875 242.796875 344.90625 243.304688 346.242188 C 241.53125 348.996094 240.316406 359.5 238.484375 360.472656 C 238.140625 361.613281 238.03125 362.835938 238.054688 364.03125 C 236.894531 366.582031 234.238281 376.917969 234.304688 377.636719 C 233.871094 378.296875 233.453125 379.207031 233.628906 380.007812 C 232.367188 382.445312 231.59375 385.160156 230.546875 387.679688 C 230.671875 388.464844 230.699219 389.832031 229.808594 390.191406 C 226.132812 395.910156 215.765625 437.828125 214.183594 446.363281 C 213.488281 450.113281 214.574219 454.40625 213.707031 457.949219 C 212.757812 458.484375 212.992188 459.871094 211.878906 460.246094 L 211.105469 461.433594 C 207.65625 462.476562 197.25 463.375 194.308594 461.660156 C 194.082031 460.632812 192.488281 461.140625 192.324219 459.976562 C 192.0625 458.121094 192.148438 450.296875 193.175781 448.945312 Z M 177.457031 353.570312 C 177.6875 351.082031 180.953125 351.984375 182.003906 350.234375 C 183.097656 350.167969 183.558594 349.054688 184.789062 348.917969 C 190.101562 348.3125 189.90625 350.699219 192.996094 351.597656 C 193.480469 352.15625 194.992188 353.238281 195.636719 353.703125 C 196.863281 355.839844 198.289062 358.097656 198.378906 360.480469 C 197.492188 362.550781 195.109375 363.785156 193.429688 365.285156 L 192.203125 365.28125 C 191.570312 366.65625 189.957031 365.269531 188.972656 366.039062 C 187.5625 365.128906 186.285156 366.925781 184.800781 366.582031 C 183.601562 366.3125 183.511719 367.875 182.371094 367.761719 C 181.328125 367.664062 180.480469 366.722656 179.398438 366.914062 C 174.074219 361.664062 171.558594 359.40625 177.457031 353.570312 Z M 140.214844 465.539062 C 140.851562 465.007812 141.292969 462.132812 141.5 461.351562 C 142.347656 458.121094 145.59375 453.925781 145.535156 450.890625 C 146.496094 449.886719 147.226562 446.945312 147.753906 446.707031 C 149.179688 443.613281 159.582031 410.996094 159.785156 408.195312 C 159.84375 407.34375 159.820312 405.816406 160.734375 405.40625 C 162.5625 397.304688 164.21875 390.101562 166.804688 382.097656 C 167.457031 381.570312 167.160156 380.339844 168.285156 380.359375 C 169.164062 379.476562 170.144531 378.671875 171.492188 378.550781 C 171.96875 377.714844 174.316406 377.582031 175.292969 377.308594 C 176.40625 378.011719 178.335938 377.203125 178.925781 378.71875 C 179.535156 379.121094 181.710938 379.570312 181.90625 379.773438 C 185.21875 383.21875 185.492188 385.671875 186.949219 389.847656 C 186.308594 391.148438 183.1875 402.898438 183.144531 404.21875 C 181.398438 405.824219 179.683594 419.367188 177.496094 420.332031 C 177.167969 420.996094 168.765625 447.566406 168.765625 447.609375 C 167.863281 448.578125 169.367188 450.363281 167.605469 450.820312 C 167.421875 452.242188 166.515625 453.457031 166.613281 454.9375 C 164.121094 458.445312 164.507812 462.738281 163.316406 466.449219 C 161.644531 467.390625 162.578125 469.476562 161.070312 469.304688 C 160.796875 470.117188 159.191406 473.285156 159.152344 473.976562 C 157.964844 473.742188 156.074219 474.578125 155.285156 475.363281 C 154.597656 475.105469 152.984375 474.667969 152.691406 475.636719 C 150.644531 475.945312 147.378906 475.589844 145.636719 476.308594 C 142.992188 475.699219 142.046875 476.710938 139.6875 474.683594 C 138.882812 471.101562 139.734375 468.914062 140.214844 465.539062 Z M 77.335938 411.707031 C 75.625 410.816406 76.183594 408.792969 76.160156 407.300781 C 76.648438 406.578125 76.699219 405.410156 77.851562 405.421875 C 80.359375 399.140625 83.972656 395.742188 84.054688 388.261719 C 85.253906 386.847656 88.1875 370.402344 88.738281 367.46875 C 89.039062 365.847656 91.183594 360.074219 89.722656 359.367188 C 89.492188 358.105469 87.714844 358.359375 87.222656 357.265625 L 85.847656 356.980469 C 84.117188 355.003906 82.050781 352.519531 84.835938 350.066406 C 84.808594 348.925781 86.550781 349.027344 86.59375 347.90625 C 87.207031 346.636719 89.21875 345.117188 90.71875 345.050781 C 90.882812 344.636719 94.964844 341.488281 95.828125 341.09375 C 95.847656 339.15625 100.078125 340.820312 101.765625 338.875 C 105.078125 338.203125 107.109375 335.582031 111.007812 335.695312 C 111.972656 334.957031 113.425781 334.105469 114.734375 334.589844 C 117.824219 332.808594 122.121094 332.953125 125.410156 331.199219 C 126.203125 331.65625 126.832031 330.96875 127.492188 330.71875 C 131.957031 329.019531 138.410156 328.65625 142.410156 326.574219 C 142.734375 326.625 148.035156 325.609375 148.515625 325.480469 C 150.582031 325.335938 152.25 324.167969 154.261719 324.304688 C 156.207031 322.515625 170.726562 321.871094 172.925781 323.390625 C 175.542969 322.4375 179.066406 327.230469 180.257812 328.929688 C 180.546875 333.253906 173.660156 334.59375 171.257812 336.582031 C 170.535156 336.359375 169.527344 336.207031 168.878906 336.640625 C 166.460938 336.867188 154.144531 338.617188 153.914062 338.554688 C 152.804688 338.945312 151.25 338.757812 150.402344 339.65625 C 149.320312 339.527344 148.308594 339.996094 147.234375 339.929688 L 145.671875 341.042969 C 144.582031 340.828125 143.601562 341.441406 142.582031 341.660156 C 142.199219 342.121094 134.378906 343.871094 134.039062 343.660156 C 130.804688 345.378906 119.507812 347.28125 118.410156 348.28125 C 117.363281 348.417969 116.449219 348.925781 115.625 349.535156 C 112.09375 349.847656 113.125 353.488281 111.558594 355.039062 C 110.746094 358.730469 108.9375 372.015625 107.417969 374.296875 C 107.253906 378.308594 105.113281 381.449219 105.785156 385.609375 C 104.160156 386.78125 104.976562 388.789062 104.222656 390.421875 C 104.601562 393.542969 103.535156 392.738281 105.214844 396.292969 L 106.433594 395.875 C 106.558594 395.726562 115.09375 393.09375 115.539062 393.179688 C 117.421875 392.441406 125.414062 390.484375 125.78125 389.789062 C 131.898438 389.464844 132.761719 385.542969 140.898438 388.371094 L 142.226562 389.914062 C 150.835938 399.167969 119.988281 406.5 115.140625 408.613281 C 113.144531 409.132812 108.726562 410.769531 107.488281 411.726562 C 106.140625 411.425781 102.933594 412.84375 101.824219 413.320312 C 96.234375 416.605469 95.664062 420.65625 95.101562 426.425781 C 93.386719 428.140625 91.988281 436.058594 91.34375 436.261719 C 90.316406 443.648438 85.800781 450.179688 85.882812 457.820312 C 84.902344 458.378906 84.214844 463.625 84.359375 464.382812 C 83.59375 467.71875 80.613281 481.921875 79.492188 483.292969 C 79.402344 483.269531 74.636719 485.78125 74.574219 486 L 73.132812 485.996094 C 72.367188 486.589844 68.824219 486.417969 67.800781 486.394531 C 67.246094 486.386719 63.097656 485.894531 62.878906 485.542969 C 60.886719 482.363281 60.910156 474.449219 61.707031 470.875 C 62.277344 468.28125 67.699219 445.15625 68.292969 444.707031 C 69.351562 443.910156 69.164062 443.300781 69.320312 442.125 C 70.089844 436.363281 75.371094 427.054688 76.113281 422.105469 C 76.667969 418.394531 78.390625 415.703125 77.335938 411.707031 " fill-opacity="1" fill-rule="evenodd"/><g clip-path="url(#20e1968a07)"><path fill="#1caf52" d="M 705.394531 209.457031 C 490.742188 155.726562 245.191406 201.425781 49.808594 309.949219 C 209.210938 168.414062 546.320312 81.566406 719.515625 156.253906 C 714.480469 173.988281 710.429688 191.722656 705.394531 209.457031 " fill-opacity="1" fill-rule="evenodd"/></g><g clip-path="url(#37b08aba41)"><path fill="#2976c1" d="M 604.828125 191.640625 C 416.660156 171.21875 215.25 218.054688 49.808594 309.949219 C 182.171875 192.421875 437.054688 112.617188 618.882812 131.679688 L 604.828125 191.640625 " fill-opacity="1" fill-rule="evenodd"/></g><path fill="#3a3788" d="M 507.023438 186.953125 C 348.585938 188.621094 186.855469 233.828125 49.808594 309.949219 C 159.78125 212.304688 354.324219 140.703125 521.28125 130.199219 L 507.023438 186.953125 " fill-opacity="1" fill-rule="evenodd"/><path fill="#5c1f68" d="M 412.605469 192.976562 C 285.417969 207.761719 159.679688 248.921875 49.808594 309.949219 C 139.242188 230.539062 284.617188 168.347656 425.601562 142.242188 L 412.605469 192.976562 " fill-opacity="1" fill-rule="evenodd"/><path fill="#e6282d" d="M 319.980469 208.425781 C 225.007812 229.039062 132.875 263.8125 49.808594 309.949219 C 118.652344 248.820312 220.648438 197.910156 328.265625 165.792969 L 319.980469 208.425781 " fill-opacity="1" fill-rule="evenodd"/><path fill="#f25427" d="M 219.273438 235.917969 C 160.148438 255.425781 103.109375 280.347656 49.808594 309.949219 C 96.371094 268.605469 158.105469 231.941406 226.480469 202.59375 L 219.273438 235.917969 " fill-opacity="1" fill-rule="evenodd"/><path fill="#f2cc12" d="M 117.128906 275.957031 C 94.136719 286.472656 71.65625 297.816406 49.808594 309.949219 C 69.867188 292.140625 92.742188 275.199219 117.75 259.332031 L 117.128906 275.957031 " fill-opacity="1" fill-rule="evenodd"/><path fill="#1caf52" d="M 64.585938 560.324219 C 280.203125 612.902344 532.542969 564.230469 720.832031 448.234375 C 572.539062 599.132812 233.917969 682.621094 52.433594 615.363281 L 64.585938 560.324219 " fill-opacity="1" fill-rule="evenodd"/><path fill="#2976c1" d="M 64.585938 560.324219 C 255.621094 606.90625 475.46875 574 654.066406 485.222656 L 650.742188 505.753906 C 483.453125 619.011719 209.273438 673.488281 52.433594 615.363281 L 64.585938 560.324219 " fill-opacity="1" fill-rule="evenodd"/><path fill="#3a3788" d="M 64.585938 560.324219 C 220.8125 598.421875 396.308594 583.347656 552.761719 528.042969 L 541.910156 565.09375 C 380.613281 636.015625 178.574219 662.113281 52.433594 615.363281 L 64.585938 560.324219 " fill-opacity="1" fill-rule="evenodd"/><path fill="#5c1f68" d="M 64.585938 560.324219 C 187.8125 590.371094 323.023438 587.335938 451.425781 557.578125 L 442.503906 601.644531 C 303.789062 643.476562 153.667969 652.882812 52.433594 615.363281 L 64.585938 560.324219 " fill-opacity="1" fill-rule="evenodd"/><path fill="#e6282d" d="M 64.585938 560.324219 C 157.449219 582.96875 257.121094 586.816406 355.554688 574.609375 L 343.878906 625.523438 C 236.113281 645.296875 129.941406 644.089844 52.433594 615.363281 L 64.585938 560.324219 " fill-opacity="1" fill-rule="evenodd"/><path fill="#f25427" d="M 64.585938 560.324219 C 128.308594 575.863281 195.242188 582.554688 262.777344 581.28125 L 247.65625 637.507812 C 174.746094 642.074219 106.589844 635.433594 52.433594 615.363281 L 64.585938 560.324219 " fill-opacity="1" fill-rule="evenodd"/><path fill="#f2cc12" d="M 64.585938 560.324219 C 97.386719 568.320312 131.039062 573.964844 165.183594 577.394531 L 152.210938 636.574219 C 115.785156 633.257812 82.015625 626.328125 52.433594 615.363281 L 64.585938 560.324219 " fill-opacity="1" fill-rule="evenodd"/></svg>