<svg xmlns="http://www.w3.org/2000/svg" xmlns:xlink="http://www.w3.org/1999/xlink" width="1024" zoomAndPan="magnify" viewBox="0 0 768 775.92" height="1024" preserveAspectRatio="xMidYMid meet" version="1.0"><defs><clipPath id="3a0340325c"><path d="M 0.0390625 0 L 767.960938 0 L 767.960938 767.921875 L 0.0390625 767.921875 Z M 0.0390625 0 " clip-rule="nonzero"/></clipPath><clipPath id="b50b8ee143"><path d="M 672 346 L 767.960938 346 L 767.960938 426 L 672 426 Z M 672 346 " clip-rule="nonzero"/></clipPath><clipPath id="8222039a29"><path d="M 6 346 L 107 346 L 107 426 L 6 426 Z M 6 346 " clip-rule="nonzero"/></clipPath><clipPath id="07f44b154e"><path d="M 6.945312 354.625 C 6.945312 349.984375 11.691406 346.25 17.429688 346.25 L 96.488281 346.25 C 102.324219 346.25 106.976562 349.984375 106.976562 354.625 L 106.976562 417.566406 C 106.976562 422.207031 102.226562 425.941406 96.488281 425.941406 L 17.429688 425.941406 C 11.679688 426.035156 6.945312 422.207031 6.945312 417.660156 Z M 6.945312 354.625 " clip-rule="nonzero"/></clipPath><clipPath id="8a1d08c719"><path d="M 18 351 L 97 351 L 97 420 L 18 420 Z M 18 351 " clip-rule="nonzero"/></clipPath><clipPath id="efc14b1c37"><path d="M 6.945312 354.625 C 6.945312 349.984375 11.691406 346.25 17.429688 346.25 L 96.488281 346.25 C 102.324219 346.25 106.976562 349.984375 106.976562 354.625 L 106.976562 417.566406 C 106.976562 422.207031 102.226562 425.941406 96.488281 425.941406 L 17.429688 425.941406 C 11.679688 426.035156 6.945312 422.207031 6.945312 417.660156 Z M 6.945312 354.625 " clip-rule="nonzero"/></clipPath><clipPath id="f1543cfb69"><path d="M 7.136719 344.070312 L 112.265625 343.882812 L 113.171875 429.027344 L 5.765625 429.027344 Z M 7.136719 344.070312 " clip-rule="nonzero"/></clipPath><clipPath id="80eb3828eb"><path d="M 6 346 L 70 346 L 70 361 L 6 361 Z M 6 346 " clip-rule="nonzero"/></clipPath><clipPath id="495aa403da"><path d="M 6.945312 354.625 C 6.945312 349.984375 11.691406 346.25 17.429688 346.25 L 96.488281 346.25 C 102.324219 346.25 106.976562 349.984375 106.976562 354.625 L 106.976562 417.566406 C 106.976562 422.207031 102.226562 425.941406 96.488281 425.941406 L 17.429688 425.941406 C 11.679688 426.035156 6.945312 422.207031 6.945312 417.660156 Z M 6.945312 354.625 " clip-rule="nonzero"/></clipPath><clipPath id="1848bece34"><path d="M 7.136719 344.070312 L 112.265625 343.882812 L 113.171875 429.027344 L 5.765625 429.027344 Z M 7.136719 344.070312 " clip-rule="nonzero"/></clipPath><clipPath id="04a92ca563"><path d="M 6 359 L 27 359 L 27 396 L 6 396 Z M 6 359 " clip-rule="nonzero"/></clipPath><clipPath id="ad3b7a91f7"><path d="M 6.945312 354.625 C 6.945312 349.984375 11.691406 346.25 17.429688 346.25 L 96.488281 346.25 C 102.324219 346.25 106.976562 349.984375 106.976562 354.625 L 106.976562 417.566406 C 106.976562 422.207031 102.226562 425.941406 96.488281 425.941406 L 17.429688 425.941406 C 11.679688 426.035156 6.945312 422.207031 6.945312 417.660156 Z M 6.945312 354.625 " clip-rule="nonzero"/></clipPath><clipPath id="38f8c0961e"><path d="M 7.136719 344.070312 L 112.265625 343.882812 L 113.171875 429.027344 L 5.765625 429.027344 Z M 7.136719 344.070312 " clip-rule="nonzero"/></clipPath></defs><g clip-path="url(#3a0340325c)"><path fill="#ffffff" d="M 0.0390625 0 L 767.960938 0 L 767.960938 767.921875 L 0.0390625 767.921875 Z M 0.0390625 0 " fill-opacity="1" fill-rule="nonzero"/><path fill="#ffffff" d="M 0.0390625 0 L 767.960938 0 L 767.960938 767.921875 L 0.0390625 767.921875 Z M 0.0390625 0 " fill-opacity="1" fill-rule="nonzero"/></g><path fill="#cf0a2c" d="M 166.789062 346.25 L 259.886719 346.25 C 259.886719 346.25 266.355469 346.15625 266.355469 353.164062 L 266.355469 365.355469 L 208.632812 408.285156 L 266.355469 408.285156 L 266.355469 425.929688 L 172.433594 425.929688 C 172.433594 425.929688 166.683594 425.929688 166.683594 420.015625 L 166.683594 406.648438 L 223.945312 363.71875 L 166.683594 363.8125 L 166.683594 346.25 Z M 166.789062 346.25 " fill-opacity="1" fill-rule="evenodd"/><path fill="#cf0a2c" d="M 119.195312 346.25 L 154.566406 346.25 L 154.566406 425.929688 L 119.195312 425.929688 Z M 119.195312 346.25 " fill-opacity="1" fill-rule="nonzero"/><path fill="#cf0a2c" d="M 276.945312 408.378906 L 276.945312 363.8125 C 276.851562 347.074219 291.539062 346.25 310.40625 346.25 L 377.339844 346.25 L 377.339844 363.71875 L 320.808594 363.71875 C 314.609375 363.8125 311.871094 365.8125 311.871094 369.453125 L 311.871094 377.273438 L 377.339844 377.273438 L 377.339844 394.835938 L 311.964844 394.835938 L 311.964844 403.210938 C 311.964844 406.484375 314.707031 408.390625 320.902344 408.296875 L 377.433594 408.296875 L 377.433594 425.941406 L 310.597656 425.941406 C 291.445312 426.035156 276.945312 425.941406 276.945312 408.378906 Z M 276.945312 408.378906 " fill-opacity="1" fill-rule="evenodd"/><path fill="#cf0a2c" d="M 389.464844 408.554688 L 389.464844 346.25 L 424.570312 346.25 L 424.570312 403.199219 C 424.570312 406.566406 427.484375 408.285156 433.316406 408.285156 L 469.882812 408.285156 L 469.882812 425.929688 C 469.882812 425.929688 421.367188 426.023438 421.191406 425.929688 C 402.039062 426.023438 389.453125 426.023438 389.453125 408.554688 Z M 389.464844 408.554688 " fill-opacity="1" fill-rule="evenodd"/><path fill="#cf0a2c" d="M 452.101562 363.8125 L 452.101562 346.25 L 551.679688 346.25 L 551.679688 363.8125 L 519.402344 363.8125 L 519.402344 425.847656 L 484.300781 425.847656 L 484.300781 363.8125 Z M 452.101562 363.8125 " fill-opacity="1" fill-rule="evenodd"/><g clip-path="url(#b50b8ee143)"><path fill="#cf0a2c" d="M 672.136719 362.445312 C 672.136719 361.078125 672.597656 355.804688 677.332031 351.527344 C 684.722656 346.34375 685.171875 346.34375 702.410156 346.34375 L 765.234375 346.34375 L 765.234375 363.988281 L 711.15625 363.894531 C 706.140625 363.894531 703.589844 365.355469 703.589844 367.710938 L 703.589844 372.988281 C 703.589844 373.527344 703.410156 374.082031 703.589844 374.164062 C 703.589844 376.53125 705.960938 377.4375 711.15625 377.4375 L 739.789062 377.4375 C 747.179688 377.4375 752.824219 377.4375 759.304688 380.441406 C 767.878906 384.175781 767.972656 388.992188 767.972656 394.90625 L 767.972656 408.460938 C 767.972656 414.738281 767.972656 418.378906 758.855469 423.101562 C 753.109375 426.011719 745.824219 425.917969 737.523438 425.917969 L 674.96875 425.917969 L 674.96875 408.355469 L 729.859375 408.355469 C 735.421875 408.355469 737.523438 406.71875 737.523438 404.539062 L 737.523438 398.535156 C 737.523438 396.355469 735.242188 394.800781 730.132812 394.800781 L 702.410156 394.800781 C 690.824219 394.800781 684.628906 394.339844 677.332031 389.617188 C 672.5 386.4375 672.136719 382.609375 672.136719 379.605469 L 672.136719 362.410156 Z M 672.136719 362.445312 " fill-opacity="1" fill-rule="evenodd"/></g><path fill="#cf0a2c" d="M 593.253906 377.355469 L 628.179688 377.355469 L 628.179688 367.710938 C 628.179688 367.710938 628.085938 363.707031 623.433594 363.707031 L 596.714844 363.707031 C 596.714844 363.707031 593.253906 364.4375 593.253906 367.710938 Z M 561.066406 426.023438 L 561.066406 358.898438 C 561.066406 358.898438 563.253906 346.167969 579.027344 346.167969 L 642.675781 346.167969 C 642.675781 346.167969 660.554688 346.898438 660.554688 360.539062 L 660.554688 425.847656 L 628.179688 425.847656 L 628.179688 394.742188 L 593.253906 394.742188 L 593.253906 425.941406 L 561.066406 425.941406 L 561.066406 426.035156 Z M 561.066406 426.023438 " fill-opacity="1" fill-rule="evenodd"/><g clip-path="url(#8222039a29)"><g clip-path="url(#07f44b154e)"><path fill="#2a3077" d="M 7.136719 344.070312 L 112.265625 343.882812 L 113.171875 429.027344 L 5.765625 429.027344 Z M 7.136719 344.070312 " fill-opacity="1" fill-rule="evenodd"/></g></g><g clip-path="url(#8a1d08c719)"><g clip-path="url(#efc14b1c37)"><g clip-path="url(#f1543cfb69)"><path stroke-linecap="butt" transform="matrix(1.18069, 0, 0, 1.1778, 0.0395876, 338.665763)" fill="none" stroke-linejoin="round" d="M 78.528846 48.529835 C 78.528846 48.529835 80.689261 19.881357 61.000695 15.009324 C 57.990009 14.239882 51.889233 14.160284 45.861243 16.010927 C 39.598354 17.941167 33.041012 21.718733 29.411646 25.121527 C 23.618556 30.451246 19.598793 35.240364 19.22163 42.261529 C 18.831234 50.138368 29.180055 65.431044 57.599612 64.810847 L 43.240953 52.300768 C 43.240953 52.300768 38.37092 47.740493 43.240953 43.730767 C 48.951332 39.021246 58.608688 31.220688 63.859193 36.079454 C 68.649824 40.63973 78.528846 48.509936 78.528846 48.509936 Z M 78.528846 48.529835 " stroke="#ffffff" stroke-width="7.02" stroke-opacity="1" stroke-miterlimit="4"/></g></g></g><g clip-path="url(#80eb3828eb)"><g clip-path="url(#495aa403da)"><g clip-path="url(#1848bece34)"><path stroke-linecap="round" transform="matrix(1.18069, 0, 0, 1.1778, 0.0395876, 338.665763)" fill="none" stroke-linejoin="round" d="M 55.0488 14.551639 C 47.330193 15.251434 26.708645 13.619684 7.790947 3.510798 " stroke="#ffffff" stroke-width="7.02" stroke-opacity="1" stroke-miterlimit="4"/></g></g></g><g clip-path="url(#04a92ca563)"><g clip-path="url(#ad3b7a91f7)"><g clip-path="url(#38f8c0961e)"><path stroke-linecap="butt" transform="matrix(1.18069, 0, 0, 1.1778, 0.0395876, 338.665763)" fill="none" stroke-linejoin="round" d="M 19.291108 44.669355 C 18.361434 43.130469 14.659282 32.238873 2.298926 21.49984 " stroke="#ffffff" stroke-width="7.02" stroke-opacity="1" stroke-miterlimit="4"/></g></g></g></svg>