<svg xmlns="http://www.w3.org/2000/svg" xmlns:xlink="http://www.w3.org/1999/xlink" width="1024" zoomAndPan="magnify" viewBox="0 0 768 775.92" height="1024" preserveAspectRatio="xMidYMid meet" version="1.0"><defs><clipPath id="0fb5bc5a59"><path d="M 0.0390625 0 L 767.960938 0 L 767.960938 767.921875 L 0.0390625 767.921875 Z M 0.0390625 0 " clip-rule="nonzero"/></clipPath><clipPath id="c360b52c90"><path d="M 0.0390625 303 L 767.960938 303 L 767.960938 496 L 0.0390625 496 Z M 0.0390625 303 " clip-rule="nonzero"/></clipPath><clipPath id="c3bfdcb135"><path d="M 0.0390625 272 L 767.960938 272 L 767.960938 304 L 0.0390625 304 Z M 0.0390625 272 " clip-rule="nonzero"/></clipPath></defs><g clip-path="url(#0fb5bc5a59)"><path fill="#ffffff" d="M 0.0390625 0 L 767.960938 0 L 767.960938 767.921875 L 0.0390625 767.921875 Z M 0.0390625 0 " fill-opacity="1" fill-rule="nonzero"/><path fill="#ffffff" d="M 0.0390625 0 L 767.960938 0 L 767.960938 767.921875 L 0.0390625 767.921875 Z M 0.0390625 0 " fill-opacity="1" fill-rule="nonzero"/></g><g clip-path="url(#c360b52c90)"><path fill="#f0ab00" d="M 0.0390625 303.457031 L 767.960938 303.457031 L 767.960938 495.78125 L 0.0390625 495.78125 Z M 0.0390625 303.457031 " fill-opacity="1" fill-rule="nonzero"/></g><g clip-path="url(#c3bfdcb135)"><path fill="#d52b1e" d="M 0.0390625 272.390625 L 767.960938 272.390625 L 767.960938 303.457031 L 0.0390625 303.457031 Z M 0.0390625 272.390625 " fill-opacity="1" fill-rule="nonzero"/></g><path fill="#ffffff" d="M 105.449219 469.398438 C 64.8125 469.398438 31.808594 444.742188 31.808594 420.085938 C 31.808594 388.523438 64.8125 367.320312 105.449219 367.320312 C 146.085938 367.320312 179.089844 388.523438 179.089844 420.085938 C 179.089844 444.742188 146.085938 469.398438 105.449219 469.398438 " fill-opacity="1" fill-rule="nonzero"/><path fill="#031e45" d="M 198.300781 442.523438 C 207.90625 444.25 220.464844 444.988281 227.117188 436.851562 C 233.519531 429.453125 232.289062 418.851562 232.78125 409.234375 C 233.027344 384.332031 232.535156 359.183594 231.796875 334.277344 L 264.304688 334.277344 C 263.320312 360.414062 263.074219 385.070312 263.320312 411.207031 C 263.320312 425.015625 264.058594 439.316406 254.945312 449.671875 C 243.863281 462.742188 227.117188 465.699219 209.875 465.699219 L 206.179688 465.453125 Z M 704.910156 458.304688 C 689.640625 434.878906 672.402344 412.441406 655.160156 389.757812 C 654.914062 412.441406 655.40625 435.617188 656.144531 458.054688 L 627.085938 458.054688 C 628.5625 417.125 628.316406 375.210938 627.085938 334.03125 L 653.191406 334.03125 C 668.460938 357.457031 685.945312 380.140625 702.941406 402.578125 C 703.1875 379.648438 702.941406 356.46875 701.957031 334.03125 L 731.015625 334.03125 C 730.769531 347.59375 730.277344 361.648438 730.277344 374.960938 C 730.03125 402.578125 730.277344 430.6875 731.015625 458.054688 Z M 464.78125 458.304688 C 463.550781 425.015625 463.550781 390.988281 464.289062 357.457031 C 474.632812 357.457031 485.714844 357.949219 495.8125 358.441406 L 495.8125 334.277344 L 401.484375 334.277344 L 401.484375 358.441406 C 411.585938 357.703125 422.667969 357.210938 433.011719 357.457031 C 433.75 390.988281 433.503906 425.015625 432.519531 458.304688 Z M 556.894531 462 C 549.257812 462 541.625 461.261719 534.726562 459.042969 C 523.398438 455.589844 513.546875 446.714844 509.605469 435.867188 C 505.171875 425.507812 506.652344 412.6875 506.40625 401.34375 C 506.652344 379.152344 506.15625 356.714844 505.417969 334.523438 L 537.191406 334.523438 C 536.453125 359.429688 536.203125 385.320312 536.453125 409.976562 C 536.699219 419.097656 536.699219 428.46875 543.101562 434.878906 C 546.550781 438.578125 551.722656 440.058594 556.894531 440.058594 C 562.066406 440.058594 567.238281 438.578125 570.683594 434.878906 C 577.089844 428.46875 577.089844 419.097656 577.335938 409.976562 C 577.582031 385.320312 577.335938 359.429688 576.597656 334.523438 L 608.367188 334.523438 C 607.628906 356.714844 607.382812 379.152344 607.382812 401.34375 C 607.136719 412.441406 608.367188 425.507812 604.179688 435.867188 C 599.992188 446.960938 590.140625 455.589844 579.058594 459.042969 C 572.410156 461.015625 564.773438 462 556.894531 462 M 402.226562 376.6875 C 398.039062 361.648438 387.695312 346.855469 372.917969 338.714844 C 363.804688 333.539062 352.476562 330.828125 341.144531 330.828125 C 329.816406 330.828125 318.242188 333.292969 309.375 338.714844 C 294.597656 346.855469 284.253906 361.402344 280.066406 376.6875 C 275.632812 395.675781 277.113281 417.617188 287.703125 433.398438 C 295.089844 445.234375 306.417969 454.113281 319.226562 458.304688 C 326.367188 460.769531 333.757812 461.753906 341.144531 461.753906 C 348.535156 461.753906 355.921875 460.523438 363.066406 458.304688 C 375.871094 454.113281 387.203125 444.988281 394.589844 433.398438 C 405.179688 417.617188 406.660156 395.675781 402.226562 376.6875 M 372.425781 404.304688 C 371.6875 414.414062 368.976562 423.785156 362.328125 431.425781 C 357.15625 437.835938 349.027344 440.550781 340.898438 440.550781 C 332.773438 440.550781 324.644531 437.589844 319.472656 431.425781 C 313.070312 423.785156 310.113281 414.414062 309.375 404.304688 C 308.636719 388.277344 309.375 372.003906 320.457031 360.414062 C 325.875 354.496094 333.265625 352.03125 340.898438 352.03125 C 348.535156 352.03125 355.921875 354.496094 361.339844 360.414062 C 372.425781 372.003906 373.164062 388.277344 372.425781 404.304688 M 131.0625 369.539062 L 131.0625 321.949219 C 118.011719 321.949219 100.523438 324.167969 88.703125 341.429688 C 83.53125 349.8125 80.082031 359.183594 78.605469 370.03125 C 77.375 370.277344 76.140625 370.523438 75.15625 371.015625 C 49.050781 378.660156 31.070312 396.660156 31.070312 420.085938 C 31.070312 439.316406 50.527344 458.054688 77.867188 466.191406 L 77.867188 470.878906 L 133.035156 470.878906 L 133.035156 466.191406 C 160.371094 458.304688 179.828125 439.316406 179.828125 420.085938 C 179.828125 394.933594 159.386719 376.441406 131.0625 369.539062 M 43.140625 394.933594 L 59.394531 394.933594 C 55.945312 400.605469 53.484375 407.015625 52.5 413.921875 L 35.011719 413.921875 C 35.996094 407.015625 38.953125 400.605469 43.140625 394.933594 M 34.519531 420.085938 C 34.519531 419.097656 34.519531 418.359375 34.765625 417.371094 L 52.5 417.371094 C 52.5 418.359375 52.253906 419.097656 52.253906 420.085938 C 52.253906 425.757812 53.238281 431.179688 55.207031 436.359375 L 39.445312 436.359375 C 36.242188 431.179688 34.519531 425.507812 34.519531 420.085938 M 77.867188 462.742188 C 62.351562 458.054688 49.542969 449.671875 41.910156 439.808594 L 56.683594 439.808594 C 60.871094 449.425781 68.507812 457.316406 77.867188 462.742188 M 77.867188 458.796875 C 70.476562 454.113281 64.566406 447.453125 60.625 439.808594 L 77.867188 439.808594 Z M 77.867188 436.359375 L 59.148438 436.359375 C 57.179688 431.179688 55.945312 425.757812 55.945312 420.085938 C 55.945312 419.097656 55.945312 418.359375 56.191406 417.371094 L 78.113281 417.371094 Z M 77.867188 413.921875 L 56.4375 413.921875 C 57.425781 407.015625 59.886719 400.605469 63.828125 394.933594 L 77.867188 394.933594 Z M 105.449219 465.945312 C 89.441406 465.945312 83.777344 444.25 83.777344 417.617188 C 83.777344 390.988281 88.949219 369.292969 105.449219 369.292969 C 121.953125 369.292969 127.125 390.988281 127.125 417.617188 C 127.125 444.25 121.457031 465.945312 105.449219 465.945312 M 168.007812 394.933594 C 172.195312 400.605469 174.902344 406.769531 176.132812 413.921875 L 158.402344 413.921875 C 157.417969 407.015625 155.199219 400.605469 151.503906 394.933594 Z M 133.035156 394.933594 L 147.320312 394.933594 C 151.257812 400.605469 153.722656 407.015625 154.707031 413.921875 L 133.035156 413.921875 Z M 133.035156 417.371094 L 154.953125 417.371094 C 154.953125 418.359375 155.199219 419.097656 155.199219 420.085938 C 155.199219 425.757812 153.96875 431.179688 152 436.359375 L 133.035156 436.359375 Z M 133.035156 439.808594 L 150.519531 439.808594 C 146.578125 447.453125 140.667969 454.113281 133.035156 458.796875 Z M 133.035156 462.742188 C 142.394531 457.316406 150.027344 449.425781 154.460938 439.808594 L 169.238281 439.808594 C 161.601562 449.671875 148.796875 458.054688 133.035156 462.742188 M 155.691406 436.359375 C 157.664062 431.179688 158.648438 425.757812 158.648438 420.085938 C 158.648438 419.097656 158.648438 418.359375 158.402344 417.371094 L 176.132812 417.371094 L 176.132812 420.085938 C 176.132812 425.757812 174.410156 431.179688 171.207031 436.359375 Z M 155.691406 436.359375 " fill-opacity="1" fill-rule="nonzero"/><path fill="#ffffff" d="M 107.667969 335.019531 C 105.203125 335.019531 103.234375 336.992188 103.234375 339.457031 C 103.234375 341.921875 105.203125 343.894531 107.667969 343.894531 C 110.128906 343.894531 112.101562 341.921875 112.101562 339.457031 C 112.101562 336.992188 110.128906 335.019531 107.667969 335.019531 M 107.667969 340.9375 C 106.929688 340.9375 106.1875 340.195312 106.1875 339.457031 C 106.1875 338.714844 106.929688 337.976562 107.667969 337.976562 C 108.40625 337.976562 109.144531 338.714844 109.144531 339.457031 C 109.144531 340.195312 108.40625 340.9375 107.667969 340.9375 " fill-opacity="1" fill-rule="nonzero"/></svg>