<svg xmlns="http://www.w3.org/2000/svg" xmlns:xlink="http://www.w3.org/1999/xlink" width="1024" zoomAndPan="magnify" viewBox="0 0 768 775.92" height="1024" preserveAspectRatio="xMidYMid meet" version="1.0"><defs><clipPath id="657257e34d"><path d="M 0.0390625 0 L 767.960938 0 L 767.960938 767.921875 L 0.0390625 767.921875 Z M 0.0390625 0 " clip-rule="nonzero"/></clipPath><clipPath id="2c0dc236ff"><path d="M 0.0390625 221.636719 L 767.960938 221.636719 L 767.960938 546.351562 L 0.0390625 546.351562 Z M 0.0390625 221.636719 " clip-rule="nonzero"/></clipPath></defs><g clip-path="url(#657257e34d)"><path fill="#ffffff" d="M 0.0390625 0 L 767.960938 0 L 767.960938 767.921875 L 0.0390625 767.921875 Z M 0.0390625 0 " fill-opacity="1" fill-rule="nonzero"/><path fill="#ffffff" d="M 0.0390625 0 L 767.960938 0 L 767.960938 767.921875 L 0.0390625 767.921875 Z M 0.0390625 0 " fill-opacity="1" fill-rule="nonzero"/></g><path fill="#dd8603" d="M 135.433594 291.09375 L 13.5625 262.230469 C 13.5625 262.230469 10.113281 327.171875 32.070312 353.34375 C 59.015625 385.476562 46.46875 438.859375 43.59375 449.921875 L 125.488281 428.65625 C 125.488281 428.65625 132.96875 411.910156 134.683594 386.679688 C 135.910156 374.5625 132.316406 361.71875 128.808594 349.28125 C 122.820312 328.042969 129.382812 298.367188 135.433594 291.09375 Z M 135.433594 291.09375 " fill-opacity="1" fill-rule="evenodd"/><path fill="#003764" d="M 105.308594 298.730469 C 108.152344 299.207031 113.628906 308.960938 113.628906 308.960938 C 116.691406 310.640625 115.671875 316.9375 115.671875 316.9375 C 117.480469 319.453125 116.789062 321.347656 116.789062 321.347656 C 119.621094 329.984375 117.578125 348.570312 117.578125 348.570312 C 118.066406 351.335938 118.515625 367.609375 118.515625 367.609375 C 119.167969 369.496094 117.5625 373.414062 117.5625 373.414062 C 118.519531 376.003906 116.992188 380.78125 116.992188 380.78125 C 117.109375 382.113281 117.417969 388.410156 117.417969 388.410156 C 118.394531 391.242188 111.234375 391.515625 111.234375 391.515625 C 109.6875 393.242188 98.773438 395.277344 98.773438 395.277344 C 99.226562 400.480469 90.9375 408.761719 90.9375 408.761719 C 90.085938 411.644531 84.65625 416.25 84.65625 416.25 C 85.042969 417.921875 85.144531 427.410156 85.144531 427.410156 C 85.707031 436.625 85.371094 442.503906 85.371094 442.503906 C 85.371094 442.503906 74.644531 444.777344 75.167969 441.367188 C 75.167969 441.367188 76.316406 429.746094 73.945312 426.96875 C 73.945312 426.96875 73.550781 427.539062 71.875 430.050781 C 71.875 430.050781 70.128906 433.113281 65.550781 429.949219 C 65.550781 429.949219 60.226562 428.472656 64.035156 423.847656 C 64.035156 423.847656 69.957031 418.210938 70.460938 412.949219 C 70.460938 412.949219 71.738281 390.753906 69.332031 392.121094 C 69.332031 392.121094 63.828125 391.304688 63.78125 389.023438 C 63.78125 389.023438 64.417969 387.238281 61.121094 388.339844 C 61.121094 388.339844 55.144531 390.0625 54.144531 385.125 C 54.144531 385.125 52.746094 374.441406 53.558594 367.417969 C 54.375 360.390625 53.773438 358.039062 54.257812 355.605469 C 54.257812 355.605469 54.753906 350.242188 56.121094 346.441406 C 56.121094 346.441406 55.34375 343.121094 56.476562 342.171875 C 56.476562 342.171875 56.957031 341.265625 57.023438 339.082031 C 57.023438 339.082031 57.3125 336.992188 59.128906 333.382812 C 59.128906 333.382812 62.054688 326.96875 61.570312 324.71875 C 61.570312 324.71875 59.6875 319.621094 61.410156 317.761719 C 63.128906 315.898438 62.277344 313.015625 64.847656 310.875 C 64.847656 310.875 66.949219 308.226562 67.628906 307.089844 C 67.628906 307.089844 68.722656 305.597656 73.191406 304.089844 C 73.191406 304.089844 74.476562 302.253906 75.65625 301.957031 C 75.65625 301.957031 76.832031 300.132812 74.539062 298.4375 C 72.246094 296.75 72.972656 296.261719 73.476562 295.683594 C 73.476562 295.683594 73.082031 294.730469 72.007812 294.914062 C 72.007812 294.914062 69.703125 293.117188 71.039062 292.042969 C 71.039062 292.042969 71.210938 289.746094 70.308594 292.417969 C 70.308594 292.417969 68.855469 291.867188 69.308594 290.640625 C 69.308594 290.640625 66.515625 288.003906 68.472656 283.292969 C 68.472656 283.292969 70 278.722656 72.96875 277.535156 L 75.363281 275.953125 C 75.363281 275.953125 79.285156 274.476562 83.25 275.070312 C 83.25 275.070312 86.71875 276.464844 87.570312 276.1875 C 87.570312 276.1875 90.121094 278.40625 90.777344 279.992188 C 90.777344 279.992188 91.566406 283.53125 92.125 283.710938 C 92.125 283.710938 92.554688 286.726562 93.292969 287.980469 C 93.292969 287.980469 93.792969 290.453125 92.347656 291.53125 C 92.347656 291.53125 91.238281 292.808594 94.933594 295.816406 C 94.933594 295.816406 98.214844 297.652344 99.535156 299.414062 C 99.535156 299.414062 101.238281 300.382812 103.445312 299.25 Z M 105.308594 298.730469 " fill-opacity="1" fill-rule="evenodd"/><path fill="#ffffff" d="M 78.96875 444.371094 C 76.714844 444.371094 75.320312 443.964844 74.574219 443.09375 C 74.125 442.570312 73.945312 441.914062 74.054688 441.195312 C 74.394531 437.742188 74.535156 432.160156 73.773438 429.238281 C 73.511719 429.625 73.195312 430.105469 72.8125 430.679688 C 72.449219 431.316406 71.25 432.507812 69.289062 432.507812 C 67.992188 432.507812 66.570312 431.996094 65.058594 430.976562 C 64.375 430.753906 62.316406 429.921875 61.703125 427.96875 C 61.238281 426.5 61.734375 424.875 63.167969 423.132812 C 63.316406 422.980469 68.882812 417.617188 69.339844 412.839844 C 69.804688 404.757812 69.832031 395.304688 69.109375 393.226562 C 67.917969 393.042969 62.8125 392.089844 62.660156 389.125 C 62.363281 389.15625 62.003906 389.230469 61.476562 389.40625 C 61.386719 389.4375 60.253906 389.757812 58.851562 389.757812 C 55.726562 389.757812 53.605469 388.152344 53.042969 385.34375 C 52.96875 384.828125 51.621094 374.367188 52.441406 367.285156 C 52.890625 363.394531 52.902344 360.933594 52.910156 359.140625 C 52.917969 357.695312 52.921875 356.558594 53.152344 355.386719 C 53.15625 355.28125 53.636719 350.226562 54.953125 346.367188 C 54.726562 345.238281 54.398438 342.785156 55.527344 341.527344 C 55.625 341.25 55.851562 340.457031 55.894531 339.050781 C 55.917969 338.835938 56.242188 336.609375 58.121094 332.875 C 59.253906 330.390625 60.746094 326.253906 60.46875 324.953125 C 60.160156 324.148438 58.5 319.25 60.582031 316.996094 C 61.144531 316.386719 61.359375 315.550781 61.605469 314.585938 C 61.960938 313.1875 62.40625 311.445312 64.125 310.011719 C 64.539062 309.457031 66.136719 307.386719 66.664062 306.511719 C 66.851562 306.246094 68.097656 304.679688 72.492188 303.140625 C 72.914062 302.589844 73.796875 301.566406 74.8125 301.074219 C 74.894531 300.707031 74.839844 300.058594 73.871094 299.34375 C 72.527344 298.355469 71.921875 297.582031 71.835938 296.753906 C 71.816406 296.535156 71.832031 296.335938 71.875 296.15625 L 71.3125 295.804688 C 71.042969 295.59375 69.804688 294.566406 69.546875 293.308594 C 68.679688 292.851562 68.03125 291.992188 68.097656 290.957031 C 67.261719 289.867188 65.6875 287.054688 67.433594 282.859375 C 67.472656 282.726562 69.140625 277.855469 72.550781 276.488281 L 74.96875 274.898438 C 75.109375 274.84375 79.230469 273.332031 83.414062 273.957031 L 83.667969 274.027344 C 84.777344 274.472656 86.628906 275.097656 87.277344 275.097656 L 87.886719 274.898438 L 88.308594 275.335938 C 88.59375 275.582031 91.082031 277.78125 91.816406 279.5625 C 92.140625 280.9375 92.535156 282.242188 92.765625 282.730469 L 93.140625 282.851562 L 93.242188 283.550781 C 93.394531 284.632812 93.8125 286.640625 94.265625 287.40625 L 94.398438 287.753906 C 94.421875 287.882812 94.972656 290.710938 93.238281 292.253906 C 93.339844 292.347656 93.566406 293.253906 95.644531 294.945312 C 95.675781 294.945312 98.730469 296.671875 100.25 298.5 C 100.671875 298.652344 101.917969 298.769531 102.929688 298.246094 L 105.25 297.578125 L 105.496094 297.621094 C 108.523438 298.128906 112.957031 305.492188 114.464844 308.148438 C 117.386719 310.074219 117.046875 315.039062 116.847656 316.664062 C 118.203125 318.761719 118.105469 320.523438 117.957031 321.300781 C 120.589844 329.851562 118.917969 346.632812 118.714844 348.542969 C 119.175781 351.621094 119.585938 365.683594 119.636719 367.421875 C 120.179688 369.347656 119.203125 372.28125 118.757812 373.453125 C 119.472656 376.085938 118.441406 379.878906 118.132812 380.90625 C 118.25 382.453125 118.488281 387.320312 118.535156 388.214844 C 118.742188 388.957031 118.628906 389.675781 118.203125 390.300781 C 116.957031 392.121094 113.113281 392.527344 111.675781 392.621094 C 109.554688 394.171875 103.007812 395.601562 99.898438 396.214844 C 99.496094 401.375 93.300781 407.960938 91.921875 409.367188 C 90.953125 412.015625 87.253906 415.460938 85.863281 416.695312 C 86.175781 419.359375 86.261719 426.515625 86.269531 427.402344 C 86.828125 436.515625 86.511719 442.324219 86.496094 442.566406 L 86.449219 443.425781 L 85.605469 443.605469 C 85.457031 443.636719 81.953125 444.371094 78.96875 444.371094 Z M 73.851562 425.125 L 74.800781 426.238281 C 77.355469 429.226562 76.488281 439.453125 76.289062 441.472656 C 76.28125 441.625 76.679688 442.117188 78.96875 442.117188 C 80.878906 442.117188 83.097656 441.777344 84.285156 441.5625 C 84.351562 439.609375 84.449219 434.496094 84.019531 427.480469 C 83.980469 423.804688 83.820312 417.632812 83.558594 416.503906 L 83.40625 415.835938 L 83.925781 415.390625 C 85.367188 414.167969 89.238281 410.535156 89.855469 408.445312 L 89.9375 408.167969 L 90.140625 407.964844 C 92.34375 405.761719 97.988281 399.207031 97.652344 395.378906 L 97.5625 394.355469 L 98.566406 394.171875 C 103.636719 393.226562 109.597656 391.652344 110.398438 390.761719 L 110.714844 390.40625 L 111.191406 390.386719 C 113.285156 390.308594 115.855469 389.742188 116.34375 389.027344 C 116.378906 388.976562 116.40625 388.933594 116.351562 388.777344 L 116.292969 388.46875 C 116.292969 388.46875 115.988281 382.207031 115.871094 380.878906 L 115.851562 380.652344 L 115.921875 380.4375 C 116.3125 379.210938 117.179688 375.625 116.507812 373.804688 L 116.355469 373.390625 L 116.519531 372.988281 C 117.121094 371.519531 117.804688 368.996094 117.453125 367.972656 L 117.390625 367.636719 C 117.234375 362.039062 116.84375 350.890625 116.46875 348.765625 L 116.441406 348.609375 L 116.457031 348.445312 C 116.480469 348.265625 118.441406 330.003906 115.71875 321.699219 L 115.597656 321.324219 L 115.730469 320.960938 C 115.742188 320.925781 116.160156 319.542969 114.757812 317.597656 L 114.488281 317.21875 L 114.558594 316.761719 C 114.789062 315.328125 115.007812 311 113.085938 309.949219 L 112.804688 309.792969 L 112.644531 309.511719 C 110.246094 305.238281 106.855469 300.503906 105.316406 299.898438 L 103.75 300.332031 C 103.085938 300.699219 102.183594 300.925781 101.269531 300.925781 C 99.953125 300.925781 99.074219 300.445312 98.980469 300.390625 L 98.636719 300.089844 C 97.667969 298.804688 95.238281 297.28125 94.382812 296.800781 C 92.214844 295.058594 91.183594 293.628906 91.070312 292.320312 C 90.996094 291.441406 91.378906 290.929688 91.496094 290.792969 L 91.671875 290.628906 C 92.3125 290.152344 92.289062 288.925781 92.214844 288.351562 C 91.597656 287.160156 91.21875 285.152344 91.074219 284.273438 C 90.6875 283.757812 90.21875 282.667969 89.679688 280.238281 C 89.375 279.539062 88.097656 278.199219 87.179688 277.347656 C 85.925781 277.300781 83.660156 276.445312 82.957031 276.167969 C 79.707031 275.722656 76.5 276.75 75.871094 276.96875 L 73.589844 278.472656 C 71.359375 279.390625 69.921875 282.515625 69.539062 283.652344 C 67.871094 287.671875 70.058594 289.796875 70.082031 289.820312 L 70.398438 290.117188 C 70.554688 290.042969 70.726562 289.996094 70.929688 289.996094 L 71.421875 289.996094 L 71.796875 290.378906 C 72.035156 290.636719 72.246094 291.023438 72.164062 292.121094 L 72.128906 292.613281 L 71.746094 292.921875 C 71.761719 293.039062 72.0625 293.433594 72.402344 293.765625 C 73.605469 293.828125 74.296875 294.71875 74.515625 295.25 L 74.78125 295.898438 L 74.324219 296.425781 C 74.253906 296.503906 74.199219 296.5625 74.15625 296.609375 C 74.285156 296.765625 74.570312 297.0625 75.207031 297.53125 C 77.695312 299.367188 77.207031 301.628906 76.601562 302.566406 L 76.359375 302.941406 L 75.933594 303.046875 C 75.433594 303.171875 74.542969 304.125 74.113281 304.738281 L 73.902344 305.039062 L 73.550781 305.15625 C 69.613281 306.484375 68.53125 307.765625 68.519531 307.777344 C 67.882812 308.851562 65.820312 311.464844 65.730469 311.574219 C 64.40625 312.707031 64.121094 313.835938 63.789062 315.140625 C 63.492188 316.300781 63.1875 317.496094 62.238281 318.523438 C 61.386719 319.445312 61.96875 322.53125 62.628906 324.328125 C 63.207031 326.972656 60.667969 332.722656 60.152344 333.847656 C 58.445312 337.246094 58.140625 339.222656 58.136719 339.242188 C 58.078125 341.441406 57.574219 342.507812 57.472656 342.699219 L 57.203125 343.03125 C 56.910156 343.3125 56.917969 344.902344 57.21875 346.183594 L 57.296875 346.507812 L 57.179688 346.824219 C 55.878906 350.445312 55.382812 355.660156 55.378906 355.710938 C 55.171875 356.78125 55.167969 357.777344 55.164062 359.148438 C 55.15625 361 55.144531 363.527344 54.679688 367.546875 C 53.890625 374.351562 55.25 384.871094 55.261719 384.976562 C 55.378906 385.542969 55.777344 387.503906 58.851562 387.503906 C 59.921875 387.503906 60.800781 387.261719 60.808594 387.253906 C 63 386.523438 64.230469 387.082031 64.632812 387.652344 C 65 388.171875 64.984375 388.742188 64.921875 389.09375 C 65.117188 389.730469 67.140625 390.609375 69.253906 390.96875 L 69.535156 390.933594 C 69.949219 390.933594 70.339844 391.109375 70.640625 391.429688 C 72.5 393.398438 71.921875 407.179688 71.585938 413.011719 C 71.046875 418.667969 65.070312 424.421875 64.8125 424.664062 C 64.273438 425.332031 63.582031 426.417969 63.847656 427.285156 C 64.128906 428.1875 65.394531 428.734375 65.855469 428.867188 L 66.191406 429.023438 C 67.359375 429.832031 68.429688 430.257812 69.289062 430.257812 C 70.386719 430.257812 70.859375 429.558594 70.910156 429.476562 C 72.621094 426.902344 73.019531 426.328125 73.019531 426.328125 Z M 73.851562 425.125 " fill-opacity="1" fill-rule="nonzero"/><path fill="#ffffff" d="M 102.109375 306.640625 C 102.109375 306.640625 103.484375 304.472656 104.355469 304.523438 C 104.355469 304.523438 105.625 305.519531 104.285156 306.59375 L 102.164062 307.398438 Z M 108.480469 309.023438 C 108.480469 309.023438 104.753906 308.632812 106.011719 311.046875 C 106.011719 311.046875 106.691406 311.433594 107.972656 311.019531 L 108.566406 310.214844 Z M 63.78125 376.851562 C 63.78125 376.851562 60.632812 374.363281 59.035156 376.851562 L 56.320312 379.304688 C 56.320312 379.304688 55.601562 372.164062 56.113281 368.421875 C 56.113281 368.421875 57.023438 355.421875 58.105469 351.859375 C 58.105469 351.859375 58.988281 347.046875 59.039062 346.15625 C 59.085938 345.265625 60.550781 337.015625 60.503906 336.3125 L 60.480469 335.980469 C 60.480469 335.980469 61.851562 334.023438 62.648438 332.078125 L 63.589844 329.015625 C 63.589844 329.015625 64.777344 328.601562 65.382812 335.636719 C 65.382812 335.636719 65.082031 345 64.46875 346.378906 C 64.46875 346.378906 64.742188 350.90625 63.992188 352.890625 C 63.992188 352.890625 63.921875 360.792969 65.875 361.769531 C 65.875 361.769531 69.414062 361.589844 68.933594 365.8125 C 68.453125 370.042969 66.773438 368.230469 66.773438 368.230469 L 66.925781 367.21875 C 66.925781 367.21875 65.988281 366.535156 65.921875 365.582031 C 65.898438 365.253906 66.167969 364.347656 65.742188 364.597656 C 64.246094 365.480469 63.21875 362.464844 63.511719 366.640625 C 63.511719 366.640625 64.570312 371.3125 65.78125 372.117188 C 66.992188 372.921875 65.695312 372.457031 65.695312 372.457031 C 65.695312 372.457031 67.636719 376.425781 65.5625 376.949219 Z M 62.964844 384.808594 C 62.964844 384.808594 62.816406 380.515625 60.121094 380.703125 C 60.121094 380.703125 58.371094 380.09375 58.457031 381.304688 C 58.457031 381.304688 57.710938 384.957031 58.894531 385.980469 C 58.894531 385.980469 60.632812 386.414062 61.792969 385.558594 Z M 75.300781 385.722656 L 74.816406 385.203125 C 74.816406 385.203125 73.246094 385.601562 73.113281 386.875 L 71.933594 387.445312 L 74.953125 387.121094 Z M 71.226562 380.523438 C 71.226562 380.523438 71.128906 376.605469 69.960938 377.351562 C 69.960938 377.351562 67.878906 380.269531 67.285156 380.3125 C 67.285156 380.3125 63.949219 379.882812 63.003906 379.058594 C 63.003906 379.058594 62.851562 381.664062 66.339844 384.90625 C 66.339844 384.90625 69.152344 387.972656 72.9375 384.332031 C 72.9375 384.332031 75.398438 384.007812 75.707031 382.097656 L 74.667969 379.90625 Z M 70.460938 340.984375 C 70.460938 340.984375 69.417969 356.261719 70.179688 363.953125 L 72.160156 374.824219 L 72.070312 362.445312 L 71.28125 344.191406 Z M 70.097656 329.449219 L 69.921875 331.726562 L 70.636719 333.339844 L 71.226562 332.300781 Z M 75.75 306.816406 C 75.75 306.816406 74.210938 306.101562 74.046875 305.335938 C 74.046875 305.335938 72.335938 306.898438 71.675781 306.945312 C 71.675781 306.945312 69.914062 307.175781 70.933594 309.039062 C 70.933594 309.039062 71.699219 310.472656 71.238281 311.835938 C 71.238281 311.835938 71.675781 309.542969 72.625 308.808594 C 72.625 308.808594 74.683594 307.113281 75.402344 307.28125 Z M 68.371094 307.886719 C 68.371094 307.886719 65.816406 309.507812 66.484375 312.722656 C 66.484375 312.722656 66.703125 315.8125 66.585938 317.308594 C 66.585938 317.308594 67.003906 315.351562 67.566406 313.867188 C 67.566406 313.867188 68.667969 312.171875 68.042969 311.171875 L 68.214844 308.894531 Z M 104.863281 391.160156 C 105.113281 390.054688 105.011719 390.167969 105.011719 390.167969 L 98.425781 390.957031 C 98.425781 390.957031 97.238281 392.671875 99.304688 392.636719 C 99.304688 392.636719 104.613281 392.265625 104.863281 391.160156 Z M 80.515625 432.167969 L 78.710938 432.84375 C 78.710938 432.84375 78.414062 439.5 78.582031 440.363281 C 78.582031 440.363281 81.25 441.15625 81.90625 439.585938 C 81.90625 439.585938 83.476562 437.1875 82.257812 436.835938 C 82.257812 436.835938 80.257812 437.851562 80.257812 436.324219 C 80.257812 436.324219 79.871094 433.847656 80.226562 432.734375 Z M 85.058594 392.871094 C 85.058594 392.871094 86.535156 390.589844 89.117188 391.714844 C 89.117188 391.714844 92.902344 391.339844 93.757812 392.699219 C 93.757812 392.699219 95.5625 392.027344 94.734375 397.3125 C 94.734375 397.3125 96.132812 398.628906 92.660156 401.917969 C 92.660156 401.917969 88.984375 406.96875 88.421875 408.203125 C 88.421875 408.203125 81.550781 415.871094 80.390625 416.390625 C 80.390625 416.390625 73.433594 421.234375 72.429688 424.023438 C 72.429688 424.023438 71.390625 426.277344 69.28125 425.660156 C 69.28125 425.660156 67.734375 425.332031 67.695312 424.789062 L 67.171875 425.046875 C 67.171875 425.046875 68.308594 422.675781 69.363281 422.167969 C 69.363281 422.167969 72.0625 417.191406 72.503906 415.742188 C 72.503906 415.742188 74.125 412.46875 74.300781 411.808594 C 74.300781 411.808594 75.222656 406.296875 78.132812 404.355469 C 78.132812 404.355469 81.140625 400.660156 83.503906 398.640625 C 83.503906 398.640625 85.550781 395.230469 84.847656 394.519531 L 84.480469 393.890625 Z M 72.960938 392.628906 C 72.960938 392.628906 77.570312 391.652344 78.789062 391.894531 C 78.789062 391.894531 83.074219 390.9375 82.316406 394.152344 C 81.566406 397.363281 82.3125 397.199219 73.984375 405.730469 L 72.769531 407.011719 C 72.769531 407.011719 73.453125 398.148438 73.125 395.011719 Z M 81.421875 418.714844 C 81.421875 418.714844 75.617188 422.820312 76.886719 425.453125 C 76.886719 425.453125 78.335938 430.578125 78.960938 430.210938 L 82.058594 429.34375 C 82.058594 429.34375 82.058594 419.976562 81.679688 419.238281 C 81.300781 418.503906 81.421875 418.714844 81.421875 418.714844 Z M 93.117188 322.839844 C 93.117188 322.839844 94.011719 324.734375 94.765625 324.570312 L 94.996094 323.25 C 94.996094 323.25 94.300781 322.648438 93.847656 322.351562 C 93.390625 322.058594 92.824219 321.769531 92.824219 321.769531 Z M 86.765625 302.050781 C 86.765625 302.050781 82.355469 302.792969 81.671875 302.40625 C 81.671875 302.40625 79.957031 302.742188 81.664062 303.824219 C 81.664062 303.824219 85.347656 305.089844 86.363281 304.039062 L 87.082031 303.445312 Z M 76.605469 296.878906 C 76.605469 296.878906 76.777344 296.214844 77.203125 296.078125 C 77.628906 295.9375 78.570312 296.960938 78.617188 297.609375 C 78.617188 297.609375 78.886719 298.355469 77.332031 297.917969 Z M 105.847656 302.457031 C 105.847656 302.457031 100.101562 307.433594 99.246094 307.710938 C 99.246094 307.710938 94.671875 312.382812 93.777344 312.011719 C 93.777344 312.011719 99.078125 313.054688 100.332031 312.316406 C 100.332031 312.316406 106.785156 312.734375 108.445312 314.6875 C 108.445312 314.6875 110.441406 315.203125 111.820312 316.300781 C 111.820312 316.300781 113.339844 316.199219 112.820312 315.035156 C 112.304688 313.875 111.796875 312.820312 112.0625 311.929688 C 112.0625 311.929688 110.644531 307.238281 108.558594 305.425781 Z M 83.953125 306.929688 C 83.953125 306.929688 83.351562 307.730469 83.5 308.265625 C 83.5 308.265625 81.292969 307.875 80.574219 308.472656 C 80.574219 308.472656 79.144531 306.722656 78.054688 306.6875 C 78.054688 306.6875 79.347656 306.207031 80.476562 307.0625 C 81.394531 307.761719 83.953125 306.929688 83.953125 306.929688 Z M 89.183594 313.3125 C 89.183594 313.3125 93.539062 313.226562 93.054688 314.132812 C 93.054688 314.132812 92.507812 318.746094 97.082031 320.382812 C 97.082031 320.382812 101.816406 322.667969 103.277344 323.324219 C 103.277344 323.324219 105.359375 323.507812 107.597656 325.960938 C 107.597656 325.960938 110.066406 326.988281 110.085938 325.679688 C 110.085938 325.679688 110.253906 325.015625 107.945312 323.105469 C 107.945312 323.105469 107.226562 322.175781 106.46875 322.230469 L 105.316406 321.332031 L 105.605469 320.769531 L 106.433594 321.796875 L 108.507812 321.871094 L 108.753906 320.65625 C 108.753906 320.65625 103.578125 318.296875 102.648438 317.488281 C 102.648438 317.488281 101.160156 316.394531 99.984375 316.695312 C 99.984375 316.695312 97.820312 315.324219 97.464844 314.910156 C 97.464844 314.910156 96.855469 313.972656 95.683594 314.382812 C 95.683594 314.382812 96.488281 313.453125 99.367188 314.125 C 99.367188 314.125 116.378906 317.617188 114.554688 325.804688 C 115.785156 329.417969 115.570312 331.644531 115.699219 337.484375 L 115.382812 340.769531 C 115.382812 340.769531 115.355469 343.496094 114.746094 344.082031 C 114.746094 344.082031 115.484375 346.863281 115.265625 348.402344 C 115.265625 348.402344 115.859375 352.28125 115.140625 352.875 C 115.140625 352.875 116.304688 360.199219 115.152344 360.824219 L 115.222656 369.636719 C 115.222656 369.636719 114.011719 381.917969 114.246094 383.640625 L 114.53125 387.757812 C 114.53125 387.757812 111.5 387.972656 111.21875 388.648438 C 110.941406 389.316406 108.695312 388.386719 107.757812 385.839844 C 107.757812 385.839844 109.058594 384.226562 109.734375 384.503906 C 109.734375 384.503906 108.699219 366.609375 106.308594 361.984375 C 106.308594 361.984375 104.507812 358.082031 103.832031 357.695312 L 102.101562 353.242188 C 102.101562 353.242188 100.824219 350.5 100.152344 350.222656 C 100.152344 350.222656 99.914062 348.386719 99.207031 347.671875 C 99.207031 347.671875 97.988281 345.796875 97.835938 343.632812 L 95.894531 340.71875 L 93.125 333.835938 C 93.125 333.835938 91.320312 329.824219 91.734375 327.945312 L 101.359375 337.941406 C 101.359375 337.941406 105.707031 342.535156 106.617188 341.492188 C 106.617188 341.492188 109.171875 340.664062 107.230469 339.382812 C 107.230469 339.382812 97.046875 329.207031 96.503906 327.609375 C 96.503906 327.609375 108.878906 334.910156 109.996094 333.746094 C 109.996094 333.746094 111.164062 331.8125 106.484375 330.289062 C 106.484375 330.289062 100.546875 327.871094 100.398438 327.335938 C 100.398438 327.335938 104.476562 328.03125 106.5625 329.847656 C 106.5625 329.847656 110.027344 331.128906 110.0625 330.039062 C 110.0625 330.039062 107.882812 326.921875 103.210938 325.507812 C 103.210938 325.507812 99.796875 321.828125 95.613281 321.136719 L 92.1875 318.875 C 92.1875 318.875 90.027344 319.132812 90.453125 322.042969 C 90.453125 322.042969 90.273438 324.234375 91.066406 324.613281 C 91.066406 324.613281 90.234375 325.21875 89.675781 321.878906 C 89.675781 321.878906 89.085938 319.636719 89.363281 318.964844 C 89.363281 318.964844 88.796875 317.042969 86.796875 318.054688 C 86.796875 318.054688 86.195312 320.382812 87.886719 324.289062 C 87.886719 324.289062 90.121094 336.003906 93.375 338.9375 C 93.375 338.9375 94.664062 344.945312 96.324219 346.894531 C 96.324219 346.894531 98.964844 351.9375 98.894531 352.484375 C 98.894531 352.484375 98.773438 353.910156 100.453125 354.554688 C 100.453125 354.554688 104.980469 367.960938 105.011719 369.914062 L 107.113281 381.308594 L 106.277344 381.804688 C 106.277344 381.804688 105.523438 375.652344 103.789062 375.773438 C 103.789062 375.773438 102.386719 375.980469 102.652344 378.246094 C 102.652344 378.246094 105.71875 387.832031 105.339844 388.621094 C 105.339844 388.621094 91.402344 390.140625 90.710938 389.644531 C 90.710938 389.644531 84.671875 390.394531 84.625 389.746094 C 84.578125 389.09375 79.804688 390.84375 78.324219 389.964844 C 78.324219 389.964844 74.554688 390.558594 73.820312 390.9375 C 73.820312 390.9375 71.453125 391.316406 73.078125 389.679688 C 73.078125 389.679688 75.6875 389.605469 76.734375 388.988281 C 76.734375 388.988281 79.03125 389.15625 78.585938 385.917969 C 78.585938 385.917969 76.511719 356.226562 74.90625 353.511719 C 74.90625 353.511719 74.257812 352.03125 75.355469 352.171875 C 75.355469 352.171875 77.214844 355.421875 77.90625 365.28125 C 77.90625 365.28125 78.585938 370.347656 79.917969 369.167969 C 79.917969 369.167969 81.828125 368.378906 80.851562 366.921875 C 80.851562 366.921875 80.804688 361.59375 80.109375 360.988281 C 80.109375 360.988281 77.953125 353.511719 77.996094 351.007812 C 77.996094 351.007812 76.917969 343.355469 76.980469 341.171875 C 77.046875 338.988281 76.527344 331.511719 75.449219 330.171875 C 74.378906 328.828125 72.40625 322.4375 74.222656 317.300781 C 74.222656 317.300781 75.496094 315.25 75.972656 318.921875 C 75.972656 318.921875 76.5625 321.164062 77.1875 322.320312 C 77.8125 323.472656 78.976562 327.636719 78.734375 328.851562 C 78.734375 328.851562 78.050781 329.988281 80.554688 333.082031 C 80.554688 333.082031 82.921875 337.378906 82.363281 338.726562 C 82.363281 338.726562 83.925781 342.425781 83.46875 343.65625 L 85.0625 360.207031 C 85.0625 360.207031 86.042969 363.292969 85.585938 366.15625 C 85.132812 369.019531 85.507812 366.597656 85.507812 366.597656 C 85.507812 366.597656 86.308594 370.246094 84.539062 372.980469 C 84.539062 372.980469 84.636719 375.914062 83.761719 377.390625 L 82.910156 380.828125 C 82.910156 380.828125 81.996094 384.917969 83.535156 385.03125 C 83.535156 385.03125 83.554688 386.878906 86.386719 385.375 C 86.386719 385.375 86.191406 379.507812 86.15625 378.964844 C 86.117188 378.425781 85.695312 373.878906 88.351562 369.882812 C 91.011719 365.886719 95.039062 358.09375 95.039062 358.09375 C 95.039062 358.09375 95.003906 356.023438 93.523438 356.671875 C 93.523438 356.671875 92.199219 357.960938 91.207031 360.863281 C 91.207031 360.863281 88.613281 364.3125 88.1875 365.976562 C 88.1875 365.976562 87.265625 366.800781 87.070312 363.988281 C 87.070312 363.988281 86.035156 352.296875 86.066406 349.683594 C 86.066406 349.683594 85.945312 343.265625 85.25 342.664062 L 85.769531 342.296875 C 85.769531 342.296875 87.535156 345.769531 89.085938 344.570312 C 89.085938 344.570312 89.242188 342.164062 86.535156 339.195312 C 86.535156 339.195312 85.570312 336.324219 85.070312 335.378906 C 84.566406 334.433594 81.5 331.054688 81.867188 328.523438 C 82.234375 325.992188 80.914062 324.234375 80.457031 323.941406 C 80.003906 323.648438 79.503906 319.652344 79.542969 318.671875 L 78.929688 317.621094 C 78.929688 317.621094 80.898438 317.8125 80.714844 319.785156 C 80.714844 319.785156 81.484375 321.472656 82.726562 318.992188 C 82.726562 318.992188 82.589844 315.515625 80.75 314.121094 C 78.910156 312.726562 77.511719 311.410156 75.996094 311.515625 C 75.996094 311.515625 75.945312 310.757812 75.695312 310.335938 C 75.695312 310.335938 75.832031 309.128906 76.214844 309.972656 L 76.277344 310.839844 C 76.277344 310.839844 80.390625 312.074219 81.253906 313.539062 C 81.253906 313.539062 83.449219 315.347656 85.171875 313.484375 C 85.171875 313.484375 85.789062 313.007812 84.199219 312.027344 C 84.199219 312.027344 84.582031 309.714844 87.554688 311.796875 Z M 87.738281 308.1875 C 87.738281 308.1875 87.929688 306.214844 90.019531 304.980469 C 90.019531 304.980469 92.757812 300.542969 92.769531 297.601562 C 92.769531 297.601562 93.578125 296.671875 95.824219 299.238281 C 95.824219 299.238281 97.121094 300.671875 96.4375 301.808594 C 96.4375 301.808594 96.582031 303.867188 98.078125 303.433594 C 98.078125 303.433594 100.40625 302.507812 100.679688 301.730469 C 100.679688 301.730469 102.53125 300.183594 101.09375 303.007812 C 101.09375 303.007812 98.730469 305.023438 96.726562 305.925781 C 96.726562 305.925781 94.984375 305.941406 93.886719 307.324219 C 93.886719 307.324219 91.152344 307.1875 90.230469 308.015625 C 90.230469 308.015625 88.570312 309.21875 87.738281 308.1875 Z M 73.695312 292.621094 C 73.695312 292.621094 72.375 290.859375 73.203125 290.257812 C 73.203125 290.257812 74.355469 288 76.457031 288.507812 C 76.457031 288.507812 78.941406 288.222656 79.582031 288.066406 C 79.582031 288.066406 82.097656 289.746094 83.039062 289.242188 C 83.039062 289.242188 84.070312 288.410156 86.597656 290.300781 C 86.597656 290.300781 89.433594 290.320312 89.679688 292.375 C 89.679688 292.375 90.25 294.292969 89.066406 296.007812 C 89.066406 296.007812 88.695312 296.90625 89.921875 297.363281 C 89.921875 297.363281 89.59375 298.910156 88.566406 298.222656 C 88.566406 298.222656 86.992188 297.460938 86.53125 298.691406 C 86.53125 298.691406 84.609375 300.785156 83.828125 300.511719 C 83.828125 300.511719 82.242188 299.644531 81.964844 300.316406 C 81.964844 300.316406 82.117188 299.433594 83.417969 299.34375 C 83.417969 299.34375 83.003906 296.542969 80.265625 296.296875 C 80.265625 296.296875 79.285156 296.257812 78.992188 295.1875 C 78.992188 295.1875 79.980469 295.335938 80.769531 295.714844 C 80.769531 295.714844 82.691406 295.148438 81.972656 294.21875 C 81.972656 294.21875 81.226562 291.332031 79.949219 291.746094 C 79.949219 291.746094 78.410156 291.527344 78.707031 292.707031 L 78.65625 293.472656 C 78.65625 293.472656 77.925781 293.957031 77.078125 292.710938 C 77.078125 292.710938 75.378906 291.742188 73.695312 292.621094 Z M 70.378906 287.191406 C 70.378906 287.191406 69.28125 284 72.320312 280.738281 C 72.320312 280.738281 74.824219 277.625 77.007812 277.6875 C 77.007812 277.6875 81.535156 277.046875 83.285156 277.140625 C 83.285156 277.140625 84.964844 276.257812 86.917969 279.28125 C 86.917969 279.28125 88.347656 281.035156 88.933594 281.644531 C 88.933594 281.644531 89.148438 283.152344 89.417969 283.898438 C 89.417969 283.898438 89.328125 285.753906 88.59375 286.132812 C 88.59375 286.132812 87.394531 287.632812 85.132812 286.484375 C 85.132812 286.484375 82.789062 285.667969 80.667969 286.46875 L 74.820312 286.878906 C 74.820312 286.878906 72.707031 286.265625 72.503906 288.019531 C 72.503906 288.019531 71.707031 289.054688 70.824219 288.898438 Z M 70.378906 287.191406 " fill-opacity="1" fill-rule="evenodd"/><path fill="#003764" d="M 711.089844 383.144531 L 674.613281 391.949219 L 674.613281 410.050781 C 674.613281 413.132812 671.855469 414.5 665.558594 414.5 C 658.867188 414.5 656.503906 413.132812 656.503906 410.050781 L 656.503906 382.21875 L 713.589844 368.53125 L 713.589844 342.695312 C 713.589844 334.3125 700.988281 331.402344 681.304688 331.402344 L 646.65625 331.402344 C 627.367188 331.402344 614.769531 334.3125 614.769531 342.695312 L 614.769531 417.40625 C 614.769531 425.789062 627.367188 428.699219 646.65625 428.699219 L 681.304688 428.699219 C 700.988281 428.699219 713.589844 425.789062 713.589844 417.40625 L 713.589844 392.566406 C 713.859375 388.464844 715.320312 384.6875 718.613281 381.382812 Z M 656.503906 349.882812 C 656.503906 346.800781 658.867188 345.605469 665.558594 345.605469 C 671.855469 345.605469 674.613281 346.800781 674.613281 349.882812 L 674.613281 365.109375 L 656.503906 369.386719 Z M 656.503906 349.882812 " fill-opacity="1" fill-rule="evenodd"/><path fill="#003764" d="M 594.46875 413.09375 L 594.480469 307.488281 C 594.921875 301.136719 597.105469 295.367188 602.898438 291.917969 L 552.753906 291.917969 L 552.738281 339.441406 C 551.15625 337.21875 546.828125 331.402344 529.898438 331.402344 L 517.300781 331.402344 C 499.585938 331.402344 493.675781 335.507812 493.675781 344.0625 L 493.675781 416.042969 C 493.675781 425.28125 501.160156 428.699219 517.300781 428.699219 L 529.898438 428.699219 C 551.550781 428.699219 554.699219 421.855469 555.882812 419.464844 L 555.882812 428.699219 L 594.460938 428.699219 L 602.886719 428.3125 C 597.085938 425.242188 594.902344 419.464844 594.46875 413.09375 Z M 552.738281 410.050781 C 552.738281 413.132812 549.976562 414.5 543.679688 414.5 C 537.378906 414.5 534.621094 413.132812 534.621094 410.050781 L 534.621094 349.882812 C 534.621094 346.800781 537.378906 345.605469 543.679688 345.605469 C 549.976562 345.605469 552.738281 346.800781 552.738281 349.882812 Z M 552.738281 410.050781 " fill-opacity="1" fill-rule="evenodd"/><path fill="#003764" d="M 220.8125 412.511719 C 221.148438 419.101562 223.289062 425.148438 229.265625 428.3125 L 220.8125 428.699219 L 176.109375 428.699219 L 176.109375 291.09375 L 229.277344 291.09375 C 223.234375 294.675781 221.117188 300.820312 220.8125 307.496094 L 220.8125 373.664062 L 248.492188 328.566406 L 300.316406 328.566406 L 266.875 376.792969 L 301.234375 428.699219 L 247.207031 428.699219 L 221.179688 378.820312 Z M 220.8125 412.511719 " fill-opacity="1" fill-rule="evenodd"/><path fill="#003764" d="M 409.625 412.785156 L 409.625 340.40625 C 409.625 331.167969 401.355469 329.113281 379.3125 329.113281 L 344.273438 329.113281 C 319.078125 329.113281 312.382812 331.167969 312.382812 340.40625 L 312.382812 361.15625 C 312.042969 364.9375 310.621094 368.425781 307.613281 371.585938 L 329.324219 366.171875 L 351.359375 360.753906 L 351.359375 346.910156 C 351.359375 344.6875 353.71875 343.316406 360.414062 343.316406 C 364.746094 343.316406 368.289062 344.511719 368.289062 347.25 L 368.289062 370.527344 L 323.015625 381.992188 C 313.960938 384.386719 309.230469 387.636719 309.230469 394.484375 L 309.230469 417.40625 C 309.230469 425.449219 317.5 428.699219 332.855469 428.699219 L 348.605469 428.699219 C 363.171875 428.699219 368.289062 423.566406 369.863281 421.175781 L 369.863281 428.699219 L 409.625 428.699219 L 418.066406 428.3125 C 412.171875 425.191406 410.011719 419.273438 409.625 412.785156 Z M 368.289062 410.390625 C 368.289062 413.132812 365.136719 414.5 359.625 414.5 C 354.117188 414.5 350.570312 413.300781 350.570312 410.390625 L 350.570312 391.742188 C 350.570312 389.175781 353.328125 388.152344 356.871094 387.292969 L 368.289062 384.558594 Z M 368.289062 410.390625 " fill-opacity="1" fill-rule="evenodd"/><path fill="#003764" d="M 471.351562 412.488281 C 471.691406 419.09375 473.824219 425.144531 479.808594 428.3125 L 471.351562 428.699219 L 430.011719 428.699219 L 430.03125 291.917969 L 479.832031 291.917969 C 473.792969 295.542969 471.671875 301.679688 471.367188 308.351562 Z M 471.351562 412.488281 " fill-opacity="1" fill-rule="evenodd"/><path stroke-linecap="butt" transform="matrix(1.589016, 0, 0, -1.589309, -2979.064228, 3387.429927)" fill-opacity="1" fill="#003764" fill-rule="evenodd" stroke-linejoin="miter" d="M 2330.35967 1935.612232 C 2328.92895 1934.174402 2328.211131 1932.436716 2328.211131 1930.401633 C 2328.211131 1928.349345 2328.924033 1926.601829 2330.34492 1925.154167 C 2331.773183 1923.708963 2333.50873 1922.983903 2335.561396 1922.983903 C 2337.601771 1922.983903 2339.337319 1923.708963 2340.768039 1925.154167 C 2342.19876 1926.601829 2342.91412 1928.349345 2342.91412 1930.401633 C 2342.91412 1932.436716 2342.19876 1934.174402 2340.768039 1935.612232 C 2339.329944 1937.057436 2337.591938 1937.780038 2335.561396 1937.780038 C 2333.528397 1937.780038 2331.792849 1937.057436 2330.35967 1935.612232 Z M 2341.621063 1924.325878 C 2339.946973 1922.647181 2337.928723 1921.806603 2335.561396 1921.806603 C 2333.189154 1921.806603 2331.170903 1922.647181 2329.509104 1924.325878 C 2327.849764 1925.997203 2327.023781 1928.019996 2327.023781 1930.401633 C 2327.023781 1932.756234 2327.859597 1934.769196 2329.531229 1936.44052 C 2331.193028 1938.102013 2333.203903 1938.935217 2335.561396 1938.935217 C 2337.928723 1938.935217 2339.946973 1938.102013 2341.621063 1936.44052 C 2343.290237 1934.77657 2344.126053 1932.76115 2344.126053 1930.401633 C 2344.126053 1928.029828 2343.290237 1926.004576 2341.621063 1924.325878 Z M 2337.166655 1933.641053 C 2336.753663 1933.874546 2336.089927 1933.990064 2335.172988 1933.990064 L 2333.759475 1933.990064 L 2333.759475 1930.58597 L 2335.254111 1930.58597 C 2335.95718 1930.58597 2336.478336 1930.657247 2336.82987 1930.794886 C 2337.47394 1931.052958 2337.795975 1931.544524 2337.795975 1932.264668 C 2337.795975 1932.947945 2337.587021 1933.407559 2337.166655 1933.641053 Z M 2335.391775 1935.120666 C 2336.559459 1935.120666 2337.414942 1935.007606 2337.958222 1934.783943 C 2338.929244 1934.378401 2339.415984 1933.584522 2339.415984 1932.407222 C 2339.415984 1931.569102 2339.108698 1930.944813 2338.499044 1930.551561 C 2338.167176 1930.340187 2337.714852 1930.19026 2337.129781 1930.094404 C 2337.867266 1929.978886 2338.410546 1929.671658 2338.754706 1929.177634 C 2339.09149 1928.678695 2339.261112 1928.192044 2339.266028 1927.720141 L 2339.266028 1927.031949 C 2339.266028 1926.813202 2339.270945 1926.582166 2339.288153 1926.331467 C 2339.302903 1926.080769 2339.329944 1925.92101 2339.371735 1925.839901 L 2339.425817 1925.724383 L 2337.877099 1925.724383 C 2337.867266 1925.756335 2337.862349 1925.788287 2337.852516 1925.817781 C 2337.845141 1925.849733 2337.840224 1925.884142 2337.83285 1925.923468 L 2337.795975 1926.225781 L 2337.795975 1926.972961 C 2337.795975 1928.059322 2337.500981 1928.781923 2336.910994 1929.130935 C 2336.559459 1929.330019 2335.944888 1929.433248 2335.067282 1929.433248 L 2333.759475 1929.433248 L 2333.759475 1925.724383 L 2332.107509 1925.724383 L 2332.107509 1935.120666 Z M 2335.391775 1935.120666 " stroke="#003764" stroke-width="0.226" stroke-opacity="1" stroke-miterlimit="3.864"/><path stroke-linecap="butt" transform="matrix(1.589016, 0, 0, -1.589309, -2979.064228, 3387.429927)" fill-opacity="1" fill="#231f20" fill-rule="evenodd" stroke-linejoin="miter" d="M 2019.266453 1834.261171 L 2016.601675 1834.261171 L 2016.601675 1808.038587 L 2019.266453 1808.038587 L 2019.266453 1821.55665 L 2019.713861 1821.55665 L 2032.602637 1808.038587 L 2036.528514 1808.038587 L 2022.565468 1822.372649 L 2035.786113 1834.261171 L 2031.970858 1834.261171 L 2019.637654 1822.888793 L 2019.266453 1822.888793 Z M 2019.266453 1834.261171 " stroke="#231f20" stroke-width="0.237" stroke-opacity="1" stroke-miterlimit="3.864"/><path stroke-linecap="butt" transform="matrix(1.589016, 0, 0, -1.589309, -2979.064228, 3387.429927)" fill-opacity="1" fill="#231f20" fill-rule="evenodd" stroke-linejoin="miter" d="M 2056.730681 1818.6687 C 2052.583559 1818.6687 2045.95357 1818.297568 2045.95357 1812.669138 C 2045.95357 1809.299453 2048.844511 1807.59372 2051.917364 1807.59372 C 2054.692765 1807.59372 2056.620059 1808.557189 2058.026196 1810.852802 L 2058.102403 1810.852802 C 2058.102403 1809.928658 2058.176152 1808.891454 2058.323649 1808.038587 L 2060.695891 1808.038587 C 2060.545936 1808.962731 2060.398439 1810.592272 2060.398439 1811.929331 L 2060.398439 1819.666579 C 2060.398439 1823.88913 2057.473083 1825.816068 2054.065903 1825.816068 C 2050.80622 1825.816068 2048.323355 1824.928792 2046.730387 1823.299251 L 2048.212732 1821.55665 C 2049.692618 1822.888793 2051.472415 1823.596648 2053.507873 1823.596648 C 2056.509436 1823.596648 2057.954906 1822.114577 2057.954906 1819.113567 L 2057.954906 1818.6687 Z M 2057.954906 1816.668027 L 2057.954906 1815.409618 C 2057.954906 1812.332415 2056.251316 1809.818056 2052.694181 1809.818056 C 2050.732472 1809.818056 2048.620807 1810.702874 2048.620807 1813.000945 C 2048.620807 1816.483689 2054.2134 1816.668027 2056.693807 1816.668027 Z M 2057.954906 1816.668027 " stroke="#231f20" stroke-width="0.237" stroke-opacity="1" stroke-miterlimit="3.864"/><path stroke-linecap="butt" transform="matrix(1.589016, 0, 0, -1.589309, -2979.064228, 3387.429927)" fill-opacity="1" fill="#231f20" fill-rule="nonzero" stroke-linejoin="miter" d="M 2074.410651 1836.040639 L 2076.854184 1836.040639 L 2076.854184 1808.038587 L 2074.410651 1808.038587 Z M 2074.410651 1836.040639 " stroke="#231f20" stroke-width="0.237" stroke-opacity="1" stroke-miterlimit="3.864"/><path stroke-linecap="butt" transform="matrix(1.589016, 0, 0, -1.589309, -2979.064228, 3387.429927)" fill-opacity="1" fill="#231f20" fill-rule="nonzero" stroke-linejoin="miter" d="M 2091.095015 1825.371201 L 2093.538548 1825.371201 L 2093.538548 1808.038587 L 2091.095015 1808.038587 Z M 2091.095015 1825.371201 " stroke="#231f20" stroke-width="0.237" stroke-opacity="1" stroke-miterlimit="3.864"/><path stroke-linecap="butt" transform="matrix(1.589016, 0, 0, -1.589309, -2979.064228, 3387.429927)" fill-opacity="1" fill="#231f20" fill-rule="evenodd" stroke-linejoin="miter" d="M 2121.853048 1822.815058 C 2120.149458 1824.815732 2117.850964 1825.779201 2115.518054 1825.816068 C 2109.851712 1825.892261 2106.33391 1821.927782 2106.33391 1816.704894 C 2106.33391 1811.484464 2109.851712 1807.519985 2115.518054 1807.59372 C 2117.850964 1807.630587 2120.149458 1808.594056 2121.853048 1810.592272 L 2119.852006 1812.113668 C 2119.038315 1810.852802 2117.442889 1809.818056 2115.518054 1809.818056 C 2111.481554 1809.741863 2108.998688 1812.742873 2108.998688 1816.704894 C 2108.998688 1820.669373 2111.481554 1823.667925 2115.518054 1823.596648 C 2117.442889 1823.596648 2119.038315 1822.556986 2119.852006 1821.298578 Z M 2121.853048 1822.815058 " stroke="#231f20" stroke-width="0.237" stroke-opacity="1" stroke-miterlimit="3.864"/><path stroke-linecap="butt" transform="matrix(1.589016, 0, 0, -1.589309, -2979.064228, 3387.429927)" fill-opacity="1" fill="#231f20" fill-rule="nonzero" stroke-linejoin="miter" d="M 2133.426643 1825.371201 L 2135.870176 1825.371201 L 2135.870176 1808.038587 L 2133.426643 1808.038587 Z M 2133.426643 1825.371201 " stroke="#231f20" stroke-width="0.237" stroke-opacity="1" stroke-miterlimit="3.864"/><path stroke-linecap="butt" transform="matrix(1.589016, 0, 0, -1.589309, -2979.064228, 3387.429927)" fill-opacity="1" fill="#231f20" fill-rule="evenodd" stroke-linejoin="miter" d="M 2163.484066 1808.038587 L 2172.188845 1808.038587 C 2178.742627 1808.038587 2185.965061 1812.408608 2185.965061 1821.14865 C 2185.965061 1829.89115 2178.742627 1834.261171 2172.188845 1834.261171 L 2163.484066 1834.261171 Z M 2166.151303 1831.818088 L 2171.335821 1831.818088 C 2179.337531 1831.818088 2183.079037 1826.558333 2183.079037 1821.14865 C 2183.079037 1815.741425 2179.337531 1810.484127 2171.335821 1810.484127 L 2166.151303 1810.484127 Z M 2166.151303 1831.818088 " stroke="#231f20" stroke-width="0.237" stroke-opacity="1" stroke-miterlimit="3.864"/><path stroke-linecap="butt" transform="matrix(1.589016, 0, 0, -1.589309, -2979.064228, 3387.429927)" fill-opacity="1" fill="#231f20" fill-rule="evenodd" stroke-linejoin="miter" d="M 2214.355768 1816.038822 L 2214.355768 1817.149761 C 2214.355768 1821.890914 2211.317331 1825.779201 2206.059064 1825.816068 C 2201.130207 1825.816068 2197.317411 1821.927782 2197.317411 1816.704894 C 2197.317411 1811.484464 2201.130207 1807.59372 2206.280309 1807.59372 C 2209.131917 1807.59372 2211.688531 1808.665333 2213.728906 1811.260801 L 2211.838487 1812.816608 C 2210.872381 1811.260801 2208.873798 1809.818056 2206.280309 1809.818056 C 2202.836255 1809.818056 2200.208351 1812.556078 2199.910899 1816.038822 Z M 2199.984647 1818.037038 C 2199.984647 1820.890578 2202.875588 1823.596648 2206.059064 1823.596648 C 2209.576866 1823.596648 2211.688531 1821.335445 2211.688531 1818.037038 Z M 2199.984647 1818.037038 " stroke="#231f20" stroke-width="0.237" stroke-opacity="1" stroke-miterlimit="3.864"/><path stroke-linecap="butt" transform="matrix(1.589016, 0, 0, -1.589309, -2979.064228, 3387.429927)" fill-opacity="1" fill="#231f20" fill-rule="evenodd" stroke-linejoin="miter" d="M 2226.113734 1802.628904 C 2228.333563 1800.259556 2231.003258 1799.148617 2234.447312 1799.148617 C 2242.225319 1799.148617 2243.744538 1804.408373 2243.744538 1808.188515 L 2243.744538 1825.371201 L 2241.298546 1825.371201 L 2241.298546 1822.483251 L 2241.224798 1822.483251 C 2239.223756 1825.186864 2236.593393 1825.816068 2234.521061 1825.816068 C 2229.410291 1825.816068 2225.705659 1821.890914 2225.705659 1816.852364 C 2225.705659 1811.781861 2229.742159 1808.038587 2234.739848 1808.038587 C 2237.264504 1808.038587 2239.668705 1808.962731 2241.224798 1811.300127 L 2241.298546 1811.300127 L 2241.298546 1808.188515 C 2241.298546 1804.447698 2239.521208 1801.370495 2234.555477 1801.370495 C 2231.780076 1801.370495 2229.370959 1802.628904 2227.927947 1804.555842 Z M 2228.372896 1816.928557 C 2228.372896 1820.558771 2231.185171 1823.596648 2234.818513 1823.596648 C 2238.889429 1823.596648 2241.372295 1820.558771 2241.372295 1816.928557 C 2241.52225 1812.92721 2238.37319 1810.260465 2234.818513 1810.260465 C 2231.185171 1810.260465 2228.372896 1813.298342 2228.372896 1816.928557 Z M 2238.483813 1834.261171 C 2238.149486 1832.33669 2236.519645 1831.373221 2234.668558 1831.373221 C 2232.815013 1831.373221 2231.185171 1832.33669 2230.853303 1834.261171 L 2229.223462 1834.261171 C 2229.410291 1831.188884 2231.63012 1829.372548 2234.668558 1829.372548 C 2237.704537 1829.372548 2239.931741 1831.188884 2240.113654 1834.261171 Z M 2238.483813 1834.261171 " stroke="#231f20" stroke-width="0.237" stroke-opacity="1" stroke-miterlimit="3.864"/><path stroke-linecap="butt" transform="matrix(1.589016, 0, 0, -1.589309, -2979.064228, 3387.429927)" fill-opacity="1" fill="#231f20" fill-rule="evenodd" stroke-linejoin="miter" d="M 2273.165265 1816.038822 L 2273.165265 1817.149761 C 2273.165265 1821.890914 2270.129286 1825.779201 2264.871019 1825.816068 C 2259.944621 1825.816068 2256.129366 1821.927782 2256.129366 1816.704894 C 2256.129366 1811.484464 2259.944621 1807.59372 2265.092265 1807.59372 C 2267.946331 1807.59372 2270.500487 1808.665333 2272.535945 1811.260801 L 2270.650442 1812.816608 C 2269.684337 1811.260801 2267.685753 1809.818056 2265.092265 1809.818056 C 2261.648211 1809.818056 2259.017848 1812.556078 2258.720396 1816.038822 Z M 2258.796603 1818.037038 C 2258.796603 1820.890578 2261.685085 1823.596648 2264.871019 1823.596648 C 2268.39128 1823.596648 2270.500487 1821.335445 2270.500487 1818.037038 Z M 2258.796603 1818.037038 " stroke="#231f20" stroke-width="0.237" stroke-opacity="1" stroke-miterlimit="3.864"/><path stroke-linecap="butt" transform="matrix(1.589016, 0, 0, -1.589309, -2979.064228, 3387.429927)" fill-opacity="1" fill="#231f20" fill-rule="evenodd" stroke-linejoin="miter" d="M 2286.334285 1808.038587 L 2288.777818 1808.038587 L 2288.777818 1817.815833 C 2288.777818 1820.148313 2290.444534 1823.370528 2294.146708 1823.370528 C 2294.815361 1823.370528 2295.257852 1823.299251 2295.557762 1823.186191 L 2296.037127 1825.594864 C 2295.51843 1825.742333 2294.9309 1825.816068 2294.222915 1825.816068 C 2291.184477 1825.816068 2289.370264 1823.999732 2288.667196 1822.148987 L 2288.595905 1822.148987 L 2288.595905 1825.371201 L 2286.186788 1825.371201 C 2286.258079 1822.854384 2286.334285 1821.519782 2286.334285 1819.963976 Z M 2286.334285 1808.038587 " stroke="#231f20" stroke-width="0.237" stroke-opacity="1" stroke-miterlimit="3.864"/><g clip-path="url(#2c0dc236ff)"><path stroke-linecap="butt" transform="matrix(1.589016, 0, 0, -1.589309, -2979.064228, 3387.429927)" fill="none" stroke-linejoin="miter" d="M 1691.324166 2180.431722 L 2535.999934 2180.431722 L 2535.999934 1585.108527 L 1691.324166 1585.108527 Z M 1691.324166 2180.431722 " stroke="#231f20" stroke-width="1" stroke-opacity="1" stroke-miterlimit="3.864"/></g></svg>