<svg xmlns="http://www.w3.org/2000/svg" xmlns:xlink="http://www.w3.org/1999/xlink" width="1024" zoomAndPan="magnify" viewBox="0 0 768 775.92" height="1024" preserveAspectRatio="xMidYMid meet" version="1.0"><defs><clipPath id="4999a78076"><path d="M 0.0390625 0 L 767.960938 0 L 767.960938 767.921875 L 0.0390625 767.921875 Z M 0.0390625 0 " clip-rule="nonzero"/></clipPath></defs><g clip-path="url(#4999a78076)"><path fill="#ffffff" d="M 0.0390625 0 L 767.960938 0 L 767.960938 767.921875 L 0.0390625 767.921875 Z M 0.0390625 0 " fill-opacity="1" fill-rule="nonzero"/><path fill="#ffffff" d="M 0.0390625 0 L 767.960938 0 L 767.960938 767.921875 L 0.0390625 767.921875 Z M 0.0390625 0 " fill-opacity="1" fill-rule="nonzero"/></g><path fill="#056aec" d="M 189.910156 420.515625 C 191.144531 422.046875 192.152344 423.242188 192.90625 424.140625 C 193.683594 425.023438 194.375 425.671875 194.984375 426.089844 C 195.609375 426.511719 196.28125 426.78125 197.035156 426.90625 C 197.792969 427.011719 198.777344 427.074219 199.972656 427.054688 L 221.351562 427.054688 C 222.609375 427.074219 223.890625 426.992188 225.1875 426.867188 C 226.511719 426.71875 227.726562 426.40625 228.859375 425.945312 C 229.988281 425.503906 230.890625 424.792969 231.601562 423.871094 C 232.296875 422.949219 232.652344 421.691406 232.671875 420.140625 C 232.652344 418.253906 232.234375 416.789062 231.414062 415.71875 C 230.617188 414.648438 229.589844 413.792969 228.375 413.140625 C 227.140625 412.492188 225.878906 411.84375 224.601562 411.214844 C 223.324219 410.5625 222.210938 409.726562 221.226562 408.699219 L 194.941406 378.652344 C 194.25 377.855469 193.515625 376.976562 192.738281 376.054688 C 191.964844 375.132812 191.3125 374.148438 190.769531 373.101562 C 190.222656 372.074219 189.929688 370.984375 189.910156 369.851562 C 189.929688 368.785156 190.308594 367.652344 191.042969 366.457031 C 191.773438 365.265625 192.695312 364.046875 193.828125 362.855469 C 194.960938 361.640625 196.15625 360.488281 197.394531 359.398438 C 198.609375 358.289062 199.742188 357.324219 200.789062 356.441406 C 201.816406 355.582031 202.589844 354.890625 203.117188 354.390625 C 203.871094 353.675781 204.8125 353.195312 205.945312 352.945312 C 207.078125 352.691406 208.292969 352.546875 209.613281 352.503906 C 210.914062 352.460938 212.214844 352.398438 213.511719 352.316406 C 214.792969 352.253906 215.988281 352.023438 217.054688 351.644531 C 218.105469 351.289062 218.964844 350.660156 219.613281 349.738281 C 220.261719 348.835938 220.578125 347.539062 220.597656 345.839844 C 220.578125 344.058594 220.054688 342.636719 219.027344 341.546875 C 218.019531 340.457031 216.699219 339.640625 215.085938 339.050781 C 213.449219 338.484375 211.710938 338.109375 209.84375 337.898438 C 207.980469 337.691406 206.175781 337.566406 204.4375 337.542969 C 202.695312 337.523438 201.207031 337.523438 199.972656 337.542969 C 198.945312 337.542969 197.6875 337.542969 196.199219 337.542969 C 194.710938 337.566406 193.117188 337.628906 191.417969 337.753906 C 189.722656 337.878906 188.042969 338.109375 186.386719 338.445312 C 184.730469 338.800781 183.222656 339.28125 181.859375 339.933594 C 180.496094 340.5625 179.40625 341.417969 178.589844 342.46875 C 177.773438 343.492188 177.351562 344.792969 177.332031 346.34375 C 177.351562 347.246094 177.542969 348.039062 177.855469 348.710938 C 178.171875 349.382812 178.503906 350.050781 178.820312 350.722656 C 179.15625 351.371094 179.324219 352.148438 179.34375 353.007812 C 179.324219 353.613281 178.96875 354.535156 178.296875 355.75 C 177.605469 356.988281 176.722656 358.351562 175.632812 359.816406 C 174.542969 361.304688 173.390625 362.730469 172.175781 364.089844 C 170.960938 365.472656 169.808594 366.585938 168.695312 367.464844 C 167.605469 368.34375 166.703125 368.804688 166.011719 368.847656 C 165.445312 368.828125 165.007812 368.636719 164.691406 368.238281 C 164.355469 367.863281 164.125 367.378906 163.957031 366.816406 C 163.8125 366.25 163.726562 365.664062 163.6875 365.074219 C 163.644531 364.488281 163.621094 363.984375 163.621094 363.566406 C 163.644531 361.117188 163.8125 359.125 164.125 357.574219 C 164.460938 356.042969 164.902344 354.828125 165.425781 353.90625 C 165.949219 353.007812 166.496094 352.292969 167.082031 351.75 C 167.667969 351.226562 168.234375 350.722656 168.738281 350.28125 C 169.261719 349.84375 169.703125 349.296875 170.035156 348.667969 C 170.351562 348.039062 170.539062 347.183594 170.539062 346.09375 C 170.519531 344.375 170.035156 342.949219 169.136719 341.859375 C 168.214844 340.769531 167.039062 339.933594 165.550781 339.324219 C 164.082031 338.738281 162.492188 338.296875 160.792969 338.046875 C 159.074219 337.796875 157.417969 337.648438 155.804688 337.605469 C 154.167969 337.542969 152.765625 337.523438 151.546875 337.542969 C 146.980469 337.542969 143.140625 337.730469 140.019531 338.066406 C 136.917969 338.421875 134.402344 338.863281 132.453125 339.449219 C 130.523438 340.015625 129.035156 340.625 128.007812 341.316406 C 126.980469 341.984375 126.265625 342.675781 125.867188 343.347656 C 125.472656 344.039062 125.242188 344.648438 125.175781 345.210938 C 125.136719 345.800781 125.113281 346.238281 125.136719 346.59375 C 125.15625 347.851562 125.304688 348.816406 125.640625 349.527344 C 125.972656 350.21875 126.394531 350.785156 126.917969 351.183594 C 127.460938 351.582031 128.050781 351.957031 128.679688 352.316406 C 129.308594 352.691406 129.9375 353.152344 130.566406 353.738281 C 131.195312 354.304688 131.738281 355.121094 132.261719 356.171875 C 132.765625 357.21875 133.164062 358.644531 133.4375 360.425781 C 133.898438 362.980469 134.210938 365.664062 134.378906 368.449219 C 134.546875 371.234375 134.652344 374.023438 134.671875 376.808594 C 134.695312 379.617188 134.714844 382.320312 134.695312 384.9375 C 134.695312 387.328125 134.671875 389.800781 134.632812 392.316406 C 134.570312 394.851562 134.441406 397.363281 134.277344 399.878906 C 134.085938 402.394531 133.8125 404.824219 133.4375 407.191406 C 133.121094 409.246094 132.660156 410.835938 132.054688 411.988281 C 131.445312 413.121094 130.773438 413.980469 130.039062 414.585938 C 129.308594 415.195312 128.617188 415.71875 127.945312 416.160156 C 127.273438 416.621094 126.730469 417.164062 126.308594 417.855469 C 125.867188 418.527344 125.660156 419.492188 125.640625 420.769531 C 125.617188 421.628906 125.765625 422.445312 126.058594 423.199219 C 126.351562 423.972656 126.9375 424.664062 127.796875 425.316406 C 128.65625 425.945312 129.914062 426.511719 131.570312 426.972656 C 133.207031 427.433594 135.386719 427.789062 138.070312 428.039062 C 140.753906 428.3125 144.066406 428.4375 148.027344 428.4375 C 152.429688 428.4375 156.140625 428.289062 159.136719 428.019531 C 162.132812 427.726562 164.546875 427.347656 166.410156 426.84375 C 168.253906 426.363281 169.660156 425.777344 170.625 425.125 C 171.589844 424.457031 172.238281 423.765625 172.574219 422.988281 C 172.929688 422.234375 173.078125 421.460938 173.054688 420.640625 C 173.035156 419.425781 172.761719 418.378906 172.238281 417.542969 C 171.714844 416.683594 171.042969 415.90625 170.269531 415.257812 C 169.492188 414.585938 168.695312 413.917969 167.921875 413.246094 C 167.144531 412.574219 166.496094 411.820312 165.949219 410.984375 C 165.425781 410.144531 165.152344 409.140625 165.132812 407.945312 L 165.132812 405.304688 C 165.109375 404.070312 165.195312 402.9375 165.382812 401.890625 C 165.574219 400.84375 165.929688 400.003906 166.472656 399.375 C 167.019531 398.726562 167.835938 398.410156 168.90625 398.390625 C 169.492188 398.410156 170.226562 398.726562 171.105469 399.355469 C 171.988281 399.984375 172.929688 400.800781 173.914062 401.785156 C 174.921875 402.769531 175.90625 403.796875 176.890625 404.886719 C 177.855469 405.953125 178.738281 406.960938 179.511719 407.902344 C 180.308594 408.824219 180.917969 409.558594 181.355469 410.082031 Z M 267.765625 400.023438 C 268.917969 400.046875 269.734375 400.359375 270.214844 400.945312 C 270.699219 401.535156 270.972656 402.265625 271.054688 403.167969 C 271.160156 404.070312 271.179688 404.992188 271.160156 405.933594 C 271.179688 406.898438 271.117188 407.882812 271.035156 408.910156 C 270.929688 409.957031 270.71875 410.921875 270.382812 411.820312 C 270.046875 412.703125 269.523438 413.433594 268.832031 414 C 268.121094 414.546875 267.199219 414.839844 266.003906 414.859375 C 264.789062 414.839844 263.78125 414.484375 262.984375 413.832031 C 262.1875 413.164062 261.578125 412.304688 261.183594 411.277344 C 260.785156 410.25 260.59375 409.179688 260.59375 408.070312 C 260.59375 406.710938 260.910156 405.410156 261.496094 404.195312 C 262.105469 402.980469 262.941406 401.996094 264.011719 401.21875 C 265.082031 400.445312 266.339844 400.046875 267.765625 400.023438 Z M 298.328125 384.4375 C 298.304688 381.292969 297.804688 378.589844 296.839844 376.285156 C 295.875 373.980469 294.597656 372.03125 292.980469 370.441406 C 291.367188 368.847656 289.585938 367.546875 287.613281 366.542969 C 285.664062 365.535156 283.675781 364.761719 281.660156 364.238281 C 279.671875 363.691406 277.785156 363.316406 276.023438 363.105469 C 274.242188 362.898438 272.753906 362.792969 271.535156 362.8125 C 269.523438 362.8125 267.324219 363 264.933594 363.378906 C 262.542969 363.753906 260.089844 364.28125 257.617188 364.992188 C 255.144531 365.703125 252.753906 366.585938 250.449219 367.609375 C 248.164062 368.636719 246.109375 369.789062 244.285156 371.089844 C 242.460938 372.410156 241.035156 373.835938 239.96875 375.40625 C 238.898438 376.957031 238.351562 378.632812 238.332031 380.414062 C 238.351562 381.753906 238.648438 382.949219 239.253906 383.996094 C 239.882812 385.023438 240.703125 385.839844 241.769531 386.425781 C 242.820312 387.011719 244.011719 387.308594 245.375 387.328125 C 247.222656 387.308594 248.835938 386.972656 250.175781 386.320312 C 251.539062 385.671875 252.710938 384.835938 253.71875 383.808594 C 254.746094 382.78125 255.667969 381.691406 256.484375 380.539062 C 257.324219 379.386719 258.140625 378.296875 258.960938 377.269531 C 259.757812 376.242188 260.636719 375.40625 261.578125 374.757812 C 262.523438 374.105469 263.632812 373.769531 264.871094 373.75 C 266.296875 373.792969 267.429688 374.253906 268.246094 375.175781 C 269.042969 376.074219 269.628906 377.226562 270.007812 378.609375 C 270.363281 379.972656 270.59375 381.378906 270.675781 382.824219 C 270.761719 384.246094 270.804688 385.503906 270.78125 386.574219 C 270.78125 388.0625 270.59375 389.085938 270.175781 389.695312 C 269.777344 390.304688 269.167969 390.636719 268.328125 390.742188 C 267.492188 390.847656 266.421875 390.867188 265.121094 390.847656 C 259.609375 390.890625 254.894531 391.496094 250.996094 392.710938 C 247.09375 393.929688 243.910156 395.519531 241.476562 397.488281 C 239.046875 399.460938 237.242188 401.617188 236.109375 403.945312 C 234.980469 406.269531 234.414062 408.574219 234.433594 410.835938 C 234.453125 413.9375 235.0625 416.621094 236.238281 418.902344 C 237.390625 421.167969 238.984375 423.03125 240.953125 424.5 C 242.945312 425.964844 245.167969 427.054688 247.640625 427.746094 C 250.113281 428.457031 252.671875 428.8125 255.3125 428.8125 C 258.183594 428.773438 260.617188 428.4375 262.605469 427.789062 C 264.597656 427.136719 266.273438 426.40625 267.636719 425.546875 C 268.5625 425.023438 269.355469 424.539062 270.070312 424.058594 C 270.761719 423.578125 271.410156 423.199219 271.957031 422.886719 C 272.523438 422.570312 273.046875 422.402344 273.550781 422.402344 C 274.304688 422.445312 274.976562 422.757812 275.5625 423.410156 C 276.148438 424.039062 276.863281 424.769531 277.679688 425.609375 C 278.496094 426.445312 279.609375 427.179688 281.054688 427.808594 C 282.480469 428.4375 284.429688 428.773438 286.882812 428.8125 C 289.207031 428.792969 291.492188 428.355469 293.714844 427.472656 C 295.957031 426.613281 297.992188 425.460938 299.816406 424.015625 C 301.640625 422.570312 303.105469 420.976562 304.195312 419.21875 C 305.285156 417.457031 305.851562 415.675781 305.875 413.855469 C 305.875 412.910156 305.726562 412.28125 305.453125 411.949219 C 305.179688 411.613281 304.824219 411.445312 304.386719 411.421875 C 303.925781 411.402344 303.441406 411.359375 302.898438 411.339844 C 302.371094 411.320312 301.828125 411.128906 301.304688 410.792969 C 300.757812 410.460938 300.277344 409.789062 299.816406 408.824219 C 299.375 407.882812 299.019531 406.4375 298.746094 404.550781 C 298.472656 402.664062 298.328125 400.152344 298.328125 397.007812 Z M 317.445312 396.503906 C 317.445312 397.40625 317.421875 398.476562 317.382812 399.710938 C 317.320312 400.945312 317.234375 402.226562 317.128906 403.566406 C 317.027344 404.886719 316.878906 406.144531 316.710938 407.335938 C 316.523438 408.53125 316.3125 409.515625 316.0625 410.332031 C 315.683594 411.402344 315.117188 412.28125 314.363281 412.953125 C 313.585938 413.644531 312.789062 414.253906 311.953125 414.839844 C 311.113281 415.425781 310.402344 416.097656 309.816406 416.890625 C 309.226562 417.667969 308.914062 418.714844 308.890625 420.015625 C 308.914062 421.460938 309.351562 422.652344 310.191406 423.640625 C 311.03125 424.625 312.140625 425.441406 313.546875 426.046875 C 314.929688 426.675781 316.480469 427.136719 318.179688 427.472656 C 319.855469 427.808594 321.554688 428.039062 323.273438 428.1875 C 324.992188 428.3125 326.605469 428.394531 328.074219 428.417969 C 329.5625 428.4375 330.796875 428.4375 331.78125 428.4375 C 335.261719 428.457031 338.511719 428.375 341.511719 428.207031 C 344.507812 428.039062 347.148438 427.683594 349.414062 427.136719 C 351.699219 426.574219 353.457031 425.714844 354.738281 424.5625 C 356.015625 423.410156 356.664062 421.859375 356.6875 419.886719 C 356.664062 418.402344 356.328125 417.289062 355.679688 416.515625 C 355.050781 415.738281 354.234375 415.175781 353.269531 414.816406 C 352.304688 414.441406 351.320312 414.125 350.335938 413.832031 C 349.328125 413.539062 348.46875 413.140625 347.734375 412.617188 C 347 412.09375 346.539062 411.277344 346.371094 410.207031 C 346.164062 408.59375 345.972656 406.980469 345.828125 405.328125 C 345.679688 403.691406 345.578125 402.097656 345.492188 400.570312 C 345.410156 399.039062 345.367188 397.636719 345.367188 396.378906 C 345.367188 395.898438 345.347656 395.246094 345.324219 394.390625 C 345.304688 393.550781 345.324219 392.628906 345.367188 391.644531 C 345.410156 390.636719 345.535156 389.695312 345.722656 388.792969 C 345.910156 387.894531 346.207031 387.160156 346.605469 386.59375 C 347 386.007812 347.566406 385.714844 348.257812 385.691406 C 348.910156 385.714844 349.539062 385.964844 350.144531 386.425781 C 350.773438 386.910156 351.445312 387.515625 352.136719 388.207031 C 352.851562 388.921875 353.648438 389.632812 354.546875 390.324219 C 355.449219 391.035156 356.519531 391.644531 357.714844 392.105469 C 358.929688 392.585938 360.335938 392.839844 361.96875 392.859375 C 364.066406 392.839844 366.035156 392.460938 367.878906 391.6875 C 369.746094 390.910156 371.382812 389.84375 372.808594 388.480469 C 374.253906 387.097656 375.363281 385.503906 376.179688 383.683594 C 377 381.859375 377.417969 379.890625 377.4375 377.773438 C 377.417969 374.984375 376.832031 372.492188 375.699219 370.3125 C 374.546875 368.113281 372.933594 366.394531 370.835938 365.117188 C 368.761719 363.859375 366.308594 363.210938 363.476562 363.191406 C 361.320312 363.210938 359.496094 363.566406 357.984375 364.214844 C 356.457031 364.886719 355.175781 365.703125 354.148438 366.6875 C 353.101562 367.671875 352.199219 368.636719 351.488281 369.621094 C 350.753906 370.605469 350.082031 371.425781 349.519531 372.09375 C 348.929688 372.746094 348.34375 373.101562 347.757812 373.121094 C 347.066406 373.101562 346.5625 372.828125 346.289062 372.324219 C 345.996094 371.800781 345.808594 371.214844 345.746094 370.523438 C 345.679688 369.851562 345.640625 369.246094 345.617188 368.722656 C 345.472656 367.296875 345.304688 366.1875 345.050781 365.390625 C 344.820312 364.574219 344.339844 364.007812 343.625 363.671875 C 342.914062 363.335938 341.78125 363.167969 340.210938 363.191406 C 340.023438 363.191406 339.328125 363.253906 338.15625 363.378906 C 336.980469 363.503906 335.472656 363.691406 333.648438 363.964844 C 331.824219 364.238281 329.855469 364.613281 327.714844 365.054688 C 325.558594 365.515625 323.441406 366.058594 321.324219 366.710938 C 319.207031 367.378906 317.257812 368.132812 315.515625 369.035156 C 313.753906 369.914062 312.351562 370.921875 311.28125 372.054688 C 310.214844 373.183594 309.667969 374.460938 309.648438 375.886719 C 309.667969 377.144531 309.855469 378.066406 310.234375 378.652344 C 310.589844 379.261719 311.074219 379.679688 311.679688 379.953125 C 312.265625 380.203125 312.894531 380.457031 313.546875 380.6875 C 314.214844 380.917969 314.847656 381.292969 315.433594 381.796875 C 316.019531 382.320312 316.5 383.136719 316.878906 384.246094 C 317.234375 385.359375 317.445312 386.929688 317.445312 388.960938 Z M 415.800781 344.332031 C 415.863281 343.390625 415.863281 342.507812 415.800781 341.691406 C 415.738281 340.875 415.464844 340.226562 415.003906 339.703125 C 414.542969 339.199219 413.765625 338.945312 412.65625 338.925781 C 410.894531 338.925781 408.820312 339.074219 406.449219 339.386719 C 404.082031 339.679688 401.585938 340.121094 398.988281 340.707031 C 396.367188 341.273438 393.8125 341.984375 391.316406 342.804688 C 388.820312 343.640625 386.558594 344.5625 384.523438 345.609375 C 382.492188 346.65625 380.875 347.789062 379.683594 349.046875 C 378.464844 350.28125 377.835938 351.601562 377.816406 353.007812 C 377.835938 354.410156 378.171875 355.480469 378.800781 356.210938 C 379.429688 356.964844 380.207031 357.53125 381.128906 357.929688 C 382.070312 358.351562 382.996094 358.75 383.9375 359.167969 C 384.859375 359.585938 385.636719 360.171875 386.265625 360.925781 C 386.894531 361.679688 387.230469 362.769531 387.25 364.195312 L 387.25 397.636719 C 387.230469 401.703125 387.101562 405.074219 386.851562 407.734375 C 386.597656 410.417969 386.328125 412.574219 385.992188 414.210938 C 385.65625 415.824219 385.382812 417.082031 385.132812 417.960938 C 384.878906 418.863281 384.753906 419.53125 384.734375 420.015625 C 384.753906 420.683594 384.945312 421.1875 385.320312 421.566406 C 385.699219 421.921875 386.179688 422.171875 386.746094 422.320312 C 387.3125 422.464844 387.898438 422.527344 388.507812 422.527344 C 389.871094 422.507812 391.042969 422.339844 392.027344 422.046875 C 392.992188 421.730469 393.851562 421.4375 394.585938 421.125 C 395.320312 420.832031 396.03125 420.664062 396.683594 420.640625 C 397.082031 420.664062 397.710938 420.957031 398.570312 421.503906 C 399.429688 422.046875 400.519531 422.71875 401.882812 423.511719 C 403.242188 424.332031 404.878906 425.125 406.808594 425.945312 C 408.714844 426.738281 410.9375 427.410156 413.453125 427.957031 C 415.96875 428.5 418.796875 428.792969 421.964844 428.816406 C 427.390625 428.773438 432.402344 427.808594 436.992188 425.859375 C 441.5625 423.933594 445.546875 421.230469 448.941406 417.773438 C 452.339844 414.292969 454.980469 410.25 456.84375 405.640625 C 458.710938 401.011719 459.675781 396.003906 459.695312 390.597656 C 459.675781 386.425781 459.003906 382.65625 457.726562 379.261719 C 456.425781 375.84375 454.644531 372.933594 452.378906 370.480469 C 450.09375 368.03125 447.472656 366.144531 444.519531 364.824219 C 441.5625 363.503906 438.398438 362.832031 435.042969 362.8125 C 433.199219 362.8125 431.480469 363 429.886719 363.378906 C 428.292969 363.734375 426.828125 364.214844 425.484375 364.804688 C 424.144531 365.390625 422.925781 366.019531 421.835938 366.710938 C 420.746094 367.359375 419.804688 367.96875 418.988281 368.554688 C 418.191406 369.140625 417.519531 369.644531 417.015625 370.019531 C 416.492188 370.398438 416.136719 370.585938 415.925781 370.605469 C 415.589844 370.585938 415.382812 370.460938 415.253906 370.230469 C 415.128906 369.976562 415.066406 369.707031 415.046875 369.390625 C 415.046875 369.078125 415.046875 368.828125 415.046875 368.597656 Z M 431.394531 401.535156 C 431.417969 403.167969 431.292969 404.886719 431.0625 406.710938 C 430.808594 408.53125 430.347656 410.25 429.675781 411.863281 C 428.984375 413.476562 428.019531 414.777344 426.722656 415.800781 C 425.441406 416.808594 423.765625 417.351562 421.710938 417.375 C 420.707031 417.394531 419.847656 417.269531 419.113281 416.976562 C 418.378906 416.683594 417.769531 416.054688 417.289062 415.109375 C 416.785156 414.167969 416.386719 412.722656 416.113281 410.792969 C 415.820312 408.886719 415.613281 406.3125 415.484375 403.085938 C 415.359375 399.859375 415.296875 395.8125 415.296875 390.972656 C 415.277344 389.507812 415.402344 388.125 415.675781 386.78125 C 415.945312 385.460938 416.511719 384.351562 417.394531 383.492188 C 418.292969 382.632812 419.636719 382.195312 421.460938 382.171875 C 423.117188 382.195312 424.519531 382.675781 425.671875 383.617188 C 426.847656 384.5625 427.789062 385.777344 428.546875 387.285156 C 429.300781 388.792969 429.867188 390.429688 430.285156 392.167969 C 430.703125 393.90625 431 395.605469 431.164062 397.257812 C 431.332031 398.894531 431.394531 400.320312 431.394531 401.535156 Z M 498.683594 428.8125 C 502.417969 428.8125 506.191406 428.3125 510.003906 427.347656 C 513.820312 426.363281 517.488281 424.9375 520.96875 423.074219 C 524.46875 421.1875 527.59375 418.902344 530.339844 416.222656 C 533.085938 413.519531 535.265625 410.4375 536.859375 407.003906 C 538.453125 403.546875 539.269531 399.753906 539.308594 395.625 C 539.308594 392.480469 538.808594 389.339844 537.820312 386.21875 C 536.835938 383.09375 535.390625 380.140625 533.484375 377.332031 C 531.554688 374.546875 529.207031 372.054688 526.398438 369.875 C 523.609375 367.695312 520.402344 365.976562 516.777344 364.71875 C 513.148438 363.484375 509.125 362.832031 504.722656 362.8125 C 500.550781 362.8125 496.484375 363.316406 492.542969 364.320312 C 488.601562 365.304688 484.914062 366.773438 481.496094 368.722656 C 478.078125 370.671875 475.082031 373.058594 472.503906 375.910156 C 469.925781 378.738281 467.890625 382.003906 466.445312 385.714844 C 465 389.402344 464.242188 393.507812 464.222656 398.011719 C 464.265625 402.980469 465.1875 407.378906 466.988281 411.214844 C 468.792969 415.027344 471.289062 418.253906 474.472656 420.851562 C 477.660156 423.472656 481.308594 425.460938 485.457031 426.804688 C 489.585938 428.144531 493.988281 428.8125 498.683594 428.8125 Z M 510.382812 405.179688 C 510.402344 406.542969 510.257812 407.839844 509.941406 409.035156 C 509.628906 410.25 509.0625 411.234375 508.222656 411.96875 C 507.382812 412.703125 506.167969 413.035156 504.597656 412.972656 C 503.148438 412.871094 501.871094 412.304688 500.78125 411.296875 C 499.671875 410.269531 498.707031 408.953125 497.890625 407.316406 C 497.070312 405.660156 496.378906 403.859375 495.8125 401.867188 C 495.246094 399.878906 494.765625 397.847656 494.410156 395.792969 C 494.050781 393.738281 493.78125 391.789062 493.570312 389.96875 C 493.359375 388.125 493.234375 386.53125 493.152344 385.191406 C 493.066406 383.953125 493.257812 382.761719 493.71875 381.609375 C 494.179688 380.476562 494.871094 379.53125 495.8125 378.800781 C 496.757812 378.046875 497.929688 377.667969 499.3125 377.648438 C 500.738281 377.667969 501.996094 378.214844 503.109375 379.28125 C 504.21875 380.351562 505.164062 381.773438 505.980469 383.535156 C 506.796875 385.273438 507.488281 387.203125 508.054688 389.296875 C 508.621094 391.371094 509.082031 393.46875 509.417969 395.519531 C 509.753906 397.59375 510.003906 399.480469 510.152344 401.175781 C 510.320312 402.875 510.382812 404.214844 510.382812 405.179688 Z M 570.378906 362.8125 C 567.128906 362.8125 564.089844 363.292969 561.28125 364.238281 C 558.46875 365.203125 555.996094 366.5625 553.878906 368.34375 C 551.761719 370.125 550.105469 372.261719 548.933594 374.796875 C 547.738281 377.3125 547.128906 380.140625 547.109375 383.285156 C 547.128906 386.238281 547.589844 388.816406 548.472656 391.035156 C 549.371094 393.257812 550.546875 395.183594 551.992188 396.820312 C 553.460938 398.476562 555.074219 399.898438 556.8125 401.113281 C 558.554688 402.308594 560.316406 403.398438 562.054688 404.339844 C 563.816406 405.261719 565.410156 406.144531 566.875 406.980469 C 568.34375 407.796875 569.515625 408.636719 570.398438 409.496094 C 571.277344 410.355469 571.738281 411.296875 571.761719 412.34375 C 571.738281 413.265625 571.507812 414.023438 571.046875 414.609375 C 570.585938 415.214844 569.980469 415.65625 569.246094 415.949219 C 568.511719 416.222656 567.714844 416.367188 566.855469 416.367188 C 565.449219 416.328125 564.109375 415.90625 562.851562 415.070312 C 561.59375 414.253906 560.378906 413.226562 559.203125 411.988281 C 558.050781 410.753906 556.917969 409.539062 555.808594 408.300781 C 554.699219 407.085938 553.605469 406.039062 552.539062 405.222656 C 551.449219 404.382812 550.359375 403.964844 549.246094 403.921875 C 548.050781 403.945312 547.089844 404.195312 546.394531 404.71875 C 545.683594 405.261719 545.203125 405.953125 544.90625 406.855469 C 544.613281 407.734375 544.46875 408.71875 544.46875 409.832031 C 544.46875 411.046875 544.65625 412.34375 545.011719 413.769531 C 545.367188 415.175781 545.828125 416.597656 546.4375 418.023438 C 547.023438 419.46875 547.695312 420.808594 548.449219 422.066406 C 549.183594 423.324219 549.960938 424.394531 550.757812 425.292969 C 551.34375 425.964844 551.886719 426.46875 552.414062 426.804688 C 552.9375 427.160156 553.523438 427.390625 554.132812 427.515625 C 554.738281 427.640625 555.472656 427.683594 556.289062 427.683594 C 556.730469 427.683594 557.148438 427.660156 557.527344 427.597656 C 557.925781 427.558594 558.300781 427.496094 558.679688 427.433594 C 559.121094 427.304688 559.539062 427.199219 559.9375 427.136719 C 560.335938 427.074219 560.753906 427.054688 561.195312 427.054688 C 561.613281 427.054688 562.410156 427.136719 563.628906 427.285156 C 564.84375 427.433594 566.246094 427.621094 567.863281 427.808594 C 569.476562 428.121094 571.089844 428.375 572.746094 428.542969 C 574.402344 428.730469 575.871094 428.8125 577.167969 428.8125 C 580.460938 428.792969 583.582031 428.3125 586.519531 427.347656 C 589.453125 426.382812 592.074219 425.023438 594.335938 423.242188 C 596.621094 421.480469 598.402344 419.363281 599.703125 416.933594 C 601.003906 414.503906 601.675781 411.800781 601.695312 408.824219 C 601.675781 406.039062 601.148438 403.609375 600.164062 401.492188 C 599.160156 399.375 597.859375 397.53125 596.203125 395.941406 C 594.566406 394.347656 592.765625 392.941406 590.792969 391.726562 C 588.84375 390.511719 586.875 389.402344 584.925781 388.4375 C 582.953125 387.453125 581.152344 386.511719 579.515625 385.628906 C 577.859375 384.730469 576.5625 383.828125 575.554688 382.886719 C 574.570312 381.941406 574.046875 380.917969 574.023438 379.761719 C 574.046875 378.96875 574.253906 378.253906 574.695312 377.605469 C 575.136719 376.957031 575.679688 376.453125 576.371094 376.074219 C 577.0625 375.699219 577.777344 375.511719 578.550781 375.511719 C 579.640625 375.53125 580.710938 375.886719 581.738281 376.535156 C 582.746094 377.207031 583.75 378.023438 584.757812 378.988281 C 585.785156 379.972656 586.8125 380.957031 587.882812 381.921875 C 588.96875 382.90625 590.101562 383.722656 591.320312 384.394531 C 592.535156 385.042969 593.855469 385.378906 595.28125 385.421875 C 596.390625 385.398438 597.398438 385.148438 598.339844 384.644531 C 599.261719 384.121094 599.996094 383.429688 600.5625 382.550781 C 601.128906 381.671875 601.421875 380.664062 601.441406 379.511719 C 601.441406 378.464844 601.214844 377.226562 600.792969 375.804688 C 600.375 374.378906 599.789062 372.914062 599.03125 371.425781 C 598.277344 369.914062 597.417969 368.511719 596.453125 367.210938 C 595.46875 365.914062 594.421875 364.867188 593.289062 364.046875 C 592.179688 363.253906 591.046875 362.832031 589.871094 362.8125 C 589.304688 362.8125 588.738281 362.898438 588.175781 363.042969 C 587.609375 363.191406 587.042969 363.378906 586.476562 363.566406 C 585.910156 363.820312 585.363281 364.027344 584.820312 364.195312 C 584.273438 364.363281 583.710938 364.445312 583.082031 364.445312 C 582.621094 364.445312 581.925781 364.363281 581.027344 364.195312 C 580.101562 364.027344 579.078125 363.820312 577.921875 363.566406 C 576.730469 363.378906 575.472656 363.191406 574.191406 363.042969 C 572.914062 362.898438 571.632812 362.8125 570.378906 362.8125 Z M 639.679688 400.023438 C 640.832031 400.046875 641.648438 400.359375 642.132812 400.945312 C 642.613281 401.535156 642.886719 402.265625 642.96875 403.167969 C 643.074219 404.070312 643.09375 404.992188 643.074219 405.933594 C 643.09375 406.898438 643.03125 407.882812 642.949219 408.910156 C 642.84375 409.957031 642.632812 410.921875 642.300781 411.820312 C 641.964844 412.703125 641.4375 413.433594 640.746094 414 C 640.035156 414.546875 639.113281 414.839844 637.917969 414.859375 C 636.703125 414.839844 635.695312 414.484375 634.898438 413.832031 C 634.101562 413.164062 633.496094 412.304688 633.097656 411.277344 C 632.699219 410.25 632.507812 409.179688 632.507812 408.070312 C 632.507812 406.710938 632.824219 405.410156 633.410156 404.195312 C 634.019531 402.980469 634.855469 401.996094 635.925781 401.21875 C 636.996094 400.445312 638.253906 400.046875 639.679688 400.023438 Z M 670.242188 384.4375 C 670.222656 381.292969 669.71875 378.589844 668.753906 376.285156 C 667.789062 373.980469 666.511719 372.03125 664.894531 370.441406 C 663.28125 368.847656 661.5 367.546875 659.53125 366.542969 C 657.582031 365.535156 655.589844 364.761719 653.578125 364.238281 C 651.585938 363.691406 649.699219 363.316406 647.9375 363.105469 C 646.15625 362.898438 644.667969 362.792969 643.453125 362.8125 C 641.4375 362.8125 639.238281 363 636.847656 363.378906 C 634.457031 363.753906 632.007812 364.28125 629.53125 364.992188 C 627.058594 365.703125 624.667969 366.585938 622.363281 367.609375 C 620.078125 368.636719 618.023438 369.789062 616.199219 371.089844 C 614.375 372.410156 612.953125 373.835938 611.882812 375.40625 C 610.8125 376.957031 610.269531 378.632812 610.246094 380.414062 C 610.269531 381.753906 610.5625 382.949219 611.167969 383.996094 C 611.796875 385.023438 612.617188 385.839844 613.683594 386.425781 C 614.734375 387.011719 615.929688 387.308594 617.289062 387.328125 C 619.136719 387.308594 620.75 386.972656 622.089844 386.320312 C 623.453125 385.671875 624.628906 384.835938 625.632812 383.808594 C 626.660156 382.78125 627.582031 381.691406 628.402344 380.539062 C 629.238281 379.386719 630.058594 378.296875 630.875 377.269531 C 631.671875 376.242188 632.550781 375.40625 633.496094 374.757812 C 634.4375 374.105469 635.550781 373.769531 636.785156 373.75 C 638.210938 373.792969 639.34375 374.253906 640.160156 375.175781 C 640.957031 376.074219 641.542969 377.226562 641.921875 378.609375 C 642.277344 379.972656 642.507812 381.378906 642.59375 382.824219 C 642.675781 384.246094 642.71875 385.503906 642.699219 386.574219 C 642.699219 388.0625 642.507812 389.085938 642.089844 389.695312 C 641.691406 390.304688 641.082031 390.636719 640.246094 390.742188 C 639.40625 390.847656 638.335938 390.867188 637.039062 390.847656 C 631.523438 390.890625 626.808594 391.496094 622.910156 392.710938 C 619.007812 393.929688 615.824219 395.519531 613.390625 397.488281 C 610.960938 399.460938 609.15625 401.617188 608.027344 403.945312 C 606.894531 406.269531 606.328125 408.574219 606.347656 410.835938 C 606.367188 413.9375 606.976562 416.621094 608.152344 418.902344 C 609.304688 421.167969 610.898438 423.03125 612.867188 424.5 C 614.859375 425.964844 617.082031 427.054688 619.554688 427.746094 C 622.027344 428.457031 624.585938 428.8125 627.226562 428.8125 C 630.097656 428.773438 632.53125 428.4375 634.523438 427.789062 C 636.511719 427.136719 638.191406 426.40625 639.550781 425.546875 C 640.476562 425.023438 641.273438 424.539062 641.984375 424.058594 C 642.675781 423.578125 643.324219 423.199219 643.871094 422.886719 C 644.4375 422.570312 644.960938 422.402344 645.464844 422.402344 C 646.21875 422.445312 646.890625 422.757812 647.476562 423.410156 C 648.0625 424.039062 648.777344 424.769531 649.59375 425.609375 C 650.410156 426.445312 651.523438 427.179688 652.96875 427.808594 C 654.394531 428.4375 656.34375 428.773438 658.796875 428.8125 C 661.121094 428.792969 663.40625 428.355469 665.628906 427.472656 C 667.875 426.613281 669.90625 425.460938 671.730469 424.015625 C 673.554688 422.570312 675.019531 420.976562 676.109375 419.21875 C 677.203125 417.457031 677.765625 415.675781 677.789062 413.855469 C 677.789062 412.910156 677.640625 412.28125 677.371094 411.949219 C 677.097656 411.613281 676.738281 411.445312 676.300781 411.421875 C 675.839844 411.402344 675.355469 411.359375 674.8125 411.339844 C 674.289062 411.320312 673.742188 411.128906 673.21875 410.792969 C 672.671875 410.460938 672.191406 409.789062 671.730469 408.824219 C 671.289062 407.882812 670.933594 406.4375 670.660156 404.550781 C 670.386719 402.664062 670.242188 400.152344 670.242188 397.007812 Z M 670.242188 384.4375 " fill-opacity="1" fill-rule="evenodd"/><path fill="#056aec" d="M 717.03125 396.378906 C 717.007812 394.933594 717.007812 393.382812 717.03125 391.75 C 717.070312 390.113281 717.28125 388.5625 717.660156 387.097656 C 718.035156 385.628906 718.75 384.414062 719.796875 383.492188 C 720.824219 382.550781 722.332031 382.070312 724.324219 382.046875 C 726.273438 382.070312 727.847656 382.570312 729.042969 383.578125 C 730.234375 384.582031 731.117188 385.902344 731.703125 387.601562 C 732.289062 389.277344 732.667969 391.140625 732.835938 393.214844 C 732.980469 395.289062 733.023438 397.40625 732.917969 399.585938 C 732.816406 401.765625 732.667969 403.839844 732.480469 405.828125 C 732.269531 407.820312 732.121094 409.578125 731.996094 411.089844 C 731.871094 412.703125 731.621094 413.957031 731.261719 414.882812 C 730.90625 415.804688 730.507812 416.515625 730.046875 417.039062 C 729.585938 417.542969 729.144531 417.960938 728.726562 418.339844 C 728.285156 418.695312 727.929688 419.113281 727.65625 419.59375 C 727.386719 420.078125 727.238281 420.769531 727.21875 421.648438 C 727.238281 423.050781 727.679688 424.183594 728.515625 425.0625 C 729.355469 425.921875 730.425781 426.613281 731.765625 427.074219 C 733.085938 427.558594 734.511719 427.894531 736.023438 428.082031 C 737.53125 428.269531 738.976562 428.375 740.359375 428.394531 C 741.746094 428.4375 742.898438 428.4375 743.820312 428.4375 C 748.515625 428.417969 752.351562 428.226562 755.308594 427.871094 C 758.261719 427.496094 760.570312 427.011719 762.183594 426.425781 C 763.796875 425.839844 764.949219 425.210938 765.621094 424.519531 C 766.3125 423.847656 766.710938 423.179688 766.835938 422.550781 C 766.941406 421.898438 767.003906 421.355469 766.960938 420.894531 C 766.941406 419.847656 766.773438 419.007812 766.417969 418.402344 C 766.082031 417.8125 765.640625 417.269531 765.117188 416.808594 C 764.574219 416.347656 764.046875 415.804688 763.480469 415.152344 C 762.9375 414.503906 762.433594 413.625 762.015625 412.472656 C 761.597656 411.320312 761.324219 409.769531 761.175781 407.820312 C 760.988281 404.613281 760.882812 401.304688 760.863281 397.867188 C 760.820312 394.453125 760.695312 391.078125 760.464844 387.746094 C 760.253906 384.414062 759.773438 381.292969 759.015625 378.339844 C 758.285156 375.382812 757.109375 372.785156 755.515625 370.523438 C 753.921875 368.238281 751.722656 366.457031 748.933594 365.160156 C 746.148438 363.882812 742.605469 363.210938 738.285156 363.191406 C 735.917969 363.210938 733.863281 363.460938 732.164062 363.964844 C 730.464844 364.46875 729.019531 365.117188 727.847656 365.894531 C 726.652344 366.667969 725.644531 367.484375 724.828125 368.34375 C 724.011719 369.246094 723.296875 370.082031 722.691406 370.878906 C 722.082031 371.675781 721.515625 372.347656 720.972656 372.847656 C 720.425781 373.351562 719.816406 373.601562 719.167969 373.625 C 718.539062 373.601562 718.035156 373.4375 717.679688 373.121094 C 717.300781 372.785156 717.050781 372.367188 716.882812 371.863281 C 716.738281 371.382812 716.652344 370.878906 716.652344 370.355469 C 716.652344 369.976562 716.671875 369.601562 716.714844 369.222656 C 716.757812 368.847656 716.777344 368.46875 716.777344 368.09375 C 716.777344 367.234375 716.589844 366.4375 716.210938 365.703125 C 715.855469 364.96875 715.332031 364.363281 714.660156 363.902344 C 713.96875 363.441406 713.171875 363.210938 712.25 363.191406 C 711.871094 363.191406 711.015625 363.316406 709.714844 363.566406 C 708.414062 363.796875 706.820312 364.152344 704.914062 364.59375 C 703.027344 365.035156 700.992188 365.578125 698.8125 366.1875 C 696.652344 366.816406 694.515625 367.484375 692.398438 368.238281 C 690.28125 368.992188 688.351562 369.8125 686.59375 370.648438 C 684.851562 371.507812 683.46875 372.410156 682.421875 373.332031 C 681.371094 374.253906 680.828125 375.175781 680.804688 376.140625 C 680.828125 377.4375 681.101562 378.445312 681.601562 379.15625 C 682.105469 379.847656 682.734375 380.433594 683.488281 380.894531 C 684.246094 381.355469 684.976562 381.859375 685.734375 382.425781 C 686.464844 382.988281 687.074219 383.785156 687.554688 384.8125 C 688.039062 385.820312 688.25 387.242188 688.226562 389.085938 L 687.722656 407.945312 C 687.660156 409.976562 687.453125 411.570312 687.136719 412.765625 C 686.824219 413.9375 686.425781 414.839844 685.964844 415.425781 C 685.5 416.035156 685 416.472656 684.496094 416.765625 C 683.992188 417.058594 683.511719 417.332031 683.070312 417.582031 C 682.628906 417.835938 682.273438 418.210938 682 418.695312 C 681.707031 419.175781 681.5625 419.910156 681.5625 420.894531 C 681.582031 422.382812 682.042969 423.617188 682.945312 424.582031 C 683.824219 425.523438 684.976562 426.277344 686.402344 426.804688 C 687.828125 427.347656 689.339844 427.726562 690.953125 427.957031 C 692.585938 428.1875 694.136719 428.332031 695.625 428.375 C 697.113281 428.417969 698.394531 428.4375 699.421875 428.4375 C 700.300781 428.4375 701.433594 428.4375 702.839844 428.417969 C 704.222656 428.394531 705.75 428.332031 707.386719 428.207031 C 709.023438 428.101562 710.65625 427.894531 712.292969 427.578125 C 713.925781 427.285156 715.414062 426.867188 716.777344 426.320312 C 718.140625 425.753906 719.230469 425.042969 720.046875 424.164062 C 720.867188 423.28125 721.285156 422.191406 721.304688 420.894531 C 721.285156 419.972656 721.136719 419.238281 720.867188 418.695312 C 720.570312 418.148438 720.214844 417.625 719.796875 417.121094 C 719.378906 416.621094 718.957031 415.96875 718.539062 415.175781 C 718.121094 414.378906 717.761719 413.265625 717.46875 411.820312 C 717.199219 410.398438 717.050781 408.46875 717.03125 406.058594 Z M 717.03125 396.378906 " fill-opacity="1" fill-rule="evenodd"/><path fill="#1b1918" d="M 57.492188 330.101562 C 59.308594 330.101562 61.105469 330.191406 62.875 330.367188 L 62.875 341.816406 C 65.0625 342.09375 67.195312 342.535156 69.265625 343.132812 L 73.410156 332.492188 C 77.1875 333.660156 80.785156 335.230469 84.160156 337.160156 L 78.960938 347.300781 C 80.8125 348.390625 82.578125 349.617188 84.234375 350.964844 L 91.445312 342.160156 C 94.265625 344.457031 96.847656 347.03125 99.152344 349.84375 L 91.589844 358.652344 C 92.988281 360.535156 94.234375 362.539062 95.308594 364.644531 L 105.039062 358.6875 C 106.8125 362.023438 108.246094 365.570312 109.289062 369.277344 L 98.523438 373.074219 C 98.960938 374.730469 99.296875 376.429688 99.53125 378.160156 L 110.976562 377.960938 C 111.191406 379.90625 111.300781 381.882812 111.300781 383.886719 C 111.300781 385.75 111.207031 387.589844 111.019531 389.40625 L 99.558594 389.40625 C 99.3125 391.308594 98.9375 393.175781 98.445312 394.992188 L 108.90625 399.800781 C 107.84375 403.230469 106.449219 406.511719 104.757812 409.609375 L 94.625 404.40625 C 93.472656 406.484375 92.152344 408.453125 90.679688 410.300781 L 99.703125 417.238281 C 97.132812 420.484375 94.199219 423.425781 90.957031 426 L 83.480469 417.40625 C 81.554688 418.898438 79.496094 420.230469 77.324219 421.378906 L 84.1875 430.589844 C 80.796875 432.53125 77.171875 434.113281 73.367188 435.289062 L 68.488281 424.851562 C 66.597656 425.359375 64.652344 425.734375 62.667969 425.976562 L 62.753906 437.414062 C 61.019531 437.582031 59.265625 437.671875 57.492188 437.671875 C 55.582031 437.671875 53.695312 437.570312 51.839844 437.375 L 51.839844 425.917969 C 50.007812 425.671875 48.214844 425.3125 46.464844 424.84375 L 41.148438 435.140625 C 37.429688 433.957031 33.882812 432.378906 30.5625 430.457031 L 36.5 420.746094 C 34.660156 419.695312 32.90625 418.515625 31.25 417.210938 L 23.136719 425.277344 C 20.398438 423.003906 17.886719 420.464844 15.648438 417.695312 L 24.113281 410.066406 C 22.683594 408.25 21.402344 406.3125 20.28125 404.273438 L 10.105469 409.382812 C 8.296875 406.039062 6.835938 402.476562 5.765625 398.75 L 16.414062 394.539062 C 15.960938 392.78125 15.617188 390.980469 15.386719 389.144531 L 3.945312 389.242188 C 3.769531 387.480469 3.679688 385.691406 3.679688 383.886719 C 3.679688 381.945312 3.785156 380.027344 3.988281 378.140625 L 15.445312 378.1875 C 15.710938 376.199219 16.113281 374.257812 16.648438 372.367188 L 5.890625 368.601562 C 6.941406 365.039062 8.355469 361.632812 10.089844 358.421875 L 20.855469 362.488281 C 21.859375 360.773438 22.980469 359.132812 24.207031 357.582031 L 15.519531 350.234375 C 17.867188 347.3125 20.515625 344.636719 23.414062 342.261719 L 31.859375 350.089844 C 33.464844 348.875 35.15625 347.769531 36.925781 346.785156 L 32.355469 336.320312 C 35.703125 334.546875 39.257812 333.121094 42.976562 332.082031 L 46.839844 342.824219 C 48.4375 342.410156 50.074219 342.089844 51.738281 341.867188 L 51.792969 330.398438 C 53.664062 330.203125 55.566406 330.097656 57.492188 330.097656 Z M 57.492188 330.101562 " fill-opacity="1" fill-rule="evenodd"/><path fill="#ffffff" d="M 57.492188 354.058594 C 73.96875 354.058594 87.328125 367.414062 87.328125 383.882812 C 87.328125 400.355469 73.96875 413.710938 57.492188 413.710938 C 41.011719 413.710938 27.652344 400.355469 27.652344 383.882812 C 27.652344 367.414062 41.011719 354.058594 57.492188 354.058594 Z M 57.492188 354.058594 " fill-opacity="1" fill-rule="evenodd"/><path fill="#1b1918" d="M 63.300781 362.398438 C 66.253906 367.769531 68.082031 375.226562 68.082031 383.46875 C 68.082031 392.410156 65.933594 400.421875 62.53125 405.855469 L 53.625 405.972656 C 57.992188 404.058594 61.304688 394.710938 61.304688 383.46875 C 61.304688 374.273438 59.085938 366.347656 55.890625 362.71875 Z M 63.300781 362.398438 " fill-opacity="1" fill-rule="evenodd"/><path fill="#1b1918" d="M 51.972656 363.214844 C 55.683594 363.214844 58.695312 372.285156 58.695312 383.46875 C 58.695312 394.65625 55.683594 403.726562 51.972656 403.726562 C 48.621094 403.726562 45.839844 396.34375 45.328125 386.683594 L 51.304688 386.683594 L 51.304688 379.773438 L 45.355469 379.773438 C 45.933594 370.351562 48.675781 363.214844 51.972656 363.214844 Z M 51.972656 363.214844 " fill-opacity="1" fill-rule="evenodd"/><path fill="#1b1918" d="M 70.15625 380.816406 L 81.539062 380.816406 L 81.539062 385.640625 L 70.15625 385.640625 Z M 70.15625 380.816406 " fill-opacity="1" fill-rule="evenodd"/><path fill="#1b1918" d="M 33.246094 380.816406 L 50.261719 380.816406 L 50.261719 385.640625 L 33.246094 385.640625 Z M 33.246094 380.816406 " fill-opacity="1" fill-rule="evenodd"/></svg>