<svg xmlns="http://www.w3.org/2000/svg" xmlns:xlink="http://www.w3.org/1999/xlink" width="1024" zoomAndPan="magnify" viewBox="0 0 768 775.92" height="1024" preserveAspectRatio="xMidYMid meet" version="1.0"><defs><clipPath id="0b5c770a9c"><path d="M 0.0390625 0 L 767.960938 0 L 767.960938 767.921875 L 0.0390625 767.921875 Z M 0.0390625 0 " clip-rule="nonzero"/></clipPath><clipPath id="b22f39d871"><path d="M 0.0390625 255.800781 L 767.960938 255.800781 L 767.960938 483.777344 L 0.0390625 483.777344 Z M 0.0390625 255.800781 " clip-rule="nonzero"/></clipPath></defs><g clip-path="url(#0b5c770a9c)"><path fill="#ffffff" d="M 0.0390625 0 L 767.960938 0 L 767.960938 767.921875 L 0.0390625 767.921875 Z M 0.0390625 0 " fill-opacity="1" fill-rule="nonzero"/><path fill="#ffffff" d="M 0.0390625 0 L 767.960938 0 L 767.960938 767.921875 L 0.0390625 767.921875 Z M 0.0390625 0 " fill-opacity="1" fill-rule="nonzero"/></g><g clip-path="url(#b22f39d871)"><path fill="#3269bc" d="M 0.0390625 767.921875 L 767.960938 767.921875 L 767.960938 0 L 0.0390625 0 Z M 0.0390625 767.921875 " fill-opacity="1" fill-rule="nonzero"/></g><path fill="#ffffff" d="M 681.6875 328.484375 L 688.332031 328.484375 L 693.84375 342.5625 L 699.042969 328.484375 L 705.6875 328.484375 L 705.6875 349.675781 L 701.234375 349.675781 L 701.234375 332.941406 L 694.976562 349.675781 L 692.667969 349.675781 L 686.179688 332.941406 L 686.179688 349.675781 L 681.6875 349.675781 L 681.6875 328.484375 " fill-opacity="1" fill-rule="nonzero"/><path fill="#ffffff" d="M 658.855469 328.484375 L 677.109375 328.484375 L 677.109375 332.15625 L 670.542969 332.15625 L 670.542969 349.675781 L 665.5 349.675781 L 665.5 332.15625 L 658.855469 332.15625 L 658.855469 328.484375 " fill-opacity="1" fill-rule="nonzero"/><path fill="#ffffff" d="M 80.527344 385.539062 L 87.855469 360.671875 L 94.925781 385.539062 L 105.273438 385.539062 L 113.324219 360.042969 L 120.570312 385.539062 L 130.917969 385.539062 L 138.96875 360.042969 L 146.214844 385.539062 L 156.5625 385.539062 L 170.058594 342.796875 L 158.8125 342.796875 L 151.484375 367.664062 L 144.414062 342.796875 L 134.066406 342.796875 L 126.015625 368.289062 L 118.769531 342.796875 L 108.421875 342.796875 L 100.371094 368.289062 L 93.125 342.796875 L 82.777344 342.796875 L 69.28125 385.539062 Z M 119.667969 306.800781 C 151.265625 306.800781 177.035156 332.570312 177.035156 364.164062 C 177.035156 395.761719 151.265625 421.53125 119.667969 421.53125 C 88.074219 421.53125 62.304688 395.761719 62.304688 364.164062 C 62.304688 332.570312 88.074219 306.800781 119.667969 306.800781 " fill-opacity="1" fill-rule="evenodd"/><path fill="#ffffff" d="M 637.4375 345.695312 L 637.4375 328.484375 L 647.199219 328.484375 L 647.199219 384.914062 L 637.4375 384.914062 L 637.4375 381.421875 C 635.476562 382.984375 633.40625 384.136719 631.234375 384.902344 C 629.0625 385.65625 626.707031 386.042969 624.183594 386.042969 C 621.496094 386.042969 618.96875 385.617188 616.589844 384.757812 C 614.210938 383.910156 612.078125 382.667969 610.1875 381.039062 C 607.609375 378.816406 605.625 376.183594 604.25 373.15625 C 602.859375 370.113281 602.171875 366.898438 602.171875 363.484375 C 602.171875 360.339844 602.808594 357.308594 604.089844 354.414062 C 605.371094 351.515625 607.167969 349.015625 609.5 346.898438 C 611.433594 345.058594 613.652344 343.671875 616.167969 342.703125 C 618.664062 341.753906 621.339844 341.277344 624.183594 341.277344 C 626.921875 341.277344 629.355469 341.632812 631.472656 342.347656 C 633.589844 343.046875 635.574219 344.171875 637.4375 345.695312 M 637.015625 363.789062 C 637.015625 360.152344 635.851562 357.109375 633.550781 354.675781 C 631.234375 352.253906 628.335938 351.039062 624.886719 351.039062 C 621.472656 351.039062 618.5625 352.28125 616.140625 354.753906 C 613.71875 357.242188 612.515625 360.207031 612.515625 363.632812 C 612.515625 367.230469 613.730469 370.21875 616.152344 372.613281 C 618.589844 375.007812 621.65625 376.199219 625.347656 376.199219 C 628.601562 376.199219 631.355469 374.996094 633.613281 372.585938 C 635.878906 370.195312 637.015625 367.257812 637.015625 363.789062 M 585.78125 328.484375 L 595.464844 328.484375 L 595.464844 384.917969 L 585.78125 384.917969 Z M 545.355469 366.742188 C 545.6875 369.808594 546.921875 372.242188 549.023438 374 C 551.125 375.777344 553.851562 376.660156 557.183594 376.660156 C 559.390625 376.660156 561.386719 376.199219 563.164062 375.273438 C 564.933594 374.335938 566.335938 373.035156 567.371094 371.355469 L 578.070312 371.355469 C 576.257812 376 573.558594 379.613281 569.949219 382.191406 C 566.347656 384.757812 562.183594 386.042969 557.445312 386.042969 C 554.273438 386.042969 551.351562 385.484375 548.675781 384.359375 C 546.003906 383.238281 543.613281 381.570312 541.480469 379.371094 C 539.46875 377.28125 537.910156 374.863281 536.796875 372.113281 C 535.6875 369.359375 535.128906 366.539062 535.128906 363.644531 C 535.128906 360.667969 535.648438 357.878906 536.664062 355.257812 C 537.683594 352.628906 539.195312 350.269531 541.175781 348.183594 C 543.347656 345.878906 545.808594 344.109375 548.546875 342.878906 C 551.285156 341.632812 554.101562 341.011719 557.023438 341.011719 C 560.714844 341.011719 564.167969 341.847656 567.371094 343.523438 C 570.570312 345.207031 573.296875 347.574219 575.546875 350.617188 C 576.921875 352.453125 577.925781 354.503906 578.585938 356.78125 C 579.246094 359.054688 579.578125 361.664062 579.578125 364.609375 C 579.578125 364.835938 579.566406 365.191406 579.539062 365.667969 C 579.511719 366.15625 579.5 366.503906 579.5 366.742188 Z M 568.875 358.867188 C 568.027344 356.027344 566.601562 353.867188 564.589844 352.375 C 562.59375 350.894531 560.066406 350.15625 557.023438 350.15625 C 554.378906 350.15625 552.023438 350.960938 549.933594 352.5625 C 547.828125 354.160156 546.429688 356.265625 545.703125 358.867188 Z M 505.199219 359.109375 L 497.949219 384.914062 L 491.480469 384.914062 L 476.714844 342.28125 L 487.40625 342.28125 L 494.3125 366.898438 L 501.859375 342.28125 L 509.152344 342.28125 L 516.320312 366.898438 L 523.210938 342.28125 L 533.914062 342.28125 L 519.074219 384.914062 L 512.566406 384.914062 Z M 463.464844 384.914062 L 463.464844 379.679688 C 462.273438 381.792969 460.605469 383.367188 458.453125 384.371094 C 456.296875 385.378906 453.527344 385.882812 450.167969 385.882812 C 443.871094 385.882812 438.605469 383.726562 434.390625 379.425781 C 430.167969 375.125 428.050781 369.78125 428.050781 363.40625 C 428.050781 360.40625 428.582031 357.5625 429.640625 354.875 C 430.695312 352.1875 432.207031 349.820312 434.179688 347.785156 C 436.292969 345.535156 438.648438 343.882812 441.222656 342.8125 C 443.808594 341.738281 446.71875 341.199219 449.945312 341.199219 C 453.039062 341.199219 455.714844 341.714844 457.949219 342.746094 C 460.183594 343.777344 461.980469 345.335938 463.34375 347.441406 L 463.34375 342.28125 L 473.042969 342.28125 L 473.042969 384.914062 Z M 438.210938 363.246094 C 438.210938 366.832031 439.402344 369.835938 441.796875 372.257812 C 444.175781 374.679688 447.089844 375.878906 450.523438 375.878906 C 453.648438 375.878906 456.402344 374.664062 458.78125 372.242188 C 461.144531 369.808594 462.339844 366.964844 462.339844 363.710938 C 462.339844 360.246094 461.144531 357.269531 458.753906 354.78125 C 456.371094 352.28125 453.566406 351.039062 450.367188 351.039062 C 447.019531 351.039062 444.152344 352.214844 441.765625 354.582031 C 439.402344 356.953125 438.210938 359.835938 438.210938 363.246094 M 366.714844 342.28125 L 366.714844 347.125 C 368.15625 345.191406 369.824219 343.765625 371.683594 342.824219 C 373.566406 341.898438 375.695312 341.4375 378.105469 341.4375 C 381.542969 341.4375 384.480469 342.042969 386.914062 343.261719 C 389.363281 344.464844 391.464844 346.371094 393.210938 348.949219 C 394.886719 346.421875 396.78125 344.53125 398.871094 343.300781 C 400.964844 342.054688 403.277344 341.4375 405.804688 341.4375 C 411.027344 341.4375 415.035156 343.074219 417.828125 346.355469 C 420.621094 349.636719 422.007812 354.332031 422.007812 360.457031 L 422.007812 384.914062 L 412.246094 384.914062 L 412.246094 366.039062 C 412.246094 360.257812 411.609375 356.316406 410.328125 354.238281 C 409.046875 352.164062 406.835938 351.117188 403.671875 351.117188 C 400.394531 351.117188 398.050781 352.28125 396.652344 354.625 C 395.238281 356.964844 394.53125 360.972656 394.53125 366.660156 L 394.53125 384.914062 L 384.691406 384.914062 L 384.691406 366.039062 C 384.691406 360.273438 384.042969 356.355469 382.734375 354.253906 C 381.425781 352.164062 379.148438 351.117188 375.894531 351.117188 C 372.589844 351.117188 370.207031 352.28125 368.769531 354.625 C 367.324219 356.964844 366.597656 360.972656 366.597656 366.660156 L 366.597656 384.914062 L 357.015625 384.914062 L 357.015625 342.28125 Z M 313.113281 362.863281 C 313.113281 366.582031 314.359375 369.691406 316.859375 372.203125 C 319.34375 374.703125 322.414062 375.960938 326.0625 375.960938 C 329.398438 375.960938 332.335938 374.691406 334.875 372.164062 C 337.414062 369.636719 338.699219 366.6875 338.699219 363.328125 C 338.699219 359.691406 337.441406 356.582031 334.929688 354.003906 C 332.425781 351.4375 329.441406 350.15625 325.984375 350.15625 C 322.414062 350.15625 319.386719 351.382812 316.871094 353.828125 C 314.371094 356.289062 313.113281 359.292969 313.113281 362.863281 M 339.625 342.28125 L 348.5 342.28125 L 348.5 377.863281 C 348.5 385.246094 346.53125 391.050781 342.582031 395.261719 C 338.644531 399.480469 333.25 401.582031 326.371094 401.582031 C 321.226562 401.582031 316.921875 400.378906 313.457031 397.957031 C 309.992188 395.539062 307.453125 391.953125 305.828125 387.203125 L 315.402344 387.203125 C 316.433594 389.121094 317.90625 390.617188 319.824219 391.703125 C 321.742188 392.789062 323.867188 393.328125 326.210938 393.328125 C 330.164062 393.328125 333.382812 392.046875 335.839844 389.46875 C 338.3125 386.898438 339.542969 383.515625 339.542969 379.292969 L 339.542969 378.871094 C 337.640625 380.851562 335.457031 382.363281 332.996094 383.378906 C 330.535156 384.398438 327.851562 384.914062 324.9375 384.914062 C 322.097656 384.914062 319.398438 384.425781 316.859375 383.449219 C 314.308594 382.453125 312.054688 381.050781 310.097656 379.210938 C 307.972656 377.203125 306.300781 374.796875 305.097656 372.003906 C 303.882812 369.214844 303.273438 366.382812 303.273438 363.484375 C 303.273438 357.015625 305.308594 351.699219 309.398438 347.492188 C 313.472656 343.300781 318.65625 341.199219 324.9375 341.199219 C 327.796875 341.199219 330.441406 341.699219 332.863281 342.703125 C 335.273438 343.710938 337.535156 345.273438 339.625 347.359375 Z M 287.570312 384.914062 L 287.570312 379.679688 C 286.382812 381.792969 284.714844 383.367188 282.558594 384.371094 C 280.402344 385.378906 277.636719 385.882812 274.277344 385.882812 C 267.980469 385.882812 262.71875 383.726562 258.496094 379.425781 C 254.277344 375.125 252.160156 369.78125 252.160156 363.40625 C 252.160156 360.40625 252.691406 357.5625 253.75 354.875 C 254.808594 352.1875 256.316406 349.820312 258.285156 347.785156 C 260.40625 345.535156 262.757812 343.882812 265.335938 342.8125 C 267.914062 341.738281 270.828125 341.199219 274.050781 341.199219 C 277.148438 341.199219 279.820312 341.714844 282.054688 342.746094 C 284.292969 343.777344 286.09375 345.335938 287.453125 347.441406 L 287.453125 342.28125 L 297.152344 342.28125 L 297.152344 384.914062 Z M 262.320312 363.246094 C 262.320312 366.832031 263.507812 369.835938 265.902344 372.257812 C 268.285156 374.679688 271.199219 375.878906 274.636719 375.878906 C 277.757812 375.878906 280.507812 374.664062 282.890625 372.242188 C 285.257812 369.808594 286.449219 366.964844 286.449219 363.710938 C 286.449219 360.246094 285.257812 357.269531 282.863281 354.78125 C 280.480469 352.28125 277.675781 351.039062 274.476562 351.039062 C 271.128906 351.039062 268.257812 352.214844 265.878906 354.582031 C 263.507812 356.953125 262.320312 359.835938 262.320312 363.246094 M 221.496094 368.660156 L 228.746094 342.847656 L 235.214844 342.847656 L 249.976562 385.484375 L 239.289062 385.484375 L 232.382812 360.867188 L 224.828125 385.484375 L 217.542969 385.484375 L 210.371094 360.867188 L 203.480469 385.484375 L 192.78125 385.484375 L 207.621094 342.847656 L 214.128906 342.847656 L 221.496094 368.660156 " fill-opacity="1" fill-rule="evenodd"/></svg>