<svg xmlns="http://www.w3.org/2000/svg" xmlns:xlink="http://www.w3.org/1999/xlink" width="1024" zoomAndPan="magnify" viewBox="0 0 768 775.92" height="1024" preserveAspectRatio="xMidYMid meet" version="1.0"><defs><clipPath id="ab2a756069"><path d="M 0.0390625 0 L 767.960938 0 L 767.960938 767.921875 L 0.0390625 767.921875 Z M 0.0390625 0 " clip-rule="nonzero"/></clipPath><clipPath id="8ab82d3340"><path d="M 2 260.945312 L 766 260.945312 L 766 506.917969 L 2 506.917969 Z M 2 260.945312 " clip-rule="nonzero"/></clipPath><clipPath id="0f47756379"><path d="M 2 366 L 766 366 L 766 506.917969 L 2 506.917969 Z M 2 366 " clip-rule="nonzero"/></clipPath></defs><g clip-path="url(#ab2a756069)"><path fill="#ffffff" d="M 0.0390625 0 L 767.960938 0 L 767.960938 767.921875 L 0.0390625 767.921875 Z M 0.0390625 0 " fill-opacity="1" fill-rule="nonzero"/><path fill="#ffffff" d="M 0.0390625 0 L 767.960938 0 L 767.960938 767.921875 L 0.0390625 767.921875 Z M 0.0390625 0 " fill-opacity="1" fill-rule="nonzero"/></g><g clip-path="url(#8ab82d3340)"><path fill="#e42526" d="M 2.757812 260.945312 L 765.316406 260.945312 L 765.316406 506.675781 L 2.757812 506.675781 Z M 2.757812 260.945312 " fill-opacity="1" fill-rule="evenodd"/></g><g clip-path="url(#0f47756379)"><path fill="#ffffff" d="M 554.179688 506.894531 C 550.589844 505.371094 540.601562 500.257812 539.300781 490.097656 L 520.765625 506.921875 L 477.59375 506.894531 C 473.320312 505.71875 465.539062 501.875 463.097656 489.554688 L 445.25 506.871094 L 407.566406 506.921875 L 391.472656 454.871094 L 371.566406 506.871094 L 335.488281 506.871094 L 342.277344 489.410156 C 327.78125 501.4375 323.28125 505.617188 321.988281 506.921875 L 291.320312 506.894531 C 279.804688 501.585938 278.960938 489.285156 278.960938 489.285156 C 264.015625 501.484375 259.359375 505.570312 257.984375 506.894531 L 231.214844 506.871094 C 221.371094 502.273438 218.246094 489.824219 218.246094 489.824219 C 203.292969 500.824219 194.597656 506.871094 194.597656 506.871094 L 146.007812 506.871094 L 174.839844 432.683594 L 149.132812 432.683594 L 121.296875 506.871094 L 85.441406 506.871094 L 118.320312 415.34375 L 94.824219 415.34375 L 59.8125 506.871094 L 23.964844 506.871094 L 65.152344 398.003906 L 2.605469 398.003906 L 2.605469 366.589844 L 112.214844 366.589844 L 106.039062 385.015625 L 165.382812 385.015625 L 158.667969 403.953125 L 218.546875 403.953125 L 191.089844 479.246094 L 219.082031 479.246094 L 240.902344 425.085938 C 240.902344 425.085938 249.289062 403.957031 268.898438 403.957031 L 344.488281 403.957031 L 317.632812 479.792969 L 345.628906 479.792969 L 388.730469 366.589844 L 422.828125 366.589844 L 396.507812 441.339844 L 435.714844 403.957031 L 476.601562 403.957031 L 427.324219 452.164062 L 434.574219 480.332031 L 464.855469 480.0625 L 495.058594 403.414062 L 529.160156 403.414062 L 501.777344 479.792969 L 540.984375 479.792969 L 560.507812 428.332031 L 537.546875 428.332031 L 546.546875 403.414062 L 568.367188 403.414062 L 583.46875 366.589844 L 618.710938 366.589844 L 605.285156 402.332031 L 626.035156 402.332031 L 617.640625 427.792969 L 595.214844 427.792969 L 576.753906 479.246094 L 615.960938 479.246094 L 634.421875 429.953125 C 634.421875 429.953125 642.28125 404.519531 665.242188 403.957031 L 739.082031 403.957031 L 711.695312 479.25 L 765.394531 479.25 L 765.394531 506.871094 L 693.765625 506.871094 C 693.765625 506.871094 676.988281 504.710938 674.167969 489.554688 L 656.773438 506.871094 L 632.210938 506.871094 C 632.210938 506.871094 616.496094 504.710938 614.285156 489.554688 L 596.363281 506.894531 Z M 674.472656 480.332031 L 693.460938 432.683594 L 669.359375 432.683594 L 650.367188 480.332031 Z M 280.492188 480.332031 L 299.480469 432.683594 L 275.457031 432.683594 L 256.386719 480.332031 Z M 280.492188 480.332031 " fill-opacity="1" fill-rule="evenodd"/></g><path fill="#ffffff" d="M 497.804688 394.558594 L 507.878906 366.398438 L 542.050781 366.398438 L 531.976562 394.558594 Z M 497.804688 394.558594 " fill-opacity="1" fill-rule="evenodd"/><path fill="#ffffff" d="M 725.578125 351.265625 L 720.085938 351.265625 L 720.085938 346.074219 L 726.035156 346.074219 C 727.179688 346.074219 729.164062 346.273438 729.164062 348.632812 C 729.164062 350.894531 727.332031 351.269531 725.578125 351.269531 Z M 731.449219 357.714844 L 731.296875 354.957031 C 731.222656 352.839844 730.234375 352.449219 729.238281 352.078125 C 730.308594 351.511719 731.605469 350.675781 731.605469 348.414062 C 731.605469 345.195312 728.703125 344.308594 725.804688 344.308594 L 717.71875 344.308594 L 717.71875 359.578125 L 720.085938 359.578125 L 720.085938 353.035156 L 725.804688 353.035156 C 728.703125 353.035156 729.011719 354.511719 729.011719 355.765625 C 729.011719 356.332031 729.085938 358.644531 729.390625 359.578125 L 732.367188 359.578125 L 732.367188 359.238281 C 731.605469 358.871094 731.449219 358.574219 731.449219 357.714844 Z M 731.449219 357.714844 " fill-opacity="1" fill-rule="evenodd"/><path fill="#ffffff" d="M 724.511719 364.769531 C 721.074219 364.769531 717.875 363.441406 715.433594 361.003906 C 712.992188 358.574219 711.621094 355.347656 711.621094 351.902344 C 711.621094 348.464844 712.992188 345.238281 715.433594 342.804688 C 717.875 340.367188 721.074219 339.042969 724.511719 339.042969 C 727.945312 339.042969 731.222656 340.367188 733.585938 342.804688 C 736.027344 345.238281 737.398438 348.464844 737.398438 351.902344 C 737.398438 359.011719 731.605469 364.769531 724.511719 364.769531 Z M 734.65625 341.820312 C 731.910156 339.117188 728.320312 337.644531 724.511719 337.644531 C 716.652344 337.644531 710.246094 344.039062 710.246094 351.90625 C 710.246094 355.722656 711.695312 359.308594 714.4375 362.015625 C 717.109375 364.699219 720.699219 366.199219 724.507812 366.199219 C 728.320312 366.199219 731.910156 364.699219 734.65625 362.015625 C 737.320312 359.308594 738.773438 355.722656 738.773438 351.90625 C 738.773438 348.09375 737.320312 344.5 734.65625 341.820312 Z M 734.65625 341.820312 " fill-opacity="1" fill-rule="evenodd"/></svg>