<svg xmlns="http://www.w3.org/2000/svg" xmlns:xlink="http://www.w3.org/1999/xlink" width="1024" zoomAndPan="magnify" viewBox="0 0 768 775.92" height="1024" preserveAspectRatio="xMidYMid meet" version="1.0"><defs><clipPath id="8650dfe6f5"><path d="M 0.0390625 0 L 767.960938 0 L 767.960938 767.921875 L 0.0390625 767.921875 Z M 0.0390625 0 " clip-rule="nonzero"/></clipPath><clipPath id="487d01e29c"><path d="M 674 326 L 767.960938 326 L 767.960938 440 L 674 440 Z M 674 326 " clip-rule="nonzero"/></clipPath><clipPath id="059784e213"><path d="M 0.0390625 298 L 172 298 L 172 469 L 0.0390625 469 Z M 0.0390625 298 " clip-rule="nonzero"/></clipPath></defs><g clip-path="url(#8650dfe6f5)"><path fill="#ffffff" d="M 0.0390625 0 L 767.960938 0 L 767.960938 767.921875 L 0.0390625 767.921875 Z M 0.0390625 0 " fill-opacity="1" fill-rule="nonzero"/><path fill="#ffffff" d="M 0.0390625 0 L 767.960938 0 L 767.960938 767.921875 L 0.0390625 767.921875 Z M 0.0390625 0 " fill-opacity="1" fill-rule="nonzero"/></g><path fill="#ed0007" d="M 328.492188 380.945312 C 329.644531 380.5 330.757812 379.96875 331.828125 379.355469 C 332.902344 378.738281 333.921875 378.046875 334.890625 377.28125 C 335.859375 376.511719 336.761719 375.671875 337.601562 374.765625 C 338.441406 373.859375 339.207031 372.894531 339.902344 371.875 C 340.59375 370.851562 341.207031 369.78125 341.738281 368.667969 C 342.265625 367.550781 342.710938 366.402344 343.066406 365.222656 C 343.421875 364.039062 343.6875 362.835938 343.859375 361.613281 C 344.03125 360.390625 344.113281 359.164062 344.097656 357.929688 C 344.097656 337.214844 329.378906 326.945312 309.160156 326.945312 L 256.132812 326.945312 L 256.132812 439.582031 L 313.769531 439.582031 C 331.503906 439.582031 348.886719 427.1875 348.886719 408.246094 C 348.886719 385.722656 328.492188 381.15625 328.492188 380.945312 Z M 283.800781 350.316406 L 304.371094 350.316406 C 305.03125 350.273438 305.6875 350.296875 306.339844 350.386719 C 306.996094 350.476562 307.632812 350.628906 308.257812 350.839844 C 308.882812 351.054688 309.480469 351.328125 310.046875 351.660156 C 310.617188 351.992188 311.152344 352.375 311.644531 352.8125 C 312.140625 353.25 312.585938 353.730469 312.984375 354.253906 C 313.382812 354.78125 313.730469 355.335938 314.015625 355.929688 C 314.304688 356.523438 314.535156 357.136719 314.703125 357.773438 C 314.871094 358.410156 314.972656 359.058594 315.011719 359.714844 C 315.011719 360.117188 315.011719 360.523438 315.011719 360.9375 C 315 361.625 314.917969 362.300781 314.769531 362.972656 C 314.625 363.640625 314.414062 364.289062 314.140625 364.917969 C 313.867188 365.546875 313.53125 366.144531 313.140625 366.707031 C 312.75 367.269531 312.308594 367.792969 311.8125 368.269531 C 311.320312 368.746094 310.785156 369.171875 310.207031 369.542969 C 309.632812 369.914062 309.023438 370.226562 308.386719 370.480469 C 307.746094 370.734375 307.089844 370.925781 306.414062 371.050781 C 305.738281 371.175781 305.058594 371.234375 304.371094 371.222656 L 283.621094 371.222656 Z M 304.550781 416 L 283.976562 416 L 283.976562 393.867188 L 304.015625 393.867188 C 314.125 393.867188 318.914062 398.292969 318.914062 404.84375 C 318.914062 413.023438 312.882812 416 304.550781 416 Z M 304.550781 416 " fill-opacity="1" fill-rule="evenodd"/><path fill="#ed0007" d="M 409.890625 324.113281 C 377.261719 324.113281 358.109375 350.136719 358.109375 383.070312 C 358.109375 416 377.261719 442.023438 409.890625 442.023438 C 442.523438 442.023438 461.675781 416.175781 461.675781 383.070312 C 461.675781 349.960938 442.703125 324.113281 409.890625 324.113281 Z M 409.890625 415.113281 C 393.929688 415.113281 385.949219 400.773438 385.949219 383.070312 C 385.949219 365.363281 393.929688 351.199219 409.890625 351.199219 C 425.855469 351.199219 434.011719 365.542969 434.011719 383.070312 C 434.011719 400.949219 425.855469 415.113281 409.890625 415.113281 Z M 409.890625 415.113281 " fill-opacity="1" fill-rule="evenodd"/><path fill="#ed0007" d="M 521.796875 371.207031 L 517.894531 370.320312 C 508.320312 368.375 500.691406 365.894531 500.691406 358.992188 C 500.691406 351.554688 507.964844 348.546875 514.347656 348.546875 C 516.527344 348.578125 518.679688 348.832031 520.804688 349.308594 C 522.929688 349.78125 524.984375 350.46875 526.96875 351.367188 C 528.949219 352.265625 530.820312 353.359375 532.578125 354.640625 C 534.335938 355.925781 535.945312 357.375 537.402344 358.992188 L 554.960938 341.640625 C 546.980469 332.609375 534.035156 323.9375 513.816406 323.9375 C 490.050781 323.9375 471.964844 337.214844 471.964844 359.34375 C 471.964844 379.527344 486.503906 389.441406 504.242188 393.160156 L 508.140625 394.046875 C 522.863281 397.054688 528.359375 399.355469 528.359375 406.4375 C 528.359375 413.167969 522.328125 417.59375 513.109375 417.59375 C 502.113281 417.59375 492.179688 412.8125 484.554688 403.074219 L 466.644531 420.777344 C 476.574219 432.640625 489.164062 441.847656 513.460938 441.847656 C 534.566406 441.847656 557.089844 429.808594 557.089844 405.199219 C 557.445312 379.527344 537.9375 374.570312 521.796875 371.207031 Z M 521.796875 371.207031 " fill-opacity="1" fill-rule="evenodd"/><path fill="#ed0007" d="M 620.222656 415.113281 C 607.808594 415.113281 594.863281 404.84375 594.863281 382.359375 C 594.863281 362.355469 606.921875 351.199219 619.515625 351.199219 C 629.445312 351.199219 635.296875 355.804688 639.910156 363.769531 L 662.609375 348.722656 C 651.261719 331.550781 637.78125 324.289062 619.160156 324.289062 C 585.109375 324.289062 566.664062 350.667969 566.664062 382.539062 C 566.664062 416 587.0625 442.203125 618.804688 442.203125 C 641.152344 442.203125 651.792969 434.410156 663.320312 417.769531 L 640.441406 402.402344 C 635.832031 409.800781 630.863281 415.113281 620.222656 415.113281 Z M 620.222656 415.113281 " fill-opacity="1" fill-rule="evenodd"/><g clip-path="url(#487d01e29c)"><path fill="#ed0007" d="M 738.335938 326.945312 L 738.335938 368.375 L 704.109375 368.375 L 704.109375 326.945312 L 674.492188 326.945312 L 674.492188 439.546875 L 704.109375 439.546875 L 704.109375 395.109375 L 738.335938 395.109375 L 738.335938 439.546875 L 767.953125 439.546875 L 767.953125 326.945312 Z M 738.335938 326.945312 " fill-opacity="1" fill-rule="evenodd"/></g><g clip-path="url(#059784e213)"><path fill="#000000" d="M 85.527344 298.265625 C 84.128906 298.265625 82.730469 298.300781 81.332031 298.367188 C 79.9375 298.4375 78.539062 298.539062 77.148438 298.675781 C 75.757812 298.8125 74.367188 298.984375 72.984375 299.1875 C 71.601562 299.394531 70.222656 299.632812 68.851562 299.90625 C 67.480469 300.175781 66.113281 300.484375 64.757812 300.820312 C 63.398438 301.160156 62.050781 301.535156 60.714844 301.9375 C 59.375 302.34375 58.046875 302.78125 56.730469 303.253906 C 55.414062 303.722656 54.109375 304.226562 52.816406 304.761719 C 51.523438 305.296875 50.246094 305.859375 48.980469 306.457031 C 47.714844 307.054688 46.464844 307.683594 45.230469 308.339844 C 44 309 42.78125 309.6875 41.582031 310.40625 C 40.382812 311.125 39.199219 311.871094 38.035156 312.644531 C 36.875 313.421875 35.730469 314.226562 34.605469 315.058594 C 33.484375 315.890625 32.378906 316.75 31.300781 317.636719 C 30.21875 318.519531 29.160156 319.433594 28.121094 320.371094 C 27.085938 321.308594 26.074219 322.269531 25.082031 323.257812 C 24.09375 324.246094 23.128906 325.257812 22.191406 326.292969 C 21.25 327.328125 20.335938 328.382812 19.449219 329.464844 C 18.5625 330.542969 17.703125 331.644531 16.867188 332.765625 C 16.035156 333.886719 15.230469 335.027344 14.453125 336.191406 C 13.675781 337.351562 12.925781 338.53125 12.207031 339.730469 C 11.488281 340.925781 10.800781 342.140625 10.140625 343.375 C 9.480469 344.605469 8.851562 345.851562 8.253906 347.113281 C 7.65625 348.375 7.089844 349.652344 6.554688 350.945312 C 6.019531 352.234375 5.515625 353.535156 5.042969 354.851562 C 4.574219 356.167969 4.132812 357.492188 3.726562 358.828125 C 3.320312 360.164062 2.949219 361.511719 2.609375 362.863281 C 2.269531 364.21875 1.960938 365.582031 1.6875 366.953125 C 1.417969 368.320312 1.175781 369.695312 0.972656 371.078125 C 0.765625 372.460938 0.59375 373.847656 0.457031 375.234375 C 0.320312 376.625 0.21875 378.019531 0.148438 379.414062 C 0.0820312 380.808594 0.046875 382.203125 0.046875 383.601562 C 0.046875 384.996094 0.0820312 386.390625 0.148438 387.785156 C 0.21875 389.183594 0.320312 390.574219 0.457031 391.964844 C 0.59375 393.355469 0.765625 394.738281 0.972656 396.121094 C 1.175781 397.503906 1.417969 398.878906 1.6875 400.246094 C 1.960938 401.617188 2.269531 402.980469 2.609375 404.335938 C 2.949219 405.6875 3.320312 407.035156 3.726562 408.371094 C 4.132812 409.707031 4.574219 411.035156 5.042969 412.347656 C 5.515625 413.664062 6.019531 414.964844 6.554688 416.257812 C 7.089844 417.546875 7.65625 418.824219 8.253906 420.085938 C 8.851562 421.347656 9.480469 422.59375 10.140625 423.828125 C 10.800781 425.058594 11.488281 426.273438 12.207031 427.472656 C 12.925781 428.667969 13.675781 429.847656 14.453125 431.007812 C 15.230469 432.171875 16.035156 433.3125 16.867188 434.433594 C 17.703125 435.554688 18.5625 436.65625 19.449219 437.734375 C 20.335938 438.816406 21.25 439.871094 22.191406 440.90625 C 23.128906 441.941406 24.09375 442.953125 25.082031 443.941406 C 26.074219 444.929688 27.085938 445.890625 28.121094 446.828125 C 29.160156 447.765625 30.21875 448.679688 31.300781 449.566406 C 32.378906 450.449219 33.484375 451.308594 34.605469 452.140625 C 35.730469 452.972656 36.875 453.777344 38.035156 454.554688 C 39.199219 455.328125 40.382812 456.074219 41.582031 456.792969 C 42.78125 457.511719 44 458.199219 45.230469 458.859375 C 46.464844 459.515625 47.714844 460.144531 48.980469 460.742188 C 50.246094 461.339844 51.523438 461.90625 52.816406 462.4375 C 54.109375 462.972656 55.414062 463.476562 56.730469 463.945312 C 58.046875 464.417969 59.375 464.855469 60.714844 465.261719 C 62.050781 465.664062 63.398438 466.039062 64.757812 466.378906 C 66.113281 466.71875 67.480469 467.023438 68.851562 467.296875 C 70.222656 467.566406 71.601562 467.804688 72.984375 468.011719 C 74.367188 468.214844 75.757812 468.386719 77.148438 468.523438 C 78.539062 468.660156 79.9375 468.761719 81.332031 468.832031 C 82.730469 468.902344 84.128906 468.933594 85.527344 468.933594 C 86.925781 468.933594 88.324219 468.902344 89.722656 468.832031 C 91.117188 468.761719 92.511719 468.660156 93.90625 468.523438 C 95.296875 468.386719 96.6875 468.214844 98.070312 468.011719 C 99.453125 467.804688 100.832031 467.566406 102.203125 467.296875 C 103.574219 467.023438 104.941406 466.71875 106.296875 466.378906 C 107.65625 466.039062 109.003906 465.664062 110.339844 465.261719 C 111.679688 464.855469 113.007812 464.417969 114.324219 463.945312 C 115.640625 463.476562 116.945312 462.972656 118.238281 462.4375 C 119.53125 461.90625 120.808594 461.339844 122.074219 460.742188 C 123.339844 460.144531 124.589844 459.515625 125.824219 458.859375 C 127.054688 458.199219 128.273438 457.511719 129.472656 456.792969 C 130.671875 456.074219 131.855469 455.328125 133.019531 454.554688 C 134.179688 453.777344 135.324219 452.972656 136.449219 452.140625 C 137.570312 451.308594 138.675781 450.449219 139.753906 449.566406 C 140.835938 448.679688 141.894531 447.765625 142.933594 446.828125 C 143.96875 445.890625 144.980469 444.929688 145.972656 443.941406 C 146.960938 442.953125 147.925781 441.941406 148.863281 440.90625 C 149.804688 439.871094 150.71875 438.816406 151.605469 437.734375 C 152.492188 436.65625 153.351562 435.554688 154.1875 434.433594 C 155.019531 433.3125 155.824219 432.171875 156.601562 431.007812 C 157.378906 429.847656 158.128906 428.667969 158.847656 427.472656 C 159.566406 426.273438 160.253906 425.058594 160.914062 423.828125 C 161.574219 422.59375 162.203125 421.347656 162.800781 420.085938 C 163.398438 418.824219 163.964844 417.546875 164.5 416.257812 C 165.035156 414.964844 165.539062 413.664062 166.011719 412.347656 C 166.480469 411.035156 166.921875 409.707031 167.328125 408.371094 C 167.734375 407.035156 168.105469 405.6875 168.445312 404.335938 C 168.785156 402.980469 169.09375 401.617188 169.367188 400.246094 C 169.636719 398.878906 169.878906 397.503906 170.082031 396.121094 C 170.289062 394.738281 170.460938 393.355469 170.597656 391.964844 C 170.734375 390.574219 170.835938 389.183594 170.90625 387.785156 C 170.972656 386.390625 171.007812 384.996094 171.007812 383.601562 C 171.007812 382.203125 170.972656 380.808594 170.90625 379.414062 C 170.835938 378.019531 170.734375 376.625 170.597656 375.234375 C 170.460938 373.847656 170.289062 372.460938 170.082031 371.078125 C 169.878906 369.695312 169.636719 368.320312 169.367188 366.953125 C 169.09375 365.582031 168.785156 364.21875 168.445312 362.863281 C 168.105469 361.511719 167.734375 360.164062 167.328125 358.828125 C 166.921875 357.492188 166.480469 356.167969 166.011719 354.851562 C 165.539062 353.535156 165.035156 352.234375 164.5 350.945312 C 163.964844 349.652344 163.398438 348.375 162.800781 347.113281 C 162.203125 345.851562 161.574219 344.605469 160.914062 343.375 C 160.253906 342.140625 159.566406 340.925781 158.847656 339.730469 C 158.128906 338.53125 157.378906 337.351562 156.601562 336.191406 C 155.824219 335.027344 155.019531 333.886719 154.1875 332.765625 C 153.351562 331.644531 152.492188 330.542969 151.605469 329.464844 C 150.71875 328.382812 149.804688 327.328125 148.863281 326.292969 C 147.925781 325.257812 146.960938 324.246094 145.972656 323.257812 C 144.980469 322.269531 143.96875 321.308594 142.933594 320.371094 C 141.894531 319.433594 140.835938 318.519531 139.753906 317.636719 C 138.675781 316.75 137.570312 315.890625 136.449219 315.058594 C 135.324219 314.226562 134.179688 313.421875 133.019531 312.644531 C 131.855469 311.871094 130.671875 311.125 129.472656 310.40625 C 128.273438 309.6875 127.054688 309 125.824219 308.339844 C 124.589844 307.683594 123.339844 307.054688 122.074219 306.457031 C 120.808594 305.859375 119.53125 305.296875 118.238281 304.761719 C 116.945312 304.226562 115.640625 303.722656 114.324219 303.253906 C 113.007812 302.78125 111.679688 302.34375 110.339844 301.9375 C 109.003906 301.535156 107.65625 301.160156 106.296875 300.820312 C 104.941406 300.484375 103.574219 300.175781 102.203125 299.90625 C 100.832031 299.632812 99.453125 299.394531 98.070312 299.1875 C 96.6875 298.984375 95.296875 298.8125 93.90625 298.675781 C 92.515625 298.539062 91.117188 298.4375 89.722656 298.367188 C 88.324219 298.300781 86.925781 298.265625 85.527344 298.265625 Z M 85.527344 460.96875 C 84.257812 460.96875 82.992188 460.9375 81.722656 460.875 C 80.457031 460.8125 79.191406 460.71875 77.929688 460.59375 C 76.667969 460.472656 75.410156 460.316406 74.15625 460.128906 C 72.902344 459.945312 71.652344 459.726562 70.40625 459.480469 C 69.164062 459.234375 67.925781 458.957031 66.695312 458.648438 C 65.464844 458.339844 64.242188 458.003906 63.03125 457.636719 C 61.816406 457.269531 60.613281 456.871094 59.417969 456.445312 C 58.222656 456.019531 57.042969 455.5625 55.871094 455.078125 C 54.699219 454.59375 53.539062 454.082031 52.390625 453.539062 C 51.246094 453 50.113281 452.429688 48.992188 451.832031 C 47.875 451.234375 46.773438 450.613281 45.683594 449.960938 C 44.597656 449.308594 43.523438 448.632812 42.46875 447.929688 C 41.417969 447.226562 40.378906 446.496094 39.359375 445.742188 C 38.34375 444.988281 37.34375 444.210938 36.363281 443.40625 C 35.382812 442.601562 34.421875 441.777344 33.480469 440.925781 C 32.542969 440.074219 31.625 439.203125 30.726562 438.308594 C 29.828125 437.410156 28.957031 436.496094 28.105469 435.558594 C 27.25 434.617188 26.421875 433.660156 25.617188 432.679688 C 24.8125 431.703125 24.035156 430.703125 23.277344 429.6875 C 22.523438 428.671875 21.792969 427.636719 21.089844 426.582031 C 20.382812 425.53125 19.707031 424.460938 19.054688 423.375 C 18.402344 422.289062 17.777344 421.1875 17.179688 420.070312 C 16.582031 418.953125 16.011719 417.824219 15.46875 416.679688 C 14.925781 415.535156 14.410156 414.378906 13.925781 413.207031 C 13.441406 412.039062 12.984375 410.855469 12.558594 409.664062 C 12.128906 408.472656 11.734375 407.269531 11.363281 406.058594 C 10.996094 404.847656 10.65625 403.628906 10.351562 402.398438 C 10.042969 401.171875 9.765625 399.933594 9.515625 398.695312 C 9.269531 397.453125 9.050781 396.203125 8.867188 394.953125 C 8.679688 393.699219 8.523438 392.441406 8.402344 391.183594 C 8.277344 389.921875 8.183594 388.660156 8.121094 387.394531 C 8.058594 386.132812 8.027344 384.867188 8.027344 383.601562 C 8.027344 382.332031 8.058594 381.066406 8.121094 379.804688 C 8.183594 378.539062 8.277344 377.277344 8.402344 376.015625 C 8.523438 374.757812 8.679688 373.5 8.867188 372.246094 C 9.050781 370.996094 9.269531 369.746094 9.515625 368.507812 C 9.765625 367.265625 10.042969 366.027344 10.351562 364.800781 C 10.65625 363.574219 10.996094 362.351562 11.363281 361.140625 C 11.734375 359.929688 12.128906 358.726562 12.558594 357.535156 C 12.984375 356.34375 13.441406 355.164062 13.925781 353.992188 C 14.410156 352.824219 14.925781 351.664062 15.46875 350.519531 C 16.011719 349.375 16.582031 348.246094 17.179688 347.128906 C 17.777344 346.011719 18.402344 344.910156 19.054688 343.824219 C 19.707031 342.738281 20.382812 341.667969 21.089844 340.617188 C 21.792969 339.5625 22.523438 338.527344 23.277344 337.511719 C 24.035156 336.496094 24.8125 335.496094 25.617188 334.519531 C 26.421875 333.539062 27.25 332.582031 28.105469 331.644531 C 28.957031 330.703125 29.828125 329.789062 30.726562 328.890625 C 31.625 327.996094 32.542969 327.125 33.480469 326.273438 C 34.421875 325.421875 35.382812 324.597656 36.363281 323.792969 C 37.34375 322.992188 38.34375 322.210938 39.359375 321.457031 C 40.378906 320.703125 41.417969 319.972656 42.46875 319.269531 C 43.523438 318.566406 44.597656 317.890625 45.683594 317.238281 C 46.773438 316.589844 47.875 315.964844 48.992188 315.367188 C 50.113281 314.769531 51.246094 314.203125 52.390625 313.660156 C 53.539062 313.117188 54.699219 312.605469 55.871094 312.121094 C 57.042969 311.636719 58.222656 311.179688 59.417969 310.753906 C 60.613281 310.328125 61.816406 309.929688 63.03125 309.5625 C 64.242188 309.195312 65.464844 308.859375 66.695312 308.550781 C 67.925781 308.242188 69.164062 307.964844 70.40625 307.71875 C 71.652344 307.472656 72.902344 307.253906 74.15625 307.070312 C 75.410156 306.882812 76.667969 306.726562 77.929688 306.605469 C 79.191406 306.480469 80.457031 306.386719 81.722656 306.324219 C 82.992188 306.261719 84.257812 306.230469 85.527344 306.230469 C 86.796875 306.230469 88.0625 306.261719 89.328125 306.324219 C 90.597656 306.386719 91.863281 306.480469 93.125 306.605469 C 94.386719 306.726562 95.644531 306.882812 96.898438 307.070312 C 98.152344 307.253906 99.402344 307.472656 100.648438 307.71875 C 101.890625 307.964844 103.128906 308.242188 104.359375 308.550781 C 105.589844 308.859375 106.8125 309.195312 108.023438 309.5625 C 109.238281 309.929688 110.441406 310.328125 111.636719 310.753906 C 112.832031 311.179688 114.011719 311.636719 115.183594 312.121094 C 116.355469 312.605469 117.515625 313.117188 118.664062 313.660156 C 119.808594 314.203125 120.941406 314.769531 122.0625 315.367188 C 123.179688 315.964844 124.28125 316.589844 125.371094 317.238281 C 126.457031 317.890625 127.53125 318.566406 128.585938 319.269531 C 129.636719 319.972656 130.675781 320.703125 131.695312 321.457031 C 132.710938 322.210938 133.710938 322.992188 134.691406 323.792969 C 135.671875 324.597656 136.632812 325.421875 137.574219 326.273438 C 138.511719 327.125 139.429688 327.996094 140.328125 328.890625 C 141.226562 329.789062 142.097656 330.703125 142.949219 331.644531 C 143.804688 332.582031 144.632812 333.539062 145.4375 334.519531 C 146.242188 335.496094 147.019531 336.496094 147.777344 337.511719 C 148.53125 338.527344 149.261719 339.5625 149.964844 340.617188 C 150.671875 341.667969 151.347656 342.738281 152 343.824219 C 152.652344 344.910156 153.277344 346.011719 153.875 347.128906 C 154.472656 348.246094 155.042969 349.375 155.585938 350.519531 C 156.128906 351.664062 156.644531 352.824219 157.128906 353.992188 C 157.613281 355.164062 158.070312 356.34375 158.496094 357.535156 C 158.925781 358.726562 159.320312 359.929688 159.691406 361.140625 C 160.058594 362.351562 160.398438 363.574219 160.703125 364.800781 C 161.011719 366.027344 161.289062 367.265625 161.539062 368.507812 C 161.785156 369.746094 162.003906 370.996094 162.1875 372.246094 C 162.375 373.5 162.53125 374.757812 162.652344 376.015625 C 162.777344 377.277344 162.871094 378.539062 162.933594 379.804688 C 162.996094 381.066406 163.027344 382.332031 163.027344 383.601562 C 163.027344 384.867188 162.996094 386.132812 162.933594 387.394531 C 162.871094 388.660156 162.777344 389.921875 162.652344 391.183594 C 162.527344 392.441406 162.371094 393.699219 162.1875 394.953125 C 162 396.203125 161.78125 397.449219 161.535156 398.691406 C 161.289062 399.933594 161.007812 401.167969 160.703125 402.398438 C 160.394531 403.625 160.054688 404.84375 159.6875 406.058594 C 159.316406 407.269531 158.921875 408.46875 158.492188 409.660156 C 158.066406 410.855469 157.609375 412.035156 157.125 413.203125 C 156.636719 414.375 156.125 415.53125 155.582031 416.675781 C 155.039062 417.820312 154.46875 418.949219 153.871094 420.066406 C 153.273438 421.183594 152.648438 422.285156 151.996094 423.371094 C 151.34375 424.457031 150.664062 425.527344 149.960938 426.578125 C 149.257812 427.632812 148.527344 428.667969 147.769531 429.683594 C 147.015625 430.699219 146.234375 431.699219 145.429688 432.675781 C 144.625 433.65625 143.796875 434.613281 142.945312 435.550781 C 142.09375 436.488281 141.21875 437.40625 140.324219 438.300781 C 139.425781 439.199219 138.507812 440.070312 137.566406 440.921875 C 136.628906 441.769531 135.667969 442.597656 134.6875 443.402344 C 133.707031 444.203125 132.707031 444.984375 131.691406 445.738281 C 130.671875 446.492188 129.632812 447.21875 128.578125 447.921875 C 127.527344 448.628906 126.453125 449.304688 125.367188 449.957031 C 124.277344 450.605469 123.175781 451.230469 122.058594 451.828125 C 120.9375 452.425781 119.804688 452.992188 118.660156 453.535156 C 117.511719 454.078125 116.355469 454.589844 115.183594 455.074219 C 114.011719 455.558594 112.828125 456.015625 111.632812 456.441406 C 110.441406 456.867188 109.234375 457.265625 108.023438 457.632812 C 106.808594 458 105.585938 458.339844 104.355469 458.644531 C 103.125 458.953125 101.890625 459.230469 100.644531 459.476562 C 99.402344 459.726562 98.152344 459.941406 96.898438 460.128906 C 95.644531 460.3125 94.386719 460.46875 93.125 460.59375 C 91.859375 460.71875 90.597656 460.8125 89.328125 460.875 C 88.0625 460.9375 86.796875 460.96875 85.527344 460.96875 Z M 85.527344 460.96875 " fill-opacity="1" fill-rule="nonzero"/></g><path fill="#000000" d="M 120.820312 330.308594 L 114.964844 330.308594 L 114.964844 359.523438 L 56.265625 359.523438 L 56.265625 330.308594 L 50.234375 330.308594 C 49.136719 331.035156 48.0625 331.789062 47.007812 332.578125 C 45.957031 333.371094 44.929688 334.191406 43.929688 335.042969 C 42.929688 335.898438 41.957031 336.78125 41.007812 337.695312 C 40.0625 338.605469 39.144531 339.546875 38.257812 340.519531 C 37.367188 341.488281 36.511719 342.484375 35.683594 343.507812 C 34.859375 344.527344 34.0625 345.578125 33.300781 346.648438 C 32.539062 347.71875 31.8125 348.8125 31.117188 349.929688 C 30.421875 351.046875 29.765625 352.183594 29.140625 353.339844 C 28.515625 354.496094 27.929688 355.671875 27.378906 356.863281 C 26.828125 358.058594 26.3125 359.265625 25.835938 360.492188 C 25.359375 361.71875 24.921875 362.957031 24.523438 364.207031 C 24.121094 365.460938 23.761719 366.722656 23.441406 367.996094 C 23.117188 369.269531 22.835938 370.554688 22.59375 371.84375 C 22.351562 373.136719 22.148438 374.433594 21.988281 375.738281 C 21.824219 377.042969 21.703125 378.351562 21.621094 379.660156 C 21.542969 380.972656 21.5 382.285156 21.5 383.601562 C 21.5 384.914062 21.542969 386.226562 21.621094 387.539062 C 21.703125 388.847656 21.824219 390.15625 21.988281 391.460938 C 22.148438 392.765625 22.351562 394.0625 22.59375 395.355469 C 22.835938 396.644531 23.117188 397.929688 23.441406 399.203125 C 23.761719 400.476562 24.121094 401.742188 24.523438 402.992188 C 24.921875 404.242188 25.359375 405.484375 25.835938 406.707031 C 26.3125 407.933594 26.828125 409.140625 27.378906 410.335938 C 27.929688 411.527344 28.515625 412.703125 29.140625 413.859375 C 29.765625 415.015625 30.421875 416.152344 31.117188 417.269531 C 31.8125 418.386719 32.539062 419.480469 33.300781 420.550781 C 34.0625 421.625 34.859375 422.671875 35.683594 423.691406 C 36.511719 424.714844 37.367188 425.710938 38.257812 426.679688 C 39.144531 427.652344 40.0625 428.59375 41.007812 429.503906 C 41.957031 430.417969 42.929688 431.300781 43.929688 432.15625 C 44.929688 433.007812 45.957031 433.828125 47.007812 434.621094 C 48.0625 435.410156 49.136719 436.167969 50.234375 436.890625 L 56.265625 436.890625 L 56.265625 407.714844 L 114.964844 407.714844 L 114.964844 436.925781 L 120.820312 436.925781 C 121.917969 436.203125 122.992188 435.445312 124.046875 434.65625 C 125.097656 433.867188 126.125 433.046875 127.128906 432.191406 C 128.128906 431.339844 129.101562 430.457031 130.050781 429.542969 C 130.996094 428.628906 131.914062 427.6875 132.804688 426.71875 C 133.691406 425.75 134.550781 424.753906 135.375 423.730469 C 136.203125 422.710938 137 421.664062 137.761719 420.589844 C 138.523438 419.519531 139.25 418.425781 139.945312 417.308594 C 140.640625 416.191406 141.300781 415.054688 141.925781 413.898438 C 142.546875 412.742188 143.136719 411.566406 143.6875 410.375 C 144.238281 409.179688 144.753906 407.972656 145.230469 406.746094 C 145.707031 405.519531 146.144531 404.28125 146.546875 403.03125 C 146.945312 401.777344 147.304688 400.515625 147.628906 399.242188 C 147.949219 397.964844 148.230469 396.683594 148.472656 395.390625 C 148.71875 394.101562 148.917969 392.800781 149.082031 391.496094 C 149.242188 390.195312 149.367188 388.886719 149.445312 387.574219 C 149.527344 386.261719 149.566406 384.949219 149.566406 383.636719 C 149.566406 382.320312 149.527344 381.007812 149.445312 379.695312 C 149.367188 378.382812 149.242188 377.078125 149.082031 375.773438 C 148.917969 374.46875 148.71875 373.171875 148.472656 371.878906 C 148.230469 370.585938 147.949219 369.304688 147.628906 368.03125 C 147.304688 366.753906 146.945312 365.492188 146.546875 364.242188 C 146.144531 362.988281 145.707031 361.75 145.230469 360.523438 C 144.753906 359.300781 144.238281 358.089844 143.6875 356.898438 C 143.136719 355.703125 142.546875 354.527344 141.925781 353.371094 C 141.300781 352.214844 140.640625 351.078125 139.945312 349.960938 C 139.25 348.84375 138.523438 347.75 137.761719 346.679688 C 137 345.609375 136.203125 344.5625 135.375 343.539062 C 134.550781 342.515625 133.691406 341.519531 132.804688 340.550781 C 131.914062 339.582031 130.996094 338.640625 130.050781 337.726562 C 129.101562 336.8125 128.128906 335.929688 127.128906 335.078125 C 126.125 334.226562 125.097656 333.402344 124.046875 332.613281 C 122.992188 331.824219 121.917969 331.070312 120.820312 330.34375 Z M 48.109375 425.417969 C 46.734375 424.199219 45.425781 422.917969 44.179688 421.574219 C 42.9375 420.230469 41.757812 418.828125 40.652344 417.367188 C 39.542969 415.90625 38.511719 414.394531 37.550781 412.832031 C 36.59375 411.269531 35.714844 409.664062 34.914062 408.019531 C 34.113281 406.371094 33.394531 404.6875 32.757812 402.96875 C 32.125 401.25 31.574219 399.503906 31.109375 397.730469 C 30.648438 395.957031 30.273438 394.167969 29.984375 392.359375 C 29.699219 390.550781 29.5 388.730469 29.394531 386.902344 C 29.285156 385.074219 29.265625 383.242188 29.339844 381.414062 C 29.410156 379.582031 29.574219 377.757812 29.824219 375.945312 C 30.074219 374.128906 30.414062 372.332031 30.84375 370.550781 C 31.273438 368.769531 31.785156 367.015625 32.386719 365.285156 C 32.988281 363.554688 33.675781 361.855469 34.441406 360.191406 C 35.210938 358.527344 36.058594 356.90625 36.988281 355.328125 C 37.914062 353.746094 38.917969 352.214844 39.996094 350.734375 C 41.074219 349.25 42.222656 347.824219 43.441406 346.457031 C 44.910156 344.820312 46.464844 343.273438 48.109375 341.816406 Z M 114.964844 399.570312 L 56.265625 399.570312 L 56.265625 367.488281 L 114.964844 367.488281 Z M 122.949219 425.242188 L 122.949219 341.816406 C 124.316406 343.042969 125.621094 344.335938 126.863281 345.691406 C 128.101562 347.042969 129.273438 348.457031 130.378906 349.925781 C 131.480469 351.394531 132.507812 352.914062 133.460938 354.484375 C 134.410156 356.054688 135.285156 357.667969 136.078125 359.324219 C 136.871094 360.980469 137.582031 362.671875 138.210938 364.398438 C 138.835938 366.125 139.378906 367.878906 139.832031 369.65625 C 140.289062 371.433594 140.652344 373.230469 140.933594 375.046875 C 141.210938 376.863281 141.398438 378.6875 141.496094 380.519531 C 141.59375 382.351562 141.601562 384.1875 141.519531 386.019531 C 141.4375 387.855469 141.265625 389.679688 141.003906 391.496094 C 140.742188 393.3125 140.390625 395.113281 139.949219 396.898438 C 139.511719 398.679688 138.984375 400.4375 138.371094 402.167969 C 137.761719 403.898438 137.0625 405.597656 136.285156 407.257812 C 135.503906 408.921875 134.644531 410.542969 133.707031 412.121094 C 132.769531 413.699219 131.753906 415.226562 130.664062 416.707031 C 129.574219 418.1875 128.414062 419.609375 127.1875 420.972656 C 125.84375 422.453125 124.429688 423.867188 122.949219 425.207031 Z M 122.949219 425.242188 " fill-opacity="1" fill-rule="nonzero"/></svg>