<svg xmlns="http://www.w3.org/2000/svg" xmlns:xlink="http://www.w3.org/1999/xlink" width="1024" zoomAndPan="magnify" viewBox="0 0 768 775.92" height="1024" preserveAspectRatio="xMidYMid meet" version="1.0"><defs><clipPath id="aed832f815"><path d="M 0.0390625 0 L 767.960938 0 L 767.960938 767.921875 L 0.0390625 767.921875 Z M 0.0390625 0 " clip-rule="nonzero"/></clipPath><clipPath id="8ab86712e1"><path d="M 0.0390625 319.273438 L 767.960938 319.273438 L 767.960938 449 L 0.0390625 449 Z M 0.0390625 319.273438 " clip-rule="nonzero"/></clipPath><clipPath id="ef2ff9594e"><path d="M 751 363 L 767.960938 363 L 767.960938 448 L 751 448 Z M 751 363 " clip-rule="nonzero"/></clipPath></defs><g clip-path="url(#aed832f815)"><path fill="#ffffff" d="M 0.0390625 0 L 767.960938 0 L 767.960938 767.921875 L 0.0390625 767.921875 Z M 0.0390625 0 " fill-opacity="1" fill-rule="nonzero"/><path fill="#ffffff" d="M 0.0390625 0 L 767.960938 0 L 767.960938 767.921875 L 0.0390625 767.921875 Z M 0.0390625 0 " fill-opacity="1" fill-rule="nonzero"/></g><g clip-path="url(#8ab86712e1)"><path fill="#206a38" d="M 639.179688 353.777344 L 666.261719 347.421875 L 666.261719 319.382812 L 639.179688 319.382812 Z M 678.703125 320.972656 L 678.703125 348.21875 L 705.785156 348.21875 L 705.785156 447.550781 L 732.867188 447.550781 L 732.867188 348.050781 L 767.75 348.050781 L 767.75 320.972656 Z M 639.179688 447.550781 L 666.261719 447.550781 L 666.261719 357.53125 L 639.179688 363.890625 Z M 585.859375 320.804688 L 558.78125 320.804688 L 558.78125 447.550781 L 626.734375 447.550781 L 626.734375 420.308594 L 585.859375 420.308594 Z M 479.226562 421.492188 C 458.875 421.492188 442.058594 404.570312 442.058594 384.265625 C 442.058594 363.617188 458.875 346.863281 479.226562 346.863281 C 499.917969 346.863281 516.230469 363.617188 516.230469 384.265625 C 516.230469 404.570312 499.917969 421.492188 479.226562 421.492188 M 479.226562 319.621094 C 443.570312 319.621094 414.976562 348.386719 414.976562 384.265625 C 414.976562 420.140625 443.570312 448.90625 479.226562 448.90625 C 514.71875 448.90625 543.484375 420.140625 543.484375 384.265625 C 543.484375 348.386719 514.71875 319.621094 479.226562 319.621094 M 338.617188 402.882812 L 308.84375 320.972656 L 275.035156 320.972656 L 275.035156 447.550781 L 302.789062 447.550781 L 302.789062 375.292969 L 328.359375 447.550781 L 348.707031 447.550781 C 372.929688 382.402344 375.117188 371.0625 375.789062 366.328125 L 375.789062 447.550781 L 402.703125 447.550781 L 402.703125 320.972656 L 368.390625 320.972656 Z M 216.503906 373.097656 L 202.546875 373.097656 L 202.546875 348.21875 L 216.503906 348.21875 C 224.582031 348.21875 228.113281 354.820312 228.113281 360.574219 C 228.113281 366.664062 224.582031 373.097656 216.503906 373.097656 M 255.359375 360.574219 C 255.359375 338.574219 239.042969 320.972656 216.503906 320.972656 L 175.296875 320.972656 L 175.296875 447.550781 L 202.546875 447.550781 L 202.546875 398.140625 L 205.910156 398.140625 L 234.167969 447.550781 L 265.113281 447.550781 L 235.175781 395.09375 C 248.96875 387.816406 255.359375 376.308594 255.359375 360.574219 M 90.023438 447.550781 L 160.835938 447.550781 L 160.835938 420.308594 L 117.101562 420.308594 L 117.101562 397.632812 L 160.835938 397.632812 L 160.835938 370.390625 L 117.101562 370.390625 L 117.101562 348.21875 L 160.835938 348.21875 L 160.835938 320.972656 L 90.023438 320.972656 Z M 39.398438 371.910156 L 27.117188 371.910156 L 27.117188 348.21875 L 39.398438 348.21875 C 47.300781 348.21875 49.65625 355.496094 49.65625 359.726562 C 49.65625 364.296875 47.300781 371.910156 39.398438 371.910156 M 39.398438 320.972656 L 0.0390625 320.972656 L 0.0390625 447.550781 L 27.117188 447.550781 L 27.117188 399.324219 L 39.398438 399.324219 C 61.433594 399.324219 76.738281 381.554688 76.738281 359.726562 C 76.738281 337.726562 61.433594 320.972656 39.398438 320.972656 " fill-opacity="1" fill-rule="evenodd"/></g><g clip-path="url(#ef2ff9594e)"><path fill="#206a38" d="M 758.222656 371.679688 L 762.097656 369.894531 L 762.097656 373.460938 L 758.222656 371.699219 Z M 751.320312 372.195312 L 767.121094 379.539062 C 767.425781 379.683594 767.734375 379.492188 767.734375 379.140625 L 767.734375 376.5625 C 767.734375 376.09375 767.449219 375.832031 767.167969 375.714844 L 765.289062 374.871094 L 765.289062 368.488281 L 767.144531 367.644531 C 767.589844 367.433594 767.734375 367.246094 767.734375 366.824219 L 767.734375 364.21875 C 767.734375 363.867188 767.425781 363.675781 767.121094 363.820312 L 751.320312 371.164062 C 751.179688 371.234375 751.0625 371.398438 751.0625 371.5625 L 751.0625 371.796875 C 751.0625 371.960938 751.179688 372.128906 751.320312 372.195312 M 751.300781 397.597656 L 751.300781 400.652344 C 751.300781 401.023438 751.671875 401.210938 751.980469 401.023438 L 759.820312 395.839844 L 767.285156 395.839844 C 767.519531 395.839844 767.734375 395.652344 767.734375 395.394531 L 767.734375 392.601562 C 767.734375 392.367188 767.519531 392.15625 767.285156 392.15625 L 759.792969 392.15625 L 751.980469 386.898438 C 751.671875 386.710938 751.300781 386.898438 751.300781 387.273438 L 751.300781 390.324219 C 751.300781 390.535156 751.417969 390.628906 751.507812 390.699219 L 756.320312 393.960938 L 751.507812 397.222656 C 751.417969 397.292969 751.300781 397.410156 751.300781 397.597656 M 759.539062 413.015625 C 762.097656 413.015625 764.207031 415.128906 764.207031 417.710938 C 764.207031 420.265625 762.097656 422.382812 759.539062 422.382812 C 756.957031 422.382812 754.816406 420.265625 754.816406 417.710938 C 754.816406 415.128906 756.957031 413.015625 759.539062 413.015625 M 759.539062 426.136719 C 764.230469 426.136719 767.96875 422.402344 767.96875 417.710938 C 767.96875 413.015625 764.230469 409.261719 759.539062 409.261719 C 754.84375 409.261719 751.0625 413.015625 751.0625 417.710938 C 751.0625 422.402344 754.84375 426.136719 759.539062 426.136719 M 764.375 443.878906 L 761.015625 443.878906 L 761.015625 441.835938 C 761.015625 440.6875 761.746094 440.054688 762.683594 440.054688 C 763.789062 440.054688 764.375 440.707031 764.375 441.882812 Z M 757.964844 443.878906 L 754.679688 443.878906 L 754.679688 441.929688 C 754.679688 441.039062 755.335938 440.40625 756.273438 440.40625 C 757.214844 440.40625 757.964844 441.039062 757.964844 441.929688 Z M 763.199219 436.15625 C 760.921875 436.15625 759.84375 437.824219 759.375 439.257812 L 759.347656 439.257812 C 758.8125 437.917969 757.542969 436.582031 755.667969 436.582031 C 753.199219 436.582031 751.300781 438.855469 751.300781 441.625 L 751.300781 447.09375 C 751.300781 447.351562 751.507812 447.539062 751.746094 447.539062 L 767.285156 447.539062 C 767.519531 447.539062 767.734375 447.351562 767.734375 447.09375 L 767.734375 441.273438 C 767.734375 438.480469 765.96875 436.15625 763.199219 436.15625 " fill-opacity="1" fill-rule="evenodd"/></g></svg>