<svg xmlns="http://www.w3.org/2000/svg" xmlns:xlink="http://www.w3.org/1999/xlink" width="1024" zoomAndPan="magnify" viewBox="0 0 768 775.92" height="1024" preserveAspectRatio="xMidYMid meet" version="1.0"><defs><clipPath id="4c76b5f333"><path d="M 0.0390625 0 L 767.960938 0 L 767.960938 767.921875 L 0.0390625 767.921875 Z M 0.0390625 0 " clip-rule="nonzero"/></clipPath><clipPath id="179421a8f2"><path d="M 674 323.230469 L 766 323.230469 L 766 444.71875 L 674 444.71875 Z M 674 323.230469 " clip-rule="nonzero"/></clipPath><clipPath id="7398f74eb6"><path d="M 2 323.230469 L 94 323.230469 L 94 444.71875 L 2 444.71875 Z M 2 323.230469 " clip-rule="nonzero"/></clipPath></defs><g clip-path="url(#4c76b5f333)"><path fill="#ffffff" d="M 0.0390625 0 L 767.960938 0 L 767.960938 767.921875 L 0.0390625 767.921875 Z M 0.0390625 0 " fill-opacity="1" fill-rule="nonzero"/><path fill="#ffffff" d="M 0.0390625 0 L 767.960938 0 L 767.960938 767.921875 L 0.0390625 767.921875 Z M 0.0390625 0 " fill-opacity="1" fill-rule="nonzero"/></g><g clip-path="url(#179421a8f2)"><path fill="#399692" d="M 756.753906 327.496094 L 756.753906 350.234375 C 744.972656 345.789062 734.492188 343.539062 725.3125 343.539062 C 719.875 343.539062 715.546875 344.546875 712.292969 346.492188 C 709.039062 348.457031 707.378906 350.871094 707.378906 353.726562 C 707.378906 357.519531 711.054688 360.894531 718.453125 363.914062 L 739.820312 374.320312 C 757.105469 382.558594 765.679688 393.5 765.679688 407.246094 C 765.679688 418.675781 761.132812 427.789062 751.953125 434.535156 C 742.839844 441.347656 730.578125 444.722656 715.3125 444.722656 C 708.265625 444.722656 701.941406 444.417969 696.320312 443.78125 C 690.703125 443.179688 684.242188 441.9375 677.074219 440.15625 L 677.074219 416.359375 C 690.210938 420.804688 702.175781 423.054688 712.945312 423.054688 C 725.796875 423.054688 732.1875 419.328125 732.1875 411.8125 C 732.1875 408.070312 729.574219 405.050781 724.253906 402.683594 L 700.515625 392.5625 C 691.753906 388.601562 685.246094 383.800781 680.980469 378.109375 C 676.789062 372.371094 674.65625 365.792969 674.65625 358.277344 C 674.65625 347.753906 679.085938 339.277344 687.847656 332.832031 C 696.675781 326.4375 708.386719 323.234375 722.945312 323.234375 C 727.675781 323.234375 733.132812 323.652344 739.171875 324.425781 C 745.257812 325.246094 751.117188 326.253906 756.753906 327.496094 Z M 756.753906 327.496094 " fill-opacity="1" fill-rule="evenodd"/></g><g clip-path="url(#7398f74eb6)"><path fill="#399692" d="M 84.367188 327.496094 L 84.367188 350.234375 C 72.589844 345.789062 62.121094 343.539062 52.941406 343.539062 C 47.488281 343.539062 43.175781 344.546875 39.921875 346.492188 C 36.667969 348.457031 35.003906 350.871094 35.003906 353.726562 C 35.003906 357.519531 38.730469 360.894531 46.128906 363.914062 L 67.503906 374.320312 C 84.71875 382.558594 93.308594 393.5 93.308594 407.246094 C 93.308594 418.675781 88.746094 427.789062 79.632812 434.535156 C 70.457031 441.347656 58.261719 444.722656 42.941406 444.722656 C 35.894531 444.722656 29.554688 444.417969 23.933594 443.78125 C 18.3125 443.179688 11.917969 441.9375 4.703125 440.15625 L 4.703125 416.359375 C 17.894531 420.804688 29.855469 423.054688 40.558594 423.054688 C 53.410156 423.054688 59.804688 419.328125 59.804688 411.8125 C 59.804688 408.070312 57.203125 405.050781 51.933594 402.683594 L 28.191406 392.5625 C 19.367188 388.601562 12.859375 383.800781 8.664062 378.109375 C 4.402344 372.371094 2.324219 365.792969 2.324219 358.277344 C 2.324219 347.753906 6.71875 339.277344 15.527344 332.832031 C 24.285156 326.4375 36.011719 323.234375 50.574219 323.234375 C 55.355469 323.234375 60.742188 323.652344 66.851562 324.425781 C 72.890625 325.246094 78.746094 326.253906 84.367188 327.496094 Z M 84.367188 327.496094 " fill-opacity="1" fill-rule="evenodd"/></g><path fill="#399692" d="M 108.863281 325.363281 L 143.675781 325.363281 L 143.675781 442.589844 L 108.863281 442.589844 Z M 108.863281 325.363281 " fill-opacity="1" fill-rule="evenodd"/><path fill="#399692" d="M 255.835938 325.363281 L 255.835938 347.03125 L 204.109375 347.03125 L 204.109375 373.027344 L 248.972656 373.027344 L 248.972656 392.558594 L 204.109375 392.558594 L 204.109375 419.847656 L 256.894531 419.847656 L 256.894531 442.589844 L 170.605469 442.589844 L 170.605469 325.363281 Z M 255.835938 325.363281 " fill-opacity="1" fill-rule="evenodd"/><path fill="#399692" d="M 418.359375 325.363281 L 418.359375 442.589844 L 385.859375 442.589844 L 385.859375 365.273438 L 352.140625 443.664062 L 332.074219 443.664062 L 299.640625 365.273438 L 299.640625 442.589844 L 276.136719 442.589844 L 276.136719 325.363281 L 318.632812 325.363281 L 347.644531 397.125 L 377.996094 325.363281 Z M 418.359375 325.363281 " fill-opacity="1" fill-rule="evenodd"/><path fill="#399692" d="M 530.472656 325.363281 L 530.472656 347.03125 L 479.027344 347.03125 L 479.027344 373.027344 L 523.894531 373.027344 L 523.894531 392.558594 L 479.027344 392.558594 L 479.027344 419.847656 L 531.53125 419.847656 L 531.53125 442.589844 L 445.242188 442.589844 L 445.242188 325.363281 Z M 530.472656 325.363281 " fill-opacity="1" fill-rule="evenodd"/><path fill="#399692" d="M 652.628906 325.363281 L 652.628906 442.589844 L 615.703125 442.589844 L 574.261719 367.402344 L 574.261719 442.589844 L 550.773438 442.589844 L 550.773438 325.363281 L 588.777344 325.363281 L 629.144531 399.257812 L 629.144531 325.363281 Z M 652.628906 325.363281 " fill-opacity="1" fill-rule="evenodd"/></svg>