<svg xmlns="http://www.w3.org/2000/svg" xmlns:xlink="http://www.w3.org/1999/xlink" width="1024" zoomAndPan="magnify" viewBox="0 0 768 775.92" height="1024" preserveAspectRatio="xMidYMid meet" version="1.0"><defs><clipPath id="db846da235"><path d="M 0.0390625 0 L 767.960938 0 L 767.960938 767.921875 L 0.0390625 767.921875 Z M 0.0390625 0 " clip-rule="nonzero"/></clipPath><clipPath id="835a2e6427"><path d="M 1 389 L 767 389 L 767 764.171875 L 1 764.171875 Z M 1 389 " clip-rule="nonzero"/></clipPath></defs><g clip-path="url(#db846da235)"><path fill="#ffffff" d="M 0.0390625 0 L 767.960938 0 L 767.960938 767.921875 L 0.0390625 767.921875 Z M 0.0390625 0 " fill-opacity="1" fill-rule="nonzero"/><path fill="#ffffff" d="M 0.0390625 0 L 767.960938 0 L 767.960938 767.921875 L 0.0390625 767.921875 Z M 0.0390625 0 " fill-opacity="1" fill-rule="nonzero"/></g><path fill="#ee2630" d="M 384.21875 0 L 766.574219 662.621094 L 1.839844 662.621094 Z M 384.21875 0 " fill-opacity="1" fill-rule="nonzero"/><path fill="#f9a612" d="M 327.238281 460.0625 L 301.261719 460.0625 C 297.636719 460.0625 294.148438 463.003906 293.507812 466.625 L 271.664062 586.113281 C 271.011719 589.75 273.425781 592.691406 277.066406 592.691406 L 303.066406 592.691406 C 306.6875 592.691406 310.179688 589.75 310.835938 586.113281 L 332.660156 466.625 C 333.3125 463.003906 330.894531 460.074219 327.238281 460.0625 M 342.828125 410.75 L 346.921875 388.109375 C 347.570312 384.488281 345.15625 381.566406 341.535156 381.554688 L 315.515625 381.566406 C 311.910156 381.566406 308.4375 384.488281 307.773438 388.109375 L 303.660156 410.75 C 303.039062 414.359375 305.429688 417.3125 309.078125 417.3125 L 335.074219 417.3125 C 338.695312 417.3125 342.175781 414.359375 342.828125 410.75 M 623.75 586.433594 C 625.53125 581.96875 626.832031 569.890625 626.832031 569.890625 C 627.128906 568.078125 627.527344 563.34375 623.160156 562.027344 C 618.777344 560.71875 608.390625 562.300781 608.390625 555.5 C 608.390625 553.148438 616.539062 513.117188 617.386719 500.296875 C 618.238281 487.46875 617.460938 470.578125 596.445312 462.300781 C 588.804688 459.289062 520.496094 460.074219 520.496094 460.074219 C 516.457031 460.035156 512.792969 462.613281 512.304688 465.859375 L 509.199219 480.253906 C 508.710938 483.503906 511.597656 486.160156 515.636719 486.21875 L 562.789062 486.21875 C 579.574219 486.21875 585.679688 489.453125 586.027344 492.332031 C 586.332031 495.226562 586.777344 511.625 579.691406 511.347656 C 573.449219 511.09375 488.527344 494.363281 488.527344 550.324219 C 488.527344 560.0625 472.070312 563.691406 467.761719 557.113281 C 463.433594 550.515625 441.351562 528.433594 441.164062 524.527344 C 440.941406 520.621094 477.710938 501.617188 485.539062 470.445312 C 486.273438 467.558594 486.78125 460.0625 481.039062 460.0625 C 476.90625 460.0625 461.730469 460.074219 458.585938 460.050781 C 455.585938 460.015625 451.652344 460.75 448.191406 467.917969 C 433.019531 502.960938 393.421875 510.984375 396.242188 497.957031 C 397.164062 493.707031 442.320312 244.09375 442.320312 244.09375 C 442.972656 240.488281 440.554688 237.523438 436.914062 237.523438 L 410.917969 237.523438 C 407.289062 237.523438 403.824219 240.488281 403.164062 244.09375 L 340.832031 586.113281 C 340.160156 589.746094 342.578125 592.691406 346.21875 592.691406 L 372.214844 592.691406 C 375.855469 592.691406 379.308594 589.746094 379.972656 586.113281 L 387.277344 547.472656 L 387.292969 547.503906 C 389.457031 541.945312 392.660156 539.511719 399.761719 539.511719 C 425.433594 539.511719 438.539062 594.5625 464.75 595.015625 C 480.542969 595.289062 499.339844 583.339844 502.953125 583.234375 C 510.496094 583.015625 514.742188 595.015625 540.023438 595.015625 C 562.453125 595.015625 578.757812 586.839844 584.023438 586.839844 C 588.644531 586.839844 598.417969 591.832031 603.292969 593.105469 C 615.269531 596.292969 622.011719 590.902344 623.753906 586.429688 Z M 548.71875 567.847656 C 529.355469 568.789062 518.765625 559.46875 518.765625 550.382812 C 518.765625 537.929688 537.933594 533.941406 553.4375 534.488281 C 568.9375 535.023438 579.679688 538.410156 579.28125 550.578125 C 578.96875 559.675781 565.089844 567.058594 548.71875 567.847656 " fill-opacity="1" fill-rule="nonzero"/><path fill="#f9a612" d="M 140.898438 595.417969 C 142.8125 594.507812 144.03125 593.335938 145.0625 592.960938 C 145.898438 592.660156 147.511719 592.769531 149.644531 593.179688 L 149.921875 593.253906 C 167.925781 598.332031 233.167969 615.777344 249.21875 539.859375 C 249.21875 539.859375 293.53125 297.113281 293.605469 296.554688 C 293.96875 293.699219 299.050781 262.847656 341.933594 277.316406 C 356.371094 282.175781 357.660156 274.960938 358.046875 273.691406 L 364.621094 245.316406 C 364.859375 237.246094 358.386719 239.082031 346.003906 236.722656 C 336.507812 234.933594 333.71875 239.992188 331.554688 241.054688 C 329.371094 242.0625 321.804688 240.234375 310.554688 239.691406 C 304.035156 239.378906 264.789062 244.328125 256.867188 282.667969 L 213.714844 515.863281 C 211.78125 522.859375 212.441406 588.75 136.738281 551.59375 C 123.878906 545.25 118.976562 548.578125 117.816406 555.257812 C 117.007812 559.976562 113.425781 583.894531 112.816406 588.785156 C 112.5625 590.796875 114.054688 593.929688 117.800781 594.507812 C 121.78125 595.152344 128.121094 596.070312 131.253906 596.558594 C 135.722656 597.21875 138.488281 596.6875 140.53125 595.660156 Z M 140.898438 595.417969 " fill-opacity="1" fill-rule="nonzero"/><g clip-path="url(#835a2e6427)"><path fill="#ee2630" d="M 708.75 424.042969 L 716.523438 424.042969 C 720.21875 424.042969 722.757812 423.496094 724.113281 422.386719 C 724.777344 421.855469 725.285156 421.199219 725.640625 420.425781 C 725.996094 419.65625 726.160156 418.84375 726.132812 417.992188 C 726.148438 416.839844 725.824219 415.792969 725.15625 414.851562 C 724.46875 413.878906 723.5625 413.1875 722.445312 412.773438 C 721.292969 412.3125 719.152344 412.082031 716.023438 412.082031 L 708.75 412.082031 Z M 702.347656 446.363281 L 702.347656 406.710938 L 715.972656 406.710938 C 720.636719 406.710938 724.003906 407.082031 726.082031 407.8125 C 728.171875 408.527344 729.835938 409.800781 731.066406 411.636719 C 732.292969 413.464844 732.929688 415.410156 732.929688 417.460938 C 732.929688 420.347656 731.890625 422.871094 729.820312 425.019531 C 727.757812 427.179688 725.011719 428.371094 721.585938 428.640625 C 722.996094 429.21875 724.113281 429.925781 724.957031 430.738281 C 726.566406 432.308594 728.519531 434.914062 730.816406 438.601562 L 735.664062 446.363281 L 727.839844 446.363281 L 724.328125 440.105469 C 721.550781 435.191406 719.320312 432.113281 717.636719 430.882812 C 716.476562 429.96875 714.757812 429.515625 712.5 429.515625 L 708.75 429.515625 L 708.75 446.359375 Z M 718.515625 395.234375 C 713.34375 395.234375 708.292969 396.5625 703.390625 399.214844 C 700.964844 400.519531 698.773438 402.136719 696.816406 404.074219 C 694.859375 406.011719 693.214844 408.1875 691.886719 410.597656 C 690.535156 412.941406 689.507812 415.417969 688.808594 418.027344 C 688.105469 420.636719 687.75 423.296875 687.746094 426 C 687.746094 431.304688 689.105469 436.390625 691.820312 441.265625 C 694.542969 446.132812 698.335938 449.917969 703.230469 452.640625 C 708.105469 455.363281 713.203125 456.710938 718.515625 456.710938 C 723.820312 456.710938 728.917969 455.363281 733.804688 452.640625 C 736.203125 451.320312 738.371094 449.695312 740.304688 447.761719 C 742.242188 445.828125 743.867188 443.664062 745.1875 441.265625 C 746.507812 438.9375 747.511719 436.480469 748.195312 433.894531 C 748.882812 431.304688 749.226562 428.675781 749.230469 426 C 749.230469 420.65625 747.859375 415.53125 745.113281 410.597656 C 743.789062 408.183594 742.148438 406.007812 740.1875 404.074219 C 738.230469 402.136719 736.039062 400.519531 733.609375 399.21875 C 728.6875 396.566406 723.664062 395.238281 718.515625 395.238281 Z M 718.515625 389.136719 C 724.695312 389.136719 730.746094 390.71875 736.644531 393.902344 C 739.554688 395.449219 742.179688 397.382812 744.519531 399.699219 C 746.863281 402.015625 748.824219 404.621094 750.402344 407.511719 C 753.691406 413.417969 755.339844 419.589844 755.339844 426 C 755.339844 432.355469 753.71875 438.449219 750.476562 444.316406 C 748.90625 447.195312 746.964844 449.792969 744.648438 452.113281 C 742.332031 454.433594 739.738281 456.382812 736.863281 457.957031 C 734.066406 459.542969 731.113281 460.75 728.003906 461.574219 C 724.894531 462.394531 721.734375 462.808594 718.515625 462.8125 C 715.300781 462.808594 712.140625 462.394531 709.03125 461.574219 C 705.921875 460.75 702.96875 459.542969 700.171875 457.957031 C 697.292969 456.382812 694.691406 454.4375 692.367188 452.117188 C 690.046875 449.796875 688.097656 447.195312 686.523438 444.316406 C 683.273438 438.449219 681.640625 432.355469 681.640625 426 C 681.640625 419.589844 683.296875 413.425781 686.59375 407.519531 C 688.183594 404.628906 690.15625 402.023438 692.503906 399.707031 C 694.855469 397.390625 697.484375 395.453125 700.398438 393.902344 C 706.28125 390.71875 712.328125 389.136719 718.519531 389.136719 M 31.875 876.335938 L 1.425781 876.335938 L 1.425781 804.96875 L 29.613281 804.96875 C 44.515625 804.96875 49.996094 810.964844 49.996094 820.609375 L 49.996094 827.898438 C 49.996094 833.0625 47.730469 836.691406 42.050781 839.148438 C 47.949219 840.542969 52.550781 845.6875 52.550781 852.347656 L 52.550781 859.292969 C 52.550781 869.371094 46.113281 876.335938 31.875 876.335938 M 33.917969 822.984375 C 33.917969 819.867188 31.972656 817.945312 27.480469 817.945312 L 17.511719 817.945312 L 17.511719 834.222656 L 27.480469 834.222656 C 31.75 834.222656 33.917969 832.085938 33.917969 829.203125 Z M 36.472656 852.765625 C 36.472656 848.796875 34.023438 846.765625 29.699219 846.765625 L 17.511719 846.765625 L 17.511719 863.378906 L 27.480469 863.378906 C 32.511719 863.378906 36.472656 862.308594 36.472656 857.171875 Z M 116.003906 804.96875 L 116.003906 855.539062 C 116.003906 866.382812 109.273438 877.410156 89.117188 877.410156 C 68.941406 877.410156 62.199219 866.375 62.199219 855.539062 L 62.199219 804.96875 L 78.292969 804.96875 L 78.292969 854.0625 C 78.292969 859.839844 81.0625 863.140625 89.117188 863.140625 C 97.144531 863.140625 99.925781 859.839844 99.925781 854.0625 L 99.925781 804.96875 Z M 129.949219 804.96875 L 146.015625 804.96875 L 146.015625 876.335938 L 129.949219 876.335938 Z M 160.511719 876.335938 L 160.511719 804.96875 L 176.582031 804.96875 L 176.582031 862.109375 L 204.878906 862.109375 L 204.878906 876.335938 Z M 241.648438 876.335938 L 213.992188 876.335938 L 213.992188 804.96875 L 241.648438 804.96875 C 259.238281 804.96875 265.765625 813.867188 265.765625 823.503906 L 265.765625 857.8125 C 265.765625 867.34375 259.238281 876.335938 241.648438 876.335938 M 249.683594 827.898438 C 249.683594 822.328125 247.753906 819.226562 239.738281 819.226562 L 230.082031 819.226562 L 230.082031 862.109375 L 239.738281 862.109375 C 247.757812 862.109375 249.683594 858.992188 249.683594 853.410156 Z M 278.632812 804.96875 L 294.695312 804.96875 L 294.695312 876.335938 L 278.632812 876.335938 Z M 324.5 829.398438 L 324.5 876.335938 L 309.179688 876.335938 L 309.179688 804.96875 L 328.886719 804.96875 L 352.378906 854.15625 L 352.378906 804.96875 L 367.726562 804.96875 L 367.726562 876.335938 L 347.878906 876.335938 Z M 406.1875 877.410156 C 388.824219 877.410156 380.03125 868.515625 380.03125 855.539062 L 380.03125 825.761719 C 380.03125 812.570312 388.824219 803.894531 406.1875 803.894531 C 414.464844 803.894531 422.90625 804.96875 429.035156 806.144531 L 427.089844 820.183594 C 420.894531 819.226562 411.339844 818.476562 406.1875 818.476562 C 398.167969 818.476562 396.125 822.640625 396.125 828.222656 L 396.125 852.765625 C 396.125 858.347656 398.167969 862.945312 406.1875 862.945312 C 409.402344 862.945312 411.566406 862.847656 415.730469 862.308594 L 415.730469 840.4375 L 430.84375 840.4375 L 430.84375 873.988281 C 423.027344 876.238281 414.460938 877.410156 406.1875 877.410156 M 496.167969 819.226562 L 496.167969 876.335938 L 480.066406 876.335938 L 480.066406 819.226562 L 460.902344 819.226562 L 460.902344 804.96875 L 515.339844 804.96875 L 515.339844 819.226562 Z M 549.121094 854.15625 L 539.695312 854.15625 L 539.695312 876.335938 L 523.609375 876.335938 L 523.609375 804.96875 L 553.28125 804.96875 C 570.65625 804.96875 577.078125 811.820312 577.078125 825.210938 L 577.078125 834.015625 C 577.078125 842.914062 573.886719 848.910156 566.707031 851.933594 L 583.949219 876.332031 L 564.863281 876.332031 Z M 561.023438 826.734375 C 561.023438 821.371094 558.988281 819.214844 552.433594 819.214844 L 539.699219 819.214844 L 539.699219 840.230469 L 552.433594 840.230469 C 559.296875 840.230469 561.027344 837.746094 561.027344 832.410156 Z M 645.816406 804.96875 L 645.816406 855.539062 C 645.816406 866.382812 639.082031 877.410156 618.921875 877.410156 C 598.746094 877.410156 591.984375 866.375 591.984375 855.539062 L 591.984375 804.96875 L 608.082031 804.96875 L 608.082031 854.0625 C 608.082031 859.839844 610.851562 863.140625 618.925781 863.140625 C 626.953125 863.140625 629.730469 859.839844 629.730469 854.0625 L 629.730469 804.96875 Z M 680.128906 877.410156 C 671.871094 877.410156 663.175781 875.585938 657.082031 872.8125 L 659.761719 860.359375 C 666.296875 862.410156 672.9375 863.796875 680.328125 863.796875 C 688.578125 863.796875 690.191406 862.183594 690.191406 856.203125 C 690.191406 849.765625 689.890625 849.003906 678.199219 846.4375 C 660.9375 842.6875 658.351562 839.261719 658.351562 823.816406 C 658.351562 809.570312 663.40625 803.894531 683.019531 803.894531 C 689.222656 803.894531 696.746094 804.542969 704.65625 806.238281 L 703.058594 819.75 C 694.886719 818.359375 689.648438 817.730469 683.230469 817.730469 C 676.035156 817.730469 674.429688 819 674.429688 824.253906 C 674.429688 831.125 674.742188 831.222656 686.003906 833.898438 C 705.3125 838.511719 706.28125 842.273438 706.28125 856.300781 C 706.28125 870.429688 701.667969 877.410156 680.128906 877.410156 M 747.121094 819.226562 L 747.121094 876.335938 L 731.019531 876.335938 L 731.019531 819.226562 L 711.835938 819.226562 L 711.835938 804.96875 L 766.304688 804.96875 L 766.304688 819.226562 Z M 747.121094 819.226562 " fill-opacity="1" fill-rule="nonzero"/></g></svg>