<svg xmlns="http://www.w3.org/2000/svg" xmlns:xlink="http://www.w3.org/1999/xlink" width="1024" zoomAndPan="magnify" viewBox="0 0 768 775.92" height="1024" preserveAspectRatio="xMidYMid meet" version="1.0"><defs><clipPath id="9c644ed1e1"><path d="M 0.0390625 0 L 767.960938 0 L 767.960938 767.921875 L 0.0390625 767.921875 Z M 0.0390625 0 " clip-rule="nonzero"/></clipPath><clipPath id="b6608f189b"><path d="M 0.0390625 48 L 767.960938 48 L 767.960938 719.925781 L 0.0390625 719.925781 Z M 0.0390625 48 " clip-rule="nonzero"/></clipPath></defs><g clip-path="url(#9c644ed1e1)"><path fill="#ffffff" d="M 0.0390625 0 L 767.960938 0 L 767.960938 767.921875 L 0.0390625 767.921875 Z M 0.0390625 0 " fill-opacity="1" fill-rule="nonzero"/><path fill="#ffffff" d="M 0.0390625 0 L 767.960938 0 L 767.960938 767.921875 L 0.0390625 767.921875 Z M 0.0390625 0 " fill-opacity="1" fill-rule="nonzero"/></g><g clip-path="url(#b6608f189b)"><path fill="#01a89e" d="M 431.136719 720.902344 C 287.46875 720.902344 144.125 720.902344 0.761719 720.902344 C 0.761719 496.855469 0.761719 272.8125 0.761719 48.707031 C 256.609375 48.707031 512.480469 48.707031 768.457031 48.707031 C 768.457031 272.730469 768.457031 496.816406 768.457031 720.902344 C 656.171875 720.902344 543.816406 720.902344 431.136719 720.902344 M 731.335938 631.328125 C 731.34375 625.582031 731.351562 619.839844 731.320312 613.425781 C 731.328125 613.101562 731.339844 612.777344 731.339844 612.453125 C 731.339844 472.140625 731.34375 331.828125 731.34375 191.511719 C 731.34375 190.554688 731.34375 189.597656 731.34375 188.527344 C 729.949219 188.042969 728.746094 187.585938 727.515625 187.207031 C 699.179688 178.496094 670.839844 169.796875 642.503906 161.085938 C 558.324219 135.207031 474.144531 109.335938 389.988281 83.390625 C 387.148438 82.515625 384.648438 82.523438 381.820312 83.394531 C 322.378906 101.746094 262.914062 120.019531 203.457031 138.308594 C 149.992188 154.75 96.53125 171.195312 43.070312 187.644531 C 42.257812 187.894531 41.457031 188.1875 40.503906 188.511719 C 40.503906 330.449219 40.503906 472.265625 40.488281 614.628906 C 40.566406 620.390625 40.648438 626.152344 40.585938 632.503906 C 40.554688 636.65625 40.527344 640.8125 40.519531 645.558594 C 40.519531 659.28125 40.519531 673 40.519531 686.972656 C 41.871094 686.59375 42.902344 686.328125 43.921875 686.015625 C 51.46875 683.699219 59.015625 681.390625 66.550781 679.046875 C 130.261719 659.25 193.964844 639.445312 257.671875 619.648438 C 298.046875 607.101562 338.425781 594.570312 378.789062 582.003906 C 381.117188 581.277344 383.265625 581.089844 385.710938 581.839844 C 448.675781 601.109375 511.664062 620.3125 574.648438 639.511719 C 625.84375 655.117188 677.046875 670.707031 728.246094 686.300781 C 729.15625 686.574219 730.09375 686.753906 731.378906 687.066406 C 731.378906 672.867188 731.378906 658.925781 731.359375 644.355469 C 731.292969 640.210938 731.230469 636.070312 731.335938 631.328125 Z M 731.335938 631.328125 " fill-opacity="1" fill-rule="nonzero"/></g><path fill="#feffff" d="M 40.503906 614.082031 C 40.503906 472.265625 40.503906 330.449219 40.503906 188.511719 C 41.457031 188.1875 42.257812 187.894531 43.070312 187.644531 C 96.53125 171.195312 149.992188 154.75 203.457031 138.308594 C 262.914062 120.019531 322.378906 101.746094 381.820312 83.394531 C 384.648438 82.523438 387.148438 82.515625 389.988281 83.390625 C 474.144531 109.335938 558.324219 135.207031 642.503906 161.085938 C 670.839844 169.796875 699.179688 178.496094 727.515625 187.207031 C 728.746094 187.585938 729.949219 188.042969 731.34375 188.527344 C 731.34375 189.597656 731.34375 190.554688 731.34375 191.511719 C 731.34375 331.828125 731.339844 472.140625 731.339844 612.453125 C 731.339844 612.777344 731.328125 613.101562 731.085938 613.714844 C 730.222656 613.832031 729.589844 613.679688 728.96875 613.492188 C 688.144531 601.050781 647.328125 588.589844 606.503906 576.164062 C 532.703125 553.703125 458.898438 531.265625 385.105469 508.777344 C 383.25 508.210938 381.621094 508.1875 379.769531 508.785156 C 372.679688 511.085938 365.539062 513.222656 358.417969 515.433594 C 266.691406 543.914062 174.96875 572.402344 83.238281 600.878906 C 69 605.296875 54.75 609.679688 40.503906 614.082031 M 136.636719 410.539062 C 135.121094 410.542969 133.585938 410.695312 132.09375 410.523438 C 116.011719 408.65625 102.332031 401.832031 90.886719 390.433594 C 90.40625 389.953125 89.894531 389.507812 89.050781 388.726562 C 89.050781 390.328125 89.050781 391.40625 89.050781 392.480469 C 89.050781 403.203125 89.050781 413.929688 89.050781 424.65625 C 89.050781 434.1875 89.125 443.722656 88.996094 453.253906 C 88.964844 455.382812 89.605469 456.65625 91.4375 457.664062 C 94.949219 459.589844 98.285156 461.835938 101.832031 463.679688 C 118.679688 472.441406 136.347656 477.34375 155.585938 475.285156 C 171.292969 473.605469 185.261719 467.851562 196.699219 457.050781 C 220.542969 434.539062 228.273438 406.582031 222.6875 374.757812 C 220.054688 359.765625 212.371094 347.09375 202.511719 335.683594 C 195.40625 327.460938 187.234375 320.347656 179.210938 313.074219 C 174.160156 308.496094 169.257812 303.742188 164.5 298.863281 C 161.773438 296.074219 159.671875 292.757812 158.46875 288.953125 C 155.949219 280.988281 159.75 273.167969 167.605469 270.355469 C 170.597656 269.28125 173.710938 268.882812 176.882812 269.253906 C 181.3125 269.769531 185.566406 270.941406 189.695312 272.65625 C 197.972656 276.097656 205.34375 280.988281 212.332031 286.519531 C 212.953125 287.011719 213.660156 287.390625 214.566406 287.980469 C 214.566406 266.121094 214.566406 244.691406 214.566406 223.109375 C 213.085938 222.242188 211.664062 221.234375 210.105469 220.53125 C 205.96875 218.664062 201.851562 216.691406 197.578125 215.183594 C 184.386719 210.53125 170.726562 208.589844 156.761719 208.453125 C 135.953125 208.25 119.136719 216.417969 106.246094 232.59375 C 96.625 244.671875 91.324219 258.601562 89.628906 273.914062 C 87.558594 292.582031 90.890625 310.117188 100.753906 326.257812 C 105.875 334.640625 112.28125 341.96875 119.390625 348.683594 C 125.457031 354.40625 131.707031 359.933594 137.8125 365.613281 C 142.183594 369.675781 146.308594 373.960938 149.433594 379.113281 C 153.675781 386.109375 154.035156 393.304688 151.035156 400.882812 C 148.898438 406.273438 144.9375 409.089844 139.449219 410.128906 C 138.703125 410.269531 137.949219 410.347656 136.636719 410.539062 M 625.222656 291.015625 C 623.199219 291.015625 621.175781 291.015625 618.792969 291.015625 C 618.792969 299.050781 618.792969 306.710938 618.792969 314.367188 C 617.839844 313.574219 617.425781 312.695312 616.890625 311.894531 C 613.714844 307.132812 610.8125 302.148438 607.261719 297.675781 C 594.652344 281.792969 567.921875 279.652344 552.570312 295.953125 C 547.15625 301.703125 542.945312 308.195312 539.6875 315.335938 C 531.714844 332.804688 528.09375 351.332031 526.816406 370.34375 C 525.964844 383 526.476562 395.667969 527.933594 408.289062 C 529.191406 419.171875 531.152344 429.90625 534.679688 440.296875 C 537.515625 448.652344 541.285156 456.515625 546.980469 463.375 C 558.761719 477.566406 577.664062 480.632812 593.097656 472.457031 C 603.128906 467.140625 610.632812 459.183594 616.722656 449.757812 C 617.28125 448.894531 617.859375 448.042969 618.429688 447.1875 C 618.609375 447.234375 618.792969 447.285156 618.972656 447.332031 C 618.972656 455.039062 618.972656 462.746094 618.972656 470.445312 C 637.554688 470.445312 655.789062 470.445312 674.066406 470.445312 C 674.066406 410.585938 674.066406 350.953125 674.066406 291.015625 C 657.875 291.015625 641.871094 291.015625 625.222656 291.015625 M 320.808594 382.296875 C 325.667969 386.875 331.273438 390.351562 337.25 393.21875 C 342.417969 395.695312 347.730469 397.875 352.910156 400.328125 C 356.226562 401.898438 359.582031 403.484375 362.640625 405.488281 C 368.539062 409.355469 369.746094 413.671875 367.46875 420.3125 C 366.195312 424.03125 363.632812 426.101562 359.859375 426.382812 C 357.195312 426.578125 354.40625 426.546875 351.816406 425.96875 C 341.976562 423.777344 333.542969 418.828125 326.097656 412.113281 C 325.15625 411.261719 324.234375 410.386719 323.050781 409.289062 C 315.179688 423.367188 307.449219 437.195312 299.601562 451.226562 C 300.613281 452.109375 301.4375 452.808594 302.238281 453.53125 C 309.550781 460.117188 317.828125 465.191406 326.832031 469.085938 C 337.363281 473.636719 348.402344 476.351562 359.828125 476.851562 C 368.859375 477.246094 377.75 475.648438 386.246094 472.449219 C 404.378906 465.617188 417.3125 453.484375 423.648438 434.917969 C 427.230469 424.429688 427.320312 413.679688 425.367188 402.847656 C 423.511719 392.566406 419.179688 383.527344 411.953125 375.933594 C 406.441406 370.140625 399.902344 365.726562 392.855469 362.054688 C 387.675781 359.351562 382.355469 356.914062 377.207031 354.15625 C 373.878906 352.375 370.648438 350.367188 367.558594 348.199219 C 365.238281 346.570312 363.308594 344.378906 362.621094 341.53125 C 360.898438 334.382812 362.894531 330.203125 370.476562 329.484375 C 373.328125 329.210938 376.316406 329.554688 379.152344 330.089844 C 385.539062 331.296875 391.089844 334.480469 396.445312 338.027344 C 397.417969 338.671875 398.394531 339.308594 399.558594 340.070312 C 406.578125 327.679688 413.484375 315.492188 420.421875 303.238281 C 419.152344 302.25 418.242188 301.496094 417.285156 300.804688 C 408.324219 294.328125 398.46875 289.675781 387.816406 286.835938 C 375.121094 283.453125 362.238281 281.976562 349.3125 285.371094 C 330.40625 290.335938 316.324219 301.261719 308.710938 319.628906 C 304.234375 330.429688 303.804688 341.710938 305.558594 353.144531 C 307.292969 364.429688 312.023438 374.171875 320.808594 382.296875 M 445.070312 270.671875 C 445.070312 277.347656 445.070312 284.023438 445.070312 291.027344 C 438.738281 291.027344 432.832031 291.027344 426.816406 291.027344 C 426.816406 310.023438 426.816406 328.683594 426.816406 347.664062 C 432.9375 347.664062 438.84375 347.664062 445.066406 347.664062 C 445.066406 388.765625 445.066406 429.546875 445.066406 470.269531 C 448.808594 470.925781 502.964844 470.796875 505.539062 470.101562 C 505.539062 429.398438 505.539062 388.613281 505.539062 347.617188 C 508.859375 347.617188 511.882812 347.648438 514.90625 347.609375 C 517.886719 347.566406 520.886719 347.792969 523.816406 347.457031 C 523.816406 328.492188 523.816406 309.90625 523.816406 290.925781 C 517.640625 290.925781 511.636719 290.925781 505.386719 290.925781 C 505.386719 287.519531 505.386719 284.507812 505.386719 281.492188 C 505.386719 278.570312 505.386719 275.644531 505.386719 272.71875 C 505.386719 269.6875 505.386719 266.65625 505.386719 263.621094 C 505.386719 260.589844 505.386719 257.558594 505.386719 254.523438 C 505.386719 251.601562 505.453125 248.671875 505.367188 245.75 C 505.277344 242.78125 505.757812 239.773438 505.035156 236.820312 C 485.042969 236.820312 465.265625 236.820312 445.070312 236.820312 C 445.070312 247.988281 445.070312 259.003906 445.070312 270.671875 M 263.070312 291.015625 C 253.246094 291.015625 243.421875 291.015625 233.472656 291.015625 C 233.472656 351.050781 233.472656 410.742188 233.472656 470.457031 C 253.140625 470.457031 272.574219 470.457031 292.058594 470.457031 C 292.058594 410.617188 292.058594 350.992188 292.058594 291.015625 C 282.503906 291.015625 273.113281 291.015625 263.070312 291.015625 M 265.867188 201.234375 C 251.308594 200.171875 240.457031 206.445312 232.980469 218.554688 C 223.558594 233.8125 225.339844 253.660156 236.929688 267.359375 C 250.289062 283.144531 272.242188 284.003906 286.75 269.300781 C 300.988281 254.878906 302.476562 230.792969 289.980469 214.816406 C 284.003906 207.167969 276.273438 202.335938 265.867188 201.234375 Z M 265.867188 201.234375 " fill-opacity="1" fill-rule="nonzero"/><path fill="#010101" d="M 731.378906 644.988281 C 731.378906 658.925781 731.378906 672.867188 731.378906 687.066406 C 730.09375 686.753906 729.15625 686.574219 728.246094 686.300781 C 677.046875 670.707031 625.84375 655.117188 574.648438 639.511719 C 511.664062 620.3125 448.675781 601.109375 385.710938 581.839844 C 383.265625 581.089844 381.117188 581.277344 378.789062 582.003906 C 338.425781 594.570312 298.046875 607.101562 257.671875 619.648438 C 193.964844 639.445312 130.261719 659.25 66.550781 679.046875 C 59.015625 681.390625 51.46875 683.699219 43.921875 686.015625 C 42.902344 686.328125 41.871094 686.59375 40.519531 686.972656 C 40.519531 673 40.519531 659.28125 40.757812 645.238281 C 52.246094 641.441406 63.503906 637.984375 74.75 634.488281 C 176.390625 602.925781 278.027344 571.359375 379.65625 539.753906 C 381.609375 539.144531 383.351562 539.199219 385.273438 539.789062 C 407.691406 546.65625 430.125 553.476562 452.554688 560.308594 C 539.171875 586.683594 625.792969 613.066406 712.414062 639.429688 C 718.71875 641.347656 725.058594 643.140625 731.378906 644.988281 Z M 731.378906 644.988281 " fill-opacity="1" fill-rule="nonzero"/><path fill="#030202" d="M 40.496094 614.355469 C 54.75 609.679688 69 605.296875 83.238281 600.878906 C 174.96875 572.402344 266.691406 543.914062 358.417969 515.433594 C 365.539062 513.222656 372.679688 511.085938 379.769531 508.785156 C 381.621094 508.1875 383.25 508.210938 385.105469 508.777344 C 458.898438 531.265625 532.703125 553.703125 606.503906 576.164062 C 647.328125 588.589844 688.144531 601.050781 728.96875 613.492188 C 729.589844 613.679688 730.222656 613.832031 731.105469 614.046875 C 731.351562 619.839844 731.34375 625.582031 731.03125 631.59375 C 722.550781 629.394531 714.375 626.945312 706.210938 624.457031 C 599.238281 591.875 492.265625 559.289062 385.300781 526.683594 C 383.382812 526.097656 381.632812 526.03125 379.667969 526.648438 C 357.609375 533.582031 335.527344 540.433594 313.449219 547.296875 C 237.617188 570.867188 161.785156 594.433594 85.949219 617.988281 C 70.886719 622.667969 55.800781 627.273438 40.726562 631.914062 C 40.648438 626.152344 40.566406 620.390625 40.496094 614.355469 Z M 40.496094 614.355469 " fill-opacity="1" fill-rule="nonzero"/><path fill="#fafbfb" d="M 40.65625 632.207031 C 55.800781 627.273438 70.886719 622.667969 85.949219 617.988281 C 161.785156 594.433594 237.617188 570.867188 313.449219 547.296875 C 335.527344 540.433594 357.609375 533.582031 379.667969 526.648438 C 381.632812 526.03125 383.382812 526.097656 385.300781 526.683594 C 492.265625 559.289062 599.238281 591.875 706.210938 624.457031 C 714.375 626.945312 722.550781 629.394531 730.945312 631.894531 C 731.230469 636.070312 731.292969 640.210938 731.367188 644.671875 C 725.058594 643.140625 718.71875 641.347656 712.414062 639.429688 C 625.792969 613.066406 539.171875 586.683594 452.554688 560.308594 C 430.125 553.476562 407.691406 546.65625 385.273438 539.789062 C 383.351562 539.199219 381.609375 539.144531 379.65625 539.753906 C 278.027344 571.359375 176.390625 602.925781 74.75 634.488281 C 63.503906 637.984375 52.246094 641.441406 40.746094 644.941406 C 40.527344 640.8125 40.554688 636.65625 40.65625 632.207031 Z M 40.65625 632.207031 " fill-opacity="1" fill-rule="nonzero"/><path fill="#02a89e" d="M 136.917969 410.5 C 137.949219 410.347656 138.703125 410.269531 139.449219 410.128906 C 144.9375 409.089844 148.898438 406.273438 151.035156 400.882812 C 154.035156 393.304688 153.675781 386.109375 149.433594 379.113281 C 146.308594 373.960938 142.183594 369.675781 137.8125 365.613281 C 131.707031 359.933594 125.457031 354.40625 119.390625 348.683594 C 112.28125 341.96875 105.875 334.640625 100.753906 326.257812 C 90.890625 310.117188 87.558594 292.582031 89.628906 273.914062 C 91.324219 258.601562 96.625 244.671875 106.246094 232.59375 C 119.136719 216.417969 135.953125 208.25 156.761719 208.453125 C 170.726562 208.589844 184.386719 210.53125 197.578125 215.183594 C 201.851562 216.691406 205.96875 218.664062 210.105469 220.53125 C 211.664062 221.234375 213.085938 222.242188 214.566406 223.109375 C 214.566406 244.691406 214.566406 266.121094 214.566406 287.980469 C 213.660156 287.390625 212.953125 287.011719 212.332031 286.519531 C 205.34375 280.988281 197.972656 276.097656 189.695312 272.65625 C 185.566406 270.941406 181.3125 269.769531 176.882812 269.253906 C 173.710938 268.882812 170.597656 269.28125 167.605469 270.355469 C 159.75 273.167969 155.949219 280.988281 158.46875 288.953125 C 159.671875 292.757812 161.773438 296.074219 164.5 298.863281 C 169.257812 303.742188 174.160156 308.496094 179.210938 313.074219 C 187.234375 320.347656 195.40625 327.460938 202.511719 335.683594 C 212.371094 347.09375 220.054688 359.765625 222.6875 374.757812 C 228.273438 406.582031 220.542969 434.539062 196.699219 457.050781 C 185.261719 467.851562 171.292969 473.605469 155.585938 475.285156 C 136.347656 477.34375 118.679688 472.441406 101.832031 463.679688 C 98.285156 461.835938 94.949219 459.589844 91.4375 457.664062 C 89.605469 456.65625 88.964844 455.382812 88.996094 453.253906 C 89.125 443.722656 89.050781 434.1875 89.050781 424.65625 C 89.050781 413.929688 89.050781 403.203125 89.050781 392.480469 C 89.050781 391.40625 89.050781 390.328125 89.050781 388.726562 C 89.894531 389.507812 90.40625 389.953125 90.886719 390.433594 C 102.332031 401.832031 116.011719 408.65625 132.09375 410.523438 C 133.585938 410.695312 135.121094 410.542969 136.917969 410.5 Z M 136.917969 410.5 " fill-opacity="1" fill-rule="nonzero"/><path fill="#02a89e" d="M 625.542969 291.015625 C 641.871094 291.015625 657.875 291.015625 674.066406 291.015625 C 674.066406 350.953125 674.066406 410.585938 674.066406 470.445312 C 655.789062 470.445312 637.554688 470.445312 618.972656 470.445312 C 618.972656 462.746094 618.972656 455.039062 618.972656 447.332031 C 618.792969 447.285156 618.609375 447.234375 618.429688 447.1875 C 617.859375 448.042969 617.28125 448.894531 616.722656 449.757812 C 610.632812 459.183594 603.128906 467.140625 593.097656 472.457031 C 577.664062 480.632812 558.761719 477.566406 546.980469 463.375 C 541.285156 456.515625 537.515625 448.652344 534.679688 440.296875 C 531.152344 429.90625 529.191406 419.171875 527.933594 408.289062 C 526.476562 395.667969 525.964844 383 526.816406 370.34375 C 528.09375 351.332031 531.714844 332.804688 539.6875 315.335938 C 542.945312 308.195312 547.15625 301.703125 552.570312 295.953125 C 567.921875 279.652344 594.652344 281.792969 607.261719 297.675781 C 610.8125 302.148438 613.714844 307.132812 616.890625 311.894531 C 617.425781 312.695312 617.839844 313.574219 618.792969 314.367188 C 618.792969 306.710938 618.792969 299.050781 618.792969 291.015625 C 621.175781 291.015625 623.199219 291.015625 625.542969 291.015625 M 588.515625 372.847656 C 587.464844 382.382812 587.816406 391.863281 589.800781 401.253906 C 590.96875 406.773438 592.488281 412.203125 595.992188 416.792969 C 599.414062 421.277344 603.488281 421.492188 607.03125 417.082031 C 608.964844 414.675781 610.503906 411.847656 611.730469 409 C 614.324219 403 615.496094 396.617188 616.042969 390.113281 C 617.027344 378.417969 615.898438 366.96875 611.519531 356.027344 C 610.339844 353.074219 608.539062 350.226562 606.464844 347.8125 C 603.15625 343.972656 599.429688 344.109375 596.410156 348.21875 C 594.460938 350.871094 592.8125 353.949219 591.875 357.089844 C 590.398438 362.035156 589.632812 367.191406 588.515625 372.847656 Z M 588.515625 372.847656 " fill-opacity="1" fill-rule="nonzero"/><path fill="#02a89e" d="M 320.636719 382.144531 C 312.023438 374.171875 307.292969 364.429688 305.558594 353.144531 C 303.804688 341.710938 304.234375 330.429688 308.710938 319.628906 C 316.324219 301.261719 330.40625 290.335938 349.3125 285.371094 C 362.238281 281.976562 375.121094 283.453125 387.816406 286.835938 C 398.46875 289.675781 408.324219 294.328125 417.285156 300.804688 C 418.242188 301.496094 419.152344 302.25 420.421875 303.238281 C 413.484375 315.492188 406.578125 327.679688 399.558594 340.070312 C 398.394531 339.308594 397.417969 338.671875 396.445312 338.027344 C 391.089844 334.480469 385.539062 331.296875 379.152344 330.089844 C 376.316406 329.554688 373.328125 329.210938 370.476562 329.484375 C 362.894531 330.203125 360.898438 334.382812 362.621094 341.53125 C 363.308594 344.378906 365.238281 346.570312 367.558594 348.199219 C 370.648438 350.367188 373.878906 352.375 377.207031 354.15625 C 382.355469 356.914062 387.675781 359.351562 392.855469 362.054688 C 399.902344 365.726562 406.441406 370.140625 411.953125 375.933594 C 419.179688 383.527344 423.511719 392.566406 425.367188 402.847656 C 427.320312 413.679688 427.230469 424.429688 423.648438 434.917969 C 417.3125 453.484375 404.378906 465.617188 386.246094 472.449219 C 377.75 475.648438 368.859375 477.246094 359.828125 476.851562 C 348.402344 476.351562 337.363281 473.636719 326.832031 469.085938 C 317.828125 465.191406 309.550781 460.117188 302.238281 453.53125 C 301.4375 452.808594 300.613281 452.109375 299.601562 451.226562 C 307.449219 437.195312 315.179688 423.367188 323.050781 409.289062 C 324.234375 410.386719 325.15625 411.261719 326.097656 412.113281 C 333.542969 418.828125 341.976562 423.777344 351.816406 425.96875 C 354.40625 426.546875 357.195312 426.578125 359.859375 426.382812 C 363.632812 426.101562 366.195312 424.03125 367.46875 420.3125 C 369.746094 413.671875 368.539062 409.355469 362.640625 405.488281 C 359.582031 403.484375 356.226562 401.898438 352.910156 400.328125 C 347.730469 397.875 342.417969 395.695312 337.25 393.21875 C 331.273438 390.351562 325.667969 386.875 320.636719 382.144531 Z M 320.636719 382.144531 " fill-opacity="1" fill-rule="nonzero"/><path fill="#02a89e" d="M 445.070312 270.347656 C 445.070312 259.003906 445.070312 247.988281 445.070312 236.820312 C 465.265625 236.820312 485.042969 236.820312 505.035156 236.820312 C 505.757812 239.773438 505.277344 242.78125 505.367188 245.75 C 505.453125 248.671875 505.386719 251.601562 505.386719 254.523438 C 505.386719 257.558594 505.386719 260.589844 505.386719 263.621094 C 505.386719 266.65625 505.386719 269.6875 505.386719 272.71875 C 505.386719 275.644531 505.386719 278.570312 505.386719 281.492188 C 505.386719 284.507812 505.386719 287.519531 505.386719 290.925781 C 511.636719 290.925781 517.640625 290.925781 523.816406 290.925781 C 523.816406 309.90625 523.816406 328.492188 523.816406 347.457031 C 520.886719 347.792969 517.886719 347.566406 514.90625 347.609375 C 511.882812 347.648438 508.859375 347.617188 505.539062 347.617188 C 505.539062 388.613281 505.539062 429.398438 505.539062 470.101562 C 502.964844 470.796875 448.808594 470.925781 445.066406 470.269531 C 445.066406 429.546875 445.066406 388.765625 445.066406 347.664062 C 438.84375 347.664062 432.9375 347.664062 426.816406 347.664062 C 426.816406 328.683594 426.816406 310.023438 426.816406 291.027344 C 432.832031 291.027344 438.738281 291.027344 445.070312 291.027344 C 445.070312 284.023438 445.070312 277.347656 445.070312 270.347656 Z M 445.070312 270.347656 " fill-opacity="1" fill-rule="nonzero"/><path fill="#01a89e" d="M 263.398438 291.015625 C 273.113281 291.015625 282.503906 291.015625 292.058594 291.015625 C 292.058594 350.992188 292.058594 410.617188 292.058594 470.457031 C 272.574219 470.457031 253.140625 470.457031 233.472656 470.457031 C 233.472656 410.742188 233.472656 351.050781 233.472656 291.015625 C 243.421875 291.015625 253.246094 291.015625 263.398438 291.015625 Z M 263.398438 291.015625 " fill-opacity="1" fill-rule="nonzero"/><path fill="#02a89e" d="M 266.152344 201.261719 C 276.273438 202.335938 284.003906 207.167969 289.980469 214.816406 C 302.476562 230.792969 300.988281 254.878906 286.75 269.300781 C 272.242188 284.003906 250.289062 283.144531 236.929688 267.359375 C 225.339844 253.660156 223.558594 233.8125 232.980469 218.554688 C 240.457031 206.445312 251.308594 200.171875 266.152344 201.261719 Z M 266.152344 201.261719 " fill-opacity="1" fill-rule="nonzero"/><path fill="#fcfefe" d="M 588.539062 372.554688 C 589.632812 367.191406 590.398438 362.035156 591.875 357.089844 C 592.8125 353.949219 594.460938 350.871094 596.410156 348.21875 C 599.429688 344.109375 603.15625 343.972656 606.464844 347.8125 C 608.539062 350.226562 610.339844 353.074219 611.519531 356.027344 C 615.898438 366.96875 617.027344 378.417969 616.042969 390.113281 C 615.496094 396.617188 614.324219 403 611.730469 409 C 610.503906 411.847656 608.964844 414.675781 607.03125 417.082031 C 603.488281 421.492188 599.414062 421.277344 595.992188 416.792969 C 592.488281 412.203125 590.96875 406.773438 589.800781 401.253906 C 587.816406 391.863281 587.464844 382.382812 588.539062 372.554688 Z M 588.539062 372.554688 " fill-opacity="1" fill-rule="nonzero"/></svg>