<svg xmlns="http://www.w3.org/2000/svg" xmlns:xlink="http://www.w3.org/1999/xlink" width="1024" zoomAndPan="magnify" viewBox="0 0 768 775.92" height="1024" preserveAspectRatio="xMidYMid meet" version="1.0"><defs><clipPath id="28e94336cb"><path d="M 0.0390625 0 L 767.960938 0 L 767.960938 767.921875 L 0.0390625 767.921875 Z M 0.0390625 0 " clip-rule="nonzero"/></clipPath></defs><g clip-path="url(#28e94336cb)"><path fill="#ffffff" d="M 0.0390625 0 L 767.960938 0 L 767.960938 767.921875 L 0.0390625 767.921875 Z M 0.0390625 0 " fill-opacity="1" fill-rule="nonzero"/><path fill="#ffffff" d="M 0.0390625 0 L 767.960938 0 L 767.960938 767.921875 L 0.0390625 767.921875 Z M 0.0390625 0 " fill-opacity="1" fill-rule="nonzero"/></g><path fill="#2c2119" d="M 403.082031 426.847656 L 435.027344 426.847656 L 495.054688 345.230469 L 463.355469 345.230469 Z M 403.082031 426.847656 " fill-opacity="1" fill-rule="evenodd"/><path fill="#e47a1e" d="M 89.34375 381.921875 C 92.089844 396.394531 104.570312 406.628906 118.546875 408.875 C 130.277344 410.625 141.386719 404.007812 142.507812 396.894531 C 144.003906 388.160156 144.003906 381.046875 142.507812 372.558594 C 141.507812 365.945312 135.144531 361.703125 126.785156 364.199219 C 120.917969 365.945312 119.296875 371.1875 119.296875 378.800781 L 119.296875 389.53125 C 119.296875 395.148438 121.792969 400.140625 128.78125 404.007812 C 121.792969 404.757812 114.054688 403.011719 107.566406 396.644531 C 99.453125 388.785156 96.457031 378.550781 97.707031 369.816406 C 99.703125 357.460938 106.191406 349.222656 116.550781 344.730469 C 128.03125 339.738281 140.386719 340.488281 150.746094 345.480469 C 161.976562 350.722656 169.839844 359.582031 172.085938 371.0625 C 174.332031 383.542969 174.207031 397.394531 167.21875 409 C 160.726562 419.984375 149.871094 425.597656 137.265625 426.722656 C 124.289062 427.96875 111.558594 425.722656 101.824219 416.613281 C 91.34375 406.878906 88.347656 394.898438 89.34375 381.921875 " fill-opacity="1" fill-rule="evenodd"/><path fill="#e47a1e" d="M 481.703125 426.722656 L 454.621094 426.722656 C 445.761719 360.207031 380.117188 284.453125 288.644531 276.34375 C 214.640625 269.730469 155.613281 293.9375 111.058594 340.613281 C 110.558594 341.363281 109.5625 340.613281 110.1875 339.863281 C 159.855469 285.703125 218.382812 263.988281 281.65625 264.988281 C 387.105469 266.734375 467.351562 339.117188 481.703125 426.722656 " fill-opacity="1" fill-rule="evenodd"/><path fill="#2c2119" d="M 367.515625 390.15625 L 367.515625 397.769531 C 367.015625 404.757812 363.394531 409.125 356.53125 410.125 C 349.792969 411.121094 345.425781 409.125 344.800781 405.382812 C 344.175781 401.140625 345.675781 397.894531 351.289062 396.148438 C 357.40625 394.273438 362.398438 392.902344 367.515625 390.15625 M 346.796875 371.1875 L 317.84375 371.1875 C 317.84375 361.453125 322.089844 354.089844 330.074219 349.472656 C 337.5625 344.980469 347.296875 343.734375 359.527344 344.105469 C 373.253906 344.480469 384.734375 346.726562 391.601562 355.089844 C 396.34375 361.203125 396.46875 368.191406 396.46875 376.679688 L 396.46875 419.359375 C 396.46875 422.105469 397.839844 423.351562 399.960938 424.351562 L 399.960938 426.472656 L 370.507812 426.472656 C 369.011719 424.851562 368.511719 421.605469 368.261719 417.984375 C 359.152344 427.097656 350.667969 429.59375 341.679688 429.46875 C 330.074219 429.46875 322.089844 425.472656 317.722656 417.613281 C 315.472656 413.617188 314.601562 408.75 314.601562 403.136719 C 314.601562 393.027344 318.96875 386.414062 328.328125 382.917969 C 335.066406 380.171875 343.554688 378.550781 355.410156 377.550781 C 362.898438 376.804688 367.640625 374.058594 367.886719 369.941406 C 368.011719 366.070312 365.765625 363.449219 360.027344 363.199219 C 350.542969 362.453125 347.296875 365.820312 346.796875 371.1875 M 259.941406 387.035156 L 259.941406 426.347656 L 230.738281 426.347656 L 230.738281 380.546875 C 230.738281 372.683594 225.496094 369.066406 219.132812 369.941406 C 214.265625 370.4375 210.644531 373.933594 210.644531 380.671875 L 210.644531 426.347656 L 180.695312 426.347656 L 180.695312 346.851562 L 208.523438 346.851562 L 208.523438 358.332031 C 211.644531 352.96875 216.011719 348.351562 223.75 346.105469 C 237.976562 341.984375 249.082031 346.351562 255.324219 358.957031 C 260.8125 351.097656 268.050781 346.105469 277.535156 344.855469 C 284.773438 343.980469 291.886719 345.230469 299.25 349.097656 C 307.613281 355.839844 309.734375 364.199219 309.734375 374.558594 L 309.734375 426.472656 L 280.53125 426.472656 L 280.53125 380.296875 C 280.53125 372.808594 275.039062 368.066406 268.425781 369.566406 C 262.6875 370.8125 260.066406 375.429688 260.066406 382.417969 L 260.066406 387.035156 Z M 259.941406 387.035156 " fill-opacity="1" fill-rule="evenodd"/><path fill="#2c2119" d="M 4.859375 318.273438 L 95.460938 318.273438 L 95.460938 346.976562 L 66.757812 346.976562 L 66.757812 426.347656 L 34.1875 426.347656 L 34.1875 346.976562 L 4.859375 346.976562 Z M 4.859375 318.273438 " fill-opacity="1" fill-rule="evenodd"/><path fill="#000000" d="M 542.851562 431.339844 L 516.394531 431.339844 L 537.734375 376.804688 L 516.394531 376.804688 L 516.394531 367.570312 L 540.980469 367.570312 L 546.472656 352.21875 L 516.394531 352.21875 L 516.394531 343.484375 L 623.21875 343.484375 L 623.21875 352.21875 L 572.804688 352.21875 L 566.8125 367.570312 L 623.21875 367.570312 L 623.21875 376.804688 L 607.996094 376.804688 L 623.21875 431.339844 L 599.257812 431.339844 L 583.910156 376.804688 L 563.566406 376.804688 Z M 542.851562 431.339844 " fill-opacity="1" fill-rule="nonzero"/><path fill="#000000" d="M 671.640625 412.371094 C 671.015625 419.109375 667.523438 422.851562 661.03125 423.476562 L 753.507812 423.476562 C 752.882812 428.71875 750.011719 431.339844 744.769531 431.339844 L 651.300781 431.339844 L 651.300781 356.835938 L 647.179688 356.835938 L 647.179688 348.101562 L 651.796875 348.101562 L 649.050781 343.484375 L 669.394531 343.484375 L 671.640625 348.101562 Z M 753.507812 352.21875 L 708.703125 352.21875 L 707.832031 356.835938 L 753.632812 356.835938 L 753.632812 412.371094 C 754.503906 418.859375 751.632812 421.730469 744.894531 421.105469 L 720.1875 421.105469 L 720.1875 412.371094 L 728.921875 412.371094 C 732.914062 412.996094 734.414062 411.496094 733.539062 407.753906 L 733.539062 365.695312 L 706.210938 365.695312 L 697.847656 421.230469 L 673.386719 421.230469 L 683.996094 352.34375 L 673.386719 352.34375 L 673.386719 343.609375 L 753.382812 343.609375 L 753.382812 352.21875 Z M 753.507812 352.21875 " fill-opacity="1" fill-rule="nonzero"/><path fill="#000000" d="M 97.457031 474.644531 C 97.457031 474.894531 97.332031 474.894531 97.082031 474.894531 C 96.210938 474.894531 94.835938 474.894531 92.964844 474.769531 C 91.21875 474.644531 89.84375 474.644531 88.847656 474.644531 L 87.722656 474.644531 C 86.972656 474.644531 86.601562 474.644531 86.476562 474.644531 C 86.226562 474.769531 86.101562 475.015625 86.101562 475.640625 L 86.101562 479.511719 C 86.101562 480.257812 86.226562 480.632812 86.601562 480.632812 C 87.597656 480.632812 89.21875 480.632812 91.34375 480.507812 C 93.464844 480.382812 94.960938 480.382812 96.085938 480.382812 C 96.332031 480.382812 96.457031 480.507812 96.457031 480.632812 C 96.457031 480.882812 96.457031 481.132812 96.457031 481.507812 C 96.457031 481.882812 96.457031 482.132812 96.457031 482.253906 C 96.457031 482.503906 96.457031 482.753906 96.457031 483.128906 C 96.457031 483.503906 96.457031 483.753906 96.457031 484.003906 C 96.457031 484.128906 96.332031 484.128906 96.085938 484.128906 C 95.335938 484.128906 94.210938 484.128906 92.714844 484.128906 C 91.21875 484.128906 90.09375 484.003906 89.34375 484.003906 C 87.972656 484.003906 87.222656 484.003906 86.972656 484.003906 C 86.476562 484.003906 86.226562 484.253906 86.226562 484.625 C 86.226562 485.625 86.226562 486.996094 86.351562 488.996094 C 86.351562 490.867188 86.476562 492.363281 86.476562 493.363281 C 86.476562 493.738281 86.351562 493.863281 86.101562 493.863281 C 85.851562 493.863281 85.601562 493.863281 85.101562 493.738281 C 84.726562 493.738281 84.351562 493.613281 84.105469 493.613281 C 83.980469 493.613281 83.605469 493.613281 83.230469 493.613281 C 82.855469 493.613281 82.605469 493.613281 82.355469 493.613281 C 82.105469 493.613281 81.980469 493.488281 81.980469 493.238281 C 81.980469 491.988281 81.980469 490.242188 82.105469 487.871094 C 82.230469 485.5 82.230469 483.753906 82.230469 482.503906 C 82.230469 481.382812 82.105469 477.761719 81.859375 471.773438 L 81.859375 471.523438 C 81.859375 471.273438 81.980469 471.148438 82.230469 471.148438 C 82.355469 471.148438 82.980469 471.148438 84.230469 471.148438 C 85.976562 471.148438 87.472656 471.148438 88.847656 471.148438 C 90.71875 471.148438 93.214844 471.023438 96.210938 470.773438 C 96.582031 470.773438 96.832031 470.898438 96.957031 471.273438 C 96.957031 471.523438 96.957031 472.023438 97.082031 472.648438 C 97.457031 473.894531 97.457031 474.394531 97.457031 474.644531 " fill-opacity="1" fill-rule="nonzero"/><path fill="#000000" d="M 124.039062 482.628906 C 124.039062 485.75 123.039062 488.496094 121.042969 490.867188 C 118.921875 493.238281 116.300781 494.359375 113.179688 494.359375 C 110.0625 494.359375 107.441406 493.238281 105.320312 490.867188 C 103.324219 488.621094 102.324219 485.875 102.324219 482.628906 C 102.324219 479.511719 103.324219 476.765625 105.445312 474.394531 C 107.566406 472.023438 110.1875 470.773438 113.304688 470.773438 C 116.425781 470.773438 119.046875 472.023438 121.167969 474.394531 C 123.039062 476.765625 124.039062 479.386719 124.039062 482.628906 M 120.167969 482.503906 C 120.167969 480.382812 119.546875 478.636719 118.171875 477.015625 C 116.800781 475.390625 115.054688 474.519531 113.054688 474.519531 C 111.058594 474.519531 109.3125 475.390625 107.941406 477.015625 C 106.691406 478.636719 106.066406 480.382812 106.066406 482.503906 C 106.066406 484.625 106.691406 486.375 107.941406 487.996094 C 109.3125 489.617188 110.933594 490.492188 113.054688 490.492188 C 115.179688 490.492188 116.800781 489.617188 118.171875 487.996094 C 119.546875 486.5 120.167969 484.625 120.167969 482.503906 " fill-opacity="1" fill-rule="nonzero"/><path fill="#000000" d="M 147.625 490.117188 C 147.625 490.242188 147.5 490.367188 147.375 490.617188 C 145.253906 492.988281 142.757812 494.234375 139.636719 494.234375 C 136.394531 494.234375 133.898438 493.113281 131.902344 490.742188 C 130.152344 488.496094 129.15625 485.875 129.15625 482.628906 C 129.15625 479.386719 130.027344 476.640625 131.902344 474.394531 C 133.898438 472.023438 136.394531 470.898438 139.636719 470.898438 C 142.882812 470.898438 145.378906 472.023438 147.125 474.144531 C 147.25 474.394531 147.375 474.519531 147.375 474.769531 C 147.375 474.894531 147.125 475.515625 146.5 476.390625 C 145.878906 477.265625 145.628906 477.761719 145.503906 477.761719 C 145.378906 477.761719 145.003906 477.511719 144.503906 477.015625 C 143.882812 476.390625 143.257812 475.890625 142.757812 475.640625 C 141.882812 475.140625 140.886719 474.894531 139.761719 474.894531 C 137.640625 474.894531 136.019531 475.640625 134.769531 477.265625 C 133.773438 478.761719 133.148438 480.507812 133.148438 482.753906 C 133.148438 485 133.648438 486.75 134.769531 488.246094 C 135.894531 489.867188 137.640625 490.742188 139.636719 490.742188 C 140.636719 490.742188 141.632812 490.492188 142.632812 489.992188 C 143.257812 489.617188 143.882812 489.121094 144.628906 488.496094 C 145.128906 487.996094 145.503906 487.746094 145.503906 487.746094 C 145.628906 487.746094 145.878906 488.121094 146.625 488.996094 C 147.25 489.617188 147.625 490.117188 147.625 490.117188 " fill-opacity="1" fill-rule="nonzero"/><path fill="#000000" d="M 170.960938 471.773438 C 170.960938 473.019531 170.960938 474.894531 170.835938 477.390625 C 170.710938 479.882812 170.710938 481.757812 170.710938 483.003906 C 170.710938 483.378906 170.710938 484.003906 170.710938 484.875 C 170.710938 485.625 170.710938 486.25 170.710938 486.625 C 170.710938 488.871094 170.460938 490.367188 170.089844 491.242188 C 169.464844 492.613281 168.214844 493.488281 166.34375 493.988281 C 165.222656 494.234375 163.597656 494.359375 161.601562 494.359375 C 157.859375 494.359375 155.488281 493.738281 154.238281 492.488281 C 153.367188 491.492188 152.867188 489.617188 152.867188 486.75 C 152.867188 486.375 152.867188 485.75 152.867188 485 C 152.867188 484.128906 152.867188 483.503906 152.867188 483.003906 C 152.867188 481.757812 152.867188 479.386719 152.742188 476.015625 C 152.742188 475.140625 152.742188 473.769531 152.617188 472.148438 C 152.617188 472.023438 152.617188 471.898438 152.617188 471.898438 C 152.617188 471.648438 152.742188 471.523438 152.992188 471.523438 C 153.488281 471.523438 153.988281 471.523438 154.738281 471.523438 C 155.613281 471.523438 156.234375 471.523438 156.484375 471.523438 C 156.734375 471.523438 156.859375 471.648438 156.859375 471.773438 C 156.859375 473.394531 156.859375 475.765625 156.734375 479.136719 C 156.609375 482.378906 156.609375 484.875 156.609375 486.5 C 156.609375 488.371094 156.984375 489.617188 157.859375 490.242188 C 158.605469 490.867188 159.855469 491.117188 161.726562 491.117188 C 163.472656 491.117188 164.722656 490.867188 165.34375 490.367188 C 166.21875 489.742188 166.71875 488.621094 166.71875 487.121094 C 166.71875 485.375 166.71875 482.878906 166.59375 479.511719 C 166.59375 476.140625 166.46875 473.644531 166.46875 471.898438 C 166.46875 471.773438 166.59375 471.648438 166.96875 471.523438 C 167.21875 471.523438 167.46875 471.523438 167.964844 471.523438 C 168.464844 471.523438 168.714844 471.648438 168.714844 471.648438 C 168.964844 471.648438 169.214844 471.648438 169.589844 471.648438 C 169.964844 471.648438 170.210938 471.648438 170.460938 471.648438 C 170.835938 471.398438 170.960938 471.523438 170.960938 471.773438 " fill-opacity="1" fill-rule="nonzero"/><path fill="#000000" d="M 190.429688 473.019531 C 190.179688 473.394531 189.929688 473.894531 189.554688 474.644531 C 189.429688 475.015625 189.179688 475.390625 188.933594 476.015625 C 188.808594 476.140625 188.808594 476.140625 188.683594 476.140625 C 188.683594 476.140625 188.183594 475.890625 187.183594 475.515625 C 186.1875 475.140625 185.3125 474.894531 184.5625 474.894531 C 182.566406 474.894531 181.570312 475.765625 181.570312 477.511719 C 181.570312 478.511719 182.316406 479.261719 183.566406 480.007812 C 185.9375 481.257812 187.183594 481.882812 187.433594 482.132812 C 188.808594 483.253906 189.554688 484.75 189.554688 486.625 C 189.554688 488.996094 188.558594 490.867188 186.6875 492.238281 C 184.9375 493.488281 182.941406 494.109375 180.445312 494.109375 C 179.324219 494.109375 178.699219 493.988281 178.574219 493.738281 C 178.574219 493.363281 178.449219 492.738281 178.324219 491.988281 C 178.199219 491.617188 178.074219 491.242188 177.949219 490.617188 C 177.949219 490.492188 177.949219 490.367188 177.949219 490.367188 C 177.949219 490.242188 178.074219 490.117188 178.199219 490.117188 C 178.449219 490.117188 178.824219 490.117188 179.324219 490.242188 C 179.820312 490.242188 180.195312 490.367188 180.570312 490.367188 C 183.816406 490.367188 185.5625 489.246094 185.5625 487.121094 C 185.5625 486.125 184.9375 485.125 183.566406 484.378906 C 181.195312 483.003906 179.945312 482.253906 179.820312 482.253906 C 178.449219 481.132812 177.824219 479.761719 177.824219 477.886719 C 177.824219 475.890625 178.449219 474.269531 179.820312 473.144531 C 181.070312 472.023438 182.691406 471.398438 184.8125 471.398438 C 185.6875 471.398438 186.6875 471.523438 187.808594 471.773438 C 189.058594 472.023438 189.929688 472.398438 190.554688 472.894531 C 190.304688 472.894531 190.304688 472.894531 190.429688 473.019531 " fill-opacity="1" fill-rule="nonzero"/><path fill="#000000" d="M 228.867188 482.628906 C 228.867188 485.75 227.867188 488.496094 225.871094 490.867188 C 223.75 493.238281 221.128906 494.359375 218.007812 494.359375 C 214.890625 494.359375 212.269531 493.238281 210.148438 490.867188 C 208.152344 488.621094 207.152344 485.875 207.152344 482.628906 C 207.152344 479.511719 208.152344 476.765625 210.273438 474.394531 C 212.394531 472.023438 215.015625 470.773438 218.132812 470.773438 C 221.253906 470.773438 223.875 472.023438 225.996094 474.394531 C 227.742188 476.765625 228.867188 479.386719 228.867188 482.628906 M 224.996094 482.503906 C 224.996094 480.382812 224.375 478.636719 223 477.015625 C 221.628906 475.390625 219.882812 474.519531 217.882812 474.519531 C 215.886719 474.519531 214.140625 475.390625 212.769531 477.015625 C 211.519531 478.636719 210.894531 480.382812 210.894531 482.503906 C 210.894531 484.625 211.519531 486.375 212.769531 487.996094 C 214.140625 489.617188 215.761719 490.492188 217.882812 490.492188 C 220.007812 490.492188 221.628906 489.617188 223 487.996094 C 224.375 486.5 224.996094 484.625 224.996094 482.503906 " fill-opacity="1" fill-rule="nonzero"/><path fill="#000000" d="M 254.824219 471.773438 C 254.824219 473.019531 254.824219 474.894531 254.699219 477.265625 C 254.574219 479.761719 254.574219 481.632812 254.574219 482.878906 C 254.574219 484.003906 254.574219 485.75 254.574219 488.121094 C 254.574219 490.492188 254.574219 492.238281 254.574219 493.363281 C 254.574219 493.738281 254.449219 493.863281 254.199219 493.863281 C 254.074219 493.863281 253.824219 493.863281 253.453125 493.863281 C 253.078125 493.863281 252.953125 493.863281 252.703125 493.863281 C 252.453125 493.863281 252.328125 493.863281 251.953125 493.863281 C 251.578125 493.863281 251.328125 493.863281 251.203125 493.863281 C 250.957031 493.863281 250.832031 493.738281 250.457031 493.363281 C 248.210938 490.242188 244.714844 485.625 239.972656 479.511719 C 239.222656 478.636719 238.851562 478.011719 238.726562 477.886719 C 238.601562 477.886719 238.601562 478.136719 238.601562 478.511719 C 238.601562 480.132812 238.601562 482.628906 238.726562 485.875 C 238.726562 489.121094 238.851562 491.617188 238.851562 493.238281 C 238.851562 493.613281 238.726562 493.738281 238.476562 493.738281 C 238.351562 493.738281 237.976562 493.738281 237.601562 493.738281 C 237.226562 493.738281 236.976562 493.738281 236.730469 493.738281 C 236.480469 493.738281 236.230469 493.738281 235.855469 493.738281 C 235.480469 493.738281 235.230469 493.738281 234.980469 493.738281 C 234.730469 493.738281 234.605469 493.613281 234.605469 493.363281 C 234.605469 492.238281 234.605469 490.367188 234.730469 487.996094 C 234.855469 485.625 234.855469 483.878906 234.855469 482.628906 C 234.855469 481.382812 234.855469 479.011719 234.730469 475.640625 C 234.730469 474.769531 234.605469 473.394531 234.605469 471.648438 L 234.605469 471.398438 C 234.605469 471.273438 234.730469 471.148438 234.980469 471.148438 C 235.730469 471.148438 236.230469 471.148438 236.605469 471.023438 C 236.730469 471.023438 236.976562 471.023438 237.476562 470.898438 C 237.851562 470.773438 238.101562 470.773438 238.351562 470.773438 C 238.476562 470.773438 238.601562 470.898438 238.851562 471.273438 C 241.347656 474.644531 245.089844 479.636719 250.082031 486.375 C 250.332031 486.625 250.457031 486.875 250.707031 487.121094 C 250.832031 486.625 250.832031 485.625 250.832031 484.003906 C 250.832031 482.628906 250.832031 480.507812 250.707031 477.761719 C 250.582031 475.015625 250.582031 472.894531 250.582031 471.523438 C 250.582031 471.148438 250.707031 471.023438 250.957031 471.023438 C 251.203125 471.023438 251.453125 471.023438 251.828125 471.023438 C 252.203125 471.023438 252.453125 471.023438 252.703125 471.023438 C 252.953125 471.023438 253.203125 471.023438 253.574219 471.023438 C 253.949219 471.023438 254.324219 471.023438 254.449219 471.023438 C 254.699219 471.398438 254.824219 471.523438 254.824219 471.773438 " fill-opacity="1" fill-rule="nonzero"/><path fill="#000000" d="M 294.132812 482.503906 C 294.132812 485.375 293.261719 487.871094 291.640625 489.992188 C 289.890625 492.238281 287.644531 493.613281 284.898438 493.988281 C 285.273438 495.234375 286.023438 496.234375 287.019531 497.230469 C 287.144531 497.355469 287.144531 497.355469 287.144531 497.480469 C 287.144531 497.730469 286.773438 497.980469 286.023438 497.980469 L 284.648438 497.980469 C 283.402344 497.980469 282.652344 497.980469 282.402344 497.855469 C 281.90625 497.730469 281.53125 496.480469 281.53125 493.988281 C 278.785156 493.488281 276.664062 492.113281 274.917969 489.867188 C 273.292969 487.746094 272.421875 485.25 272.421875 482.503906 C 272.421875 479.386719 273.417969 476.640625 275.539062 474.394531 C 277.660156 472.023438 280.28125 470.773438 283.402344 470.773438 C 286.523438 470.773438 289.144531 472.023438 291.265625 474.394531 C 293.136719 476.765625 294.132812 479.386719 294.132812 482.503906 M 290.390625 482.503906 C 290.390625 480.382812 289.765625 478.636719 288.394531 477.015625 C 287.019531 475.390625 285.273438 474.644531 283.277344 474.644531 C 281.28125 474.644531 279.535156 475.515625 278.160156 477.140625 C 276.914062 478.636719 276.289062 480.507812 276.289062 482.628906 C 276.289062 484.75 276.914062 486.5 278.160156 488.121094 C 279.535156 489.742188 281.28125 490.617188 283.277344 490.617188 C 285.398438 490.617188 287.019531 489.742188 288.394531 488.121094 C 289.640625 486.5 290.390625 484.625 290.390625 482.503906 " fill-opacity="1" fill-rule="nonzero"/><path fill="#000000" d="M 318.46875 471.773438 C 318.46875 473.019531 318.46875 474.894531 318.34375 477.390625 C 318.21875 479.882812 318.21875 481.757812 318.21875 483.003906 C 318.21875 483.378906 318.21875 484.003906 318.21875 484.875 C 318.21875 485.625 318.21875 486.25 318.21875 486.625 C 318.21875 488.871094 317.96875 490.367188 317.597656 491.242188 C 316.972656 492.613281 315.722656 493.488281 313.851562 493.988281 C 312.730469 494.234375 311.105469 494.359375 309.109375 494.359375 C 305.367188 494.359375 302.996094 493.738281 301.746094 492.488281 C 300.875 491.492188 300.375 489.617188 300.375 486.75 C 300.375 486.375 300.375 485.75 300.375 485 C 300.375 484.128906 300.375 483.503906 300.375 483.003906 C 300.375 481.757812 300.375 479.386719 300.25 476.015625 C 300.25 475.140625 300.25 473.769531 300.125 472.148438 C 300.125 472.023438 300.125 471.898438 300.125 471.898438 C 300.125 471.648438 300.25 471.523438 300.5 471.523438 C 301 471.523438 301.496094 471.523438 302.246094 471.523438 C 303.121094 471.523438 303.742188 471.523438 303.992188 471.523438 C 304.242188 471.523438 304.367188 471.648438 304.367188 471.773438 C 304.367188 473.394531 304.367188 475.765625 304.242188 479.136719 C 304.117188 482.378906 304.117188 484.875 304.117188 486.5 C 304.117188 488.371094 304.492188 489.617188 305.367188 490.242188 C 306.113281 490.867188 307.363281 491.117188 309.234375 491.117188 C 310.980469 491.117188 312.230469 490.867188 312.855469 490.367188 C 313.726562 489.742188 314.226562 488.621094 314.226562 487.121094 C 314.226562 485.375 314.226562 482.878906 314.101562 479.511719 C 313.976562 476.140625 313.976562 473.644531 313.976562 471.898438 C 313.976562 471.773438 314.101562 471.648438 314.476562 471.523438 C 314.726562 471.523438 314.976562 471.523438 315.472656 471.523438 C 315.972656 471.523438 316.222656 471.648438 316.222656 471.648438 C 316.472656 471.648438 316.722656 471.648438 317.097656 471.648438 C 317.472656 471.648438 317.722656 471.648438 317.96875 471.648438 C 318.34375 471.398438 318.46875 471.523438 318.46875 471.773438 " fill-opacity="1" fill-rule="nonzero"/><path fill="#000000" d="M 344.800781 493.613281 C 344.800781 493.738281 344.675781 493.863281 344.425781 493.863281 C 344.175781 493.863281 343.929688 493.863281 343.554688 493.863281 C 343.179688 493.863281 342.804688 493.863281 342.679688 493.863281 C 342.429688 493.863281 342.179688 493.863281 341.804688 493.863281 C 341.433594 493.863281 341.058594 493.863281 340.933594 493.863281 C 340.683594 493.863281 340.183594 493.113281 339.808594 491.492188 C 339.308594 489.867188 338.9375 488.996094 338.4375 488.996094 C 338.0625 488.996094 337.0625 488.996094 335.316406 488.996094 L 332.820312 488.996094 C 331.074219 488.996094 330.074219 488.996094 329.824219 488.996094 C 329.453125 488.996094 329.078125 489.867188 328.578125 491.492188 C 328.203125 493.113281 327.828125 493.863281 327.578125 493.863281 L 323.960938 493.863281 C 323.710938 493.863281 323.585938 493.738281 323.585938 493.613281 C 323.585938 493.488281 323.710938 493.238281 323.835938 492.863281 L 327.703125 482.132812 C 328.078125 481.257812 329.078125 478.761719 330.699219 474.644531 C 330.949219 473.894531 331.449219 472.894531 331.949219 471.523438 C 332.074219 471.148438 332.195312 470.898438 332.320312 470.898438 C 332.570312 470.898438 332.820312 470.898438 333.195312 471.023438 C 333.570312 471.148438 333.945312 471.148438 334.070312 471.148438 C 334.320312 471.148438 334.566406 471.148438 334.941406 471.023438 C 335.316406 470.898438 335.566406 470.898438 335.816406 470.898438 C 335.941406 470.898438 336.066406 471.148438 336.191406 471.523438 C 336.441406 472.148438 337.6875 475.390625 339.933594 481.132812 C 343.179688 489.492188 344.800781 493.613281 344.800781 493.613281 M 337.3125 484.875 C 337.3125 484.625 336.816406 483.128906 335.816406 480.757812 C 334.941406 478.386719 334.195312 476.765625 333.820312 476.015625 C 331.574219 481.632812 330.449219 484.625 330.449219 484.875 C 330.449219 485.25 330.824219 485.5 331.699219 485.5 C 331.699219 485.5 332.320312 485.5 333.320312 485.5 L 334.941406 485.5 C 336.566406 485.5 337.3125 485.25 337.3125 484.875 " fill-opacity="1" fill-rule="nonzero"/><path fill="#000000" d="M 365.019531 490.367188 C 365.019531 491.863281 364.894531 492.863281 364.769531 493.613281 C 364.644531 493.863281 364.519531 494.109375 364.269531 494.109375 C 363.519531 494.109375 362.273438 494.109375 360.773438 493.988281 C 359.152344 493.863281 358.03125 493.863281 357.15625 493.863281 C 356.40625 493.863281 355.285156 493.863281 353.785156 493.863281 C 352.289062 493.863281 351.167969 493.863281 350.417969 493.863281 C 350.167969 493.863281 350.042969 493.738281 350.042969 493.488281 C 350.042969 492.363281 350.042969 490.617188 350.167969 488.246094 C 350.292969 485.875 350.292969 484.128906 350.292969 483.003906 C 350.292969 481.757812 350.167969 479.882812 350.167969 477.386719 C 350.042969 474.894531 350.042969 473.019531 350.042969 471.773438 C 350.042969 471.523438 350.167969 471.398438 350.417969 471.398438 C 350.667969 471.398438 350.917969 471.398438 351.289062 471.398438 C 351.664062 471.398438 352.039062 471.398438 352.164062 471.398438 C 352.414062 471.398438 352.664062 471.398438 353.039062 471.398438 C 353.414062 471.398438 353.785156 471.398438 353.910156 471.398438 C 354.160156 471.398438 354.285156 471.523438 354.285156 471.648438 C 354.285156 472.769531 354.285156 474.519531 354.160156 476.765625 C 354.035156 479.011719 354.035156 480.757812 354.035156 481.882812 L 354.035156 484.378906 C 354.035156 485.5 354.035156 486.375 354.035156 486.875 C 354.035156 489.246094 354.160156 490.367188 354.285156 490.367188 C 358.28125 490.367188 361.148438 490.242188 363.269531 490.117188 C 363.394531 490.117188 363.644531 490.117188 364.019531 489.992188 C 364.394531 489.867188 364.644531 489.867188 364.769531 489.867188 C 364.894531 490.117188 365.019531 490.117188 365.019531 490.367188 " fill-opacity="1" fill-rule="nonzero"/><path fill="#000000" d="M 374.628906 493.488281 C 374.628906 493.738281 374.503906 493.863281 374.128906 493.863281 C 373.878906 493.863281 373.628906 493.863281 373.253906 493.863281 C 372.878906 493.863281 372.507812 493.863281 372.382812 493.863281 C 372.132812 493.863281 371.882812 493.863281 371.507812 493.863281 C 371.132812 493.863281 370.757812 493.863281 370.632812 493.863281 C 370.382812 493.863281 370.257812 493.738281 370.257812 493.488281 C 370.257812 492.238281 370.257812 490.492188 370.382812 487.996094 C 370.507812 485.5 370.507812 483.753906 370.507812 482.503906 C 370.507812 481.257812 370.507812 479.511719 370.382812 477.140625 C 370.257812 474.769531 370.257812 473.019531 370.257812 471.773438 C 370.257812 471.523438 370.382812 471.398438 370.632812 471.398438 C 370.882812 471.398438 371.132812 471.398438 371.507812 471.398438 C 371.882812 471.398438 372.257812 471.398438 372.507812 471.398438 C 372.753906 471.398438 373.003906 471.398438 373.378906 471.398438 C 373.753906 471.398438 374.003906 471.398438 374.253906 471.398438 C 374.503906 471.398438 374.628906 471.523438 374.628906 471.773438 C 374.628906 473.019531 374.628906 474.769531 374.503906 477.140625 C 374.378906 479.511719 374.378906 481.382812 374.378906 482.503906 C 374.378906 483.753906 374.378906 485.625 374.503906 487.996094 C 374.503906 490.492188 374.628906 492.238281 374.628906 493.488281 " fill-opacity="1" fill-rule="nonzero"/><path fill="#000000" d="M 396.09375 474.394531 C 396.09375 474.644531 395.96875 474.769531 395.84375 474.769531 C 395.59375 474.769531 393.597656 474.644531 390.226562 474.519531 C 390.101562 477.761719 390.101562 480.382812 390.101562 482.378906 C 390.101562 483.628906 390.101562 485.5 390.226562 487.871094 C 390.351562 490.367188 390.351562 492.113281 390.351562 493.363281 C 390.351562 493.613281 390.226562 493.738281 389.851562 493.738281 C 389.601562 493.738281 389.351562 493.738281 388.980469 493.738281 C 388.605469 493.738281 388.230469 493.738281 388.105469 493.738281 C 387.855469 493.738281 387.605469 493.738281 387.230469 493.738281 C 386.859375 493.738281 386.484375 493.738281 386.359375 493.738281 C 386.109375 493.738281 385.984375 493.613281 385.984375 493.363281 C 385.984375 492.113281 385.984375 490.367188 386.109375 487.871094 C 386.234375 485.375 386.234375 483.628906 386.234375 482.378906 C 386.234375 480.507812 386.234375 477.886719 386.109375 474.519531 C 383.363281 474.644531 381.367188 474.769531 379.992188 474.769531 C 379.867188 474.769531 379.746094 474.644531 379.746094 474.644531 C 379.746094 474.394531 379.746094 474.144531 379.867188 473.769531 C 379.992188 473.269531 380.117188 473.019531 380.117188 472.894531 C 380.117188 472.523438 380.242188 472.023438 380.367188 471.273438 C 380.367188 471.148438 380.492188 471.023438 380.617188 471.023438 L 380.867188 471.023438 C 384.609375 471.273438 387.105469 471.398438 388.355469 471.398438 C 389.476562 471.398438 391.226562 471.273438 393.597656 471.148438 C 395.21875 471.023438 395.96875 471.023438 395.71875 471.023438 C 395.96875 471.023438 396.09375 471.148438 396.21875 471.273438 C 396.21875 471.148438 396.21875 471.648438 396.21875 472.769531 C 396.21875 472.894531 396.21875 473.144531 396.21875 473.394531 C 396.09375 474.019531 396.09375 474.269531 396.09375 474.394531 " fill-opacity="1" fill-rule="nonzero"/><path fill="#000000" d="M 418.429688 477.390625 C 418.429688 478.011719 417.433594 479.636719 415.5625 482.253906 C 414.3125 483.878906 413.066406 485.5 411.816406 487.121094 C 411.441406 487.496094 411.316406 487.996094 411.316406 488.371094 C 411.316406 488.996094 411.316406 489.742188 411.441406 490.992188 C 411.566406 492.113281 411.566406 492.988281 411.566406 493.613281 C 411.566406 493.863281 411.441406 493.863281 411.191406 493.863281 L 407.324219 493.863281 C 407.074219 493.863281 406.949219 493.738281 406.949219 493.363281 C 406.949219 492.863281 406.949219 491.988281 407.074219 490.867188 C 407.199219 489.742188 407.199219 488.871094 407.199219 488.371094 C 407.199219 487.871094 407.074219 487.496094 406.824219 487.121094 C 406.078125 486.125 404.953125 484.625 403.332031 482.628906 C 402.082031 480.882812 401.085938 479.511719 400.460938 478.511719 C 400.210938 478.136719 400.210938 477.886719 400.210938 477.636719 C 400.210938 476.265625 400.210938 474.394531 400.210938 471.773438 C 400.210938 471.523438 400.335938 471.398438 400.585938 471.398438 C 400.835938 471.398438 401.085938 471.398438 401.457031 471.398438 C 401.832031 471.398438 402.082031 471.398438 402.207031 471.398438 C 402.457031 471.398438 402.707031 471.398438 403.207031 471.398438 C 403.582031 471.398438 403.953125 471.398438 404.203125 471.398438 C 404.453125 471.398438 404.453125 471.523438 404.453125 471.648438 C 404.453125 472.273438 404.453125 473.144531 404.328125 474.394531 C 404.203125 475.640625 404.203125 476.515625 404.203125 477.140625 C 404.203125 477.761719 405.953125 480.007812 409.320312 483.878906 C 410.070312 483.003906 411.066406 481.882812 412.066406 480.507812 C 413.5625 478.636719 414.1875 477.511719 414.1875 477.140625 C 414.1875 476.515625 414.1875 475.640625 414.0625 474.519531 C 413.9375 473.394531 413.9375 472.523438 413.9375 471.898438 C 413.9375 471.648438 414.0625 471.523438 414.3125 471.523438 C 414.5625 471.523438 414.8125 471.523438 415.1875 471.523438 C 415.5625 471.523438 415.933594 471.523438 416.058594 471.523438 C 416.308594 471.523438 416.558594 471.523438 416.933594 471.523438 C 417.308594 471.523438 417.683594 471.523438 417.808594 471.523438 C 418.054688 471.523438 418.179688 471.648438 418.179688 472.023438 C 418.179688 472.644531 418.179688 473.519531 418.179688 474.769531 C 418.429688 475.890625 418.429688 476.765625 418.429688 477.390625 " fill-opacity="1" fill-rule="nonzero"/><path fill="#000000" d="M 455.121094 493.613281 C 455.121094 493.738281 454.996094 493.863281 454.746094 493.863281 C 454.496094 493.863281 454.246094 493.863281 453.871094 493.863281 C 453.5 493.863281 453.125 493.863281 453 493.863281 C 452.75 493.863281 452.5 493.863281 452.125 493.863281 C 451.75 493.863281 451.375 493.863281 451.253906 493.863281 C 451.003906 493.863281 450.503906 493.113281 450.128906 491.492188 C 449.628906 489.867188 449.253906 488.996094 448.757812 488.996094 C 448.382812 488.996094 447.382812 488.996094 445.636719 488.996094 L 443.140625 488.996094 C 441.394531 488.996094 440.394531 488.996094 440.144531 488.996094 C 439.769531 488.996094 439.394531 489.867188 438.898438 491.492188 C 438.523438 493.113281 438.148438 493.863281 437.898438 493.863281 L 434.28125 493.863281 C 434.03125 493.863281 433.90625 493.738281 433.90625 493.613281 C 433.90625 493.488281 434.03125 493.238281 434.15625 492.863281 L 438.023438 482.132812 C 438.398438 481.257812 439.398438 478.761719 441.019531 474.644531 C 441.269531 473.894531 441.769531 472.894531 442.265625 471.523438 C 442.390625 471.148438 442.515625 470.898438 442.640625 470.898438 C 442.890625 470.898438 443.140625 470.898438 443.515625 471.023438 C 443.890625 471.148438 444.261719 471.148438 444.386719 471.148438 C 444.636719 471.148438 444.886719 471.148438 445.261719 471.023438 C 445.636719 470.898438 445.886719 470.898438 446.136719 470.898438 C 446.261719 470.898438 446.386719 471.148438 446.511719 471.523438 C 446.757812 472.148438 448.007812 475.390625 450.253906 481.132812 C 453.5 489.492188 455.121094 493.613281 455.121094 493.613281 M 447.632812 484.875 C 447.632812 484.625 447.132812 483.128906 446.136719 480.757812 C 445.261719 478.386719 444.511719 476.765625 444.136719 476.015625 C 441.890625 481.632812 440.769531 484.625 440.769531 484.875 C 440.769531 485.25 441.144531 485.5 442.015625 485.5 C 442.015625 485.5 442.640625 485.5 443.640625 485.5 L 445.261719 485.5 C 446.882812 485.5 447.632812 485.25 447.632812 484.875 " fill-opacity="1" fill-rule="nonzero"/><path fill="#000000" d="M 475.089844 474.394531 C 475.089844 474.644531 474.964844 474.769531 474.839844 474.769531 C 474.589844 474.769531 472.59375 474.644531 469.222656 474.519531 C 469.097656 477.761719 469.097656 480.382812 469.097656 482.378906 C 469.097656 483.628906 469.097656 485.5 469.222656 487.871094 C 469.347656 490.367188 469.347656 492.113281 469.347656 493.363281 C 469.347656 493.613281 469.222656 493.738281 468.847656 493.738281 C 468.597656 493.738281 468.347656 493.738281 467.972656 493.738281 C 467.601562 493.738281 467.226562 493.738281 467.101562 493.738281 C 466.851562 493.738281 466.601562 493.738281 466.226562 493.738281 C 465.851562 493.738281 465.480469 493.738281 465.355469 493.738281 C 465.105469 493.738281 464.980469 493.613281 464.980469 493.363281 C 464.980469 492.113281 464.980469 490.367188 465.105469 487.871094 C 465.230469 485.375 465.230469 483.628906 465.230469 482.378906 C 465.230469 480.507812 465.230469 477.886719 465.105469 474.519531 C 462.359375 474.644531 460.363281 474.769531 458.988281 474.769531 C 458.863281 474.769531 458.738281 474.644531 458.738281 474.644531 C 458.738281 474.394531 458.738281 474.144531 458.863281 473.769531 C 458.988281 473.269531 459.113281 473.019531 459.113281 472.894531 C 459.113281 472.523438 459.238281 472.023438 459.363281 471.273438 C 459.363281 471.148438 459.488281 471.023438 459.613281 471.023438 L 459.863281 471.023438 C 463.605469 471.273438 466.101562 471.398438 467.351562 471.398438 C 468.472656 471.398438 470.222656 471.273438 472.59375 471.148438 C 474.214844 471.023438 474.964844 471.023438 474.714844 471.023438 C 474.964844 471.023438 475.089844 471.148438 475.210938 471.273438 C 475.210938 471.148438 475.210938 471.648438 475.210938 472.769531 C 475.210938 472.894531 475.210938 473.144531 475.210938 473.394531 C 475.089844 474.019531 475.089844 474.269531 475.089844 474.394531 " fill-opacity="1" fill-rule="nonzero"/><path fill="#000000" d="M 507.035156 490.617188 C 507.035156 490.742188 507.035156 490.992188 506.910156 491.367188 C 506.785156 491.738281 506.785156 491.988281 506.785156 492.113281 C 506.785156 492.488281 506.660156 493.113281 506.535156 493.863281 C 506.410156 494.109375 506.285156 494.109375 506.160156 494.109375 C 506.039062 494.109375 505.914062 494.109375 505.539062 493.988281 C 504.289062 493.738281 502.167969 493.738281 499.421875 493.738281 C 498.675781 493.738281 497.425781 493.738281 495.929688 493.863281 C 494.304688 493.863281 493.183594 493.988281 492.433594 493.988281 C 492.058594 493.988281 491.933594 493.863281 491.933594 493.488281 C 491.933594 492.238281 492.058594 490.492188 492.183594 488.121094 C 492.308594 485.75 492.433594 483.878906 492.433594 482.753906 C 492.433594 481.507812 492.308594 479.261719 492.183594 475.890625 C 492.183594 475.015625 492.058594 473.769531 492.058594 472.023438 L 492.058594 471.773438 C 492.058594 471.523438 492.183594 471.398438 492.433594 471.398438 C 493.183594 471.398438 494.304688 471.398438 495.804688 471.523438 C 497.300781 471.523438 498.425781 471.648438 499.171875 471.648438 C 499.921875 471.648438 500.921875 471.648438 502.417969 471.523438 C 503.789062 471.523438 504.914062 471.398438 505.664062 471.398438 C 506.160156 471.398438 506.410156 471.523438 506.535156 471.898438 C 506.785156 473.269531 506.910156 474.144531 506.910156 474.519531 C 506.910156 474.769531 506.785156 474.894531 506.535156 474.894531 C 505.664062 474.894531 504.289062 474.894531 502.417969 474.769531 C 500.546875 474.644531 499.171875 474.644531 498.300781 474.644531 C 497.425781 474.644531 496.925781 474.769531 496.675781 475.015625 C 496.429688 475.265625 496.304688 475.890625 496.304688 476.765625 L 496.304688 479.136719 C 496.304688 479.757812 496.304688 480.132812 496.304688 480.257812 C 496.429688 480.632812 496.675781 480.757812 497.175781 480.757812 C 497.300781 480.757812 497.425781 480.757812 497.675781 480.757812 L 498.175781 480.757812 C 500.296875 480.757812 502.167969 480.757812 503.792969 480.632812 C 504.414062 480.632812 505.164062 480.507812 506.164062 480.507812 C 506.410156 480.507812 506.535156 480.632812 506.535156 480.757812 C 506.535156 481.132812 506.535156 481.632812 506.410156 482.378906 C 506.285156 483.128906 506.285156 483.628906 506.285156 484.003906 C 506.285156 484.253906 506.164062 484.253906 505.789062 484.253906 C 505.664062 484.253906 505.164062 484.253906 504.414062 484.128906 C 503.792969 484.003906 502.417969 484.003906 500.421875 484.003906 C 498.675781 484.003906 497.550781 484.003906 497.050781 484.128906 C 496.675781 484.128906 496.429688 484.378906 496.304688 484.75 C 496.304688 484.625 496.304688 485.125 496.304688 486 L 496.304688 488.371094 C 496.304688 489.492188 496.429688 490.117188 496.800781 490.492188 C 497.050781 490.742188 497.675781 490.867188 498.800781 490.867188 L 500.546875 490.867188 C 501.296875 490.867188 503.417969 490.742188 506.785156 490.492188 L 507.035156 490.492188 C 506.910156 490.242188 507.035156 490.367188 507.035156 490.617188 " fill-opacity="1" fill-rule="nonzero"/><path fill="#000000" d="M 530.371094 479.386719 C 530.371094 479.882812 529.375 482.007812 527.253906 486 C 525.878906 488.496094 524.632812 490.992188 523.257812 493.363281 C 523.132812 493.613281 522.882812 493.863281 522.761719 493.863281 L 519.515625 493.863281 C 519.390625 493.863281 519.265625 493.738281 519.015625 493.363281 C 519.015625 493.238281 517.769531 490.867188 515.148438 486.125 C 513.027344 482.128906 511.902344 479.882812 511.902344 479.511719 C 511.902344 478.636719 511.902344 477.386719 512.027344 475.640625 C 512.027344 473.894531 512.152344 472.644531 512.152344 471.898438 C 512.152344 471.523438 512.277344 471.273438 512.527344 471.273438 C 512.777344 471.273438 513.027344 471.273438 513.398438 471.273438 C 513.773438 471.273438 514.148438 471.273438 514.273438 471.273438 C 514.523438 471.273438 514.773438 471.273438 515.148438 471.273438 C 515.523438 471.273438 515.769531 471.273438 516.019531 471.273438 C 516.269531 471.273438 516.394531 471.398438 516.394531 471.523438 C 516.394531 472.398438 516.269531 473.644531 516.269531 475.390625 C 516.144531 477.140625 516.144531 478.386719 516.144531 479.261719 C 516.144531 480.007812 517.769531 483.253906 521.136719 488.996094 C 522.011719 487.496094 523.007812 485.75 524.007812 483.878906 C 525.503906 481.132812 526.253906 479.386719 526.253906 478.886719 C 526.253906 478.011719 526.253906 476.765625 526.128906 475.140625 C 526.128906 473.519531 526.003906 472.273438 526.003906 471.398438 C 526.003906 471.148438 526.128906 471.023438 526.378906 471.023438 C 526.628906 471.023438 526.878906 471.023438 527.253906 471.023438 C 527.625 471.023438 528 471.023438 528.125 471.023438 C 528.375 471.023438 528.625 471.023438 529 471.023438 C 529.375 471.023438 529.625 471.023438 529.875 471.023438 C 530.121094 471.023438 530.246094 471.148438 530.246094 471.273438 C 530.246094 471.148438 530.246094 471.398438 530.246094 471.898438 C 530.246094 472.644531 530.246094 473.894531 530.246094 475.390625 C 530.371094 477.390625 530.371094 478.636719 530.371094 479.386719 " fill-opacity="1" fill-rule="nonzero"/><path fill="#000000" d="M 551.585938 490.617188 C 551.585938 490.742188 551.585938 490.992188 551.460938 491.367188 C 551.339844 491.738281 551.339844 491.988281 551.339844 492.113281 C 551.339844 492.488281 551.214844 493.113281 551.089844 493.863281 C 551.089844 494.109375 550.839844 494.109375 550.714844 494.109375 C 550.589844 494.109375 550.339844 494.109375 550.089844 493.988281 C 548.84375 493.738281 546.71875 493.738281 543.976562 493.738281 C 543.226562 493.738281 541.976562 493.738281 540.480469 493.863281 C 538.859375 493.863281 537.734375 493.988281 536.988281 493.988281 C 536.613281 493.988281 536.488281 493.863281 536.488281 493.488281 C 536.488281 492.238281 536.613281 490.492188 536.738281 488.121094 C 536.863281 485.75 536.988281 483.878906 536.988281 482.753906 C 536.988281 481.507812 536.863281 479.261719 536.738281 475.890625 C 536.738281 475.015625 536.613281 473.769531 536.613281 472.023438 L 536.613281 471.773438 C 536.613281 471.523438 536.738281 471.398438 536.988281 471.398438 C 537.734375 471.398438 538.859375 471.398438 540.355469 471.523438 C 541.855469 471.523438 542.976562 471.648438 543.726562 471.648438 C 544.472656 471.648438 545.472656 471.648438 546.96875 471.523438 C 548.34375 471.523438 549.464844 471.398438 550.214844 471.398438 C 550.714844 471.398438 550.964844 471.523438 551.089844 471.898438 C 551.339844 473.269531 551.460938 474.144531 551.460938 474.519531 C 551.460938 474.769531 551.339844 474.894531 551.089844 474.894531 C 550.214844 474.894531 548.84375 474.894531 546.96875 474.769531 C 545.097656 474.644531 543.726562 474.644531 542.851562 474.644531 C 541.976562 474.644531 541.480469 474.769531 541.230469 475.015625 C 540.980469 475.265625 540.855469 475.890625 540.855469 476.765625 L 540.855469 479.136719 C 540.855469 479.757812 540.855469 480.132812 540.855469 480.257812 C 540.980469 480.632812 541.230469 480.757812 541.730469 480.757812 C 541.855469 480.757812 541.976562 480.757812 542.226562 480.757812 L 542.726562 480.757812 C 544.847656 480.757812 546.71875 480.757812 548.34375 480.632812 C 548.96875 480.632812 549.714844 480.507812 550.589844 480.507812 C 550.839844 480.507812 550.964844 480.632812 550.964844 480.757812 C 550.964844 481.132812 550.964844 481.632812 550.839844 482.378906 C 550.714844 483.128906 550.714844 483.628906 550.714844 484.003906 C 550.714844 484.253906 550.589844 484.253906 550.214844 484.253906 C 550.089844 484.253906 549.589844 484.253906 548.84375 484.128906 C 548.21875 484.003906 546.84375 484.003906 544.847656 484.003906 C 543.101562 484.003906 541.976562 484.003906 541.480469 484.128906 C 541.105469 484.128906 540.855469 484.378906 540.730469 484.75 C 540.730469 484.625 540.730469 485.125 540.730469 486 L 540.730469 488.371094 C 540.730469 489.492188 540.855469 490.117188 541.230469 490.492188 C 541.480469 490.742188 542.101562 490.867188 543.226562 490.867188 L 544.972656 490.867188 C 545.722656 490.867188 547.84375 490.742188 551.214844 490.492188 L 551.460938 490.492188 C 551.460938 490.242188 551.585938 490.367188 551.585938 490.617188 " fill-opacity="1" fill-rule="nonzero"/><path fill="#000000" d="M 574.550781 493.738281 C 574.550781 493.863281 574.425781 493.863281 574.300781 493.863281 C 574.050781 493.863281 573.800781 493.863281 573.425781 493.863281 C 573.050781 493.863281 572.679688 493.863281 572.554688 493.863281 C 572.304688 493.863281 571.929688 493.863281 571.554688 493.863281 C 571.054688 493.863281 570.804688 493.863281 570.554688 493.863281 C 570.308594 493.863281 570.183594 493.738281 570.058594 493.488281 C 569.683594 492.738281 568.683594 490.492188 567.1875 486.75 C 567.0625 486.375 566.6875 486.125 566.0625 486 C 565.9375 486 565.441406 486 564.566406 486 C 563.070312 486 562.195312 486 561.945312 486.125 C 561.695312 486.125 561.570312 486.375 561.570312 486.996094 C 561.570312 487.746094 561.570312 488.871094 561.695312 490.367188 C 561.820312 491.863281 561.820312 492.988281 561.820312 493.738281 C 561.820312 493.988281 561.695312 494.109375 561.445312 494.109375 C 561.195312 494.109375 560.945312 494.109375 560.449219 493.988281 C 560.074219 493.988281 559.699219 493.863281 559.449219 493.863281 C 559.324219 493.863281 558.949219 493.863281 558.574219 493.863281 C 558.203125 493.863281 557.953125 493.863281 557.703125 493.863281 C 557.453125 493.863281 557.328125 493.738281 557.328125 493.488281 C 557.328125 492.363281 557.328125 490.492188 557.453125 488.121094 C 557.578125 485.75 557.578125 484.003906 557.578125 482.753906 C 557.578125 479.386719 557.453125 475.765625 557.203125 472.023438 L 557.203125 471.773438 C 557.203125 471.523438 557.453125 471.398438 557.828125 471.398438 C 558.699219 471.398438 560.074219 471.398438 561.945312 471.273438 C 563.816406 471.273438 565.191406 471.148438 566.0625 471.148438 C 568.433594 471.148438 570.308594 471.773438 571.804688 472.894531 C 573.425781 474.144531 574.175781 475.890625 574.175781 478.261719 C 574.175781 479.882812 573.925781 481.132812 573.550781 482.007812 C 573.050781 483.003906 572.304688 483.878906 571.054688 484.75 C 570.804688 484.875 570.804688 485 570.804688 485.125 C 570.804688 485.25 571.429688 486.75 572.679688 489.367188 C 573.925781 492.113281 574.550781 493.613281 574.550781 493.738281 M 570.183594 479.261719 C 570.183594 477.390625 569.683594 476.015625 568.558594 475.390625 C 567.6875 474.894531 566.3125 474.644531 564.066406 474.644531 C 562.320312 474.644531 561.445312 474.769531 561.445312 475.015625 C 561.320312 475.640625 561.320312 477.140625 561.320312 479.636719 L 561.320312 482.628906 C 561.320312 482.628906 561.445312 482.628906 561.570312 482.753906 C 561.820312 482.753906 562.070312 482.753906 562.570312 482.878906 C 563.566406 482.878906 564.691406 483.003906 565.8125 483.003906 C 568.683594 482.878906 570.183594 481.757812 570.183594 479.261719 " fill-opacity="1" fill-rule="nonzero"/><path fill="#000000" d="M 597.136719 477.390625 C 597.136719 478.011719 596.140625 479.636719 594.269531 482.253906 C 593.019531 483.878906 591.773438 485.5 590.523438 487.121094 C 590.148438 487.496094 590.023438 487.996094 590.023438 488.371094 C 590.023438 488.996094 590.023438 489.742188 590.148438 490.992188 C 590.273438 492.113281 590.273438 492.988281 590.273438 493.613281 C 590.273438 493.863281 590.148438 493.863281 589.898438 493.863281 L 586.03125 493.863281 C 585.78125 493.863281 585.65625 493.738281 585.65625 493.363281 C 585.65625 492.863281 585.65625 491.988281 585.78125 490.867188 C 585.90625 489.742188 585.90625 488.871094 585.90625 488.371094 C 585.90625 487.871094 585.78125 487.496094 585.53125 487.121094 C 584.785156 486.125 583.660156 484.625 582.039062 482.628906 C 580.789062 480.882812 579.792969 479.511719 579.167969 478.511719 C 578.917969 478.136719 578.917969 477.886719 578.917969 477.636719 C 578.917969 476.265625 578.917969 474.394531 578.917969 471.773438 C 578.917969 471.523438 579.042969 471.398438 579.292969 471.398438 C 579.542969 471.398438 579.792969 471.398438 580.164062 471.398438 C 580.539062 471.398438 580.789062 471.398438 580.914062 471.398438 C 581.164062 471.398438 581.414062 471.398438 581.914062 471.398438 C 582.289062 471.398438 582.660156 471.398438 582.910156 471.398438 C 583.160156 471.398438 583.160156 471.523438 583.160156 471.648438 C 583.160156 472.273438 583.160156 473.144531 583.035156 474.394531 C 582.910156 475.640625 582.910156 476.515625 582.910156 477.140625 C 582.910156 477.761719 584.660156 480.007812 588.027344 483.878906 C 588.777344 483.003906 589.773438 481.882812 590.773438 480.507812 C 592.269531 478.636719 592.894531 477.511719 592.894531 477.140625 C 592.894531 476.515625 592.894531 475.640625 592.769531 474.519531 C 592.644531 473.394531 592.644531 472.523438 592.644531 471.898438 C 592.644531 471.648438 592.769531 471.523438 593.019531 471.523438 C 593.269531 471.523438 593.519531 471.523438 593.894531 471.523438 C 594.269531 471.523438 594.640625 471.523438 594.765625 471.523438 C 595.015625 471.523438 595.265625 471.523438 595.640625 471.523438 C 596.015625 471.523438 596.390625 471.523438 596.515625 471.523438 C 596.761719 471.523438 596.886719 471.648438 596.886719 472.023438 C 596.886719 472.644531 596.886719 473.519531 596.886719 474.769531 C 597.136719 475.890625 597.136719 476.765625 597.136719 477.390625 " fill-opacity="1" fill-rule="nonzero"/><path fill="#000000" d="M 626.839844 473.019531 C 626.589844 473.394531 626.339844 473.894531 625.964844 474.644531 C 625.839844 475.015625 625.589844 475.390625 625.339844 476.015625 C 625.21875 476.140625 625.21875 476.140625 625.09375 476.140625 C 625.09375 476.140625 624.59375 475.890625 623.59375 475.515625 C 622.597656 475.140625 621.722656 474.894531 620.972656 474.894531 C 618.976562 474.894531 617.980469 475.765625 617.980469 477.511719 C 617.980469 478.511719 618.726562 479.261719 619.976562 480.007812 C 622.347656 481.257812 623.59375 481.882812 623.84375 482.132812 C 625.214844 483.253906 625.964844 484.75 625.964844 486.625 C 625.964844 488.996094 625.09375 490.867188 623.09375 492.238281 C 621.347656 493.488281 619.351562 494.109375 616.855469 494.109375 C 615.730469 494.109375 615.109375 493.988281 614.984375 493.738281 C 614.984375 493.363281 614.859375 492.738281 614.734375 491.988281 C 614.609375 491.617188 614.484375 491.242188 614.359375 490.617188 C 614.359375 490.492188 614.359375 490.367188 614.359375 490.367188 C 614.359375 490.242188 614.484375 490.117188 614.609375 490.117188 C 614.859375 490.117188 615.234375 490.117188 615.730469 490.242188 C 616.230469 490.242188 616.605469 490.367188 616.980469 490.367188 C 620.351562 490.367188 621.972656 489.246094 621.972656 487.121094 C 621.972656 486.125 621.347656 485.125 619.976562 484.378906 C 617.605469 483.003906 616.230469 482.253906 616.230469 482.253906 C 614.859375 481.132812 614.234375 479.761719 614.234375 477.886719 C 614.234375 475.890625 614.859375 474.269531 616.230469 473.144531 C 617.480469 472.023438 619.101562 471.398438 621.222656 471.398438 C 622.097656 471.398438 623.09375 471.523438 624.21875 471.773438 C 625.464844 472.023438 626.339844 472.398438 626.964844 472.894531 C 626.839844 472.894531 626.839844 472.894531 626.839844 473.019531 " fill-opacity="1" fill-rule="nonzero"/><path fill="#000000" d="M 647.554688 474.394531 C 647.554688 474.644531 647.429688 474.769531 647.304688 474.769531 C 647.054688 474.769531 645.058594 474.644531 641.691406 474.519531 C 641.566406 477.761719 641.566406 480.382812 641.566406 482.378906 C 641.566406 483.628906 641.566406 485.5 641.691406 487.871094 C 641.816406 490.367188 641.816406 492.113281 641.816406 493.363281 C 641.816406 493.613281 641.691406 493.738281 641.316406 493.738281 C 641.066406 493.738281 640.816406 493.738281 640.441406 493.738281 C 640.066406 493.738281 639.691406 493.738281 639.566406 493.738281 C 639.320312 493.738281 639.070312 493.738281 638.695312 493.738281 C 638.320312 493.738281 637.945312 493.738281 637.820312 493.738281 C 637.570312 493.738281 637.445312 493.613281 637.445312 493.363281 C 637.445312 492.113281 637.445312 490.367188 637.570312 487.871094 C 637.695312 485.375 637.695312 483.628906 637.695312 482.378906 C 637.695312 480.507812 637.695312 477.886719 637.570312 474.519531 C 634.824219 474.644531 632.828125 474.769531 631.457031 474.769531 C 631.332031 474.769531 631.207031 474.644531 631.207031 474.644531 C 631.207031 474.394531 631.207031 474.144531 631.332031 473.769531 C 631.457031 473.269531 631.582031 473.019531 631.582031 472.894531 C 631.582031 472.523438 631.707031 472.023438 631.832031 471.273438 C 631.832031 471.148438 631.957031 471.023438 632.082031 471.023438 L 632.328125 471.023438 C 636.074219 471.273438 638.570312 471.398438 639.816406 471.398438 C 640.941406 471.398438 642.6875 471.273438 645.058594 471.148438 C 646.679688 471.023438 647.429688 471.023438 647.054688 471.023438 C 647.304688 471.023438 647.429688 471.148438 647.554688 471.273438 C 647.554688 471.148438 647.554688 471.648438 647.554688 472.769531 C 647.554688 472.894531 647.554688 473.144531 647.554688 473.394531 C 647.554688 474.019531 647.554688 474.269531 647.554688 474.394531 " fill-opacity="1" fill-rule="nonzero"/><path fill="#000000" d="M 667.898438 490.617188 C 667.898438 490.742188 667.898438 490.992188 667.773438 491.367188 C 667.648438 491.738281 667.648438 491.988281 667.648438 492.113281 C 667.648438 492.488281 667.523438 493.113281 667.398438 493.863281 C 667.273438 494.109375 667.148438 494.109375 667.023438 494.109375 C 666.898438 494.109375 666.773438 494.109375 666.398438 493.988281 C 665.152344 493.738281 663.03125 493.738281 660.285156 493.738281 C 659.535156 493.738281 658.289062 493.738281 656.789062 493.863281 C 655.167969 493.863281 654.042969 493.988281 653.296875 493.988281 C 652.921875 493.988281 652.796875 493.863281 652.796875 493.488281 C 652.796875 492.238281 652.921875 490.492188 653.046875 488.121094 C 653.171875 485.75 653.296875 483.878906 653.296875 482.753906 C 653.296875 481.507812 653.171875 479.261719 653.046875 475.890625 C 653.046875 475.015625 652.921875 473.769531 652.921875 472.023438 L 652.921875 471.773438 C 652.921875 471.523438 653.046875 471.398438 653.296875 471.398438 C 654.042969 471.398438 655.167969 471.398438 656.664062 471.523438 C 658.164062 471.523438 659.285156 471.648438 660.035156 471.648438 C 660.785156 471.648438 661.78125 471.648438 663.28125 471.523438 C 664.652344 471.523438 665.777344 471.398438 666.523438 471.398438 C 667.023438 471.398438 667.273438 471.523438 667.398438 471.898438 C 667.648438 473.269531 667.773438 474.144531 667.773438 474.519531 C 667.773438 474.769531 667.648438 474.894531 667.398438 474.894531 C 666.523438 474.894531 665.152344 474.894531 663.28125 474.769531 C 661.40625 474.644531 660.035156 474.644531 659.160156 474.644531 C 658.289062 474.644531 657.789062 474.769531 657.539062 475.015625 C 657.289062 475.265625 657.164062 475.890625 657.164062 476.765625 L 657.164062 479.136719 C 657.164062 479.757812 657.164062 480.132812 657.164062 480.257812 C 657.289062 480.632812 657.539062 480.757812 658.039062 480.757812 C 658.164062 480.757812 658.289062 480.757812 658.539062 480.757812 L 659.035156 480.757812 C 661.15625 480.757812 663.03125 480.757812 664.652344 480.632812 C 665.277344 480.632812 666.023438 480.507812 666.898438 480.507812 C 667.148438 480.507812 667.273438 480.632812 667.273438 480.757812 C 667.273438 481.132812 667.273438 481.632812 667.148438 482.378906 C 667.023438 483.128906 667.023438 483.628906 667.023438 484.003906 C 667.023438 484.253906 666.898438 484.253906 666.523438 484.253906 C 666.398438 484.253906 665.898438 484.253906 665.152344 484.128906 C 664.527344 484.003906 663.15625 484.003906 661.15625 484.003906 C 659.410156 484.003906 658.289062 484.003906 657.789062 484.128906 C 657.414062 484.128906 657.164062 484.378906 657.039062 484.75 C 657.039062 484.625 657.039062 485.125 657.039062 486 L 657.039062 488.371094 C 657.039062 489.492188 657.164062 490.117188 657.539062 490.492188 C 657.789062 490.742188 658.414062 490.867188 659.535156 490.867188 L 661.28125 490.867188 C 662.03125 490.867188 664.152344 490.742188 667.523438 490.492188 L 667.773438 490.492188 C 667.898438 490.242188 667.898438 490.367188 667.898438 490.617188 " fill-opacity="1" fill-rule="nonzero"/><path fill="#000000" d="M 691.859375 479.636719 C 691.859375 482.132812 691.234375 484.128906 689.859375 485.625 C 688.488281 487.121094 686.492188 487.996094 683.996094 487.996094 C 683.371094 487.996094 682.496094 487.996094 681.25 487.871094 C 680.003906 487.871094 679.128906 487.746094 678.503906 487.746094 C 678.128906 487.746094 678.003906 487.996094 678.003906 488.371094 C 678.003906 488.996094 678.003906 489.742188 678.128906 490.867188 C 678.253906 491.988281 678.253906 492.863281 678.253906 493.363281 C 678.253906 493.488281 678.128906 493.613281 678.003906 493.613281 C 677.753906 493.613281 677.382812 493.613281 677.007812 493.488281 C 676.507812 493.488281 676.257812 493.363281 676.007812 493.363281 C 675.757812 493.363281 675.507812 493.363281 675.136719 493.363281 C 674.761719 493.363281 674.511719 493.363281 674.261719 493.363281 C 674.011719 493.363281 673.886719 493.238281 673.886719 492.863281 C 673.886719 491.738281 673.886719 489.992188 674.011719 487.621094 C 674.136719 485.25 674.136719 483.503906 674.136719 482.378906 C 674.136719 479.011719 674.011719 475.515625 673.761719 471.648438 L 673.761719 471.398438 C 673.761719 471.148438 673.886719 471.023438 674.136719 471.023438 C 674.761719 471.023438 675.632812 471.023438 676.757812 471.023438 C 677.878906 471.023438 678.753906 471.023438 679.378906 471.023438 C 679.878906 471.023438 680.625 471.023438 681.625 470.898438 C 682.621094 470.898438 683.371094 470.773438 683.871094 470.773438 C 686.242188 470.773438 688.113281 471.523438 689.734375 473.144531 C 691.109375 475.390625 691.859375 477.390625 691.859375 479.636719 M 687.863281 479.882812 C 687.863281 478.261719 687.488281 477.015625 686.617188 476.015625 C 685.742188 475.015625 684.496094 474.519531 682.871094 474.519531 C 682.375 474.519531 681.5 474.519531 680.25 474.644531 C 678.753906 474.769531 678.003906 474.769531 678.003906 474.894531 C 677.878906 475.015625 677.878906 476.890625 677.878906 480.382812 C 677.878906 480.882812 677.878906 481.507812 677.878906 482.378906 C 677.878906 483.253906 677.878906 484.003906 677.878906 484.378906 C 677.878906 484.503906 678.003906 484.503906 678.253906 484.625 C 678.878906 484.75 680.5 484.75 683.121094 484.75 C 684.621094 484.75 685.742188 484.253906 686.617188 483.378906 C 687.488281 482.628906 687.863281 481.382812 687.863281 479.882812 " fill-opacity="1" fill-rule="nonzero"/></svg>