<svg xmlns="http://www.w3.org/2000/svg" xmlns:xlink="http://www.w3.org/1999/xlink" width="1024" zoomAndPan="magnify" viewBox="0 0 768 775.92" height="1024" preserveAspectRatio="xMidYMid meet" version="1.0"><defs><clipPath id="447a3a2f4e"><path d="M 0.0390625 0 L 767.960938 0 L 767.960938 767.921875 L 0.0390625 767.921875 Z M 0.0390625 0 " clip-rule="nonzero"/></clipPath></defs><g clip-path="url(#447a3a2f4e)"><path fill="#ffffff" d="M 0.0390625 0 L 767.960938 0 L 767.960938 767.921875 L 0.0390625 767.921875 Z M 0.0390625 0 " fill-opacity="1" fill-rule="nonzero"/><path fill="#ffffff" d="M 0.0390625 0 L 767.960938 0 L 767.960938 767.921875 L 0.0390625 767.921875 Z M 0.0390625 0 " fill-opacity="1" fill-rule="nonzero"/></g><path fill="#000000" d="M 185.710938 415.042969 L 153.039062 320.152344 C 151.449219 315.585938 145.589844 314.394531 142.511719 318.066406 L 125.132812 338.613281 L 141.121094 385.066406 C 142.511719 389.039062 139.632812 393.109375 135.460938 393.109375 L 79.054688 393.109375 L 61.480469 413.851562 C 58.398438 417.527344 61.082031 423.085938 65.949219 423.085938 L 180.148438 423.085938 C 184.21875 423.085938 187.101562 419.015625 185.710938 415.042969 Z M 185.710938 415.042969 " fill-opacity="1" fill-rule="nonzero"/><path fill="#ffeb00" d="M 108.449219 290.175781 L 141.121094 385.066406 C 142.511719 389.039062 139.632812 393.109375 135.460938 393.109375 L 21.359375 393.109375 C 16.59375 393.109375 13.910156 387.449219 16.890625 383.878906 L 97.921875 288.089844 C 101.003906 284.417969 106.960938 285.609375 108.449219 290.175781 Z M 108.449219 290.175781 " fill-opacity="1" fill-rule="nonzero"/><path fill="#000000" d="M 432.878906 473.609375 C 428.410156 472.21875 426.425781 471.425781 426.425781 468.84375 C 426.425781 466.558594 429.503906 465.765625 432.085938 465.765625 C 434.371094 465.765625 436.851562 466.460938 438.539062 467.554688 C 438.9375 467.851562 439.433594 467.851562 439.832031 467.75 C 440.328125 467.652344 440.625 467.355469 440.925781 466.859375 L 441.71875 465.367188 C 442.117188 464.574219 441.816406 463.683594 441.121094 463.183594 C 438.738281 461.597656 435.261719 460.605469 432.183594 460.605469 C 425.730469 460.605469 421.261719 463.980469 421.261719 468.941406 C 421.261719 475.394531 426.722656 477.082031 431.09375 478.371094 C 435.660156 479.761719 437.648438 480.65625 437.648438 483.335938 C 437.648438 486.113281 434.46875 487.007812 431.390625 487.007812 C 428.511719 487.007812 425.332031 485.417969 423.445312 483.730469 C 423.050781 483.335938 422.550781 483.136719 422.054688 483.234375 C 421.558594 483.335938 421.0625 483.632812 420.863281 484.03125 L 419.96875 485.519531 C 419.574219 486.214844 419.671875 487.007812 420.269531 487.503906 C 423.148438 490.285156 427.417969 492.070312 431.390625 492.070312 C 438.242188 492.070312 442.8125 488.496094 442.8125 483.335938 C 442.910156 476.683594 437.347656 474.996094 432.878906 473.609375 " fill-opacity="1" fill-rule="nonzero"/><path fill="#000000" d="M 462.96875 461.695312 C 462.671875 461.101562 462.074219 460.703125 461.480469 460.703125 L 459.59375 460.703125 C 458.898438 460.703125 458.402344 461.101562 458.105469 461.695312 L 445.394531 489.6875 C 445.195312 490.183594 445.195312 490.78125 445.492188 491.277344 C 445.789062 491.773438 446.285156 492.070312 446.882812 492.070312 L 448.769531 492.070312 C 449.464844 492.070312 449.960938 491.671875 450.257812 491.078125 L 453.4375 484.03125 L 467.738281 484.03125 L 470.914062 491.078125 C 471.210938 491.671875 471.808594 492.070312 472.402344 492.070312 L 474.289062 492.070312 C 474.886719 492.070312 475.382812 491.773438 475.679688 491.277344 C 475.980469 490.78125 476.078125 490.183594 475.78125 489.6875 Z M 455.621094 479.066406 L 460.488281 468.246094 L 465.351562 479.066406 Z M 455.621094 479.066406 " fill-opacity="1" fill-rule="nonzero"/><path fill="#000000" d="M 484.121094 460.703125 L 482.433594 460.703125 C 481.539062 460.703125 480.746094 461.496094 480.746094 462.390625 L 480.746094 490.382812 C 480.746094 491.277344 481.539062 492.070312 482.433594 492.070312 L 484.121094 492.070312 C 485.015625 492.070312 485.808594 491.277344 485.808594 490.382812 L 485.808594 462.390625 C 485.710938 461.496094 485.015625 460.703125 484.121094 460.703125 " fill-opacity="1" fill-rule="nonzero"/><path fill="#000000" d="M 519.078125 460.703125 L 517.390625 460.703125 C 516.496094 460.703125 515.699219 461.496094 515.699219 462.390625 L 515.699219 482.839844 L 500.011719 461.496094 C 499.710938 461.101562 499.214844 460.804688 498.71875 460.804688 L 496.734375 460.804688 C 495.839844 460.804688 495.046875 461.597656 495.046875 462.492188 L 495.046875 490.480469 C 495.046875 491.375 495.839844 492.167969 496.734375 492.167969 L 498.421875 492.167969 C 499.316406 492.167969 500.109375 491.375 500.109375 490.480469 L 500.109375 470.132812 L 515.800781 491.472656 C 516.097656 491.871094 516.59375 492.167969 517.089844 492.167969 L 519.078125 492.167969 C 519.972656 492.167969 520.765625 491.375 520.765625 490.480469 L 520.765625 462.492188 C 520.664062 461.496094 519.972656 460.703125 519.078125 460.703125 " fill-opacity="1" fill-rule="nonzero"/><path fill="#000000" d="M 547.976562 460.703125 L 527.320312 460.703125 C 526.425781 460.703125 525.632812 461.496094 525.632812 462.390625 L 525.632812 464.078125 C 525.632812 464.972656 526.425781 465.765625 527.320312 465.765625 L 535.164062 465.765625 L 535.164062 490.480469 C 535.164062 491.375 535.960938 492.167969 536.851562 492.167969 L 538.539062 492.167969 C 539.433594 492.167969 540.230469 491.375 540.230469 490.480469 L 540.230469 465.667969 L 548.074219 465.667969 C 548.96875 465.667969 549.761719 464.871094 549.761719 463.980469 L 549.761719 462.292969 C 549.664062 461.496094 548.867188 460.703125 547.976562 460.703125 " fill-opacity="1" fill-rule="nonzero"/><path fill="#000000" d="M 560.289062 475.988281 L 551.351562 475.988281 C 550.457031 475.988281 549.664062 476.785156 549.664062 477.675781 L 549.664062 479.066406 C 549.664062 479.960938 550.457031 480.753906 551.351562 480.753906 L 560.289062 480.753906 C 561.183594 480.753906 561.976562 479.960938 561.976562 479.066406 L 561.976562 477.675781 C 561.976562 476.683594 561.183594 475.988281 560.289062 475.988281 " fill-opacity="1" fill-rule="nonzero"/><path fill="#000000" d="M 595.144531 474.996094 L 588.691406 474.996094 C 587.796875 474.996094 587 475.792969 587 476.683594 L 587 478.371094 C 587 479.265625 587.796875 480.058594 588.691406 480.058594 L 592.066406 480.058594 L 592.066406 485.222656 C 590.082031 486.511719 587.796875 487.304688 585.414062 487.304688 C 579.257812 487.304688 574.191406 482.441406 574.191406 476.484375 C 574.191406 470.53125 579.257812 465.667969 585.414062 465.667969 C 588.292969 465.667969 591.074219 466.757812 593.160156 468.546875 C 593.457031 468.84375 593.953125 469.042969 594.351562 468.941406 C 594.746094 468.84375 595.246094 468.644531 595.542969 468.347656 L 596.535156 467.15625 C 597.132812 466.460938 597.03125 465.46875 596.335938 464.871094 C 593.355469 462.191406 589.386719 460.804688 585.414062 460.804688 C 576.476562 460.804688 569.226562 467.851562 569.226562 476.484375 C 569.226562 485.121094 576.476562 492.167969 585.3125 492.167969 C 589.285156 492.167969 593.355469 490.679688 596.335938 488.097656 C 596.734375 487.800781 596.933594 487.304688 596.933594 486.808594 L 596.933594 476.585938 C 596.832031 475.691406 596.039062 474.996094 595.144531 474.996094 " fill-opacity="1" fill-rule="nonzero"/><path fill="#000000" d="M 618.679688 460.703125 C 609.742188 460.703125 602.492188 467.75 602.492188 476.386719 C 602.492188 485.023438 609.742188 492.070312 618.679688 492.070312 C 627.617188 492.070312 634.867188 485.023438 634.867188 476.386719 C 634.867188 467.75 627.617188 460.703125 618.679688 460.703125 M 618.679688 487.105469 C 612.523438 487.105469 607.558594 482.242188 607.558594 476.289062 C 607.558594 470.332031 612.523438 465.566406 618.679688 465.566406 C 624.835938 465.566406 629.800781 470.429688 629.800781 476.289062 C 629.800781 482.34375 624.738281 487.105469 618.679688 487.105469 " fill-opacity="1" fill-rule="nonzero"/><path fill="#000000" d="M 661.382812 475.492188 C 663.070312 474.003906 663.964844 471.921875 663.964844 469.339844 C 663.964844 464.078125 659.992188 460.703125 653.535156 460.703125 L 642.117188 460.703125 C 641.222656 460.703125 640.429688 461.496094 640.429688 462.390625 L 640.429688 490.382812 C 640.429688 491.277344 641.222656 492.070312 642.117188 492.070312 L 653.636719 492.070312 C 660.984375 492.070312 665.355469 488.597656 665.355469 482.839844 C 665.355469 479.5625 663.964844 476.984375 661.382812 475.492188 M 653.535156 473.410156 L 645.394531 473.410156 L 645.394531 465.667969 L 653.535156 465.667969 C 656.019531 465.667969 659 466.363281 659 469.539062 C 659 472.117188 657.210938 473.410156 653.535156 473.410156 M 645.492188 478.371094 L 653.636719 478.371094 C 656.21875 478.371094 660.488281 478.96875 660.488281 482.640625 C 660.488281 486.3125 656.714844 487.105469 653.636719 487.105469 L 645.492188 487.105469 Z M 645.492188 478.371094 " fill-opacity="1" fill-rule="nonzero"/><path fill="#000000" d="M 685.710938 461.695312 C 685.414062 461.101562 684.816406 460.703125 684.222656 460.703125 L 682.433594 460.703125 C 681.738281 460.703125 681.242188 461.101562 680.945312 461.695312 L 668.234375 489.6875 C 668.035156 490.183594 668.035156 490.78125 668.332031 491.277344 C 668.628906 491.773438 669.128906 492.070312 669.722656 492.070312 L 671.609375 492.070312 C 672.304688 492.070312 672.800781 491.671875 673.097656 491.078125 L 676.277344 484.03125 L 690.578125 484.03125 L 693.753906 491.078125 C 694.054688 491.671875 694.648438 492.070312 695.246094 492.070312 L 697.132812 492.070312 C 697.726562 492.070312 698.222656 491.773438 698.523438 491.277344 C 698.820312 490.78125 698.820312 490.183594 698.621094 489.6875 Z M 678.460938 479.066406 L 683.328125 468.246094 L 688.292969 479.066406 Z M 678.460938 479.066406 " fill-opacity="1" fill-rule="nonzero"/><path fill="#000000" d="M 706.863281 460.703125 L 705.175781 460.703125 C 704.28125 460.703125 703.488281 461.496094 703.488281 462.390625 L 703.488281 490.382812 C 703.488281 491.277344 704.28125 492.070312 705.175781 492.070312 L 706.863281 492.070312 C 707.757812 492.070312 708.550781 491.277344 708.550781 490.382812 L 708.550781 462.390625 C 708.550781 461.496094 707.855469 460.703125 706.863281 460.703125 " fill-opacity="1" fill-rule="nonzero"/><path fill="#000000" d="M 741.917969 460.703125 L 740.230469 460.703125 C 739.335938 460.703125 738.542969 461.496094 738.542969 462.390625 L 738.542969 482.839844 L 722.851562 461.496094 C 722.554688 461.101562 722.058594 460.804688 721.558594 460.804688 L 719.574219 460.804688 C 718.679688 460.804688 717.886719 461.597656 717.886719 462.492188 L 717.886719 490.480469 C 717.886719 491.375 718.679688 492.167969 719.574219 492.167969 L 721.261719 492.167969 C 722.15625 492.167969 722.949219 491.375 722.949219 490.480469 L 722.949219 470.132812 L 738.640625 491.472656 C 738.9375 491.871094 739.433594 492.167969 739.933594 492.167969 L 741.917969 492.167969 C 742.8125 492.167969 743.605469 491.375 743.605469 490.480469 L 743.605469 462.492188 C 743.507812 461.496094 742.8125 460.703125 741.917969 460.703125 " fill-opacity="1" fill-rule="nonzero"/><path fill="#000000" d="M 388.886719 321.542969 C 358.5 321.542969 336.554688 344.171875 336.554688 373.355469 C 336.554688 405.8125 362.472656 425.367188 393.554688 425.367188 C 413.515625 425.367188 424.9375 418.816406 432.878906 413.554688 C 435.859375 411.570312 436.355469 407.300781 433.675781 404.820312 L 427.019531 398.566406 C 425.234375 396.878906 422.550781 396.582031 420.46875 397.871094 C 419.574219 398.367188 408.550781 405.515625 394.351562 405.515625 C 374.984375 405.515625 363.863281 393.804688 361.082031 383.578125 L 435.363281 383.578125 C 438.144531 383.578125 440.527344 381.496094 440.824219 378.714844 C 441.023438 376.828125 441.121094 375.140625 441.121094 373.453125 C 441.023438 343.675781 417.886719 321.542969 388.886719 321.542969 Z M 388.886719 341.097656 C 404.675781 341.097656 414.507812 352.214844 417.191406 364.324219 L 360.683594 364.324219 C 363.566406 351.21875 373.199219 341.097656 388.886719 341.097656 Z M 388.886719 341.097656 " fill-opacity="1" fill-rule="nonzero"/><path fill="#000000" d="M 317.6875 323.824219 L 330.296875 323.824219 C 334.070312 323.824219 336.753906 327.597656 335.460938 331.171875 L 305.171875 419.3125 C 304.378906 421.59375 302.292969 423.085938 299.910156 423.085938 L 282.433594 423.085938 C 280.050781 423.085938 277.863281 421.496094 277.167969 419.214844 L 258.101562 358.464844 L 239.035156 419.214844 C 238.339844 421.496094 236.15625 423.085938 233.773438 423.085938 L 216.296875 423.085938 C 213.914062 423.085938 211.828125 421.59375 211.03125 419.3125 L 180.746094 331.171875 C 179.550781 327.597656 182.132812 323.824219 185.90625 323.824219 L 198.519531 323.824219 C 200.902344 323.824219 203.089844 325.414062 203.78125 327.695312 L 225.035156 395.492188 L 246.582031 327.695312 C 247.277344 325.414062 249.464844 323.824219 251.847656 323.824219 L 264.261719 323.824219 C 266.644531 323.824219 268.828125 325.414062 269.523438 327.695312 L 291.171875 395.789062 L 312.324219 327.695312 C 313.117188 325.414062 315.203125 323.824219 317.6875 323.824219 Z M 317.6875 323.824219 " fill-opacity="1" fill-rule="nonzero"/><path fill="#000000" d="M 738.144531 321.742188 C 718.976562 321.742188 698.023438 328.09375 683.128906 337.917969 C 681.640625 338.914062 680.746094 340.699219 680.746094 342.484375 L 680.746094 417.527344 C 680.746094 420.601562 683.230469 423.085938 686.308594 423.085938 L 698.324219 423.085938 C 701.402344 423.085938 703.882812 420.601562 703.882812 417.527344 L 703.882812 352.511719 C 714.707031 346.257812 727.617188 343.875 738.34375 343.578125 C 741.320312 343.476562 743.605469 341.097656 743.605469 338.117188 L 743.605469 327.300781 C 743.507812 324.222656 741.125 321.742188 738.144531 321.742188 Z M 738.144531 321.742188 " fill-opacity="1" fill-rule="nonzero"/><path fill="#000000" d="M 616.792969 321.542969 C 586.40625 321.542969 564.460938 344.171875 564.460938 373.355469 C 564.460938 405.8125 590.378906 425.367188 621.363281 425.367188 C 641.320312 425.367188 652.742188 418.816406 660.6875 413.554688 C 663.664062 411.570312 664.160156 407.300781 661.480469 404.820312 L 654.828125 398.566406 C 653.039062 396.878906 650.359375 396.582031 648.273438 397.871094 C 647.378906 398.367188 636.355469 405.515625 622.15625 405.515625 C 602.792969 405.515625 591.667969 393.804688 588.886719 383.578125 L 663.167969 383.578125 C 665.949219 383.578125 668.332031 381.496094 668.628906 378.714844 C 668.828125 376.828125 668.929688 375.140625 668.929688 373.453125 C 669.027344 343.675781 645.789062 321.542969 616.792969 321.542969 Z M 616.792969 341.097656 C 632.582031 341.097656 642.414062 352.214844 645.09375 364.324219 L 588.691406 364.324219 C 591.570312 351.21875 601.101562 341.097656 616.792969 341.097656 Z M 616.792969 341.097656 " fill-opacity="1" fill-rule="nonzero"/><path fill="#000000" d="M 505.871094 321.542969 C 497.03125 321.542969 487.496094 322.632812 475.382812 330.476562 L 475.382812 291.367188 C 475.382812 288.289062 472.898438 285.808594 469.921875 285.808594 L 458.402344 285.808594 C 455.324219 285.808594 452.941406 288.289062 452.941406 291.367188 L 452.941406 395.988281 C 452.941406 398.46875 453.933594 400.851562 455.324219 402.933594 C 464.558594 416.929688 485.015625 425.367188 501.597656 425.367188 C 523.84375 425.367188 536.058594 417.527344 544.5 407.699219 C 552.742188 398.070312 556.914062 386.257812 556.914062 373.554688 C 556.714844 345.363281 535.066406 321.542969 505.871094 321.542969 Z M 502.792969 404.421875 C 490.078125 404.421875 480.945312 399.0625 475.382812 392.117188 L 475.382812 357.574219 C 479.453125 351.023438 488.691406 342.585938 502.792969 342.585938 C 520.664062 342.585938 533.875 357.375 533.875 373.554688 C 533.875 390.824219 519.175781 404.421875 502.792969 404.421875 Z M 502.792969 404.421875 " fill-opacity="1" fill-rule="nonzero"/></svg>