<svg xmlns="http://www.w3.org/2000/svg" xmlns:xlink="http://www.w3.org/1999/xlink" width="1024" zoomAndPan="magnify" viewBox="0 0 768 775.92" height="1024" preserveAspectRatio="xMidYMid meet" version="1.0"><defs><clipPath id="46996f33f0"><path d="M 0.0390625 0 L 767.960938 0 L 767.960938 767.921875 L 0.0390625 767.921875 Z M 0.0390625 0 " clip-rule="nonzero"/></clipPath><clipPath id="6b1a5fd33b"><path d="M 0.0390625 287 L 184 287 L 184 480 L 0.0390625 480 Z M 0.0390625 287 " clip-rule="nonzero"/></clipPath></defs><g clip-path="url(#46996f33f0)"><path fill="#ffffff" d="M 0.0390625 0 L 767.960938 0 L 767.960938 767.921875 L 0.0390625 767.921875 Z M 0.0390625 0 " fill-opacity="1" fill-rule="nonzero"/><path fill="#ffffff" d="M 0.0390625 0 L 767.960938 0 L 767.960938 767.921875 L 0.0390625 767.921875 Z M 0.0390625 0 " fill-opacity="1" fill-rule="nonzero"/></g><path fill="#058270" d="M 717.644531 406.90625 C 718.6875 406.90625 719.433594 407.648438 719.433594 408.691406 L 721.222656 415.398438 C 721.222656 416.441406 722.265625 417.183594 723.308594 417.183594 L 762.488281 417.183594 C 763.53125 417.183594 764.277344 416.738281 764.574219 415.695312 L 764.574219 415.398438 L 751.167969 350.886719 C 750.871094 349.398438 749.378906 348.355469 747.742188 348.355469 L 684.273438 348.355469 C 682.484375 348.355469 680.847656 349.398438 679.953125 350.886719 L 643.75 415.398438 L 643.75 415.695312 C 643.453125 416.441406 644.046875 417.035156 644.792969 417.183594 L 684.273438 417.183594 C 685.316406 417.183594 686.359375 416.441406 686.804688 415.398438 L 690.976562 408.691406 C 691.425781 407.648438 692.46875 406.90625 693.511719 406.90625 Z M 711.386719 373.683594 L 710.941406 373.683594 C 710.195312 373.683594 709.601562 374.128906 709.453125 375.023438 L 701.703125 389.027344 C 701.40625 389.472656 702.003906 390.070312 702.449219 390.367188 L 714.070312 390.367188 C 714.816406 390.367188 715.410156 389.921875 715.558594 389.027344 C 715.558594 389.027344 715.558594 389.027344 715.558594 388.730469 L 712.730469 375.023438 C 712.730469 374.128906 712.132812 373.683594 711.386719 373.683594 C 711.6875 373.683594 711.386719 373.683594 711.386719 373.683594 Z M 438.601562 402.285156 L 438.601562 403.480469 C 437.109375 411.671875 429.808594 417.929688 421.316406 418.226562 L 355.765625 418.226562 C 350.550781 418.527344 346.230469 414.355469 346.230469 409.140625 C 346.230469 408.394531 346.230469 407.648438 346.527344 406.757812 C 346.527344 406.308594 346.527344 406.011719 346.527344 405.414062 L 346.976562 402.285156 C 347.273438 401.242188 348.316406 400.5 349.359375 400.5 L 381.835938 400.5 C 382.582031 400.5 383.625 400.945312 383.625 401.988281 C 383.625 402.285156 383.625 402.285156 383.625 402.4375 L 383.625 402.882812 C 383.328125 404.671875 384.964844 406.011719 387.050781 406.011719 L 396.882812 406.011719 C 398.96875 406.011719 400.757812 404.671875 401.503906 402.882812 L 402.84375 395.878906 C 403.140625 394.390625 401.503906 393.050781 399.269531 392.304688 L 363.660156 392.304688 C 362.917969 392.304688 362.320312 392.304688 361.574219 392.304688 C 355.167969 391.558594 350.253906 385.898438 350.996094 379.34375 C 350.996094 378.894531 351.296875 378.300781 351.296875 377.851562 L 350.996094 378.894531 L 353.53125 363.996094 L 353.53125 363.105469 C 355.019531 354.910156 362.320312 348.652344 370.8125 348.355469 L 436.214844 348.355469 C 441.429688 348.054688 445.75 352.226562 445.75 357.441406 C 445.75 358.1875 445.75 358.933594 445.453125 359.828125 C 445.453125 360.273438 445.453125 360.570312 445.453125 361.167969 L 445.007812 364.296875 C 444.707031 365.339844 443.664062 366.082031 442.621094 366.082031 L 410.144531 366.082031 C 409.398438 366.082031 408.355469 365.636719 408.355469 364.742188 C 408.355469 364.445312 408.355469 364.445312 408.355469 364.296875 L 408.355469 363.847656 C 408.65625 362.0625 407.015625 360.71875 404.929688 360.71875 L 395.097656 360.71875 C 393.011719 360.71875 391.222656 362.0625 390.476562 363.847656 L 389.136719 370.851562 C 388.839844 372.339844 390.476562 373.683594 392.714844 374.425781 L 428.320312 374.425781 C 429.066406 374.425781 429.660156 374.425781 430.40625 374.425781 C 436.8125 375.171875 441.429688 381.132812 440.6875 387.539062 C 440.6875 387.984375 440.6875 388.28125 440.386719 388.878906 Z M 593.246094 361.464844 L 604.867188 361.464844 C 609.035156 361.167969 612.613281 363.996094 613.058594 368.46875 C 613.058594 369.210938 613.058594 369.808594 613.058594 370.554688 C 611.71875 375.765625 607.101562 379.34375 601.738281 379.34375 L 588.03125 379.34375 C 586.988281 379.34375 586.242188 378.597656 586.242188 377.851562 C 586.242188 377.554688 586.242188 377.554688 586.242188 377.40625 L 588.625 363.996094 C 588.925781 362.65625 589.96875 361.910156 591.160156 361.910156 Z M 582.667969 399.007812 L 579.835938 415.25 C 579.539062 416.589844 578.496094 417.335938 577.304688 417.335938 L 544.972656 417.335938 C 543.929688 417.335938 543.1875 416.589844 543.1875 415.546875 C 543.1875 415.25 543.1875 415.25 543.1875 415.097656 L 554.507812 350.292969 C 554.808594 348.949219 555.851562 348.207031 557.042969 348.207031 L 628.253906 348.207031 C 629.296875 348.207031 630.042969 348.207031 631.085938 348.503906 C 639.132812 348.949219 645.089844 355.953125 644.496094 363.996094 C 644.496094 364.742188 644.195312 365.488281 644.195312 366.382812 C 642.109375 376.511719 633.621094 383.664062 623.488281 384.257812 L 635.109375 415.25 C 634.8125 416.589844 633.769531 417.335938 632.578125 417.335938 L 594.585938 417.335938 C 593.839844 417.335938 593.246094 417.035156 593.097656 416.292969 L 587.882812 402.585938 L 586.09375 398.414062 C 585.796875 397.667969 585.347656 397.074219 584.605469 397.371094 C 583.859375 397.074219 582.816406 397.964844 582.667969 399.007812 Z M 470.332031 417.335938 C 469.289062 417.335938 468.546875 416.589844 468.546875 415.546875 C 468.546875 415.25 468.546875 415.25 468.546875 415.097656 L 476.738281 368.914062 C 477.039062 367.425781 476.292969 365.785156 474.355469 365.339844 C 474.058594 365.339844 473.910156 365.339844 473.910156 365.339844 L 453.199219 365.339844 C 452.15625 365.339844 451.414062 364.59375 451.414062 363.847656 C 451.414062 363.550781 451.414062 363.550781 451.414062 363.402344 L 453.796875 350.441406 C 454.09375 349.398438 455.136719 348.355469 456.179688 348.355469 L 543.632812 348.355469 C 544.675781 348.355469 545.421875 349.097656 545.421875 349.84375 C 545.421875 350.140625 545.421875 350.140625 545.421875 350.292969 L 543.039062 363.253906 C 542.738281 364.296875 541.695312 365.339844 540.652344 365.339844 L 518.457031 365.339844 C 516.371094 365.636719 514.878906 366.828125 514.285156 368.914062 L 506.089844 415.097656 C 505.792969 416.441406 504.75 417.183594 503.558594 417.183594 Z M 473.910156 365.339844 Z M 534.546875 365.339844 Z M 293.789062 407.203125 C 294.832031 407.203125 295.574219 407.949219 295.574219 408.691406 L 297.363281 415.398438 C 297.363281 416.441406 298.40625 417.183594 299.449219 417.183594 L 338.632812 417.183594 C 339.675781 417.183594 340.421875 416.738281 340.71875 415.695312 L 340.71875 415.398438 L 327.308594 350.886719 C 327.011719 349.398438 325.523438 348.355469 323.882812 348.355469 L 260.417969 348.355469 C 258.628906 348.355469 256.988281 349.398438 256.09375 350.886719 L 219.890625 415.398438 L 219.890625 415.695312 C 219.59375 416.441406 220.191406 417.035156 220.933594 417.183594 L 260.417969 417.183594 C 261.457031 417.183594 262.5 416.441406 262.949219 415.398438 L 267.121094 408.691406 C 267.566406 407.648438 268.609375 406.90625 269.652344 406.90625 L 293.640625 406.90625 L 293.640625 407.203125 Z M 287.53125 373.683594 L 287.085938 373.683594 C 286.339844 373.683594 285.742188 374.128906 285.59375 375.023438 L 277.847656 389.027344 C 277.550781 389.472656 278.144531 390.070312 278.59375 390.367188 L 290.210938 390.367188 C 290.957031 390.367188 291.554688 389.921875 291.703125 389.027344 L 291.703125 388.730469 L 288.871094 375.023438 C 288.871094 374.574219 288.425781 373.980469 287.828125 373.683594 C 287.828125 373.683594 287.53125 373.683594 287.53125 373.683594 Z M 287.53125 373.683594 " fill-opacity="1" fill-rule="evenodd"/><g clip-path="url(#6b1a5fd33b)"><path fill="#058270" d="M 183.242188 423.742188 C 161.042969 472.011719 103.984375 493.167969 56.011719 471.265625 C 7.441406 448.769531 -13.714844 391.707031 8.484375 343.734375 C 30.683594 295.761719 87.445312 274.011719 135.71875 296.210938 C 156.574219 305.746094 173.410156 322.578125 182.945312 343.734375 L 160.746094 343.734375 C 138.84375 307.53125 91.765625 296.507812 55.714844 318.410156 C 19.808594 340.605469 8.78125 387.539062 30.683594 423.742188 C 52.882812 459.644531 99.8125 470.96875 135.71875 448.769531 C 145.996094 442.511719 154.488281 433.871094 160.746094 423.742188 Z M 183.242188 423.742188 " fill-opacity="1" fill-rule="evenodd"/></g><path fill="#058270" d="M 129.3125 418.527344 L 181.753906 418.527344 C 188.011719 418.527344 193.820312 415.398438 197.246094 410.035156 L 202.609375 400.5 L 118.734375 400.5 Z M 129.3125 418.527344 " fill-opacity="1" fill-rule="evenodd"/><path fill="#058270" d="M 114.414062 392.453125 L 196.800781 392.453125 C 203.058594 392.453125 208.867188 389.324219 212.292969 383.960938 L 217.65625 374.425781 L 103.835938 374.425781 Z M 114.414062 392.453125 " fill-opacity="1" fill-rule="evenodd"/><path fill="#058270" d="M 81.339844 348.054688 C 74.933594 348.054688 68.675781 351.484375 65.546875 357.292969 L 30.238281 418.226562 L 66.886719 418.226562 L 95.042969 369.957031 C 96.386719 367.574219 98.621094 366.382812 101.300781 366.382812 L 211.996094 366.382812 C 218.253906 366.382812 224.0625 363.253906 227.492188 357.890625 L 232.855469 348.355469 Z M 81.339844 348.054688 " fill-opacity="1" fill-rule="evenodd"/></svg>