<svg xmlns="http://www.w3.org/2000/svg" xmlns:xlink="http://www.w3.org/1999/xlink" width="1024" zoomAndPan="magnify" viewBox="0 0 768 775.92" height="1024" preserveAspectRatio="xMidYMid meet" version="1.0"><defs><clipPath id="d00fbe9032"><path d="M 0.0390625 0 L 767.960938 0 L 767.960938 767.921875 L 0.0390625 767.921875 Z M 0.0390625 0 " clip-rule="nonzero"/></clipPath><clipPath id="b5bdd49d30"><path d="M 0.0390625 312.5 L 767.960938 312.5 L 767.960938 455.738281 L 0.0390625 455.738281 Z M 0.0390625 312.5 " clip-rule="nonzero"/></clipPath></defs><g clip-path="url(#d00fbe9032)"><path fill="#ffffff" d="M 0.0390625 0 L 767.960938 0 L 767.960938 767.921875 L 0.0390625 767.921875 Z M 0.0390625 0 " fill-opacity="1" fill-rule="nonzero"/><path fill="#ffffff" d="M 0.0390625 0 L 767.960938 0 L 767.960938 767.921875 L 0.0390625 767.921875 Z M 0.0390625 0 " fill-opacity="1" fill-rule="nonzero"/></g><g clip-path="url(#b5bdd49d30)"><path fill="#000000" d="M 241.316406 314.941406 L 259.367188 314.941406 L 259.367188 372.300781 L 271.964844 372.300781 L 280.183594 314.941406 L 307.453125 314.941406 L 317.210938 385.234375 L 301.386719 385.234375 L 299.847656 372.6875 L 288.097656 372.6875 L 286.558594 385.234375 L 241.316406 385.234375 Z M 294.164062 333.34375 L 290.015625 360.90625 L 297.929688 360.90625 Z M 454.015625 336.421875 C 453.402344 323.101562 453.097656 319.636719 442.648438 319.636719 C 432.203125 319.636719 429.050781 323.410156 429.050781 333.265625 C 429.050781 337.421875 429.976562 340.582031 432.816406 343.429688 L 455.9375 366.527344 L 455.9375 351.976562 L 462.542969 351.976562 L 462.542969 372.917969 L 475.21875 385.160156 L 465.386719 385.160156 L 459.394531 379.230469 C 456.554688 385.160156 454.019531 387.699219 442.648438 387.699219 C 426.519531 387.699219 420.527344 383.386719 420.527344 368.449219 C 420.527344 355.132812 423.984375 351.976562 429.359375 349.125 L 427.132812 346.277344 C 424.292969 342.121094 422.445312 337.421875 422.445312 332.34375 C 422.445312 319.332031 429.667969 314.558594 442.648438 314.558594 C 457.550781 314.558594 461.007812 321.5625 461.007812 336.421875 Z M 454.09375 373.917969 L 432.894531 352.667969 C 429.742188 355.824219 427.515625 359.058594 427.515625 367.914062 C 427.515625 380.230469 431.28125 382.15625 443.339844 382.15625 C 451.253906 382.15625 453.789062 380.230469 454.09375 373.917969 Z M 479.675781 314.941406 L 503.714844 314.941406 C 515.085938 314.941406 523.304688 317.484375 523.304688 328.878906 L 523.304688 365.679688 C 523.304688 379.308594 518.847656 385.234375 508.09375 385.234375 L 479.671875 385.234375 L 479.671875 314.941406 Z M 497.035156 329.261719 L 497.035156 369.449219 C 497.035156 372.609375 497.648438 374.53125 500.183594 374.53125 C 502.71875 374.53125 503.949219 372.992188 503.949219 368.835938 L 503.949219 328.878906 C 503.949219 325.722656 503.027344 324.488281 500.492188 324.488281 C 497.035156 324.488281 497.035156 326.027344 497.035156 329.261719 Z M 194.84375 314.941406 L 219.5 314.941406 C 230.945312 314.941406 237.550781 320.023438 237.550781 334.652344 C 237.550781 342.503906 235.015625 345.738281 228.71875 349.820312 C 235.015625 352.667969 238.472656 357.441406 238.472656 366.601562 C 238.472656 380.539062 232.484375 385.234375 223.339844 385.234375 L 194.84375 385.234375 Z M 212.511719 329.570312 L 212.511719 344.738281 C 218.886719 344.738281 219.808594 343.8125 219.808594 334.265625 C 219.808594 329.261719 218.886719 326.027344 215.351562 326.027344 C 213.125 326.027344 212.511719 327.03125 212.511719 329.570312 Z M 212.511719 358.289062 L 212.511719 373.839844 C 218.886719 373.839844 219.808594 372.609375 219.808594 363.0625 C 219.808594 357.671875 218.886719 354.824219 215.351562 354.824219 C 212.816406 354.824219 212.511719 355.824219 212.511719 358.289062 Z M 727.25 385.234375 L 709.273438 385.234375 L 709.273438 314.941406 L 735.46875 314.941406 C 747.222656 314.941406 751.90625 322.5625 751.90625 333.34375 C 751.90625 341.582031 750.0625 344.738281 743.378906 348.894531 C 750.371094 352.050781 751.90625 355.207031 751.90625 362.214844 L 751.90625 385.234375 L 734.546875 385.234375 L 734.546875 362.523438 C 734.546875 356.824219 733.625 353.976562 730.089844 353.976562 C 727.558594 353.976562 727.25 355.207031 727.25 357.441406 Z M 727.25 328.183594 L 727.25 343.738281 C 733.242188 343.738281 734.472656 342.503906 734.472656 333.265625 C 734.472656 328.183594 733.546875 325.027344 730.089844 325.027344 C 727.558594 325.027344 727.25 326.027344 727.25 328.183594 Z M 754.363281 321.949219 C 754.363281 318.097656 757.28125 314.941406 761.050781 314.941406 C 764.8125 314.941406 767.960938 318.097656 767.960938 321.949219 C 767.960938 325.722656 764.8125 328.570312 761.050781 328.570312 C 757.28125 328.570312 754.363281 325.722656 754.363281 321.949219 Z M 761.125 315.867188 C 757.898438 315.867188 755.363281 318.714844 755.363281 321.871094 C 755.363281 325.027344 757.898438 327.570312 761.125 327.570312 C 764.273438 327.570312 767.117188 325.027344 767.117188 321.871094 C 767.117188 318.714844 764.273438 315.867188 761.125 315.867188 Z M 758.511719 318.097656 L 760.742188 318.097656 C 762.664062 318.097656 763.890625 318.40625 763.890625 319.945312 C 763.890625 320.945312 763.582031 321.871094 762.664062 322.179688 L 763.890625 325.027344 L 762.664062 325.027344 L 761.433594 322.179688 L 759.820312 322.179688 L 759.820312 325.027344 L 758.511719 325.027344 Z M 759.820312 319.40625 L 759.820312 320.945312 L 760.816406 320.945312 C 762.046875 320.945312 762.507812 321.101562 762.507812 320.175781 C 762.507812 319.175781 762.046875 319.40625 760.816406 319.40625 Z M 123.40625 314.863281 L 41.75 455.527344 L 123.019531 455.527344 L 163.808594 385.160156 Z M 115.417969 314.941406 L 102.816406 314.941406 L 31.609375 437.820312 L 37.679688 448.292969 Z M 94.597656 314.941406 L 82 314.941406 L 21.242188 420.035156 L 27.308594 430.503906 Z M 74.089844 314.941406 L 60.800781 314.941406 L 10.488281 401.710938 L 16.863281 412.492188 Z M 6.414062 394.398438 L 52.886719 314.941406 L 39.90625 314.941406 L 0.0390625 383.695312 Z M 364.679688 314.941406 L 364.679688 385.234375 L 383.347656 385.234375 L 383.347656 350.742188 L 395.253906 385.234375 L 415.839844 385.234375 L 400.632812 349.203125 L 414.226562 314.941406 L 395.253906 314.941406 L 383.347656 347.277344 L 383.347656 314.941406 Z M 614.714844 314.941406 L 614.714844 385.234375 L 632.996094 385.234375 L 632.996094 350.742188 L 645.058594 385.234375 L 665.566406 385.234375 L 650.433594 349.203125 L 664.027344 314.941406 L 645.058594 314.941406 L 632.996094 347.277344 L 632.996094 314.941406 Z M 611.566406 342.195312 L 611.566406 330.1875 C 611.566406 319.40625 603.039062 312.710938 591.285156 312.710938 C 576.152344 312.710938 567.9375 316.867188 567.9375 334.882812 L 567.9375 369.761719 C 567.9375 380.230469 576.152344 386.160156 589.136719 386.160156 C 604.269531 386.160156 611.566406 378.613281 611.566406 366.601562 L 611.566406 354.902344 L 593.207031 354.902344 L 593.207031 368.835938 C 593.207031 372.917969 591.976562 374.226562 589.445312 374.226562 C 586.90625 374.226562 586.601562 372.609375 586.601562 369.453125 L 586.601562 329.183594 C 586.601562 326.027344 586.601562 324.410156 589.75 324.410156 C 592.285156 324.410156 593.207031 325.722656 593.207031 328.878906 L 593.207031 342.195312 Z M 361.457031 342.195312 L 361.457031 330.1875 C 361.457031 319.40625 353.234375 312.710938 341.253906 312.710938 C 326.351562 312.710938 317.824219 316.867188 317.824219 334.882812 L 317.824219 369.761719 C 317.824219 380.230469 326.351562 386.160156 339.332031 386.160156 C 354.542969 386.160156 361.457031 378.613281 361.457031 366.601562 L 361.457031 354.902344 L 343.480469 354.902344 L 343.480469 368.835938 C 343.480469 372.917969 342.175781 374.226562 339.640625 374.226562 C 337.105469 374.226562 336.492188 372.609375 336.492188 369.453125 L 336.492188 329.183594 C 336.492188 326.027344 336.796875 324.410156 339.945312 324.410156 C 342.480469 324.410156 343.480469 325.722656 343.480469 328.878906 L 343.480469 342.195312 Z M 668.792969 314.941406 L 668.792969 385.234375 L 705.433594 385.234375 L 705.433594 371.683594 L 685.847656 371.683594 L 685.847656 354.902344 L 705.433594 354.902344 L 705.433594 342.195312 L 685.847656 342.195312 L 685.847656 328.570312 L 705.433594 328.570312 L 705.433594 314.941406 Z M 527.144531 314.941406 L 527.144531 385.234375 L 563.785156 385.234375 L 563.785156 371.683594 L 544.199219 371.683594 L 544.199219 354.902344 L 563.785156 354.902344 L 563.785156 342.195312 L 544.199219 342.195312 L 544.199219 328.570312 L 563.785156 328.570312 L 563.785156 314.941406 Z M 527.144531 314.941406 " fill-opacity="1" fill-rule="evenodd"/></g></svg>