<svg xmlns="http://www.w3.org/2000/svg" xmlns:xlink="http://www.w3.org/1999/xlink" width="1024" zoomAndPan="magnify" viewBox="0 0 768 775.92" height="1024" preserveAspectRatio="xMidYMid meet" version="1.0"><defs><clipPath id="dd1266971f"><path d="M 0.0390625 0 L 767.960938 0 L 767.960938 767.921875 L 0.0390625 767.921875 Z M 0.0390625 0 " clip-rule="nonzero"/></clipPath><clipPath id="a123c89ddb"><path d="M 0.0390625 231.816406 L 767.960938 231.816406 L 767.960938 536.285156 L 0.0390625 536.285156 Z M 0.0390625 231.816406 " clip-rule="nonzero"/></clipPath></defs><g clip-path="url(#dd1266971f)"><path fill="#ffffff" d="M 0.0390625 0 L 767.960938 0 L 767.960938 767.921875 L 0.0390625 767.921875 Z M 0.0390625 0 " fill-opacity="1" fill-rule="nonzero"/><path fill="#ffffff" d="M 0.0390625 0 L 767.960938 0 L 767.960938 767.921875 L 0.0390625 767.921875 Z M 0.0390625 0 " fill-opacity="1" fill-rule="nonzero"/></g><g clip-path="url(#a123c89ddb)"><path fill="#e31e24" d="M 42.34375 232.277344 C 45.773438 231.898438 49.203125 231.898438 52.632812 231.898438 C 274.433594 231.898438 496.234375 231.898438 718.035156 231.898438 C 726.039062 231.898438 734.421875 233.804688 741.664062 237.617188 C 749.667969 242.191406 756.910156 249.058594 761.480469 257.066406 C 765.671875 264.691406 767.960938 273.082031 767.960938 281.851562 C 767.960938 350.113281 767.960938 418.371094 767.960938 486.628906 C 767.960938 494.636719 765.671875 503.027344 761.863281 510.273438 C 757.289062 518.664062 750.429688 525.527344 742.425781 530.101562 C 734.804688 534.296875 726.421875 536.203125 718.035156 536.203125 C 495.089844 536.203125 272.527344 536.203125 49.964844 536.203125 C 39.292969 536.203125 29.003906 533.152344 20.617188 527.050781 C 8.042969 517.898438 0.0390625 503.027344 0.0390625 487.394531 C 0.0390625 418.753906 0.0390625 349.730469 0.0390625 280.707031 C 0.0390625 268.125 5.375 255.539062 14.140625 246.769531 C 21.761719 239.140625 31.671875 233.804688 42.34375 232.277344 Z M 708.890625 424.089844 C 711.175781 424.089844 713.460938 424.851562 715.75 425.996094 C 718.035156 427.523438 719.941406 429.046875 721.464844 431.335938 C 722.609375 434.003906 723.371094 436.292969 723.371094 438.964844 C 723.371094 441.25 722.609375 443.921875 721.464844 446.207031 C 719.941406 448.496094 718.417969 450.023438 716.128906 451.546875 C 713.84375 452.691406 711.175781 453.453125 708.890625 453.453125 C 706.222656 453.453125 703.933594 452.691406 701.648438 451.546875 C 699.363281 450.023438 697.457031 448.496094 696.3125 446.207031 C 694.789062 443.921875 694.027344 441.25 694.027344 438.964844 C 694.027344 436.292969 694.789062 434.003906 696.3125 431.335938 C 697.457031 429.046875 699.363281 427.523438 701.648438 425.996094 C 703.933594 424.851562 706.222656 424.089844 708.890625 424.089844 Z M 708.890625 427.140625 C 706.601562 427.140625 704.699219 427.523438 703.171875 428.667969 C 701.265625 429.8125 699.742188 430.953125 698.601562 432.863281 C 697.457031 434.769531 697.074219 436.675781 697.074219 438.964844 C 697.074219 440.871094 697.457031 442.777344 698.601562 444.683594 C 699.742188 446.589844 701.265625 447.734375 702.792969 448.878906 C 704.699219 450.023438 706.601562 450.402344 708.890625 450.402344 C 710.796875 450.402344 712.699219 450.023438 714.605469 448.878906 C 716.511719 447.734375 718.035156 446.589844 718.796875 444.683594 C 719.941406 442.777344 720.324219 440.871094 720.324219 438.964844 C 720.324219 436.675781 719.941406 434.769531 718.796875 432.863281 C 717.65625 430.953125 716.511719 429.8125 714.605469 428.667969 C 712.699219 427.523438 710.796875 427.140625 708.890625 427.140625 Z M 702.03125 446.589844 L 702.03125 431.335938 L 705.460938 431.335938 C 708.128906 431.335938 710.03125 431.335938 710.03125 431.335938 C 711.175781 431.335938 711.9375 431.335938 712.699219 431.71875 C 713.082031 432.097656 713.84375 432.480469 714.226562 433.242188 C 714.605469 434.003906 714.605469 434.769531 714.605469 435.53125 C 714.605469 436.675781 714.226562 437.4375 713.460938 438.199219 C 712.699219 439.34375 711.9375 439.726562 710.414062 439.726562 C 710.796875 440.105469 711.175781 440.105469 711.558594 440.488281 C 711.9375 440.488281 712.320312 440.871094 712.699219 441.632812 C 712.699219 441.632812 713.082031 442.394531 713.84375 443.539062 L 715.75 446.589844 L 711.558594 446.589844 L 710.414062 443.921875 C 709.652344 442.394531 708.890625 441.25 708.128906 440.871094 C 707.746094 440.488281 706.984375 440.105469 706.222656 440.105469 L 705.460938 440.105469 L 705.460938 446.589844 Z M 705.460938 437.820312 L 706.601562 437.820312 C 708.507812 437.820312 709.652344 437.820312 710.03125 437.4375 C 710.414062 437.4375 710.796875 437.054688 710.796875 436.675781 C 711.175781 436.675781 711.175781 436.292969 711.175781 435.53125 C 711.175781 435.148438 711.175781 434.769531 710.796875 434.386719 C 710.796875 434.386719 710.414062 434.003906 710.03125 434.003906 C 709.652344 433.625 708.507812 433.625 706.601562 433.625 L 705.460938 433.625 Z M 254.617188 345.152344 C 260.714844 342.867188 268.335938 343.246094 273.671875 347.0625 C 277.863281 350.113281 280.53125 355.449219 280.910156 360.789062 C 280.910156 363.078125 280.910156 364.984375 280.910156 367.273438 C 268.714844 367.273438 256.519531 367.273438 244.324219 367.273438 C 244.324219 363.839844 243.945312 360.40625 245.089844 356.976562 C 246.230469 352.019531 250.042969 347.441406 254.617188 345.152344 Z M 120.085938 345.152344 C 126.183594 345.152344 132.28125 345.152344 138 345.152344 C 142.570312 345.152344 147.527344 346.296875 150.957031 349.347656 C 154.765625 352.019531 156.671875 356.59375 156.671875 361.171875 C 156.671875 375.660156 156.671875 389.769531 156.671875 404.261719 C 156.671875 408.835938 154.386719 413.792969 150.574219 416.84375 C 147.144531 419.515625 142.570312 420.660156 138 420.660156 C 132.28125 420.660156 126.183594 420.660156 120.085938 420.660156 C 120.085938 395.492188 120.085938 370.320312 120.085938 345.152344 Z M 605.609375 344.773438 C 611.328125 344.390625 617.425781 344.773438 623.523438 344.773438 C 628.097656 344.773438 633.050781 345.152344 636.859375 348.203125 C 640.671875 350.492188 641.816406 355.449219 641.054688 359.644531 C 640.292969 362.695312 638.003906 365.363281 634.957031 367.273438 C 631.527344 369.179688 626.953125 369.558594 622.761719 369.558594 C 617.042969 369.558594 611.328125 369.558594 605.609375 369.558594 C 605.230469 361.171875 605.230469 353.160156 605.609375 344.773438 Z M 497.378906 344.011719 C 501.570312 343.246094 506.523438 344.390625 509.953125 346.679688 C 514.910156 350.113281 517.957031 355.832031 517.957031 361.933594 C 517.957031 374.898438 517.957031 388.246094 517.957031 401.210938 C 517.957031 404.261719 517.957031 407.691406 516.8125 410.363281 C 514.910156 415.320312 510.714844 419.515625 505.761719 421.039062 C 500.808594 422.566406 495.472656 422.566406 490.519531 419.894531 C 486.324219 417.988281 483.277344 413.792969 482.132812 409.21875 C 480.992188 406.167969 481.371094 402.734375 481.371094 399.683594 C 481.371094 389.007812 481.371094 378.332031 481.371094 367.652344 C 481.371094 363.457031 480.992188 358.882812 482.515625 355.070312 C 484.800781 348.96875 490.898438 344.390625 497.378906 344.011719 Z M 251.949219 311.976562 C 240.894531 313.882812 230.226562 319.222656 222.601562 327.230469 C 213.835938 336 208.503906 348.203125 208.503906 360.789062 C 208.503906 375.28125 208.503906 389.390625 208.503906 403.878906 C 208.121094 419.132812 215.742188 434.386719 227.9375 443.539062 C 235.941406 449.640625 245.851562 453.453125 256.140625 454.214844 C 266.8125 455.359375 277.863281 453.835938 287.390625 449.257812 C 295.011719 445.828125 301.871094 440.871094 306.828125 434.003906 C 309.113281 431.335938 311.019531 427.902344 310.636719 424.089844 C 310.257812 420.660156 307.207031 417.988281 304.539062 415.703125 C 301.871094 413.03125 298.824219 410.363281 295.394531 408.074219 C 293.105469 406.550781 290.058594 405.785156 287.007812 406.550781 C 284.722656 407.3125 282.816406 409.21875 281.292969 411.125 C 278.246094 415.320312 274.050781 419.132812 269.097656 421.039062 C 263.761719 422.566406 257.664062 422.183594 252.710938 419.515625 C 248.898438 417.226562 246.230469 413.03125 245.089844 408.457031 C 243.945312 405.40625 244.324219 401.972656 244.324219 398.542969 C 263.382812 398.542969 282.816406 398.542969 301.871094 398.542969 C 305.683594 398.542969 309.875 397.398438 312.925781 394.347656 C 315.59375 391.296875 316.734375 387.101562 316.734375 383.289062 C 316.734375 376.421875 316.734375 369.179688 316.734375 362.3125 C 316.734375 356.976562 315.972656 352.019531 314.449219 347.0625 C 310.636719 333.332031 299.96875 321.890625 286.628906 316.171875 C 275.957031 311.214844 263.761719 310.070312 251.949219 311.976562 Z M 495.851562 311.214844 C 487.089844 311.597656 478.324219 313.882812 470.699219 318.460938 C 458.503906 325.324219 448.976562 337.527344 446.308594 351.636719 C 445.167969 357.738281 445.546875 363.839844 445.167969 369.941406 C 445.167969 381.761719 445.167969 393.203125 445.167969 404.644531 C 445.546875 416.84375 450.121094 429.046875 458.503906 437.820312 C 466.507812 446.207031 477.5625 451.929688 488.992188 453.835938 C 501.1875 455.742188 514.144531 454.597656 525.199219 448.878906 C 533.964844 444.683594 541.203125 438.199219 546.160156 430.191406 C 551.113281 422.566406 553.78125 413.03125 553.78125 403.878906 C 553.78125 389.390625 553.78125 375.28125 553.78125 360.789062 C 553.78125 346.296875 546.539062 332.570312 535.488281 323.417969 C 524.4375 314.265625 509.953125 310.453125 495.851562 311.214844 Z M 572.453125 318.839844 C 569.789062 321.890625 569.40625 326.46875 569.40625 330.664062 C 569.40625 367.652344 569.40625 405.023438 569.40625 442.011719 C 569.40625 444.683594 569.789062 446.972656 571.3125 448.878906 C 572.835938 450.785156 575.503906 451.546875 578.171875 451.929688 C 583.886719 451.929688 589.605469 451.929688 595.320312 451.929688 C 597.226562 451.929688 599.894531 451.546875 601.800781 450.402344 C 604.085938 448.878906 605.230469 445.828125 605.230469 443.15625 C 605.609375 429.046875 605.230469 414.9375 605.609375 400.828125 C 607.898438 400.828125 610.566406 400.828125 613.234375 400.828125 C 615.519531 400.828125 617.042969 402.734375 618.1875 404.644531 C 626.191406 417.988281 634.195312 431.335938 642.195312 445.0625 C 644.101562 448.496094 647.914062 451.546875 652.488281 451.546875 C 658.203125 451.929688 663.917969 451.546875 669.636719 451.929688 C 671.542969 451.929688 673.828125 451.546875 675.351562 450.402344 C 677.640625 449.257812 678.78125 446.589844 678.402344 444.300781 C 678.402344 441.25 676.496094 438.582031 675.351562 436.292969 C 669.636719 425.617188 663.917969 414.9375 658.203125 404.644531 C 657.058594 402.355469 655.152344 400.066406 654.773438 397.398438 C 654.390625 395.492188 655.917969 393.582031 657.441406 392.441406 C 660.109375 390.152344 662.777344 387.480469 665.445312 384.8125 C 672.683594 377.566406 676.878906 367.652344 677.257812 357.355469 C 677.257812 348.585938 674.972656 339.433594 669.636719 332.1875 C 665.445312 326.46875 659.347656 321.890625 652.488281 318.839844 C 643.339844 315.027344 633.050781 313.503906 622.761719 313.503906 C 610.183594 313.503906 597.609375 313.503906 585.03125 313.503906 C 580.457031 313.503906 575.503906 315.027344 572.453125 318.839844 Z M 97.21875 314.265625 C 93.410156 314.648438 89.980469 316.171875 87.3125 318.839844 C 85.023438 321.890625 84.261719 325.707031 84.261719 329.519531 C 84.261719 364.601562 84.261719 399.683594 84.261719 434.769531 C 84.261719 438.964844 84.644531 443.15625 87.3125 446.207031 C 89.980469 450.023438 94.554688 451.929688 99.125 451.929688 C 109.035156 451.929688 119.324219 451.929688 129.234375 451.929688 C 136.09375 451.546875 142.953125 451.929688 149.8125 450.785156 C 162.007812 448.878906 173.441406 443.539062 181.445312 434.003906 C 188.683594 425.996094 192.496094 415.320312 192.878906 404.644531 C 192.878906 393.203125 192.878906 381.761719 192.878906 369.941406 C 192.496094 363.839844 192.878906 357.738281 191.734375 351.636719 C 189.449219 340.960938 183.351562 331.808594 174.964844 325.324219 C 164.675781 317.316406 151.335938 313.882812 138.378906 313.882812 C 124.660156 314.265625 110.941406 313.882812 97.21875 314.265625 Z M 339.984375 314.265625 C 335.789062 314.648438 332.742188 318.460938 332.742188 322.273438 C 332.742188 362.3125 332.742188 402.734375 332.742188 442.777344 C 332.742188 445.0625 333.121094 447.351562 335.027344 449.257812 C 336.554688 451.164062 339.21875 451.929688 341.886719 451.929688 C 347.605469 451.929688 353.703125 451.929688 359.800781 451.929688 C 362.085938 451.929688 364.753906 451.164062 366.277344 449.257812 C 368.183594 447.351562 368.566406 445.0625 368.566406 442.777344 C 368.566406 428.667969 368.566406 414.558594 368.566406 400.449219 C 368.566406 399.683594 368.566406 398.542969 369.328125 398.160156 C 370.472656 397.398438 371.996094 397.777344 373.136719 398.542969 C 375.042969 399.683594 376.1875 401.972656 377.332031 403.878906 C 385.332031 417.609375 393.335938 430.953125 401.339844 444.300781 C 402.863281 446.972656 404.769531 449.257812 407.4375 450.402344 C 409.722656 451.546875 412.011719 451.929688 414.296875 451.929688 C 420.394531 451.929688 426.492188 451.929688 432.589844 451.929688 C 435.257812 451.929688 437.925781 450.402344 439.449219 448.113281 C 440.59375 445.445312 440.210938 442.394531 438.6875 440.105469 C 429.160156 422.183594 419.25 404.261719 409.722656 386.339844 C 408.582031 384.050781 406.675781 381.382812 407.820312 378.710938 C 409.34375 375.28125 411.25 372.230469 413.15625 368.796875 C 420.394531 355.070312 428.015625 341.339844 435.257812 327.613281 C 436.402344 326.085938 437.164062 324.179688 437.542969 322.273438 C 437.925781 320.367188 437.542969 318.078125 436.019531 316.554688 C 434.496094 314.648438 432.210938 313.882812 429.921875 313.882812 C 424.207031 313.882812 418.488281 313.882812 412.773438 313.882812 C 410.105469 313.882812 407.820312 315.027344 405.53125 316.554688 C 402.863281 318.460938 401.339844 321.890625 399.433594 324.941406 C 391.8125 337.527344 384.191406 350.492188 376.570312 363.457031 C 375.425781 365.363281 373.519531 367.652344 370.851562 368.035156 C 369.707031 368.035156 368.566406 367.273438 368.566406 366.128906 C 368.566406 351.636719 368.566406 337.144531 368.566406 322.65625 C 368.566406 319.984375 367.421875 317.316406 365.515625 315.792969 C 363.609375 314.265625 360.941406 313.882812 358.65625 313.882812 C 352.558594 314.265625 346.082031 313.882812 339.984375 314.265625 Z M 339.984375 314.265625 " fill-opacity="1" fill-rule="evenodd"/></g></svg>