<svg xmlns="http://www.w3.org/2000/svg" xmlns:xlink="http://www.w3.org/1999/xlink" width="1024" zoomAndPan="magnify" viewBox="0 0 768 775.92" height="1024" preserveAspectRatio="xMidYMid meet" version="1.0"><defs><clipPath id="838e39e5ed"><path d="M 0.0390625 0 L 767.960938 0 L 767.960938 767.921875 L 0.0390625 767.921875 Z M 0.0390625 0 " clip-rule="nonzero"/></clipPath><clipPath id="56dff0f027"><path d="M 1 266.6875 L 767.960938 266.6875 L 767.960938 501.410156 L 1 501.410156 Z M 1 266.6875 " clip-rule="nonzero"/></clipPath></defs><g clip-path="url(#838e39e5ed)"><path fill="#ffffff" d="M 0.0390625 0 L 767.960938 0 L 767.960938 767.921875 L 0.0390625 767.921875 Z M 0.0390625 0 " fill-opacity="1" fill-rule="nonzero"/><path fill="#ffffff" d="M 0.0390625 0 L 767.960938 0 L 767.960938 767.921875 L 0.0390625 767.921875 Z M 0.0390625 0 " fill-opacity="1" fill-rule="nonzero"/></g><g clip-path="url(#56dff0f027)"><path fill="#febd18" d="M 769.296875 501.542969 L 769.300781 265.398438 L 1.324219 265.390625 L 1.324219 501.542969 L 769.296875 501.542969 " fill-opacity="1" fill-rule="nonzero"/></g><path fill="#000000" d="M 34.386719 298.476562 L 736.273438 298.476562 L 736.273438 311.792969 L 34.386719 311.792969 Z M 34.386719 298.476562 " fill-opacity="1" fill-rule="nonzero"/><path fill="#000000" d="M 34.386719 454.996094 L 736.25 454.996094 L 736.25 468.304688 L 34.386719 468.304688 Z M 34.386719 454.996094 " fill-opacity="1" fill-rule="nonzero"/><path fill="#000000" d="M 629.792969 318.464844 L 736.28125 318.464844 L 736.28125 355.113281 L 707.417969 355.113281 L 707.417969 448.042969 L 658.546875 448.042969 L 658.546875 355.113281 L 629.792969 355.113281 L 629.792969 318.464844 " fill-opacity="1" fill-rule="nonzero"/><path fill="#000000" d="M 556.5625 318.464844 L 556.5625 448.042969 L 645.296875 448.042969 L 645.296875 409.421875 L 605.355469 409.421875 L 605.355469 318.464844 L 556.5625 318.464844 " fill-opacity="1" fill-rule="nonzero"/><path fill="#000000" d="M 456.636719 318.445312 L 510.242188 318.445312 L 551.335938 448.042969 L 503.589844 448.042969 L 498.699219 428.320312 L 468.761719 428.320312 L 464.3125 448.042969 L 414.46875 448.042969 Z M 475.417969 399.488281 L 492.046875 399.488281 L 483.921875 361.753906 L 475.417969 399.488281 " fill-opacity="1" fill-rule="nonzero"/><path fill="#000000" d="M 430.90625 318.445312 L 383.214844 318.445312 L 369.90625 381.71875 L 355.472656 318.445312 L 313.3125 318.445312 L 299.714844 381.71875 L 286.699219 318.445312 L 239.0625 318.445312 L 274.667969 448.042969 L 318.890625 448.042969 L 333.761719 384.808594 L 349.023438 448.042969 L 394.3125 448.042969 L 430.90625 318.441406 " fill-opacity="1" fill-rule="nonzero"/><path fill="#000000" d="M 168.847656 346.195312 L 239.890625 346.195312 L 239.890625 372.863281 L 205.507812 372.863281 L 205.507812 383.929688 L 235.445312 383.929688 L 235.445312 410.605469 L 205.507812 410.605469 L 205.507812 421.664062 L 239.890625 421.664062 L 239.890625 448.042969 L 168.847656 448.042969 L 168.847656 346.195312 " fill-opacity="1" fill-rule="nonzero"/><path fill="#000000" d="M 34.417969 448.042969 L 34.417969 318.445312 L 95.089844 318.445312 C 130.921875 318.445312 159.410156 337.96875 159.410156 383.507812 C 159.410156 427.828125 131.824219 448.042969 94.855469 448.042969 Z M 84.5 409.234375 C 99.871094 409.234375 110.023438 402.773438 110.023438 383.082031 C 110.023438 361.464844 99.960938 355.695312 84.597656 355.695312 L 80.675781 355.695312 L 80.675781 409.234375 L 84.5 409.234375 " fill-opacity="1" fill-rule="nonzero"/><path fill="#000000" d="M 714.023438 437.25 C 714.023438 431.15625 718.960938 426.664062 724.796875 426.664062 C 730.582031 426.664062 735.519531 431.15625 735.519531 437.25 C 735.519531 443.398438 730.582031 447.894531 724.796875 447.894531 C 718.960938 447.894531 714.023438 443.398438 714.023438 437.25 Z M 724.796875 446.128906 C 729.597656 446.128906 733.386719 442.363281 733.386719 437.25 C 733.386719 432.222656 729.597656 428.433594 724.796875 428.433594 C 719.949219 428.433594 716.15625 432.222656 716.15625 437.25 C 716.15625 442.363281 719.949219 446.128906 724.796875 446.128906 Z M 722.726562 438.632812 L 724.464844 438.632812 L 726.78125 442.539062 L 729.421875 442.539062 L 726.703125 438.472656 C 728.539062 438.246094 729.792969 437.113281 729.792969 434.882812 C 729.792969 433.011719 728.324219 431.628906 725.378906 431.628906 L 720.699219 431.628906 L 720.699219 442.539062 L 722.726562 442.539062 Z M 722.726562 436.804688 L 722.726562 433.296875 L 725.09375 433.296875 C 726.410156 433.296875 727.898438 433.382812 727.898438 434.992188 C 727.898438 436.828125 726.695312 436.804688 725.085938 436.804688 L 722.726562 436.804688 " fill-opacity="1" fill-rule="nonzero"/></svg>