<svg xmlns="http://www.w3.org/2000/svg" xmlns:xlink="http://www.w3.org/1999/xlink" width="1024" zoomAndPan="magnify" viewBox="0 0 768 775.92" height="1024" preserveAspectRatio="xMidYMid meet" version="1.0"><defs><clipPath id="98b6188d6d"><path d="M 0.0390625 0 L 767.960938 0 L 767.960938 767.921875 L 0.0390625 767.921875 Z M 0.0390625 0 " clip-rule="nonzero"/></clipPath></defs><g clip-path="url(#98b6188d6d)"><path fill="#ffffff" d="M 0.0390625 0 L 767.960938 0 L 767.960938 767.921875 L 0.0390625 767.921875 Z M 0.0390625 0 " fill-opacity="1" fill-rule="nonzero"/><path fill="#ffffff" d="M 0.0390625 0 L 767.960938 0 L 767.960938 767.921875 L 0.0390625 767.921875 Z M 0.0390625 0 " fill-opacity="1" fill-rule="nonzero"/></g><path fill="#02029a" d="M 18.332031 248.230469 L 18.332031 272.003906 L 91.296875 272.003906 C 99.78125 272.003906 104.023438 273.703125 108.265625 277.949219 C 111.660156 282.195312 111.660156 283.890625 111.660156 299.175781 L 111.660156 421.445312 C 111.660156 444.371094 107.417969 448.617188 87.054688 448.617188 L 66.691406 448.617188 L 66.691406 295.78125 L 18.332031 295.78125 L 18.332031 474.941406 L 108.265625 474.941406 C 129.472656 474.941406 135.414062 473.242188 145.597656 463.054688 C 154.929688 453.710938 156.625 446.917969 156.625 420.597656 L 156.625 292.382812 C 156.625 276.25 154.929688 270.304688 148.140625 261.816406 C 139.65625 252.472656 128.628906 248.230469 113.355469 248.230469 Z M 171.046875 474.941406 L 216.015625 474.941406 L 216.015625 359.460938 C 216.015625 350.972656 216.015625 348.421875 217.710938 345.875 C 220.257812 339.933594 227.042969 336.535156 235.527344 336.535156 C 243.164062 336.535156 248.253906 338.234375 254.191406 342.480469 L 254.191406 308.515625 C 204.136719 309.367188 188.015625 312.761719 171.046875 326.347656 Z M 288.976562 242.285156 C 274.554688 242.285156 263.523438 253.324219 263.523438 266.910156 C 263.523438 281.34375 274.554688 292.382812 288.976562 292.382812 C 302.550781 292.382812 313.582031 281.34375 313.582031 266.910156 C 313.582031 253.324219 302.550781 242.289062 288.976562 242.289062 Z M 349.214844 242.285156 C 334.792969 242.285156 323.761719 253.324219 323.761719 266.910156 C 323.761719 281.34375 334.792969 292.382812 349.214844 292.382812 C 362.789062 292.382812 373.816406 281.34375 373.816406 266.910156 C 373.816406 253.324219 362.789062 242.289062 349.214844 242.289062 Z M 330.550781 368.800781 L 291.523438 368.800781 C 276.25 368.800781 269.464844 370.5 261.828125 378.144531 C 253.34375 384.9375 249.101562 395.125 249.101562 408.710938 L 249.101562 435.03125 C 249.101562 446.917969 251.644531 455.410156 258.433594 463.054688 C 266.917969 472.394531 274.554688 474.941406 292.371094 474.941406 L 376.363281 474.941406 L 376.363281 348.421875 C 376.363281 337.386719 372.972656 328.046875 365.335938 320.40625 C 356.003906 311.0625 348.367188 308.515625 331.398438 308.515625 L 263.523438 308.515625 L 263.523438 342.480469 C 280.492188 335.6875 291.523438 333.140625 306.792969 333.140625 C 322.914062 333.140625 330.550781 338.234375 330.550781 349.273438 Z M 330.550781 448.617188 L 311.035156 448.617188 C 303.398438 448.617188 297.460938 446.070312 294.066406 440.125 C 292.371094 437.578125 292.371094 436.730469 292.371094 429.089844 L 292.371094 413.804688 C 292.371094 401.070312 298.3125 395.125 311.035156 395.125 L 330.550781 395.125 Z M 511.261719 309.367188 L 431.511719 309.367188 C 416.238281 309.367188 410.300781 311.0625 401.816406 317.855469 C 393.332031 325.5 389.089844 336.535156 389.089844 349.273438 L 389.089844 373.898438 C 389.089844 384.085938 392.484375 394.277344 399.273438 401.917969 C 407.753906 411.257812 414.542969 413.804688 431.511719 413.804688 L 467.992188 413.804688 C 484.113281 413.804688 490.902344 411.257812 498.535156 405.316406 C 507.019531 397.671875 511.261719 387.484375 511.261719 373.898438 Z M 431.511719 351.820312 C 431.511719 340.78125 438.296875 333.992188 451.027344 333.992188 C 463.75 333.992188 470.539062 340.78125 470.539062 351.820312 L 470.539062 371.351562 C 470.539062 382.386719 462.902344 389.179688 451.027344 389.179688 C 438.300781 389.179688 431.511719 382.386719 431.511719 371.351562 Z M 514.65625 460.503906 C 514.65625 447.769531 512.113281 439.277344 505.324219 431.636719 C 496.839844 422.296875 487.507812 419.746094 469.691406 419.746094 L 432.359375 419.746094 C 415.390625 419.746094 408.605469 421.445312 400.121094 428.238281 C 391.636719 435.882812 386.546875 447.769531 386.546875 460.503906 L 386.546875 485.128906 C 386.546875 497.015625 390.785156 507.207031 397.574219 514 C 406.058594 523.339844 413.695312 525.886719 432.359375 525.886719 L 469.691406 525.886719 C 485.8125 525.886719 493.445312 524.1875 501.929688 517.394531 C 510.414062 509.753906 514.65625 500.414062 514.65625 485.128906 Z M 431.511719 464.75 C 431.511719 452.015625 437.449219 445.222656 450.175781 445.222656 C 462.902344 445.222656 469.691406 452.015625 469.691406 464.75 L 469.691406 483.433594 C 469.691406 494.46875 462.902344 501.261719 451.027344 501.261719 C 438.300781 501.261719 431.511719 494.46875 431.511719 483.433594 Z M 652.101562 413.804688 L 652.101562 349.273438 C 652.101562 322.101562 637.675781 309.367188 607.132812 309.367188 L 569.804688 309.367188 C 553.683594 309.367188 546.894531 311.0625 538.410156 317.855469 C 529.929688 325.5 524.835938 336.535156 524.835938 349.273438 L 524.835938 435.03125 C 524.835938 446.917969 528.230469 455.410156 535.867188 463.902344 C 544.351562 472.394531 551.988281 474.941406 569.804688 474.941406 L 651.253906 474.941406 L 651.253906 440.976562 C 628.34375 447.769531 614.769531 449.46875 597.800781 449.46875 C 578.289062 449.46875 569.804688 445.222656 569.804688 434.183594 L 569.804688 413.804688 Z M 569.804688 387.484375 L 569.804688 353.519531 C 569.804688 340.78125 575.742188 333.992188 588.46875 333.992188 C 600.347656 333.992188 607.132812 340.78125 607.132812 352.667969 L 607.132812 387.484375 Z M 666.523438 474.941406 L 711.488281 474.941406 L 711.488281 359.460938 C 711.488281 350.972656 711.488281 348.421875 713.183594 345.875 C 715.730469 339.933594 722.519531 336.535156 731.003906 336.535156 C 738.636719 336.535156 743.726562 338.234375 749.667969 342.480469 L 749.667969 308.515625 C 699.613281 309.367188 683.492188 312.761719 666.523438 326.347656 Z M 666.523438 474.941406 " fill-opacity="1" fill-rule="evenodd"/></svg>